<svg version="1.1" xmlns="http://www.w3.org/2000/svg" xmlns:xlink="http://www.w3.org/1999/xlink" width="300" height="150" viewBox="0,0,300,150"><defs><clipPath id="clip-1"><rect x="0" y="0" transform="scale(0.75,0.75001)" width="311.92" height="328.97" fill="none" fill-rule="nonzero" stroke="none"/></clipPath></defs><g fill="none" fill-rule="none" stroke="none" stroke-width="1" stroke-linecap="butt" stroke-linejoin="miter" stroke-miterlimit="10" stroke-dasharray="" stroke-dashoffset="0" font-family="none" font-weight="none" font-size="none" text-anchor="none" style="mix-blend-mode: normal"><g clip-path="url(#clip-1)"><g id="layer_undefined"><g id="2309f0aa-9504-4e7d-b135-a851ad67aabd" fill="#f9932b" fill-rule="nonzero" stroke="#fa9228"><path d="M135.83839,108.61988l1.7475,-4.54505h0.6475l1.86,4.54505h-0.685l-0.53,-1.37751h-1.9025l-0.4975,1.37751zM137.15089,106.75236h1.54l-0.4725,-1.25751c-0.145,-0.38334 -0.2525,-0.69751 -0.3225,-0.94251c-0.05833,0.29167 -0.14,0.58084 -0.245,0.86751z"/><path d="M140.48879,108.61988v-4.54505h0.56v4.54505z"/><path d="M143.13205,108.11987l0.08,0.49501c-0.15667,0.03167 -0.2975,0.0475 -0.4225,0.0475c-0.20167,0 -0.35833,-0.03167 -0.47,-0.095c-0.11167,-0.065 -0.19,-0.14917 -0.235,-0.2525c-0.04667,-0.105 -0.07,-0.325 -0.07,-0.66001v-1.89252h-0.4075v-0.435h0.4075v-0.81501l0.555,-0.335v1.15001h0.5625v0.435h-0.5625v1.92502c0,0.15833 0.01,0.26 0.03,0.305c0.02,0.04667 0.0525,0.08333 0.0975,0.11c0.04333,0.02667 0.10667,0.04 0.19,0.04c0.06167,0 0.14333,-0.0075 0.245,-0.0225z"/><path d="M145.93129,107.55987l0.5775,0.07c-0.09167,0.33834 -0.26,0.60001 -0.505,0.78501c-0.24667,0.18667 -0.56083,0.28 -0.9425,0.28c-0.48167,0 -0.86417,-0.14833 -1.1475,-0.445c-0.28167,-0.29667 -0.4225,-0.71251 -0.4225,-1.24751c0,-0.55501 0.1425,-0.98501 0.4275,-1.29001c0.285,-0.30667 0.655,-0.46 1.11,-0.46c0.44,0 0.8,0.15 1.08,0.45c0.27833,0.3 0.4175,0.72167 0.4175,1.26501c0,0.03333 -0.00083,0.0825 -0.0025,0.1475h-2.455c0.02,0.36334 0.12167,0.64084 0.305,0.83251c0.185,0.19167 0.415,0.2875 0.69,0.2875c0.205,0 0.37917,-0.05333 0.5225,-0.16c0.145,-0.10833 0.26,-0.28 0.345,-0.51501zM144.09879,106.65736h1.84c-0.025,-0.27667 -0.09583,-0.48417 -0.2125,-0.62251c-0.17667,-0.215 -0.40667,-0.3225 -0.69,-0.3225c-0.25667,0 -0.4725,0.08583 -0.6475,0.2575c-0.175,0.17167 -0.27167,0.40084 -0.29,0.68751z"/><path d="M147.20285,108.61988v-3.29253h0.5025v0.50001c0.12833,-0.235 0.24667,-0.38917 0.355,-0.4625c0.10833,-0.075 0.2275,-0.1125 0.3575,-0.1125c0.18833,0 0.38,0.06 0.575,0.18l-0.1925,0.51751c-0.13667,-0.08 -0.27333,-0.12 -0.41,-0.12c-0.12167,0 -0.23167,0.03667 -0.33,0.11c-0.09667,0.07333 -0.16583,0.175 -0.2075,0.305c-0.06167,0.19834 -0.0925,0.415 -0.0925,0.65001v1.72502z"/><path d="M149.32245,108.61988v-3.29253h0.5025v0.4675c0.24167,-0.36167 0.59167,-0.54251 1.05,-0.54251c0.19833,0 0.38,0.03583 0.545,0.1075c0.16667,0.07167 0.29167,0.165 0.375,0.28c0.08333,0.11667 0.14083,0.25417 0.1725,0.4125c0.02167,0.10333 0.0325,0.28417 0.0325,0.54251v2.02502h-0.5575v-2.00252c0,-0.22834 -0.0225,-0.39834 -0.0675,-0.51001c-0.04333,-0.11333 -0.12,-0.20334 -0.23,-0.27c-0.11,-0.06667 -0.24,-0.1 -0.39,-0.1c-0.23667,0 -0.44167,0.075 -0.615,0.225c-0.17167,0.15167 -0.2575,0.43834 -0.2575,0.86001v1.79752z"/><path d="M155.00402,108.21487c-0.20667,0.175 -0.40583,0.29834 -0.5975,0.37c-0.19167,0.07333 -0.39667,0.11 -0.615,0.11c-0.36167,0 -0.64,-0.08833 -0.835,-0.265c-0.19333,-0.17667 -0.29,-0.4025 -0.29,-0.67751c0,-0.16167 0.03667,-0.30917 0.11,-0.4425c0.07333,-0.13333 0.16917,-0.24 0.2875,-0.32c0.11833,-0.08167 0.2525,-0.14333 0.4025,-0.185c0.10833,-0.02833 0.27333,-0.05583 0.495,-0.0825c0.45167,-0.05333 0.78333,-0.1175 0.995,-0.1925c0.00333,-0.07667 0.005,-0.125 0.005,-0.145c0,-0.22834 -0.05333,-0.38834 -0.16,-0.48c-0.14167,-0.12667 -0.35333,-0.19 -0.635,-0.19c-0.26167,0 -0.455,0.04583 -0.58,0.1375c-0.12667,0.09167 -0.21917,0.25417 -0.2775,0.4875l-0.5475,-0.0725c0.05,-0.23334 0.13167,-0.4225 0.245,-0.56751c0.11333,-0.14333 0.2775,-0.25334 0.4925,-0.33c0.215,-0.07833 0.46417,-0.1175 0.7475,-0.1175c0.28167,0 0.51,0.03333 0.685,0.1c0.17667,0.065 0.30583,0.14833 0.3875,0.25c0.08333,0.1 0.14167,0.22667 0.175,0.38c0.01833,0.095 0.0275,0.26584 0.0275,0.51251v0.74501c0,0.51834 0.01167,0.84668 0.035,0.98501c0.025,0.13667 0.0725,0.26834 0.1425,0.395h-0.5825c-0.05833,-0.115 -0.09583,-0.25 -0.1125,-0.405zM154.95652,106.96736c-0.20167,0.08333 -0.505,0.15333 -0.91,0.21c-0.23,0.03333 -0.3925,0.07083 -0.4875,0.1125c-0.095,0.04167 -0.16833,0.10167 -0.22,0.18c-0.05167,0.08 -0.0775,0.16917 -0.0775,0.2675c0,0.14833 0.05583,0.27167 0.1675,0.37c0.11333,0.1 0.27833,0.15 0.495,0.15c0.215,0 0.40667,-0.0475 0.575,-0.1425c0.16667,-0.09333 0.28917,-0.22167 0.3675,-0.385c0.06,-0.12667 0.09,-0.3125 0.09,-0.55751z"/><path d="M157.60559,108.11987l0.08,0.49501c-0.15667,0.03167 -0.2975,0.0475 -0.4225,0.0475c-0.20167,0 -0.35833,-0.03167 -0.47,-0.095c-0.11167,-0.065 -0.19,-0.14917 -0.235,-0.2525c-0.04667,-0.105 -0.07,-0.325 -0.07,-0.66001v-1.89252h-0.4075v-0.435h0.4075v-0.81501l0.555,-0.335v1.15001h0.5625v0.435h-0.5625v1.92502c0,0.15833 0.01,0.26 0.03,0.305c0.02,0.04667 0.0525,0.08333 0.0975,0.11c0.04333,0.02667 0.10667,0.04 0.19,0.04c0.06167,0 0.14333,-0.0075 0.245,-0.0225z"/><path d="M160.40482,107.55987l0.5775,0.07c-0.09167,0.33834 -0.26,0.60001 -0.505,0.78501c-0.24667,0.18667 -0.56083,0.28 -0.9425,0.28c-0.48167,0 -0.86417,-0.14833 -1.1475,-0.445c-0.28167,-0.29667 -0.4225,-0.71251 -0.4225,-1.24751c0,-0.55501 0.1425,-0.98501 0.4275,-1.29001c0.285,-0.30667 0.655,-0.46 1.11,-0.46c0.44,0 0.8,0.15 1.08,0.45c0.27833,0.3 0.4175,0.72167 0.4175,1.26501c0,0.03333 -0.00083,0.0825 -0.0025,0.1475h-2.455c0.02,0.36334 0.12167,0.64084 0.305,0.83251c0.185,0.19167 0.415,0.2875 0.69,0.2875c0.205,0 0.37917,-0.05333 0.5225,-0.16c0.145,-0.10833 0.26,-0.28 0.345,-0.51501zM158.57232,106.65736h1.84c-0.025,-0.27667 -0.09583,-0.48417 -0.2125,-0.62251c-0.17667,-0.215 -0.40667,-0.3225 -0.69,-0.3225c-0.25667,0 -0.4725,0.08583 -0.6475,0.2575c-0.175,0.17167 -0.27167,0.40084 -0.29,0.68751z"/><path d="M162.90694,109.88239v-4.55505h0.51v0.4275c0.12,-0.16667 0.255,-0.2925 0.405,-0.3775c0.15167,-0.08333 0.335,-0.125 0.55,-0.125c0.28,0 0.5275,0.0725 0.7425,0.2175c0.215,0.145 0.3775,0.34917 0.4875,0.61251c0.11,0.26334 0.165,0.55251 0.165,0.86751c0,0.33667 -0.06083,0.64001 -0.1825,0.91001c-0.12,0.26834 -0.295,0.475 -0.525,0.62001c-0.23167,0.14333 -0.47417,0.215 -0.7275,0.215c-0.18667,0 -0.35417,-0.03917 -0.5025,-0.1175c-0.14667,-0.07833 -0.2675,-0.1775 -0.3625,-0.2975v1.60252zM163.41444,106.99236c0,0.42334 0.08583,0.73667 0.2575,0.94001c0.17,0.20167 0.3775,0.3025 0.6225,0.3025c0.24833,0 0.46083,-0.105 0.6375,-0.315c0.17667,-0.21 0.265,-0.53501 0.265,-0.97501c0,-0.41834 -0.08667,-0.73251 -0.26,-0.94251c-0.17167,-0.20834 -0.3775,-0.3125 -0.6175,-0.3125c-0.23833,0 -0.44917,0.11083 -0.6325,0.3325c-0.18167,0.22334 -0.2725,0.54667 -0.2725,0.97001z"/><path d="M168.58851,108.21487c-0.20667,0.175 -0.40583,0.29834 -0.5975,0.37c-0.19167,0.07333 -0.39667,0.11 -0.615,0.11c-0.36167,0 -0.64,-0.08833 -0.835,-0.265c-0.19333,-0.17667 -0.29,-0.4025 -0.29,-0.67751c0,-0.16167 0.03667,-0.30917 0.11,-0.4425c0.07333,-0.13333 0.16917,-0.24 0.2875,-0.32c0.11833,-0.08167 0.2525,-0.14333 0.4025,-0.185c0.10833,-0.02833 0.27333,-0.05583 0.495,-0.0825c0.45167,-0.05333 0.78333,-0.1175 0.995,-0.1925c0.00333,-0.07667 0.005,-0.125 0.005,-0.145c0,-0.22834 -0.05333,-0.38834 -0.16,-0.48c-0.14167,-0.12667 -0.35333,-0.19 -0.635,-0.19c-0.26167,0 -0.455,0.04583 -0.58,0.1375c-0.12667,0.09167 -0.21917,0.25417 -0.2775,0.4875l-0.5475,-0.0725c0.05,-0.23334 0.13167,-0.4225 0.245,-0.56751c0.11333,-0.14333 0.2775,-0.25334 0.4925,-0.33c0.215,-0.07833 0.46417,-0.1175 0.7475,-0.1175c0.28167,0 0.51,0.03333 0.685,0.1c0.17667,0.065 0.30583,0.14833 0.3875,0.25c0.08333,0.1 0.14167,0.22667 0.175,0.38c0.01833,0.095 0.0275,0.26584 0.0275,0.51251v0.74501c0,0.51834 0.01167,0.84668 0.035,0.98501c0.025,0.13667 0.0725,0.26834 0.1425,0.395h-0.5825c-0.05833,-0.115 -0.09583,-0.25 -0.1125,-0.405zM168.54101,106.96736c-0.20167,0.08333 -0.505,0.15333 -0.91,0.21c-0.23,0.03333 -0.3925,0.07083 -0.4875,0.1125c-0.095,0.04167 -0.16833,0.10167 -0.22,0.18c-0.05167,0.08 -0.0775,0.16917 -0.0775,0.2675c0,0.14833 0.05583,0.27167 0.1675,0.37c0.11333,0.1 0.27833,0.15 0.495,0.15c0.215,0 0.40667,-0.0475 0.575,-0.1425c0.16667,-0.09333 0.28917,-0.22167 0.3675,-0.385c0.06,-0.12667 0.09,-0.3125 0.09,-0.55751z"/><path d="M171.19007,108.11987l0.08,0.49501c-0.15667,0.03167 -0.2975,0.0475 -0.4225,0.0475c-0.20167,0 -0.35833,-0.03167 -0.47,-0.095c-0.11167,-0.065 -0.19,-0.14917 -0.235,-0.2525c-0.04667,-0.105 -0.07,-0.325 -0.07,-0.66001v-1.89252h-0.4075v-0.435h0.4075v-0.81501l0.555,-0.335v1.15001h0.5625v0.435h-0.5625v1.92502c0,0.15833 0.01,0.26 0.03,0.305c0.02,0.04667 0.0525,0.08333 0.0975,0.11c0.04333,0.02667 0.10667,0.04 0.19,0.04c0.06167,0 0.14333,-0.0075 0.245,-0.0225z"/><path d="M172.95431,108.11987l0.08,0.49501c-0.15667,0.03167 -0.2975,0.0475 -0.4225,0.0475c-0.20167,0 -0.35833,-0.03167 -0.47,-0.095c-0.11167,-0.065 -0.19,-0.14917 -0.235,-0.2525c-0.04667,-0.105 -0.07,-0.325 -0.07,-0.66001v-1.89252h-0.4075v-0.435h0.4075v-0.81501l0.555,-0.335v1.15001h0.5625v0.435h-0.5625v1.92502c0,0.15833 0.01,0.26 0.03,0.305c0.02,0.04667 0.0525,0.08333 0.0975,0.11c0.04333,0.02667 0.10667,0.04 0.19,0.04c0.06167,0 0.14333,-0.0075 0.245,-0.0225z"/><path d="M175.75354,107.55987l0.5775,0.07c-0.09167,0.33834 -0.26,0.60001 -0.505,0.78501c-0.24667,0.18667 -0.56083,0.28 -0.9425,0.28c-0.48167,0 -0.86417,-0.14833 -1.1475,-0.445c-0.28167,-0.29667 -0.4225,-0.71251 -0.4225,-1.24751c0,-0.55501 0.1425,-0.98501 0.4275,-1.29001c0.285,-0.30667 0.655,-0.46 1.11,-0.46c0.44,0 0.8,0.15 1.08,0.45c0.27833,0.3 0.4175,0.72167 0.4175,1.26501c0,0.03333 -0.00083,0.0825 -0.0025,0.1475h-2.455c0.02,0.36334 0.12167,0.64084 0.305,0.83251c0.185,0.19167 0.415,0.2875 0.69,0.2875c0.205,0 0.37917,-0.05333 0.5225,-0.16c0.145,-0.10833 0.26,-0.28 0.345,-0.51501zM173.92104,106.65736h1.84c-0.025,-0.27667 -0.09583,-0.48417 -0.2125,-0.62251c-0.17667,-0.215 -0.40667,-0.3225 -0.69,-0.3225c-0.25667,0 -0.4725,0.08583 -0.6475,0.2575c-0.175,0.17167 -0.27167,0.40084 -0.29,0.68751z"/><path d="M177.02511,108.61988v-3.29253h0.5025v0.50001c0.12833,-0.235 0.24667,-0.38917 0.355,-0.4625c0.10833,-0.075 0.2275,-0.1125 0.3575,-0.1125c0.18833,0 0.38,0.06 0.575,0.18l-0.1925,0.51751c-0.13667,-0.08 -0.27333,-0.12 -0.41,-0.12c-0.12167,0 -0.23167,0.03667 -0.33,0.11c-0.09667,0.07333 -0.16583,0.175 -0.2075,0.305c-0.06167,0.19834 -0.0925,0.415 -0.0925,0.65001v1.72502z"/><path d="M179.14471,108.61988v-3.29253h0.5025v0.4675c0.24167,-0.36167 0.59167,-0.54251 1.05,-0.54251c0.19833,0 0.38,0.03583 0.545,0.1075c0.16667,0.07167 0.29167,0.165 0.375,0.28c0.08333,0.11667 0.14083,0.25417 0.1725,0.4125c0.02167,0.10333 0.0325,0.28417 0.0325,0.54251v2.02502h-0.5575v-2.00252c0,-0.22834 -0.0225,-0.39834 -0.0675,-0.51001c-0.04333,-0.11333 -0.12,-0.20334 -0.23,-0.27c-0.11,-0.06667 -0.24,-0.1 -0.39,-0.1c-0.23667,0 -0.44167,0.075 -0.615,0.225c-0.17167,0.15167 -0.2575,0.43834 -0.2575,0.86001v1.79752z"/></g><path d="M216.91142,162.27945l-24.08185,-41.71147c-2.02433,-3.5063 -5.76527,-5.66611 -9.81393,-5.66611h-48.16371c-4.04866,0 -7.7896,2.15982 -9.81393,5.66611l-24.08185,41.71147c-2.02433,3.5063 -2.02433,7.82593 0,11.33222l24.08185,41.71147c2.02433,3.50603 5.76527,5.66611 9.81393,5.66611h48.16371c4.04866,0 7.7896,-2.15982 9.81393,-5.66611l24.08185,-41.71147c2.02433,-3.5063 2.02433,-7.82593 0,-11.33222zM149.40878,132.69979h19.05001v2.25004h-19.05001v-2.25004zM133.17262,142.07354l1.94866,1.12502l-9.525,16.498l-1.94866,-1.12502zM133.17262,193.81759l-9.525,-16.498l1.94866,-1.12502l9.525,16.498zM168.45879,203.19161h-19.05001v-2.25004h19.05001zM158.93378,195.7025c-15.32943,0 -27.75665,-12.42708 -27.75665,-27.75694c0,-15.32985 12.42695,-27.75694 27.75665,-27.75694c15.3297,0 27.75665,12.42708 27.75665,27.75694c0,15.32985 -12.42722,27.75694 -27.75665,27.75694zM184.69495,193.81759l-1.94866,-1.12502l9.525,-16.498l1.94866,1.12502zM192.27129,159.69656l-9.525,-16.498l1.94866,-1.12502l9.525,16.498z" id="4436a6e5-ddff-45a9-9b2c-ad0827bb2f2c" fill="none" fill-rule="nonzero" stroke="#9926ff"/><g id="4102312a-fb96-45cd-a44c-e1f856319914" fill="#f9932b" fill-rule="nonzero" stroke="#fa9228"><path d="M14.99654,108.69738l1.7475,-4.54505h0.6475l1.86,4.54505h-0.685l-0.53,-1.37751h-1.9025l-0.4975,1.37751zM16.30904,106.82986h1.54l-0.4725,-1.25751c-0.145,-0.38334 -0.2525,-0.69751 -0.3225,-0.94251c-0.05833,0.29167 -0.14,0.58084 -0.245,0.86751z"/><path d="M19.64694,108.69738v-4.54505h0.56v4.54505z"/><path d="M22.29021,108.19737l0.08,0.49501c-0.15667,0.03167 -0.2975,0.0475 -0.4225,0.0475c-0.20167,0 -0.35833,-0.03167 -0.47,-0.095c-0.11167,-0.065 -0.19,-0.14917 -0.235,-0.2525c-0.04667,-0.105 -0.07,-0.325 -0.07,-0.66001v-1.89252h-0.4075v-0.435h0.4075v-0.81501l0.555,-0.335v1.15001h0.5625v0.435h-0.5625v1.92502c0,0.15833 0.01,0.26 0.03,0.305c0.02,0.04667 0.0525,0.08333 0.0975,0.11c0.04333,0.02667 0.10667,0.04 0.19,0.04c0.06167,0 0.14333,-0.0075 0.245,-0.0225z"/><path d="M25.08944,107.63737l0.5775,0.07c-0.09167,0.33834 -0.26,0.60001 -0.505,0.78501c-0.24667,0.18667 -0.56083,0.28 -0.9425,0.28c-0.48167,0 -0.86417,-0.14833 -1.1475,-0.445c-0.28167,-0.29667 -0.4225,-0.71251 -0.4225,-1.24751c0,-0.55501 0.1425,-0.98501 0.4275,-1.29001c0.285,-0.30667 0.655,-0.46 1.11,-0.46c0.44,0 0.8,0.15 1.08,0.45c0.27833,0.3 0.4175,0.72167 0.4175,1.26501c0,0.03333 -0.00083,0.0825 -0.0025,0.1475h-2.455c0.02,0.36334 0.12167,0.64084 0.305,0.83251c0.185,0.19167 0.415,0.2875 0.69,0.2875c0.205,0 0.37917,-0.05333 0.5225,-0.16c0.145,-0.10833 0.26,-0.28 0.345,-0.51501zM23.25694,106.73486h1.84c-0.025,-0.27667 -0.09583,-0.48417 -0.2125,-0.62251c-0.17667,-0.215 -0.40667,-0.3225 -0.69,-0.3225c-0.25667,0 -0.4725,0.08583 -0.6475,0.2575c-0.175,0.17167 -0.27167,0.40084 -0.29,0.68751z"/><path d="M26.36101,108.69738v-3.29253h0.5025v0.50001c0.12833,-0.235 0.24667,-0.38917 0.355,-0.4625c0.10833,-0.075 0.2275,-0.1125 0.3575,-0.1125c0.18833,0 0.38,0.06 0.575,0.18l-0.1925,0.51751c-0.13667,-0.08 -0.27333,-0.12 -0.41,-0.12c-0.12167,0 -0.23167,0.03667 -0.33,0.11c-0.09667,0.07333 -0.16583,0.175 -0.2075,0.305c-0.06167,0.19834 -0.0925,0.415 -0.0925,0.65001v1.72502z"/><path d="M28.48061,108.69738v-3.29253h0.5025v0.4675c0.24167,-0.36167 0.59167,-0.54251 1.05,-0.54251c0.19833,0 0.38,0.03583 0.545,0.1075c0.16667,0.07167 0.29167,0.165 0.375,0.28c0.08333,0.11667 0.14083,0.25417 0.1725,0.4125c0.02167,0.10333 0.0325,0.28417 0.0325,0.54251v2.02502h-0.5575v-2.00252c0,-0.22834 -0.0225,-0.39834 -0.0675,-0.51001c-0.04333,-0.11333 -0.12,-0.20334 -0.23,-0.27c-0.11,-0.06667 -0.24,-0.1 -0.39,-0.1c-0.23667,0 -0.44167,0.075 -0.615,0.225c-0.17167,0.15167 -0.2575,0.43834 -0.2575,0.86001v1.79752z"/><path d="M34.16217,108.29237c-0.20667,0.175 -0.40583,0.29834 -0.5975,0.37c-0.19167,0.07333 -0.39667,0.11 -0.615,0.11c-0.36167,0 -0.64,-0.08833 -0.835,-0.265c-0.19333,-0.17667 -0.29,-0.4025 -0.29,-0.67751c0,-0.16167 0.03667,-0.30917 0.11,-0.4425c0.07333,-0.13333 0.16917,-0.24 0.2875,-0.32c0.11833,-0.08167 0.2525,-0.14333 0.4025,-0.185c0.10833,-0.02833 0.27333,-0.05583 0.495,-0.0825c0.45167,-0.05333 0.78333,-0.1175 0.995,-0.1925c0.00333,-0.07667 0.005,-0.125 0.005,-0.145c0,-0.22834 -0.05333,-0.38834 -0.16,-0.48c-0.14167,-0.12667 -0.35333,-0.19 -0.635,-0.19c-0.26167,0 -0.455,0.04583 -0.58,0.1375c-0.12667,0.09167 -0.21917,0.25417 -0.2775,0.4875l-0.5475,-0.0725c0.05,-0.23334 0.13167,-0.4225 0.245,-0.56751c0.11333,-0.14333 0.2775,-0.25334 0.4925,-0.33c0.215,-0.07833 0.46417,-0.1175 0.7475,-0.1175c0.28167,0 0.51,0.03333 0.685,0.1c0.17667,0.065 0.30583,0.14833 0.3875,0.25c0.08333,0.1 0.14167,0.22667 0.175,0.38c0.01833,0.095 0.0275,0.26584 0.0275,0.51251v0.74501c0,0.51834 0.01167,0.84668 0.035,0.98501c0.025,0.13667 0.0725,0.26834 0.1425,0.395h-0.5825c-0.05833,-0.115 -0.09583,-0.25 -0.1125,-0.405zM34.11467,107.04486c-0.20167,0.08333 -0.505,0.15333 -0.91,0.21c-0.23,0.03333 -0.3925,0.07083 -0.4875,0.1125c-0.095,0.04167 -0.16833,0.10167 -0.22,0.18c-0.05167,0.08 -0.0775,0.16917 -0.0775,0.2675c0,0.14833 0.05583,0.27167 0.1675,0.37c0.11333,0.1 0.27833,0.15 0.495,0.15c0.215,0 0.40667,-0.0475 0.575,-0.1425c0.16667,-0.09333 0.28917,-0.22167 0.3675,-0.385c0.06,-0.12667 0.09,-0.3125 0.09,-0.55751z"/><path d="M36.76374,108.19737l0.08,0.49501c-0.15667,0.03167 -0.2975,0.0475 -0.4225,0.0475c-0.20167,0 -0.35833,-0.03167 -0.47,-0.095c-0.11167,-0.065 -0.19,-0.14917 -0.235,-0.2525c-0.04667,-0.105 -0.07,-0.325 -0.07,-0.66001v-1.89252h-0.4075v-0.435h0.4075v-0.81501l0.555,-0.335v1.15001h0.5625v0.435h-0.5625v1.92502c0,0.15833 0.01,0.26 0.03,0.305c0.02,0.04667 0.0525,0.08333 0.0975,0.11c0.04333,0.02667 0.10667,0.04 0.19,0.04c0.06167,0 0.14333,-0.0075 0.245,-0.0225z"/><path d="M39.56297,107.63737l0.5775,0.07c-0.09167,0.33834 -0.26,0.60001 -0.505,0.78501c-0.24667,0.18667 -0.56083,0.28 -0.9425,0.28c-0.48167,0 -0.86417,-0.14833 -1.1475,-0.445c-0.28167,-0.29667 -0.4225,-0.71251 -0.4225,-1.24751c0,-0.55501 0.1425,-0.98501 0.4275,-1.29001c0.285,-0.30667 0.655,-0.46 1.11,-0.46c0.44,0 0.8,0.15 1.08,0.45c0.27833,0.3 0.4175,0.72167 0.4175,1.26501c0,0.03333 -0.00083,0.0825 -0.0025,0.1475h-2.455c0.02,0.36334 0.12167,0.64084 0.305,0.83251c0.185,0.19167 0.415,0.2875 0.69,0.2875c0.205,0 0.37917,-0.05333 0.5225,-0.16c0.145,-0.10833 0.26,-0.28 0.345,-0.51501zM37.73047,106.73486h1.84c-0.025,-0.27667 -0.09583,-0.48417 -0.2125,-0.62251c-0.17667,-0.215 -0.40667,-0.3225 -0.69,-0.3225c-0.25667,0 -0.4725,0.08583 -0.6475,0.2575c-0.175,0.17167 -0.27167,0.40084 -0.29,0.68751z"/><path d="M42.06509,109.95989v-4.55505h0.51v0.4275c0.12,-0.16667 0.255,-0.2925 0.405,-0.3775c0.15167,-0.08333 0.335,-0.125 0.55,-0.125c0.28,0 0.5275,0.0725 0.7425,0.2175c0.215,0.145 0.3775,0.34917 0.4875,0.61251c0.11,0.26334 0.165,0.55251 0.165,0.86751c0,0.33667 -0.06083,0.64001 -0.1825,0.91001c-0.12,0.26834 -0.295,0.475 -0.525,0.62001c-0.23167,0.14333 -0.47417,0.215 -0.7275,0.215c-0.18667,0 -0.35417,-0.03917 -0.5025,-0.1175c-0.14667,-0.07833 -0.2675,-0.1775 -0.3625,-0.2975v1.60252zM42.57259,107.06986c0,0.42334 0.08583,0.73667 0.2575,0.94001c0.17,0.20167 0.3775,0.3025 0.6225,0.3025c0.24833,0 0.46083,-0.105 0.6375,-0.315c0.17667,-0.21 0.265,-0.53501 0.265,-0.97501c0,-0.41834 -0.08667,-0.73251 -0.26,-0.94251c-0.17167,-0.20834 -0.3775,-0.3125 -0.6175,-0.3125c-0.23833,0 -0.44917,0.11083 -0.6325,0.3325c-0.18167,0.22334 -0.2725,0.54667 -0.2725,0.97001z"/><path d="M47.74666,108.29237c-0.20667,0.175 -0.40583,0.29834 -0.5975,0.37c-0.19167,0.07333 -0.39667,0.11 -0.615,0.11c-0.36167,0 -0.64,-0.08833 -0.835,-0.265c-0.19333,-0.17667 -0.29,-0.4025 -0.29,-0.67751c0,-0.16167 0.03667,-0.30917 0.11,-0.4425c0.07333,-0.13333 0.16917,-0.24 0.2875,-0.32c0.11833,-0.08167 0.2525,-0.14333 0.4025,-0.185c0.10833,-0.02833 0.27333,-0.05583 0.495,-0.0825c0.45167,-0.05333 0.78333,-0.1175 0.995,-0.1925c0.00333,-0.07667 0.005,-0.125 0.005,-0.145c0,-0.22834 -0.05333,-0.38834 -0.16,-0.48c-0.14167,-0.12667 -0.35333,-0.19 -0.635,-0.19c-0.26167,0 -0.455,0.04583 -0.58,0.1375c-0.12667,0.09167 -0.21917,0.25417 -0.2775,0.4875l-0.5475,-0.0725c0.05,-0.23334 0.13167,-0.4225 0.245,-0.56751c0.11333,-0.14333 0.2775,-0.25334 0.4925,-0.33c0.215,-0.07833 0.46417,-0.1175 0.7475,-0.1175c0.28167,0 0.51,0.03333 0.685,0.1c0.17667,0.065 0.30583,0.14833 0.3875,0.25c0.08333,0.1 0.14167,0.22667 0.175,0.38c0.01833,0.095 0.0275,0.26584 0.0275,0.51251v0.74501c0,0.51834 0.01167,0.84668 0.035,0.98501c0.025,0.13667 0.0725,0.26834 0.1425,0.395h-0.5825c-0.05833,-0.115 -0.09583,-0.25 -0.1125,-0.405zM47.69916,107.04486c-0.20167,0.08333 -0.505,0.15333 -0.91,0.21c-0.23,0.03333 -0.3925,0.07083 -0.4875,0.1125c-0.095,0.04167 -0.16833,0.10167 -0.22,0.18c-0.05167,0.08 -0.0775,0.16917 -0.0775,0.2675c0,0.14833 0.05583,0.27167 0.1675,0.37c0.11333,0.1 0.27833,0.15 0.495,0.15c0.215,0 0.40667,-0.0475 0.575,-0.1425c0.16667,-0.09333 0.28917,-0.22167 0.3675,-0.385c0.06,-0.12667 0.09,-0.3125 0.09,-0.55751z"/><path d="M50.34823,108.19737l0.08,0.49501c-0.15667,0.03167 -0.2975,0.0475 -0.4225,0.0475c-0.20167,0 -0.35833,-0.03167 -0.47,-0.095c-0.11167,-0.065 -0.19,-0.14917 -0.235,-0.2525c-0.04667,-0.105 -0.07,-0.325 -0.07,-0.66001v-1.89252h-0.4075v-0.435h0.4075v-0.81501l0.555,-0.335v1.15001h0.5625v0.435h-0.5625v1.92502c0,0.15833 0.01,0.26 0.03,0.305c0.02,0.04667 0.0525,0.08333 0.0975,0.11c0.04333,0.02667 0.10667,0.04 0.19,0.04c0.06167,0 0.14333,-0.0075 0.245,-0.0225z"/><path d="M52.11246,108.19737l0.08,0.49501c-0.15667,0.03167 -0.2975,0.0475 -0.4225,0.0475c-0.20167,0 -0.35833,-0.03167 -0.47,-0.095c-0.11167,-0.065 -0.19,-0.14917 -0.235,-0.2525c-0.04667,-0.105 -0.07,-0.325 -0.07,-0.66001v-1.89252h-0.4075v-0.435h0.4075v-0.81501l0.555,-0.335v1.15001h0.5625v0.435h-0.5625v1.92502c0,0.15833 0.01,0.26 0.03,0.305c0.02,0.04667 0.0525,0.08333 0.0975,0.11c0.04333,0.02667 0.10667,0.04 0.19,0.04c0.06167,0 0.14333,-0.0075 0.245,-0.0225z"/><path d="M54.91169,107.63737l0.5775,0.07c-0.09167,0.33834 -0.26,0.60001 -0.505,0.78501c-0.24667,0.18667 -0.56083,0.28 -0.9425,0.28c-0.48167,0 -0.86417,-0.14833 -1.1475,-0.445c-0.28167,-0.29667 -0.4225,-0.71251 -0.4225,-1.24751c0,-0.55501 0.1425,-0.98501 0.4275,-1.29001c0.285,-0.30667 0.655,-0.46 1.11,-0.46c0.44,0 0.8,0.15 1.08,0.45c0.27833,0.3 0.4175,0.72167 0.4175,1.26501c0,0.03333 -0.00083,0.0825 -0.0025,0.1475h-2.455c0.02,0.36334 0.12167,0.64084 0.305,0.83251c0.185,0.19167 0.415,0.2875 0.69,0.2875c0.205,0 0.37917,-0.05333 0.5225,-0.16c0.145,-0.10833 0.26,-0.28 0.345,-0.51501zM53.07919,106.73486h1.84c-0.025,-0.27667 -0.09583,-0.48417 -0.2125,-0.62251c-0.17667,-0.215 -0.40667,-0.3225 -0.69,-0.3225c-0.25667,0 -0.4725,0.08583 -0.6475,0.2575c-0.175,0.17167 -0.27167,0.40084 -0.29,0.68751z"/><path d="M56.18326,108.69738v-3.29253h0.5025v0.50001c0.12833,-0.235 0.24667,-0.38917 0.355,-0.4625c0.10833,-0.075 0.2275,-0.1125 0.3575,-0.1125c0.18833,0 0.38,0.06 0.575,0.18l-0.1925,0.51751c-0.13667,-0.08 -0.27333,-0.12 -0.41,-0.12c-0.12167,0 -0.23167,0.03667 -0.33,0.11c-0.09667,0.07333 -0.16583,0.175 -0.2075,0.305c-0.06167,0.19834 -0.0925,0.415 -0.0925,0.65001v1.72502z"/><path d="M58.30286,108.69738v-3.29253h0.5025v0.4675c0.24167,-0.36167 0.59167,-0.54251 1.05,-0.54251c0.19833,0 0.38,0.03583 0.545,0.1075c0.16667,0.07167 0.29167,0.165 0.375,0.28c0.08333,0.11667 0.14083,0.25417 0.1725,0.4125c0.02167,0.10333 0.0325,0.28417 0.0325,0.54251v2.02502h-0.5575v-2.00252c0,-0.22834 -0.0225,-0.39834 -0.0675,-0.51001c-0.04333,-0.11333 -0.12,-0.20334 -0.23,-0.27c-0.11,-0.06667 -0.24,-0.1 -0.39,-0.1c-0.23667,0 -0.44167,0.075 -0.615,0.225c-0.17167,0.15167 -0.2575,0.43834 -0.2575,0.86001v1.79752z"/><path d="M64.12748,110.03489c-0.30833,-0.39 -0.56833,-0.84501 -0.78,-1.36501c-0.21333,-0.52167 -0.32,-1.06168 -0.32,-1.62002c0,-0.49167 0.07917,-0.96251 0.2375,-1.41251c0.18667,-0.52334 0.47417,-1.04418 0.8625,-1.56252h0.4c-0.25,0.43 -0.415,0.73667 -0.495,0.92001c-0.12667,0.285 -0.22583,0.58251 -0.2975,0.89251c-0.09,0.38667 -0.135,0.77584 -0.135,1.16751c0,0.99334 0.30917,1.98669 0.9275,2.98003z"/><path d="M67.91708,105.26484l-0.555,0.0425c-0.05,-0.21834 -0.12083,-0.3775 -0.2125,-0.4775c-0.15,-0.15833 -0.33583,-0.2375 -0.5575,-0.2375c-0.17667,0 -0.3325,0.04917 -0.4675,0.1475c-0.175,0.12833 -0.31333,0.31584 -0.415,0.56251c-0.10167,0.24667 -0.15417,0.59667 -0.1575,1.05001c0.13333,-0.20334 0.2975,-0.355 0.4925,-0.455c0.19333,-0.09833 0.39667,-0.1475 0.61,-0.1475c0.37167,0 0.68833,0.13667 0.95,0.41c0.26167,0.27334 0.3925,0.62751 0.3925,1.06251c0,0.285 -0.06167,0.55001 -0.185,0.79501c-0.12333,0.245 -0.2925,0.4325 -0.5075,0.56251c-0.215,0.13 -0.45833,0.195 -0.73,0.195c-0.465,0 -0.84417,-0.17084 -1.1375,-0.51251c-0.295,-0.34334 -0.4425,-0.90751 -0.4425,-1.69252c0,-0.87834 0.1625,-1.51668 0.4875,-1.91502c0.28333,-0.34834 0.665,-0.52251 1.145,-0.52251c0.35667,0 0.64917,0.10083 0.8775,0.3025c0.23,0.2 0.3675,0.47667 0.4125,0.83001zM65.63708,107.22486c0,0.19167 0.04083,0.37584 0.1225,0.55251c0.08167,0.175 0.19583,0.30834 0.3425,0.4c0.14667,0.09167 0.30083,0.1375 0.4625,0.1375c0.235,0 0.4375,-0.095 0.6075,-0.285c0.17,-0.19 0.255,-0.44834 0.255,-0.77501c0,-0.31334 -0.08417,-0.56084 -0.2525,-0.74251c-0.16667,-0.18 -0.3775,-0.27 -0.6325,-0.27c-0.25167,0 -0.465,0.09 -0.64,0.27c-0.17667,0.18167 -0.265,0.41917 -0.265,0.71251z"/><path d="M69.93169,108.69738v-3.29253h0.5025v0.4675c0.24167,-0.36167 0.59167,-0.54251 1.05,-0.54251c0.19833,0 0.38,0.03583 0.545,0.1075c0.16667,0.07167 0.29167,0.165 0.375,0.28c0.08333,0.11667 0.14083,0.25417 0.1725,0.4125c0.02167,0.10333 0.0325,0.28417 0.0325,0.54251v2.02502h-0.5575v-2.00252c0,-0.22834 -0.0225,-0.39834 -0.0675,-0.51001c-0.04333,-0.11333 -0.12,-0.20334 -0.23,-0.27c-0.11,-0.06667 -0.24,-0.1 -0.39,-0.1c-0.23667,0 -0.44167,0.075 -0.615,0.225c-0.17167,0.15167 -0.2575,0.43834 -0.2575,0.86001v1.79752z"/><path d="M75.71826,107.63737l0.5775,0.07c-0.09167,0.33834 -0.26,0.60001 -0.505,0.78501c-0.24667,0.18667 -0.56083,0.28 -0.9425,0.28c-0.48167,0 -0.86417,-0.14833 -1.1475,-0.445c-0.28167,-0.29667 -0.4225,-0.71251 -0.4225,-1.24751c0,-0.55501 0.1425,-0.98501 0.4275,-1.29001c0.285,-0.30667 0.655,-0.46 1.11,-0.46c0.44,0 0.8,0.15 1.08,0.45c0.27833,0.3 0.4175,0.72167 0.4175,1.26501c0,0.03333 -0.00083,0.0825 -0.0025,0.1475h-2.455c0.02,0.36334 0.12167,0.64084 0.305,0.83251c0.185,0.19167 0.415,0.2875 0.69,0.2875c0.205,0 0.37917,-0.05333 0.5225,-0.16c0.145,-0.10833 0.26,-0.28 0.345,-0.51501zM73.88576,106.73486h1.84c-0.025,-0.27667 -0.09583,-0.48417 -0.2125,-0.62251c-0.17667,-0.215 -0.40667,-0.3225 -0.69,-0.3225c-0.25667,0 -0.4725,0.08583 -0.6475,0.2575c-0.175,0.17167 -0.27167,0.40084 -0.29,0.68751z"/><path d="M79.24983,107.63737l0.5775,0.07c-0.09167,0.33834 -0.26,0.60001 -0.505,0.78501c-0.24667,0.18667 -0.56083,0.28 -0.9425,0.28c-0.48167,0 -0.86417,-0.14833 -1.1475,-0.445c-0.28167,-0.29667 -0.4225,-0.71251 -0.4225,-1.24751c0,-0.55501 0.1425,-0.98501 0.4275,-1.29001c0.285,-0.30667 0.655,-0.46 1.11,-0.46c0.44,0 0.8,0.15 1.08,0.45c0.27833,0.3 0.4175,0.72167 0.4175,1.26501c0,0.03333 -0.00083,0.0825 -0.0025,0.1475h-2.455c0.02,0.36334 0.12167,0.64084 0.305,0.83251c0.185,0.19167 0.415,0.2875 0.69,0.2875c0.205,0 0.37917,-0.05333 0.5225,-0.16c0.145,-0.10833 0.26,-0.28 0.345,-0.51501zM77.41733,106.73486h1.84c-0.025,-0.27667 -0.09583,-0.48417 -0.2125,-0.62251c-0.17667,-0.215 -0.40667,-0.3225 -0.69,-0.3225c-0.25667,0 -0.4725,0.08583 -0.6475,0.2575c-0.175,0.17167 -0.27167,0.40084 -0.29,0.68751z"/><path d="M82.6639,108.69738v-0.415c-0.20833,0.32667 -0.515,0.49 -0.92,0.49c-0.26333,0 -0.505,-0.0725 -0.725,-0.2175c-0.22,-0.145 -0.39083,-0.3475 -0.5125,-0.60751c-0.12,-0.25834 -0.18,-0.55584 -0.18,-0.89251c0,-0.33 0.055,-0.62834 0.165,-0.89501c0.10833,-0.26834 0.2725,-0.47334 0.4925,-0.61501c0.21833,-0.14333 0.46333,-0.215 0.735,-0.215c0.19833,0 0.375,0.04167 0.53,0.125c0.155,0.085 0.28083,0.19417 0.3775,0.3275v-1.63002h0.555v4.54505zM80.8989,107.05486c0,0.42167 0.08917,0.73667 0.2675,0.94501c0.17833,0.20834 0.38833,0.3125 0.63,0.3125c0.24333,0 0.45,-0.09917 0.62,-0.2975c0.17167,-0.2 0.2575,-0.50501 0.2575,-0.91501c0,-0.45 -0.0875,-0.78084 -0.2625,-0.99251c-0.17333,-0.21 -0.38667,-0.315 -0.64,-0.315c-0.24833,0 -0.45583,0.10083 -0.6225,0.3025c-0.16667,0.20334 -0.25,0.52334 -0.25,0.96001z"/><path d="M86.31296,107.63737l0.5775,0.07c-0.09167,0.33834 -0.26,0.60001 -0.505,0.78501c-0.24667,0.18667 -0.56083,0.28 -0.9425,0.28c-0.48167,0 -0.86417,-0.14833 -1.1475,-0.445c-0.28167,-0.29667 -0.4225,-0.71251 -0.4225,-1.24751c0,-0.55501 0.1425,-0.98501 0.4275,-1.29001c0.285,-0.30667 0.655,-0.46 1.11,-0.46c0.44,0 0.8,0.15 1.08,0.45c0.27833,0.3 0.4175,0.72167 0.4175,1.26501c0,0.03333 -0.00083,0.0825 -0.0025,0.1475h-2.455c0.02,0.36334 0.12167,0.64084 0.305,0.83251c0.185,0.19167 0.415,0.2875 0.69,0.2875c0.205,0 0.37917,-0.05333 0.5225,-0.16c0.145,-0.10833 0.26,-0.28 0.345,-0.51501zM84.48046,106.73486h1.84c-0.025,-0.27667 -0.09583,-0.48417 -0.2125,-0.62251c-0.17667,-0.215 -0.40667,-0.3225 -0.69,-0.3225c-0.25667,0 -0.4725,0.08583 -0.6475,0.2575c-0.175,0.17167 -0.27167,0.40084 -0.29,0.68751z"/><path d="M89.72703,108.69738v-0.415c-0.20833,0.32667 -0.515,0.49 -0.92,0.49c-0.26333,0 -0.505,-0.0725 -0.725,-0.2175c-0.22,-0.145 -0.39083,-0.3475 -0.5125,-0.60751c-0.12,-0.25834 -0.18,-0.55584 -0.18,-0.89251c0,-0.33 0.055,-0.62834 0.165,-0.89501c0.10833,-0.26834 0.2725,-0.47334 0.4925,-0.61501c0.21833,-0.14333 0.46333,-0.215 0.735,-0.215c0.19833,0 0.375,0.04167 0.53,0.125c0.155,0.085 0.28083,0.19417 0.3775,0.3275v-1.63002h0.555v4.54505zM87.96203,107.05486c0,0.42167 0.08917,0.73667 0.2675,0.94501c0.17833,0.20834 0.38833,0.3125 0.63,0.3125c0.24333,0 0.45,-0.09917 0.62,-0.2975c0.17167,-0.2 0.2575,-0.50501 0.2575,-0.91501c0,-0.45 -0.0875,-0.78084 -0.2625,-0.99251c-0.17333,-0.21 -0.38667,-0.315 -0.64,-0.315c-0.24833,0 -0.45583,0.10083 -0.6225,0.3025c-0.16667,0.20334 -0.25,0.52334 -0.25,0.96001z"/><path d="M91.4886,110.03489h-0.4c0.61833,-0.99334 0.9275,-1.98669 0.9275,-2.98003c0,-0.38834 -0.045,-0.77417 -0.135,-1.15751c-0.07,-0.31 -0.16833,-0.60751 -0.295,-0.89251c-0.08,-0.18667 -0.24583,-0.49667 -0.4975,-0.93001h0.4c0.38833,0.51834 0.67583,1.03918 0.8625,1.56252c0.15833,0.45 0.2375,0.92084 0.2375,1.41251c0,0.55834 -0.10667,1.09834 -0.32,1.62002c-0.215,0.52001 -0.475,0.97501 -0.78,1.36501z"/></g><path d="M30.4945,15.22313h-2.25002v2.25004h-3.13717v7.75899h-2.25002v2.25004h2.25002v4.50008h-2.25002v2.25004h2.25002v2.91918h2.01904c0.60378,0 1.15385,-0.3519 1.40732,-0.89986c2.36908,-5.12186 0.5625,-7.33115 2.16773,-10.0548c2.60165,-4.41383 10.57064,-4.97686 11.93007,-5.63992v-3.08375h-5.38718v-2.25004h-2.25002v2.25004h-4.49977l0,-2.25004z" id="8baf92fa-8660-4e72-a91b-6bf96c50ede8" fill="none" fill-rule="nonzero" stroke="#9926ff"/><path d="M30.4945,37.60157h-2.25002v2.25004h-3.13717v7.75899h-2.25002v2.25004h2.25002v4.50008h-2.25002l0,2.25004h2.25002v2.91918h2.01904c0.60378,0 1.15385,-0.3519 1.40732,-0.89986c2.36908,-5.12186 0.5625,-7.33115 2.16773,-10.0548c2.60165,-4.41383 10.57064,-4.97686 11.93007,-5.63992v-3.08375h-5.38718v-2.25004h-2.25002v2.25004h-4.49977l0,-2.25004z" id="b7b7bbf4-8ee7-4cb4-9655-6e78e3d0edcc" fill="none" fill-rule="nonzero" stroke="#9926ff"/><path d="M44.88149,59.52994h2.25002v-2.25004h3.13717l0,-7.75899h2.25002v-2.25004h-2.25002v-4.50008h2.25002v-2.25004h-2.25002v-2.91918h-2.01904c-0.60378,0 -1.15385,0.3519 -1.40732,0.89986c-2.36908,5.12186 -0.5625,7.33115 -2.16773,10.0548c-2.60165,4.41383 -10.57064,4.97686 -11.93007,5.63992l0,3.08375h5.38718v2.25004h2.25002v-2.25004h4.49977z" id="2f8d2984-2287-480c-b2c1-89432c1558cf" fill="none" fill-rule="nonzero" stroke="#9926ff"/><path d="M44.88149,37.1515h2.25002v-2.25004h3.13717v-7.75899h2.25002v-2.25004h-2.25002v-4.50008h2.25002v-2.25004h-2.25002v-2.91918h-2.01904c-0.60378,0 -1.15385,0.3519 -1.40732,0.89986c-2.36908,5.12186 -0.5625,7.33115 -2.16773,10.0548c-2.60165,4.41383 -10.57064,4.97686 -11.93007,5.63992v3.08375h5.38718v2.25004h2.25002v-2.25004h4.49977z" id="1c17941c-86f0-4037-ad07-116bb8eb1b14" fill="none" fill-rule="nonzero" stroke="#9926ff"/><path d="M60.9294,15.22313h-2.25002v2.25004h-3.13717l0,7.75899h-2.25002v2.25004h2.25002v4.50008h-2.25002v2.25004h2.25002v2.91918h2.01904c0.60378,0 1.15385,-0.3519 1.40732,-0.89986c2.36908,-5.12186 0.5625,-7.33115 2.16773,-10.0548c2.60165,-4.41383 10.57064,-4.97686 11.93007,-5.63992v-3.08375l-5.38718,0v-2.25004h-2.25002v2.25004h-4.49977l0,-2.25004z" id="236bd1e0-1c41-407f-9f36-ce0ed13d40fc" fill="none" fill-rule="nonzero" stroke="#9926ff"/><path d="M60.9294,37.60157h-2.25002v2.25004h-3.13717l0,7.75899h-2.25002v2.25004h2.25002v4.50008h-2.25002l0,2.25004h2.25002v2.91918h2.01904c0.60378,0 1.15385,-0.3519 1.40732,-0.89986c2.36908,-5.12186 0.5625,-7.33115 2.16773,-10.0548c2.60165,-4.41383 10.57064,-4.97686 11.93007,-5.63992l0,-3.08375h-5.38718v-2.25004h-2.25002v2.25004h-4.49977l0,-2.25004z" id="beda5b30-d4c1-494e-b85f-608d9f2fd1b7" fill="none" fill-rule="nonzero" stroke="#9926ff"/><path d="M75.31613,59.52994h2.25002v-2.25004h3.13717v-7.75899h2.25002v-2.25004h-2.25002v-4.50008h2.25002l0,-2.25004h-2.25002v-2.91918h-2.01904c-0.60378,0 -1.15385,0.3519 -1.40732,0.89986c-2.36908,5.12186 -0.5625,7.33115 -2.16773,10.0548c-2.60165,4.41383 -10.57064,4.97686 -11.93007,5.63992v3.08375h5.38718v2.25004h2.25002v-2.25004h4.49977l0,2.25004z" id="8219825b-908d-4216-b59a-6447c90ec59a" fill="none" fill-rule="nonzero" stroke="#9926ff"/><path d="M75.31613,37.1515h2.25002v-2.25004h3.13717v-7.75899h2.25002v-2.25004h-2.25002v-4.50008h2.25002l0,-2.25004h-2.25002v-2.91918h-2.01904c-0.60378,0 -1.15385,0.3519 -1.40732,0.89986c-2.36908,5.12186 -0.5625,7.33115 -2.16773,10.0548c-2.60165,4.41383 -10.57064,4.97686 -11.93007,5.63992v3.08375l5.38718,0v2.25004h2.25002v-2.25004h4.49977v2.25004z" id="be310a79-b7a9-4495-9d20-89e57965ec09" fill="none" fill-rule="nonzero" stroke="#9926ff"/><path d="M91.36953,14.9981h-2.25002v2.25004h-3.13717v7.75899h-2.25002v2.25004h2.25002v4.50008h-2.25002v2.25004h2.25002v2.91918h2.01904c0.60378,0 1.15385,-0.3519 1.40732,-0.89986c2.36908,-5.12186 0.5625,-7.33115 2.16773,-10.0548c2.60165,-4.41383 10.57064,-4.97686 11.93007,-5.63992v-3.08375h-5.38718v-2.25004h-2.25002v2.25004h-4.49977z" id="6f2399e5-6060-443f-8212-6a354251a9be" fill="none" fill-rule="nonzero" stroke="#9926ff"/><path d="M91.36953,37.37654h-2.25002v2.25004h-3.13717v7.75899h-2.25002v2.25004h2.25002v4.50008h-2.25002v2.25004h2.25002v2.91918h2.01904c0.60378,0 1.15385,-0.3519 1.40732,-0.89986c2.36908,-5.12186 0.5625,-7.33115 2.16773,-10.0548c2.60165,-4.41383 10.57064,-4.97686 11.93007,-5.63992v-3.08375h-5.38718v-2.25004h-2.25002v2.25004h-4.49977z" id="a55ade1d-13de-4f06-80f9-5169742d9cd0" fill="none" fill-rule="nonzero" stroke="#9926ff"/><path d="M105.75626,59.30491h2.25002v-2.25004h3.13717v-7.75899h2.25002v-2.25004h-2.25002v-4.50008h2.25002v-2.25004h-2.25002v-2.91918h-2.01904c-0.60378,0 -1.15385,0.3519 -1.40732,0.89986c-2.36908,5.12186 -0.5625,7.33115 -2.16773,10.0548c-2.60165,4.41383 -10.57064,4.97686 -11.93007,5.63992v3.08375h5.38718v2.25004h2.25002v-2.25004h4.49977z" id="c1264c13-32e3-4668-b6d5-db936c8bfbb9" fill="none" fill-rule="nonzero" stroke="#9926ff"/><path d="M105.75626,36.92647h2.25002v-2.25004h3.13717v-7.75899h2.25002v-2.25004h-2.25002v-4.50008h2.25002v-2.25004h-2.25002v-2.91918h-2.01904c-0.60378,0 -1.15385,0.3519 -1.40732,0.89986c-2.36908,5.12186 -0.5625,7.33115 -2.16773,10.0548c-2.60165,4.41383 -10.57064,4.97686 -11.93007,5.63992v3.08375h5.38718v2.25004h2.25002v-2.25004h4.49977z" id="7c465aee-c720-4323-b8e5-ade2c484f8b8" fill="none" fill-rule="nonzero" stroke="#9926ff"/><g id="g-b737f668-b02a-4f83-a93b-ada6a55cecc5" fill="#000000" fill-rule="nonzero" stroke="none" font-family="Inter, ui-sans-serif, system-ui, sans-serif" font-weight="400" font-size="16" text-anchor="start"/><g id="g-471a8570-6b29-4c02-8db4-7e419a03743c" fill="#000000" fill-rule="nonzero" stroke="none" font-family="Inter, ui-sans-serif, system-ui, sans-serif" font-weight="400" font-size="16" text-anchor="start"/><g id="g-05d5a7f1-39ea-407e-9e60-aa6d9999ee48"><path d="M70.90078,133.33417h0.43965l0.60045,-1.04011zM72.13633,131.9555l0.47865,-0.82898l-2.3796,-2.37962l1.2999,-1.30014l2.03137,2.0314l0.4785,-0.82883l-0.5298,-0.52981l1.97752,-1.97777l1.92427,-3.33296l-0.62183,-0.62176l1.2999,-1.30021l0.2736,0.2736l1.4496,-2.5108l-3.0231,-3.02291l1.3002,-1.29984l2.6745,2.6746l0.47865,-0.82906l-1.173,-1.17331l1.34325,-1.34326l-3.96015,0l-1.79437,1.79409h0.84435v2.2501h-1.60042l0.5796,0.57961l-1.30012,1.29954l-3.95242,-3.95247l1.2999,-1.29984l2.72347,2.72358v-1.30779l-0.74325,-0.74363l1.34295,-1.34319h-3.95955l-2.64345,2.6434l-1.29982,-1.30021l1.34355,-1.34319l-3.96015,0l-1.31737,1.31701l-1.32607,1.32646l-1.29982,-1.30021l1.34325,-1.34326l-3.96015,0l-2.64375,2.6434l-1.29952,-1.30021l1.34295,-1.34319h-3.95955l-2.64345,2.6434l-1.29982,-1.30021l1.34355,-1.34319l-3.96015,0l-1.31737,1.31701l-1.32607,1.32646l-1.29982,-1.30021l1.34317,-1.34326l-3.96007,0l-2.64375,2.6434l-0.11107,-0.11115v1.30756l0.78397,0.78398l-1.3002,1.29954l-3.95235,-3.95247l1.2999,-1.29984l1.12305,1.12306h1.30785l-0.45067,-0.4509l1.34287,-1.34319h-3.95947l-2.64345,2.6434l-1.1082,-1.10851l2.26095,3.91609l1.49992,-1.49994l1.29952,1.29984l-1.84792,1.84824l0.47857,0.82891l0.69697,-0.69713l3.95265,3.95277l-1.3002,1.29954l-1.70212,-1.70207l1.72477,2.98743l3.25732,-3.25766l1.3002,1.29984l-3.606,3.60604l1.44952,2.51058l0.85642,-0.85636l1.2999,1.30021l-1.20457,1.20459l0.0591,0.10253h3.79845l1.28085,-1.28086l1.32675,-1.32646l1.29952,1.30021l-1.30702,1.30711h3.96015l2.60722,-2.60733l1.2996,1.30021l-1.3071,1.30711h3.95955l2.60752,-2.60733l1.2999,1.30021l-1.3071,1.30711l3.96015,0l1.28077,-1.28086l1.32675,-1.32646l1.29952,1.30021l-1.30702,1.30711h3.96015l2.6073,-2.60733zM27.64715,114.94773l1.29217,-1.29189l-2.03805,0zM63.67513,128.7469l3.95302,3.95247l1.29953,-1.29991l-3.95235,-3.95269zM57.1154,128.7469l3.95272,3.95247l1.3002,-1.29991l-3.95302,-3.95269zM50.55545,128.7469l3.95242,3.95247l1.30012,-1.29991l-3.95265,-3.95269zM43.9952,128.7469l3.95302,3.95247l1.29952,-1.29991l-3.95235,-3.95269zM37.43548,128.7469l3.95272,3.95247l1.3002,-1.29991l-3.95302,-3.95269zM60.39575,128.11936l1.29982,1.30021l1.32607,-1.32676v-2.5177h0.00008v2.51755l2.62627,-2.62593l-1.27703,-1.27734v-0.86431h-2.25v1.26721l-3.70567,-3.70549l-1.2999,1.30021l3.95272,3.95209l1.05285,-1.05234l0,0.48833h0.81862zM40.71583,128.11936l1.29982,1.30021l1.32607,-1.32676v-2.59975zM66.9557,128.11951l1.29982,1.29984l3.95242,-3.95277l-1.2999,-1.29984zM53.83543,128.11951l1.29982,1.29984l3.95272,-3.95277l-1.3002,-1.29984zM47.27578,128.11951l1.29982,1.29984l3.95235,-3.95277l-1.29982,-1.29984zM43.3418,125.49299v2.59968l2.51782,-2.51755h1.52445l0.564,0.56393l1.29952,-1.29954l-3.95205,-3.95277l-1.3005,1.30021l1.23682,1.23646v1.30689l-0.56363,-0.56378zM37.43548,122.18703l3.95272,3.95209l1.3002,-1.29954l-3.95302,-3.95277zM70.23538,122.18695l3.95242,3.95209l1.30012,-1.29954l-3.95265,-3.95277zM63.67498,122.18695l3.95302,3.95209l1.29952,-1.29954l-3.95205,-3.95277zM50.55545,122.18695l3.95242,3.95209l1.30012,-1.29954l-3.95265,-3.95277zM73.51513,121.55957l1.3002,1.29991l3.95235,-3.95277l-1.29982,-1.29984zM66.95548,121.55957l1.3002,1.29991l3.95197,-3.95277l-1.29952,-1.29984zM53.8352,121.55957l1.3002,1.29991l3.95235,-3.95277l-1.2999,-1.29984zM47.27555,121.55957l1.30012,1.29991l3.95205,-3.95277l-1.29952,-1.29984zM34.15528,121.55957l1.30012,1.29991l3.95242,-3.95277l-1.2999,-1.29984zM60.39575,121.55942l1.29982,1.29991l1.32607,-1.32646l0,-2.59975zM40.71583,121.55942l1.29982,1.29991l1.32607,-1.32646l0,-2.59975zM63.02173,118.93297l0,2.59975l2.62627,-2.626l-1.27702,-1.27704v-1.05466h-2.25v1.45734l-3.70537,-3.70549l-1.3002,1.29984l3.95272,3.95247l1.05285,-1.05241v0.29828h1.00875zM43.3418,118.93297l0,2.59975l2.62627,-2.626l-0.08168,-0.08168h1.30755l0.75427,0.75413l1.29952,-1.29954l-3.95235,-3.95277l-1.3002,1.29984l1.23667,1.23646v1.30734l-0.56363,-0.56363zM63.67513,115.62671l3.95302,3.95247l1.29952,-1.29954l-3.95235,-3.95277zM50.55545,115.62671l3.95242,3.95247l1.30012,-1.29954l-3.95265,-3.95277zM37.43548,115.62671l3.95265,3.95247l1.3002,-1.29954l-3.95265,-3.95277z" id="0b99dd16-2981-46d7-8c9d-21c66ca939b8" fill="#f9932b" fill-rule="evenodd" stroke="#fa9228"/><path d="M38.26222,133.33418h33.07822l11.36121,-19.67833h-55.80038zM74.25853,115.45001h2.25002v2.25004h-2.25002zM62.12076,116.57503h2.25002v2.25004h-2.25002zM62.12076,123.32515h2.25002v2.25004h-2.25002zM45.23161,116.57503h2.25002v2.25004h-2.25002zM45.23161,123.32515h2.25002v2.25004h-2.25002zM35.34386,115.45001v2.25004h-2.25002v-2.25004z" id="aa7c7608-9eb9-4e97-9951-3685f6c6132b" fill="none" fill-rule="nonzero" stroke="#9926ff"/></g><g id="g-cf2deebf-f2ea-41fe-900c-ba691984d6ef"><path d="M70.90078,153.0125h0.43965l0.60045,-1.04011zM72.13633,151.63384l0.47865,-0.82898l-2.3796,-2.37962l1.2999,-1.30014l2.03137,2.0314l0.4785,-0.82883l-0.5298,-0.52981l1.97752,-1.97777l1.92427,-3.33296l-0.62183,-0.62176l1.2999,-1.30021l0.2736,0.2736l1.4496,-2.5108l-3.0231,-3.02291l1.3002,-1.29984l2.6745,2.6746l0.47865,-0.82906l-1.173,-1.17331l1.34325,-1.34326l-3.96015,0l-1.79437,1.79409h0.84435v2.2501h-1.60042l0.5796,0.57961l-1.30012,1.29954l-3.95242,-3.95247l1.2999,-1.29984l2.72347,2.72358v-1.30779l-0.74325,-0.74363l1.34295,-1.34319h-3.95955l-2.64345,2.6434l-1.29982,-1.30021l1.34355,-1.34319l-3.96015,0l-1.31737,1.31701l-1.32607,1.32646l-1.29982,-1.30021l1.34325,-1.34326h-3.96015l-2.64375,2.6434l-1.29952,-1.30021l1.34295,-1.34319h-3.95955l-2.64345,2.6434l-1.29982,-1.30021l1.34355,-1.34319h-3.96015l-1.31737,1.31701l-1.32607,1.32646l-1.29982,-1.30021l1.34317,-1.34326l-3.96007,0l-2.64375,2.6434l-0.11107,-0.11115v1.30756l0.78397,0.78398l-1.3002,1.29954l-3.95235,-3.95247l1.2999,-1.29984l1.12305,1.12306h1.30785l-0.45067,-0.4509l1.34287,-1.34319h-3.95947l-2.64345,2.6434l-1.1082,-1.10851l2.26095,3.91609l1.49992,-1.49994l1.29952,1.29984l-1.84792,1.84824l0.47857,0.82891l0.69697,-0.69713l3.95265,3.95277l-1.3002,1.29954l-1.70212,-1.70207l1.72477,2.98743l3.25732,-3.25766l1.3002,1.29984l-3.606,3.60604l1.44952,2.51058l0.85642,-0.85636l1.2999,1.30021l-1.20457,1.20459l0.0591,0.10253l3.79845,0l1.28085,-1.28086l1.32675,-1.32646l1.29952,1.30021l-1.30702,1.30711h3.96015l2.60722,-2.60733l1.2996,1.30021l-1.3071,1.30711h3.95955l2.60752,-2.60733l1.2999,1.30021l-1.3071,1.30711h3.96015l1.28077,-1.28086l1.32675,-1.32646l1.29952,1.30021l-1.30702,1.30711h3.96015l2.6073,-2.60733zM27.64715,134.62607l1.29217,-1.29189l-2.03805,0zM63.67513,148.42523l3.95302,3.95247l1.29953,-1.29991l-3.95235,-3.95269zM57.1154,148.42523l3.95272,3.95247l1.3002,-1.29991l-3.95302,-3.95269zM50.55545,148.42523l3.95242,3.95247l1.30012,-1.29991l-3.95265,-3.95269zM43.9952,148.42523l3.95302,3.95247l1.29952,-1.29991l-3.95235,-3.95269zM37.43548,148.42523l3.95272,3.95247l1.3002,-1.29991l-3.95302,-3.95269zM60.39575,147.7977l1.29982,1.30021l1.32607,-1.32676v-2.5177h0.00008v2.51755l2.62627,-2.62593l-1.27703,-1.27734v-0.86431h-2.25v1.26721l-3.70567,-3.70549l-1.2999,1.30021l3.95272,3.95209l1.05285,-1.05234l0,0.48833h0.81862zM40.71583,147.7977l1.29982,1.30021l1.32607,-1.32676v-2.59975zM66.9557,147.79785l1.29982,1.29984l3.95242,-3.95277l-1.2999,-1.29984zM53.83543,147.79785l1.29982,1.29984l3.95272,-3.95277l-1.3002,-1.29984zM47.27578,147.79785l1.29982,1.29984l3.95235,-3.95277l-1.29982,-1.29984zM43.3418,145.17133v2.59968l2.51782,-2.51755h1.52445l0.564,0.56393l1.29952,-1.29954l-3.95205,-3.95277l-1.3005,1.30021l1.23682,1.23646v1.30689l-0.56363,-0.56378zM37.43548,141.86537l3.95272,3.95209l1.3002,-1.29954l-3.95302,-3.95277zM70.23538,141.86529l3.95242,3.95209l1.30012,-1.29954l-3.95265,-3.95277zM63.67498,141.86529l3.95302,3.95209l1.29952,-1.29954l-3.95205,-3.95277zM50.55545,141.86529l3.95242,3.95209l1.30012,-1.29954l-3.95265,-3.95277zM73.51513,141.23791l1.3002,1.29991l3.95235,-3.95277l-1.29982,-1.29984zM66.95548,141.23791l1.3002,1.29991l3.95197,-3.95277l-1.29952,-1.29984zM53.8352,141.23791l1.3002,1.29991l3.95235,-3.95277l-1.2999,-1.29984zM47.27555,141.23791l1.30012,1.29991l3.95205,-3.95277l-1.29952,-1.29984zM34.15528,141.23791l1.30012,1.29991l3.95242,-3.95277l-1.2999,-1.29984zM60.39575,141.23776l1.29982,1.29991l1.32607,-1.32646l0,-2.59975zM40.71583,141.23776l1.29982,1.29991l1.32607,-1.32646l0,-2.59975zM63.02173,138.61131l0,2.59975l2.62627,-2.626l-1.27702,-1.27704v-1.05466h-2.25v1.45734l-3.70537,-3.70549l-1.3002,1.29984l3.95272,3.95247l1.05285,-1.05241v0.29828h1.00875zM43.3418,138.61131l0,2.59975l2.62627,-2.626l-0.08168,-0.08168h1.30755l0.75427,0.75413l1.29952,-1.29954l-3.95235,-3.95277l-1.3002,1.29984l1.23667,1.23646v1.30734l-0.56363,-0.56363zM63.67513,135.30505l3.95302,3.95247l1.29952,-1.29954l-3.95235,-3.95277zM50.55545,135.30505l3.95242,3.95247l1.30012,-1.29954l-3.95265,-3.95277zM37.43548,135.30505l3.95265,3.95247l1.3002,-1.29954l-3.95265,-3.95277z" id="36a14fbf-efc1-47f6-801b-471a9a171bdd" fill="#f9932b" fill-rule="evenodd" stroke="#fa9228"/><path d="M38.26222,153.01251h33.07822l11.36121,-19.67833h-55.80038zM74.25853,135.12835h2.25002v2.25004h-2.25002zM62.12076,136.25337h2.25002v2.25004h-2.25002zM62.12076,143.00349h2.25002v2.25004h-2.25002zM45.23161,136.25337h2.25002v2.25004h-2.25002zM45.23161,143.00349h2.25002v2.25004h-2.25002zM35.34386,135.12835v2.25004h-2.25002v-2.25004z" id="4a0e1ae0-3ff0-4637-a814-651d575ac2ba" fill="none" fill-rule="nonzero" stroke="#9926ff"/></g><g id="g-af870585-a479-48f2-b0a1-449bad507a3f" fill="#000000" fill-rule="nonzero" stroke="none" font-family="Inter, ui-sans-serif, system-ui, sans-serif" font-weight="400" font-size="16" text-anchor="start"/><g id="g-ec184c8a-6f45-4e20-a3ed-cba50bd2fa6a" fill="#000000" fill-rule="nonzero" stroke="none" font-family="Inter, ui-sans-serif, system-ui, sans-serif" font-weight="400" font-size="16" text-anchor="start"/><g id="g-62d88c1b-909d-4baa-8983-a967baeee337"><path d="M70.90051,172.69083h0.43965l0.60045,-1.04011zM72.13606,171.31216l0.47865,-0.82898l-2.3796,-2.37962l1.2999,-1.30014l2.03137,2.0314l0.4785,-0.82883l-0.5298,-0.52981l1.97752,-1.97777l1.92427,-3.33296l-0.62183,-0.62176l1.2999,-1.30021l0.2736,0.2736l1.4496,-2.5108l-3.0231,-3.02291l1.3002,-1.29984l2.6745,2.6746l0.47865,-0.82906l-1.173,-1.17331l1.34325,-1.34326h-3.96015l-1.79437,1.79409h0.84435v2.2501h-1.60042l0.5796,0.57961l-1.30012,1.29954l-3.95242,-3.95247l1.2999,-1.29984l2.72347,2.72358v-1.30779l-0.74325,-0.74363l1.34295,-1.34319h-3.95955l-2.64345,2.6434l-1.29982,-1.30021l1.34355,-1.34319h-3.96015l-1.31737,1.31701l-1.32607,1.32646l-1.29982,-1.30021l1.34325,-1.34326l-3.96015,0l-2.64375,2.6434l-1.29952,-1.30021l1.34295,-1.34319h-3.95955l-2.64345,2.6434l-1.29982,-1.30021l1.34355,-1.34319l-3.96015,0l-1.31737,1.31701l-1.32607,1.32646l-1.29982,-1.30021l1.34317,-1.34326h-3.96007l-2.64375,2.6434l-0.11107,-0.11115v1.30756l0.78397,0.78398l-1.3002,1.29954l-3.95235,-3.95247l1.2999,-1.29984l1.12305,1.12306h1.30785l-0.45067,-0.4509l1.34287,-1.34319h-3.95947l-2.64345,2.6434l-1.1082,-1.10851l2.26095,3.91609l1.49992,-1.49994l1.29952,1.29984l-1.84792,1.84824l0.47857,0.82891l0.69697,-0.69713l3.95265,3.95277l-1.3002,1.29954l-1.70212,-1.70207l1.72477,2.98743l3.25732,-3.25766l1.3002,1.29984l-3.606,3.60604l1.44952,2.51058l0.85642,-0.85636l1.2999,1.30021l-1.20457,1.20459l0.0591,0.10253h3.79845l1.28085,-1.28086l1.32675,-1.32646l1.29952,1.30021l-1.30702,1.30711h3.96015l2.60722,-2.60733l1.2996,1.30021l-1.3071,1.30711h3.95955l2.60752,-2.60733l1.2999,1.30021l-1.3071,1.30711l3.96015,0l1.28077,-1.28086l1.32675,-1.32646l1.29952,1.30021l-1.30702,1.30711h3.96015l2.6073,-2.60733zM27.64688,154.30439l1.29217,-1.29189h-2.03805zM63.67486,168.10356l3.95302,3.95247l1.29953,-1.29991l-3.95235,-3.95269zM57.11513,168.10356l3.95272,3.95247l1.3002,-1.29991l-3.95302,-3.95269zM50.55518,168.10356l3.95242,3.95247l1.30012,-1.29991l-3.95265,-3.95269zM43.99493,168.10356l3.95302,3.95247l1.29952,-1.29991l-3.95235,-3.95269zM37.43521,168.10356l3.95272,3.95247l1.3002,-1.29991l-3.95302,-3.95269zM60.39548,167.47603l1.29982,1.30021l1.32607,-1.32676v-2.5177h0.00008v2.51755l2.62627,-2.62593l-1.27703,-1.27734v-0.86431h-2.25v1.26721l-3.70567,-3.70549l-1.2999,1.30021l3.95272,3.95209l1.05285,-1.05234l0,0.48833h0.81862zM40.71556,167.47603l1.29982,1.30021l1.32607,-1.32676v-2.59975zM66.95543,167.47618l1.29982,1.29984l3.95242,-3.95277l-1.2999,-1.29984zM53.83516,167.47618l1.29982,1.29984l3.95272,-3.95277l-1.3002,-1.29984zM47.27551,167.47618l1.29982,1.29984l3.95235,-3.95277l-1.29982,-1.29984zM43.34153,164.84965v2.59968l2.51782,-2.51755h1.52445l0.564,0.56393l1.29952,-1.29954l-3.95205,-3.95277l-1.3005,1.30021l1.23682,1.23646v1.30689l-0.56363,-0.56378zM37.43521,161.54369l3.95272,3.95209l1.3002,-1.29954l-3.95302,-3.95277zM70.23511,161.54362l3.95242,3.95209l1.30012,-1.29954l-3.95265,-3.95277zM63.67471,161.54362l3.95302,3.95209l1.29952,-1.29954l-3.95205,-3.95277zM50.55518,161.54362l3.95242,3.95209l1.30012,-1.29954l-3.95265,-3.95277zM73.51486,160.91623l1.3002,1.29991l3.95235,-3.95277l-1.29982,-1.29984zM66.95521,160.91623l1.3002,1.29991l3.95197,-3.95277l-1.29952,-1.29984zM53.83493,160.91623l1.3002,1.29991l3.95235,-3.95277l-1.2999,-1.29984zM47.27528,160.91623l1.30012,1.29991l3.95205,-3.95277l-1.29952,-1.29984zM34.15501,160.91623l1.30012,1.29991l3.95242,-3.95277l-1.2999,-1.29984zM60.39548,160.91608l1.29982,1.29991l1.32607,-1.32646l0,-2.59975zM40.71556,160.91608l1.29982,1.29991l1.32607,-1.32646l0,-2.59975zM63.02146,158.28963l0,2.59975l2.62627,-2.626l-1.27702,-1.27704v-1.05466h-2.25v1.45734l-3.70537,-3.70549l-1.3002,1.29984l3.95272,3.95247l1.05285,-1.05241v0.29828h1.00875zM43.34153,158.28963l0,2.59975l2.62627,-2.626l-0.08168,-0.08168h1.30755l0.75427,0.75413l1.29952,-1.29954l-3.95235,-3.95277l-1.3002,1.29984l1.23667,1.23646v1.30734l-0.56363,-0.56363zM63.67486,154.98337l3.95302,3.95247l1.29952,-1.29954l-3.95235,-3.95277zM50.55518,154.98337l3.95242,3.95247l1.30012,-1.29954l-3.95265,-3.95277zM37.43521,154.98337l3.95265,3.95247l1.3002,-1.29954l-3.95265,-3.95277z" id="341dcbed-81f0-4fcc-a37e-2c33e6041dfd" fill="#f9932b" fill-rule="evenodd" stroke="#fa9228"/><path d="M38.26195,172.69084h33.07822l11.36121,-19.67833h-55.80038zM74.25826,154.80667h2.25002v2.25004h-2.25002zM62.1205,155.93169h2.25002v2.25004h-2.25002zM62.1205,162.68181h2.25002v2.25004h-2.25002zM45.23134,155.93169h2.25002v2.25004h-2.25002zM45.23134,162.68181h2.25002v2.25004h-2.25002zM35.34359,154.80667v2.25004h-2.25002v-2.25004z" id="3de92691-0f9f-473c-9afd-832f3c903541" fill="none" fill-rule="nonzero" stroke="#9926ff"/></g><g id="g-26be703b-68d2-45c0-989a-7cb299c67396"><path d="M70.90051,192.36917h0.43965l0.60045,-1.04011zM72.13606,190.9905l0.47865,-0.82898l-2.3796,-2.37962l1.2999,-1.30014l2.03137,2.0314l0.4785,-0.82883l-0.5298,-0.52981l1.97752,-1.97777l1.92427,-3.33296l-0.62183,-0.62176l1.2999,-1.30021l0.2736,0.2736l1.4496,-2.5108l-3.0231,-3.02291l1.3002,-1.29984l2.6745,2.6746l0.47865,-0.82906l-1.173,-1.17331l1.34325,-1.34326h-3.96015l-1.79437,1.79409h0.84435v2.2501h-1.60042l0.5796,0.57961l-1.30012,1.29954l-3.95242,-3.95247l1.2999,-1.29984l2.72347,2.72358v-1.30779l-0.74325,-0.74363l1.34295,-1.34319h-3.95955l-2.64345,2.6434l-1.29982,-1.30021l1.34355,-1.34319h-3.96015l-1.31737,1.31701l-1.32607,1.32646l-1.29982,-1.30021l1.34325,-1.34326l-3.96015,0l-2.64375,2.6434l-1.29952,-1.30021l1.34295,-1.34319h-3.95955l-2.64345,2.6434l-1.29982,-1.30021l1.34355,-1.34319l-3.96015,0l-1.31737,1.31701l-1.32607,1.32646l-1.29982,-1.30021l1.34317,-1.34326h-3.96007l-2.64375,2.6434l-0.11107,-0.11115v1.30756l0.78397,0.78398l-1.3002,1.29954l-3.95235,-3.95247l1.2999,-1.29984l1.12305,1.12306h1.30785l-0.45067,-0.4509l1.34287,-1.34319h-3.95947l-2.64345,2.6434l-1.1082,-1.10851l2.26095,3.91609l1.49992,-1.49994l1.29952,1.29984l-1.84792,1.84824l0.47857,0.82891l0.69697,-0.69713l3.95265,3.95277l-1.3002,1.29954l-1.70212,-1.70207l1.72477,2.98743l3.25732,-3.25766l1.3002,1.29984l-3.606,3.60604l1.44952,2.51058l0.85642,-0.85636l1.2999,1.30021l-1.20457,1.20459l0.0591,0.10253h3.79845l1.28085,-1.28086l1.32675,-1.32646l1.29952,1.30021l-1.30702,1.30711h3.96015l2.60722,-2.60733l1.2996,1.30021l-1.3071,1.30711h3.95955l2.60752,-2.60733l1.2999,1.30021l-1.3071,1.30711l3.96015,0l1.28077,-1.28086l1.32675,-1.32646l1.29952,1.30021l-1.30702,1.30711h3.96015l2.6073,-2.60733zM27.64688,173.98273l1.29217,-1.29189h-2.03805zM63.67486,187.7819l3.95302,3.95247l1.29953,-1.29991l-3.95235,-3.95269zM57.11513,187.7819l3.95272,3.95247l1.3002,-1.29991l-3.95302,-3.95269zM50.55518,187.7819l3.95242,3.95247l1.30012,-1.29991l-3.95265,-3.95269zM43.99493,187.7819l3.95302,3.95247l1.29952,-1.29991l-3.95235,-3.95269zM37.43521,187.7819l3.95272,3.95247l1.3002,-1.29991l-3.95302,-3.95269zM60.39548,187.15436l1.29982,1.30021l1.32607,-1.32676v-2.5177h0.00008v2.51755l2.62627,-2.62593l-1.27703,-1.27734v-0.86431h-2.25v1.26721l-3.70567,-3.70549l-1.2999,1.30021l3.95272,3.95209l1.05285,-1.05234l0,0.48833h0.81862zM40.71556,187.15436l1.29982,1.30021l1.32607,-1.32676v-2.59975zM66.95543,187.15451l1.29982,1.29984l3.95242,-3.95277l-1.2999,-1.29984zM53.83516,187.15451l1.29982,1.29984l3.95272,-3.95277l-1.3002,-1.29984zM47.27551,187.15451l1.29982,1.29984l3.95235,-3.95277l-1.29982,-1.29984zM43.34153,184.52799v2.59968l2.51782,-2.51755h1.52445l0.564,0.56393l1.29952,-1.29954l-3.95205,-3.95277l-1.3005,1.30021l1.23682,1.23646v1.30689l-0.56363,-0.56378zM37.43521,181.22203l3.95272,3.95209l1.3002,-1.29954l-3.95302,-3.95277zM70.23511,181.22195l3.95242,3.95209l1.30012,-1.29954l-3.95265,-3.95277zM63.67471,181.22195l3.95302,3.95209l1.29952,-1.29954l-3.95205,-3.95277zM50.55518,181.22195l3.95242,3.95209l1.30012,-1.29954l-3.95265,-3.95277zM73.51486,180.59457l1.3002,1.29991l3.95235,-3.95277l-1.29982,-1.29984zM66.95521,180.59457l1.3002,1.29991l3.95197,-3.95277l-1.29952,-1.29984zM53.83493,180.59457l1.3002,1.29991l3.95235,-3.95277l-1.2999,-1.29984zM47.27528,180.59457l1.30012,1.29991l3.95205,-3.95277l-1.29952,-1.29984zM34.15501,180.59457l1.30012,1.29991l3.95242,-3.95277l-1.2999,-1.29984zM60.39548,180.59442l1.29982,1.29991l1.32607,-1.32646l0,-2.59975zM40.71556,180.59442l1.29982,1.29991l1.32607,-1.32646l0,-2.59975zM63.02146,177.96797l0,2.59975l2.62627,-2.626l-1.27702,-1.27704v-1.05466h-2.25v1.45734l-3.70537,-3.70549l-1.3002,1.29984l3.95272,3.95247l1.05285,-1.05241v0.29828h1.00875zM43.34153,177.96797l0,2.59975l2.62627,-2.626l-0.08168,-0.08168h1.30755l0.75427,0.75413l1.29952,-1.29954l-3.95235,-3.95277l-1.3002,1.29984l1.23667,1.23646v1.30734l-0.56363,-0.56363zM63.67486,174.66171l3.95302,3.95247l1.29952,-1.29954l-3.95235,-3.95277zM50.55518,174.66171l3.95242,3.95247l1.30012,-1.29954l-3.95265,-3.95277zM37.43521,174.66171l3.95265,3.95247l1.3002,-1.29954l-3.95265,-3.95277z" id="597623a6-3746-44eb-872f-379002d8bec5" fill="#f9932b" fill-rule="evenodd" stroke="#fa9228"/><path d="M38.26195,192.36918h33.07822l11.36121,-19.67833h-55.80038zM74.25826,174.48501h2.25002v2.25004h-2.25002zM62.1205,175.61003h2.25002v2.25004h-2.25002zM62.1205,182.36015h2.25002v2.25004h-2.25002zM45.23134,175.61003h2.25002v2.25004h-2.25002zM45.23134,182.36015h2.25002v2.25004h-2.25002zM35.34359,174.48501v2.25004h-2.25002v-2.25004z" id="5cd1aa3d-85be-4eff-b1c9-a1d0e2ecb174" fill="none" fill-rule="nonzero" stroke="#9926ff"/></g><g id="g-7b21a838-a58e-452c-81bf-78e53da338c4"><path d="M70.90078,212.0475h0.43965l0.60045,-1.04011zM72.13633,210.66884l0.47865,-0.82898l-2.3796,-2.37962l1.2999,-1.30014l2.03137,2.0314l0.4785,-0.82883l-0.5298,-0.52981l1.97752,-1.97777l1.92427,-3.33296l-0.62183,-0.62176l1.2999,-1.30021l0.2736,0.2736l1.4496,-2.5108l-3.0231,-3.02291l1.3002,-1.29984l2.6745,2.6746l0.47865,-0.82906l-1.173,-1.17331l1.34325,-1.34326h-3.96015l-1.79437,1.79409h0.84435v2.2501h-1.60042l0.5796,0.57961l-1.30012,1.29954l-3.95242,-3.95247l1.2999,-1.29984l2.72347,2.72358v-1.30779l-0.74325,-0.74363l1.34295,-1.34319h-3.95955l-2.64345,2.6434l-1.29982,-1.30021l1.34355,-1.34319h-3.96015l-1.31737,1.31701l-1.32607,1.32646l-1.29982,-1.30021l1.34325,-1.34326l-3.96015,0l-2.64375,2.6434l-1.29952,-1.30021l1.34295,-1.34319h-3.95955l-2.64345,2.6434l-1.29982,-1.30021l1.34355,-1.34319l-3.96015,0l-1.31737,1.31701l-1.32607,1.32646l-1.29982,-1.30021l1.34317,-1.34326h-3.96007l-2.64375,2.6434l-0.11107,-0.11115v1.30756l0.78397,0.78398l-1.3002,1.29954l-3.95235,-3.95247l1.2999,-1.29984l1.12305,1.12306h1.30785l-0.45067,-0.4509l1.34287,-1.34319h-3.95947l-2.64345,2.6434l-1.1082,-1.10851l2.26095,3.91609l1.49992,-1.49994l1.29952,1.29984l-1.84792,1.84824l0.47857,0.82891l0.69697,-0.69713l3.95265,3.95277l-1.3002,1.29954l-1.70212,-1.70207l1.72477,2.98743l3.25732,-3.25766l1.3002,1.29984l-3.606,3.60604l1.44952,2.51058l0.85642,-0.85636l1.2999,1.30021l-1.20457,1.20459l0.0591,0.10253h3.79845l1.28085,-1.28086l1.32675,-1.32646l1.29952,1.30021l-1.30702,1.30711h3.96015l2.60722,-2.60733l1.2996,1.30021l-1.3071,1.30711h3.95955l2.60752,-2.60733l1.2999,1.30021l-1.3071,1.30711l3.96015,0l1.28077,-1.28086l1.32675,-1.32646l1.29952,1.30021l-1.30702,1.30711h3.96015l2.6073,-2.60733zM27.64715,193.66107l1.29217,-1.29189h-2.03805zM63.67513,207.46023l3.95302,3.95247l1.29953,-1.29991l-3.95235,-3.95269zM57.1154,207.46023l3.95272,3.95247l1.3002,-1.29991l-3.95302,-3.95269zM50.55545,207.46023l3.95242,3.95247l1.30012,-1.29991l-3.95265,-3.95269zM43.9952,207.46023l3.95302,3.95247l1.29952,-1.29991l-3.95235,-3.95269zM37.43548,207.46023l3.95272,3.95247l1.3002,-1.29991l-3.95302,-3.95269zM60.39575,206.8327l1.29982,1.30021l1.32607,-1.32676v-2.5177h0.00008v2.51755l2.62627,-2.62593l-1.27703,-1.27734v-0.86431h-2.25v1.26721l-3.70567,-3.70549l-1.2999,1.30021l3.95272,3.95209l1.05285,-1.05234l0,0.48833h0.81862zM40.71583,206.8327l1.29982,1.30021l1.32607,-1.32676v-2.59975zM66.9557,206.83285l1.29982,1.29984l3.95242,-3.95277l-1.2999,-1.29984zM53.83543,206.83285l1.29982,1.29984l3.95272,-3.95277l-1.3002,-1.29984zM47.27578,206.83285l1.29982,1.29984l3.95235,-3.95277l-1.29982,-1.29984zM43.3418,204.20633v2.59968l2.51782,-2.51755h1.52445l0.564,0.56393l1.29952,-1.29954l-3.95205,-3.95277l-1.3005,1.30021l1.23682,1.23646v1.30689l-0.56363,-0.56378zM37.43548,200.90037l3.95272,3.95209l1.3002,-1.29954l-3.95302,-3.95277zM70.23538,200.90029l3.95242,3.95209l1.30012,-1.29954l-3.95265,-3.95277zM63.67498,200.90029l3.95302,3.95209l1.29952,-1.29954l-3.95205,-3.95277zM50.55545,200.90029l3.95242,3.95209l1.30012,-1.29954l-3.95265,-3.95277zM73.51513,200.27291l1.3002,1.29991l3.95235,-3.95277l-1.29982,-1.29984zM66.95548,200.27291l1.3002,1.29991l3.95197,-3.95277l-1.29952,-1.29984zM53.8352,200.27291l1.3002,1.29991l3.95235,-3.95277l-1.2999,-1.29984zM47.27555,200.27291l1.30012,1.29991l3.95205,-3.95277l-1.29952,-1.29984zM34.15528,200.27291l1.30012,1.29991l3.95242,-3.95277l-1.2999,-1.29984zM60.39575,200.27276l1.29982,1.29991l1.32607,-1.32646l0,-2.59975zM40.71583,200.27276l1.29982,1.29991l1.32607,-1.32646l0,-2.59975zM63.02173,197.64631l0,2.59975l2.62627,-2.626l-1.27702,-1.27704v-1.05466h-2.25v1.45734l-3.70537,-3.70549l-1.3002,1.29984l3.95272,3.95247l1.05285,-1.05241v0.29828h1.00875zM43.3418,197.64631l0,2.59975l2.62627,-2.626l-0.08168,-0.08168h1.30755l0.75427,0.75413l1.29952,-1.29954l-3.95235,-3.95277l-1.3002,1.29984l1.23667,1.23646v1.30734l-0.56363,-0.56363zM63.67513,194.34005l3.95302,3.95247l1.29952,-1.29954l-3.95235,-3.95277zM50.55545,194.34005l3.95242,3.95247l1.30012,-1.29954l-3.95265,-3.95277zM37.43548,194.34005l3.95265,3.95247l1.3002,-1.29954l-3.95265,-3.95277z" id="19855a0d-7762-4e3e-88b1-4f3058e07c3e" fill="#f9932b" fill-rule="evenodd" stroke="#fa9228"/><path d="M38.26222,212.04751h33.07822l11.36121,-19.67833h-55.80038zM74.25853,194.16335h2.25002v2.25004h-2.25002zM62.12076,195.28837h2.25002v2.25004h-2.25002zM62.12076,202.03849h2.25002v2.25004h-2.25002zM45.23161,195.28837h2.25002v2.25004h-2.25002zM45.23161,202.03849h2.25002v2.25004h-2.25002zM35.34386,194.16335v2.25004h-2.25002v-2.25004z" id="d646e7cc-b0a7-420a-a352-9fcf50145b81" fill="none" fill-rule="nonzero" stroke="#9926ff"/></g><g id="g-7b346374-6597-4465-ab3e-927569b4ede5"><path d="M70.90078,231.72584h0.43965l0.60045,-1.04011zM72.13633,230.34718l0.47865,-0.82898l-2.3796,-2.37962l1.2999,-1.30014l2.03137,2.0314l0.4785,-0.82883l-0.5298,-0.52981l1.97752,-1.97777l1.92427,-3.33296l-0.62183,-0.62176l1.2999,-1.30021l0.2736,0.2736l1.4496,-2.5108l-3.0231,-3.02291l1.3002,-1.29984l2.6745,2.6746l0.47865,-0.82906l-1.173,-1.17331l1.34325,-1.34326h-3.96015l-1.79437,1.79409h0.84435v2.2501h-1.60042l0.5796,0.57961l-1.30012,1.29954l-3.95242,-3.95247l1.2999,-1.29984l2.72347,2.72358v-1.30779l-0.74325,-0.74363l1.34295,-1.34319h-3.95955l-2.64345,2.6434l-1.29982,-1.30021l1.34355,-1.34319h-3.96015l-1.31737,1.31701l-1.32607,1.32646l-1.29982,-1.30021l1.34325,-1.34326l-3.96015,0l-2.64375,2.6434l-1.29952,-1.30021l1.34295,-1.34319h-3.95955l-2.64345,2.6434l-1.29982,-1.30021l1.34355,-1.34319l-3.96015,0l-1.31737,1.31701l-1.32607,1.32646l-1.29982,-1.30021l1.34317,-1.34326h-3.96007l-2.64375,2.6434l-0.11107,-0.11115v1.30756l0.78397,0.78398l-1.3002,1.29954l-3.95235,-3.95247l1.2999,-1.29984l1.12305,1.12306h1.30785l-0.45067,-0.4509l1.34287,-1.34319h-3.95947l-2.64345,2.6434l-1.1082,-1.10851l2.26095,3.91609l1.49992,-1.49994l1.29952,1.29984l-1.84792,1.84824l0.47857,0.82891l0.69697,-0.69713l3.95265,3.95277l-1.3002,1.29954l-1.70212,-1.70207l1.72477,2.98743l3.25732,-3.25766l1.3002,1.29984l-3.606,3.60604l1.44952,2.51058l0.85642,-0.85636l1.2999,1.30021l-1.20457,1.20459l0.0591,0.10253h3.79845l1.28085,-1.28086l1.32675,-1.32646l1.29952,1.30021l-1.30702,1.30711h3.96015l2.60722,-2.60733l1.2996,1.30021l-1.3071,1.30711h3.95955l2.60752,-2.60733l1.2999,1.30021l-1.3071,1.30711l3.96015,0l1.28077,-1.28086l1.32675,-1.32646l1.29952,1.30021l-1.30702,1.30711h3.96015l2.6073,-2.60733zM27.64715,213.33941l1.29217,-1.29189h-2.03805zM63.67513,227.13857l3.95302,3.95247l1.29953,-1.29991l-3.95235,-3.95269zM57.1154,227.13857l3.95272,3.95247l1.3002,-1.29991l-3.95302,-3.95269zM50.55545,227.13857l3.95242,3.95247l1.30012,-1.29991l-3.95265,-3.95269zM43.9952,227.13857l3.95302,3.95247l1.29952,-1.29991l-3.95235,-3.95269zM37.43548,227.13857l3.95272,3.95247l1.3002,-1.29991l-3.95302,-3.95269zM60.39575,226.51104l1.29982,1.30021l1.32607,-1.32676v-2.5177h0.00008v2.51755l2.62627,-2.62593l-1.27703,-1.27734v-0.86431h-2.25v1.26721l-3.70567,-3.70549l-1.2999,1.30021l3.95272,3.95209l1.05285,-1.05234l0,0.48833h0.81862zM40.71583,226.51104l1.29982,1.30021l1.32607,-1.32676v-2.59975zM66.9557,226.51119l1.29982,1.29984l3.95242,-3.95277l-1.2999,-1.29984zM53.83543,226.51119l1.29982,1.29984l3.95272,-3.95277l-1.3002,-1.29984zM47.27578,226.51119l1.29982,1.29984l3.95235,-3.95277l-1.29982,-1.29984zM43.3418,223.88466v2.59968l2.51782,-2.51755h1.52445l0.564,0.56393l1.29952,-1.29954l-3.95205,-3.95277l-1.3005,1.30021l1.23682,1.23646v1.30689l-0.56363,-0.56378zM37.43548,220.57871l3.95272,3.95209l1.3002,-1.29954l-3.95302,-3.95277zM70.23538,220.57863l3.95242,3.95209l1.30012,-1.29954l-3.95265,-3.95277zM63.67498,220.57863l3.95302,3.95209l1.29952,-1.29954l-3.95205,-3.95277zM50.55545,220.57863l3.95242,3.95209l1.30012,-1.29954l-3.95265,-3.95277zM73.51513,219.95125l1.3002,1.29991l3.95235,-3.95277l-1.29982,-1.29984zM66.95548,219.95125l1.3002,1.29991l3.95197,-3.95277l-1.29952,-1.29984zM53.8352,219.95125l1.3002,1.29991l3.95235,-3.95277l-1.2999,-1.29984zM47.27555,219.95125l1.30012,1.29991l3.95205,-3.95277l-1.29952,-1.29984zM34.15528,219.95125l1.30012,1.29991l3.95242,-3.95277l-1.2999,-1.29984zM60.39575,219.9511l1.29982,1.29991l1.32607,-1.32646l0,-2.59975zM40.71583,219.9511l1.29982,1.29991l1.32607,-1.32646l0,-2.59975zM63.02173,217.32465l0,2.59975l2.62627,-2.626l-1.27702,-1.27704v-1.05466h-2.25v1.45734l-3.70537,-3.70549l-1.3002,1.29984l3.95272,3.95247l1.05285,-1.05241v0.29828h1.00875zM43.3418,217.32465l0,2.59975l2.62627,-2.626l-0.08168,-0.08168h1.30755l0.75427,0.75413l1.29952,-1.29954l-3.95235,-3.95277l-1.3002,1.29984l1.23667,1.23646v1.30734l-0.56363,-0.56363zM63.67513,214.01839l3.95302,3.95247l1.29952,-1.29954l-3.95235,-3.95277zM50.55545,214.01839l3.95242,3.95247l1.30012,-1.29954l-3.95265,-3.95277zM37.43548,214.01839l3.95265,3.95247l1.3002,-1.29954l-3.95265,-3.95277z" id="3e930fea-ea3a-4ca3-9adf-d20691a7d18e" fill="#f9932b" fill-rule="evenodd" stroke="#fa9228"/><path d="M38.26222,231.72585h33.07822l11.36121,-19.67833h-55.80038zM74.25853,213.84168h2.25002v2.25004h-2.25002zM62.12076,214.9667h2.25002v2.25004h-2.25002zM62.12076,221.71682h2.25002v2.25004h-2.25002zM45.23161,214.9667h2.25002v2.25004h-2.25002zM45.23161,221.71682h2.25002v2.25004h-2.25002zM35.34386,213.84168v2.25004h-2.25002v-2.25004z" id="a24e2e38-7771-4d90-92e2-b1367092c6f3" fill="none" fill-rule="nonzero" stroke="#9926ff"/></g></g><g id="layer_undefined" fill="#000000" fill-rule="nonzero" stroke="none" font-family="Inter, ui-sans-serif, system-ui, sans-serif" font-weight="400" font-size="16" text-anchor="start"/><g fill="#000000" fill-rule="nonzero" stroke="none"><image x="127.69661" y="193.90991" transform="scale(0.5926,0.59261)" width="0" height="0" xlink:href="data:," id="40eded84-eae2-479f-adbd-0dc3b0f6964c"/></g></g></g></svg>