<svg version="1.1" xmlns="http://www.w3.org/2000/svg" xmlns:xlink="http://www.w3.org/1999/xlink" width="300" height="150" viewBox="0,0,300,150"><defs><clipPath id="clip-1"><rect x="0" y="0" transform="scale(0.74999,0.74999)" width="339.75" height="327.67" fill="none" fill-rule="nonzero" stroke="none"/></clipPath></defs><g fill="none" fill-rule="none" stroke="none" stroke-width="1" stroke-linecap="butt" stroke-linejoin="miter" stroke-miterlimit="10" stroke-dasharray="" stroke-dashoffset="0" font-family="none" font-weight="none" font-size="none" text-anchor="none" style="mix-blend-mode: normal"><g clip-path="url(#clip-1)"><g id="layer_undefined"><path d="M197.01718,85.58945l-24.08162,-41.71062c-2.02431,-3.50622 -5.76522,-5.666 -9.81383,-5.666h-48.16324c-4.04862,0 -7.78952,2.15977 -9.81383,5.666l-24.08162,41.71062c-2.02431,3.50622 -2.02431,7.82577 0,11.33199l24.08162,41.71062c2.02431,3.50596 5.76522,5.666 9.81383,5.666h48.16324c4.04862,0 7.78952,-2.15977 9.81383,-5.666l24.08162,-41.71062c2.02431,-3.50622 2.02431,-7.82577 0,-11.33199zM129.5152,56.01038h19.04982v2.24999h-19.04982v-2.24999zM113.2792,65.38395l1.94864,1.125l-9.52491,16.49767l-1.94864,-1.125zM113.2792,117.12694l-9.52491,-16.49767l1.94864,-1.125l9.52491,16.49767zM148.56502,126.50077h-19.04982v-2.24999h19.04982zM139.04011,119.01182c-15.32928,0 -27.75638,-12.42683 -27.75638,-27.75637c0,-15.32954 12.42683,-27.75637 27.75638,-27.75637c15.32955,0 27.75638,12.42683 27.75638,27.75637c0,15.32954 -12.4271,27.75637 -27.75638,27.75637zM164.80103,117.12694l-1.94864,-1.125l9.52491,-16.49767l1.94864,1.125zM172.3773,83.00661l-9.52491,-16.49767l1.94864,-1.125l9.52491,16.49767z" id="07ec9394-f5f1-4dd7-80bb-3fdc409b8a3a" fill="none" fill-rule="nonzero" stroke="#9926ff"/><g id="41dd6ef3-3ebe-42ed-877c-9fbf20767baa" fill="#f9932b" fill-rule="nonzero" stroke="#fa9228"><path d="M93.56484,161.25761c0,-0.24555 0.05667,-0.45666 0.17,-0.63333c0.11444,-0.17555 0.27778,-0.31 0.49,-0.40333c0.21111,-0.09333 0.46222,-0.14 0.75333,-0.14c0.29111,0 0.54222,0.04667 0.75333,0.14c0.21222,0.09333 0.37611,0.22778 0.49166,0.40333c0.11555,0.17666 0.17333,0.38777 0.17333,0.63333c0,0.24889 -0.05778,0.46111 -0.17333,0.63666c-0.11555,0.17666 -0.27944,0.31222 -0.49166,0.40666c-0.21111,0.09444 -0.46222,0.14167 -0.75333,0.14167c-0.29111,0 -0.54222,-0.04722 -0.75333,-0.14167c-0.21222,-0.09444 -0.37555,-0.23 -0.49,-0.40666c-0.11333,-0.17555 -0.17,-0.38777 -0.17,-0.63666zM93.76817,161.25761c0,0.27111 0.10278,0.47944 0.30833,0.62499c0.20555,0.14555 0.50611,0.21833 0.90166,0.21833c0.39555,0 0.69666,-0.07389 0.90332,-0.22166c0.20778,-0.14667 0.31166,-0.35389 0.31166,-0.62166c0,-0.26555 -0.10389,-0.47111 -0.31166,-0.61666c-0.20666,-0.14444 -0.50777,-0.21666 -0.90332,-0.21666c-0.39555,0 -0.6961,0.07167 -0.90166,0.215c-0.20555,0.14444 -0.30833,0.35055 -0.30833,0.61833z"/><path d="M93.6065,162.99286l2.11665,0v0.56833c0,0.22555 -0.05556,0.40333 -0.16667,0.53333c-0.11222,0.13 -0.28389,0.195 -0.51499,0.195c-0.17778,0 -0.31889,-0.03722 -0.42333,-0.11167c-0.10444,-0.07333 -0.17944,-0.165 -0.225,-0.275c-0.04444,-0.11 -0.06667,-0.22278 -0.06667,-0.33833v-0.26666h-0.71999zM94.49483,163.29786v0.225c0,0.08111 0.01556,0.155 0.04667,0.22166c0.03111,0.06667 0.08555,0.11944 0.16333,0.15833c0.07778,0.04 0.18555,0.06 0.32333,0.06c0.19,0 0.32444,-0.03889 0.40333,-0.11667c0.07889,-0.07778 0.11833,-0.18555 0.11833,-0.32333v-0.225z"/><path d="M93.6065,164.78354l2.11665,0l0,1.21999h-0.18666v-0.91499h-0.76999v0.82999h-0.18166l0,-0.82999h-0.79166v0.97832h-0.18666z"/><path d="M93.6065,166.59963l2.11665,0v0.32166l-1.65998,1.07166l0.09,-0.01333h1.56998v0.22h-2.11665v-0.26166l1.73165,-1.12999v-0.005l-0.12667,0.02167h-1.60498z"/></g><path d="M135.56855,183.98252h4.2796v-3.30832h4.2796c0,-1.60204 0,-34.7077 0,-36.37615h-4.2796v3.04374h-4.2796v-3.04374h-4.2796v3.04374h-4.2796v-3.04374h-4.2796v3.04374h-4.2796v-3.04374l-4.2796,0v3.04374h-4.2796v-3.04374h-4.2796v3.04374l-4.2796,0v-3.04374h-4.2796v3.04374h-4.2796c0,0 0,29.84629 0,36.64073h4.2796v-3.30832h4.2796v3.30832h4.2796v-3.30832h4.2796v3.30832h4.2796v-3.30832h4.2796v3.30832h4.2796v-3.30832l4.2796,0v3.30832h4.2796v-3.30832h4.2796zM97.14427,156.59206v-5.96127l9.85908,0v5.96127zM108.06167,156.59206v-5.96127l9.85908,0v5.96127zM118.97907,156.59206v-5.96127h9.85908v5.96127zM129.8962,156.59206v-5.96127h9.85908v5.96127zM97.14427,163.61165v-5.961l9.85908,0v5.961zM108.06167,163.61165v-5.961l9.85908,0v5.961zM118.97907,163.61165v-5.961h9.85908v5.961zM129.8962,163.61165v-5.961h9.85908v5.961zM97.14427,170.63071v-5.961l9.85908,0v5.961zM108.06167,170.63071v-5.961h9.85908v5.961zM118.97907,170.63071v-5.961h9.85908v5.961zM129.8962,170.63071v-5.961h9.85908v5.961zM97.14427,177.65031v-5.961h9.85908v5.961zM108.06167,177.65031v-5.961l9.85908,0v5.961zM118.97907,177.65031v-5.961h9.85908v5.961zM129.8962,177.65031v-5.961l9.85908,0v5.961z" id="5533fc14-91e5-499f-8eb4-494379aa025e" fill="none" fill-rule="nonzero" stroke="#9926ff"/><path d="M154.08986,35.28464h33.0779l11.3611,-19.67793h-55.79983zM190.08581,17.40084h2.25v2.24999h-2.25zM177.94817,18.52584h2.25v2.24999h-2.25zM177.94817,25.27582h2.25v2.24999h-2.25zM161.05918,18.52584h2.25v2.24999h-2.25zM161.05918,25.27582h2.25v2.24999h-2.25zM151.17153,17.40084v2.24999h-2.25v-2.24999z" id="3afd80bc-d150-4544-9a67-d1a6caf26a7b" fill="none" fill-rule="nonzero" stroke="#9926ff"/><path d="M182.63746,37.97631h4.55246v19.06481h-4.55246zM187.18992,37.97631h4.55246v19.06481h-4.55246zM191.74237,37.97631h4.55246v19.06481h-4.55246z" id="80a5faef-d357-40cf-a07c-f8ed8d78016b" fill="none" fill-rule="evenodd" stroke="#9926ff"/><path d="M182.63746,124.70482h4.55246v19.06481h-4.55246zM187.18992,124.70482h4.55246v19.06481h-4.55246zM191.74237,124.70482h4.55246v19.06481h-4.55246z" id="68f2b594-6ace-4b80-8be5-6d98c9937403" fill="none" fill-rule="evenodd" stroke="#9926ff"/><path d="M147.46457,162.16532l2.90229,22.53602l44.36455,-33.84386l-20.96794,-8.75449zM155.99125,178.15416l-1.78889,1.36467l-1.36467,-1.78889l1.78889,-1.36467zM164.95915,169.89795l-1.78889,1.36467l-1.36467,-1.78889l1.78889,-1.36467zM160.86513,164.53127l-1.78889,1.36467l-1.36467,-1.78889l1.78889,-1.36467zM178.38701,159.6544l-1.78889,1.36467l-1.36467,-1.78889l1.78889,-1.36467zM174.29299,154.28772l-1.78889,1.36467l-1.36467,-1.78889l1.78889,-1.36467zM185.56601,152.76287l1.78889,-1.36467l1.36467,1.78889l-1.78889,1.36467z" id="9e0e99dc-365b-47d5-89c3-2cdb3f3f9626" fill="none" fill-rule="nonzero" stroke="#9926ff"/><ellipse cx="77.0687" cy="173.18835" transform="scale(0.74999,0.74999)" rx="30" ry="30" id="a44ab349-5927-489e-ae4d-8b4acd8a1653" fill="none" fill-rule="evenodd" stroke="#9926ff"/><path d="M78.94612,93.19497h-42.29007l-21.14504,36.69497l21.14504,36.69497h42.29007l21.1453,-36.69497zM76.41832,108.14299l9.52491,16.49767l-1.94864,1.125l-9.52491,-16.49767zM39.18412,151.63689l-9.52491,-16.49767l1.94864,-1.125l9.52491,16.49767zM31.60759,125.76565l-1.94864,-1.125l9.52491,-16.49767l1.94864,1.125zM67.326,156.88644h-19.04982v-2.24999h19.04982zM67.326,105.14344h-19.04982v-2.24999h19.04982zM76.41832,151.63689l-1.94864,-1.125l9.52491,-16.49767l1.94864,1.125z" id="cf035623-a32a-4a98-be77-cd57bc2a2531" fill="none" fill-rule="nonzero" stroke="#9926ff"/><path d="M146.12042,184.39634l-14.28737,46.20823h4.76246v-2.24999l19.04982,0v2.24999h4.76246zM144.24534,209.97045h3.7499l0,3.7499h-3.7499z" id="524abdf2-45b9-479a-ae92-3f6093a3cd72" fill="none" fill-rule="nonzero" stroke="#9926ff"/><path d="M143.49022,184.25135h-4.76246v2.24999l-19.04982,0l0,-2.24999l-4.76246,0l14.28737,46.20823zM127.32777,201.13557h3.7499l0,3.7499h-3.7499z" id="30621b01-893d-4f01-b526-65e54c896fbb" fill="none" fill-rule="nonzero" stroke="#9926ff"/><path d="M113.63427,184.54133l-14.28737,46.20823h4.76246v-2.24999l19.04982,0v2.24999h4.76246zM111.75919,210.11544h3.7499v3.7499h-3.7499z" id="86c6149e-a2e7-4988-ae0b-8394013e2e37" fill="none" fill-rule="nonzero" stroke="#9926ff"/><path d="M111.00408,184.39634h-4.76246v2.24999l-19.04982,0v-2.24999h-4.76246l14.28737,46.20823zM94.84163,201.28056l3.7499,0l0,3.7499l-3.7499,0z" id="19d37435-5321-460c-ae28-38cdc2a1c73d" fill="none" fill-rule="nonzero" stroke="#9926ff"/><path d="M146.1174,184.39134l-14.28737,46.20823h4.76246v-2.24999l19.04982,0v2.24999h4.76246zM144.24232,209.96545h3.7499l0,3.7499h-3.7499z" id="a2ee4db4-5b62-45a1-94a1-2fbc719ec5de" fill="#f9932b" fill-rule="nonzero" stroke="#fa9228"/><path d="M143.4872,184.24635h-4.76246v2.24999l-19.04982,0l0,-2.24999l-4.76246,0l14.28737,46.20823zM127.32475,201.13057h3.7499l0,3.7499h-3.7499z" id="e19a6415-4717-4dcb-b385-fad9df127384" fill="#f9932b" fill-rule="nonzero" stroke="#fa9228"/><path d="M113.63125,184.53633l-14.28737,46.20823h4.76246v-2.24999l19.04982,0v2.24999h4.76246zM111.75617,210.11044h3.7499v3.7499h-3.7499z" id="29214ee8-99e4-4d93-9c85-5a89ad01b7a2" fill="#f9932b" fill-rule="nonzero" stroke="#fa9228"/><path d="M111.00106,184.39134h-4.76246v2.24999h-19.04982v-2.24999l-4.76246,0l14.28737,46.20823zM94.83861,201.27556h3.7499l0,3.7499h-3.7499z" id="17f403e4-b966-4c57-8328-a9d825046545" fill="#f9932b" fill-rule="nonzero" stroke="#fa9228"/><path d="M238.8642,185.25829v-4.27959h-3.30832v-4.27959c-1.60204,0 -34.70771,0 -36.37616,0v4.27959h3.04374v4.27959h-3.04374v4.27959h3.04374v4.27959h-3.04374v4.27959h3.04374v4.27959h-3.04374v4.27959h3.04374v4.27959h-3.04374v4.27959h3.04374v4.27959h-3.04374v4.27959h3.04374v4.27959h2.29471v2.24999h2.25v-2.24999h24.50759v2.24999h2.25v-2.24999c6.28512,0 -1.45599,0 5.33845,0v-4.27959h-3.30832v-4.27959h3.30832v-4.27959h-3.30832v-4.27959h3.30832v-4.27959h-3.30832v-4.27959h3.30832v-4.27959h-3.30832v-4.27959h3.30832v-4.27959h-3.30832v-4.27959zM211.47347,223.68256h-5.96127v-9.85907h5.96127zM211.47347,212.76517h-5.96127v-9.85907h5.96127zM211.47347,201.84777h-5.96127v-9.85907h5.96127zM211.47347,190.93064h-5.96127v-9.85907h5.96127zM218.49306,223.68256h-5.96101v-9.85907h5.96101zM218.49306,212.76517h-5.96101v-9.85907h5.96101zM218.49306,201.84777h-5.96101v-9.85907h5.96101zM218.49306,190.93064h-5.96101v-9.85907h5.96101zM225.51239,223.68256h-5.96101v-9.85907h5.96101zM225.51239,212.76517h-5.96101v-9.85907h5.96101zM225.51239,201.84777h-5.96101v-9.85907h5.96101zM225.51239,190.93064h-5.96101v-9.85907h5.96101zM232.53172,223.68256h-5.96101v-9.85907h5.96101zM232.53172,212.76517h-5.96101v-9.85907h5.96101zM232.53172,201.84777h-5.96101v-9.85907h5.96101zM232.53172,190.93064h-5.96101v-9.85907h5.96101z" id="65d436b8-3469-49a8-9455-7fa27f90def4" fill="none" fill-rule="nonzero" stroke="#9926ff"/><path d="M201.4297,185.25829v-4.27959h-3.30832v-4.27959c-1.60204,0 -34.70771,0 -36.37616,0v4.27959h3.04374v4.27959h-3.04374v4.27959h3.04374v4.27959h-3.04374v4.27959h3.04374v4.27959h-3.04374v4.27959h3.04374v4.27959h-3.04374v4.27959h3.04374v4.27959h-3.04374v4.27959h3.04374v4.27959h2.29471v2.24999h2.25v-2.24999h24.50759v2.24999h2.25v-2.24999c6.28512,0 -1.45599,0 5.33845,0v-4.27959h-3.30832v-4.27959h3.30832v-4.27959h-3.30832v-4.27959h3.30832v-4.27959h-3.30832v-4.27959h3.30832v-4.27959h-3.30832v-4.27959h3.30832v-4.27959h-3.30832v-4.27959zM174.03897,223.68256h-5.96127v-9.85907h5.96127zM174.03897,212.76517h-5.96127v-9.85907h5.96127zM174.03897,201.84777h-5.96127v-9.85907h5.96127zM174.03897,190.93064h-5.96127v-9.85907h5.96127zM181.05856,223.68256h-5.96101v-9.85907h5.96101zM181.05856,212.76517h-5.96101v-9.85907h5.96101zM181.05856,201.84777h-5.96101v-9.85907h5.96101zM181.05856,190.93064h-5.96101v-9.85907h5.96101zM188.07789,223.68256h-5.96101v-9.85907h5.96101zM188.07789,212.76517h-5.96101v-9.85907h5.96101zM188.07789,201.84777h-5.96101v-9.85907h5.96101zM188.07789,190.93064h-5.96101v-9.85907h5.96101zM195.09722,223.68256h-5.96101v-9.85907h5.96101zM195.09722,212.76517h-5.96101v-9.85907h5.96101zM195.09722,201.84777h-5.96101v-9.85907h5.96101zM195.09722,190.93064h-5.96101v-9.85907h5.96101z" id="be896c7b-2b3e-4378-825b-1d725b69c465" fill="none" fill-rule="nonzero" stroke="#9926ff"/><path d="M238.8642,24.11855v-4.27959h-3.30832v-4.27959c-1.60204,0 -34.70771,0 -36.37616,0v4.27959h3.04374v4.27959h-3.04374v4.27959h3.04374v4.27959h-3.04374v4.27959h3.04374v4.27959h-3.04374v4.27959h3.04374v4.27959h-3.04374v4.27959h3.04374v4.27959h-3.04374v4.27959h3.04374v4.27959h2.29471v2.24999h2.25v-2.24999h24.50759v2.24999h2.25v-2.24999c6.28512,0 -1.45599,0 5.33845,0v-4.27959h-3.30832v-4.27959h3.30832v-4.27959h-3.30832v-4.27959h3.30832v-4.27959h-3.30832v-4.27959h3.30832v-4.27959h-3.30832v-4.27959h3.30832v-4.27959h-3.30832v-4.27959zM211.47347,62.54282h-5.96127v-9.85907h5.96127zM211.47347,51.62543h-5.96127v-9.85907h5.96127zM211.47347,40.70803h-5.96127v-9.85907h5.96127zM211.47347,29.7909h-5.96127v-9.85907h5.96127zM218.49306,62.54282h-5.96101v-9.85907h5.96101zM218.49306,51.62543h-5.96101v-9.85907h5.96101zM218.49306,40.70803h-5.96101v-9.85907h5.96101zM218.49306,29.7909h-5.96101v-9.85907h5.96101zM225.51239,62.54282h-5.96101v-9.85907h5.96101zM225.51239,51.62543h-5.96101v-9.85907h5.96101zM225.51239,40.70803h-5.96101v-9.85907h5.96101zM225.51239,29.7909h-5.96101v-9.85907h5.96101zM232.53172,62.54282h-5.96101v-9.85907h5.96101zM232.53172,51.62543h-5.96101v-9.85907h5.96101zM232.53172,40.70803h-5.96101v-9.85907h5.96101zM232.53172,29.7909h-5.96101v-9.85907h5.96101z" id="96087aae-72c7-43cd-a165-52cf1fc8b7ff" fill="none" fill-rule="nonzero" stroke="#9926ff"/><path d="M238.8642,77.72367v-4.27959h-3.30832v-4.27959c-1.60204,0 -34.70771,0 -36.37616,0v4.27959h3.04374v4.27959h-3.04374v4.27959h3.04374v4.27959h-3.04374v4.27959h3.04374v4.27959h-3.04374v4.27959h3.04374v4.27959h-3.04374v4.27959h3.04374v4.27959h-3.04374v4.27959h3.04374v4.27959h2.29471v2.24999h2.25v-2.24999h24.50759v2.24999h2.25v-2.24999c6.28512,0 -1.45599,0 5.33845,0v-4.27959h-3.30832v-4.27959h3.30832v-4.27959h-3.30832v-4.27959h3.30832v-4.27959h-3.30832v-4.27959h3.30832v-4.27959h-3.30832v-4.27959h3.30832v-4.27959h-3.30832v-4.27959zM211.47347,116.14794h-5.96127v-9.85907h5.96127zM211.47347,105.23054h-5.96127v-9.85907h5.96127zM211.47347,94.31315h-5.96127v-9.85907h5.96127zM211.47347,83.39602h-5.96127v-9.85907h5.96127zM218.49306,116.14794h-5.96101v-9.85907h5.96101zM218.49306,105.23054h-5.96101v-9.85907h5.96101zM218.49306,94.31315h-5.96101v-9.85907h5.96101zM218.49306,83.39602h-5.96101v-9.85907h5.96101zM225.51239,116.14794h-5.96101v-9.85907h5.96101zM225.51239,105.23054h-5.96101v-9.85907h5.96101zM225.51239,94.31315h-5.96101v-9.85907h5.96101zM225.51239,83.39602h-5.96101v-9.85907h5.96101zM232.53172,116.14794h-5.96101v-9.85907h5.96101zM232.53172,105.23054h-5.96101v-9.85907h5.96101zM232.53172,94.31315h-5.96101v-9.85907h5.96101zM232.53172,83.39602h-5.96101v-9.85907h5.96101z" id="ea69ab13-b9d5-48e0-ac8f-306676bdd42a" fill="none" fill-rule="nonzero" stroke="#9926ff"/><path d="M238.86421,131.32879v-4.27959h-3.30832v-4.27959c-1.60204,0 -34.70771,0 -36.37616,0v4.27959h3.04374v4.27959h-3.04374v4.27959h3.04374v4.27959h-3.04374v4.27959h3.04374v4.27959h-3.04374v4.27959h3.04374v4.27959h-3.04374v4.27959h3.04374v4.27959h-3.04374v4.27959h3.04374v4.27959h2.29471v2.24999h2.25v-2.24999h24.50759v2.24999h2.25v-2.24999c6.28512,0 -1.45599,0 5.33845,0v-4.27959h-3.30832v-4.27959h3.30832v-4.27959h-3.30832v-4.27959h3.30832v-4.27959h-3.30832v-4.27959h3.30832v-4.27959h-3.30832v-4.27959h3.30832v-4.27959h-3.30832v-4.27959zM211.47348,169.75305h-5.96127v-9.85907h5.96127zM211.47348,158.83566h-5.96127v-9.85907h5.96127zM211.47348,147.91826h-5.96127v-9.85907h5.96127zM211.47348,137.00113h-5.96127v-9.85907h5.96127zM218.49307,169.75305h-5.96101v-9.85907h5.96101zM218.49307,158.83566h-5.96101v-9.85907h5.96101zM218.49307,147.91826h-5.96101v-9.85907h5.96101zM218.49307,137.00113h-5.96101v-9.85907h5.96101zM225.5124,169.75305h-5.96101v-9.85907h5.96101zM225.5124,158.83566h-5.96101v-9.85907h5.96101zM225.5124,147.91826h-5.96101v-9.85907h5.96101zM225.5124,137.00113h-5.96101v-9.85907h5.96101zM232.53173,169.75305h-5.96101v-9.85907h5.96101zM232.53173,158.83566h-5.96101v-9.85907h5.96101zM232.53173,147.91826h-5.96101v-9.85907h5.96101zM232.53173,137.00113h-5.96101v-9.85907h5.96101z" id="e58d0529-e07f-46bf-85b2-3c0953ff9755" fill="none" fill-rule="nonzero" stroke="#9926ff"/><g id="g-41f1181d-4338-4398-ad26-8373d4013e3e" fill="none" fill-rule="nonzero" stroke="#9926ff"><path d="M89.76966,51.69183l-1.125,-1.94864l1.94864,-1.125l1.125,1.94864z" id="4c7f5f18-280c-4d89-b311-6329e8e16133"/><path d="M90.59303,60.11476l-1.94864,-1.125l1.125,-1.94864l1.94864,1.125z" id="9122ee3a-926b-4b83-bd6a-5848413711e9"/><path d="M82.32303,50.24219l-9.52491,-16.49767l1.94864,-1.125l9.52491,16.49767z" id="e8581ec8-e451-4167-b7f9-20b829f6b529"/><path d="M74.74649,76.11343l-1.94864,-1.125l9.52491,-16.49767l1.94864,1.125z" id="b35d5b51-8409-40bc-9f90-84cc12f1c5c0"/><path d="M77.2145,83.28753l-1.94864,-1.125l1.125,-1.94864l1.94864,1.125z" id="c46e89ce-4a8b-4592-acbc-6abea708125e"/><path d="M77.2145,25.44569l1.125,1.94864l-1.94864,1.125l-1.125,-1.94864z" id="6471b218-e477-427c-a477-cd3d2ead9ba1"/><path d="M70.63332,23.89604h-2.25v-2.24999h2.25z" id="15b9fad5-f47f-4693-b698-39390e3e0e9e"/><path d="M70.63332,87.08718h-2.25v-2.24999h2.25z" id="47a47609-b172-463a-be99-d46aaad9cd24"/><path d="M65.65444,29.61998h-19.04982v-2.24999h19.04982z" id="bf349743-f59e-42fe-9825-406212ee6124"/><path d="M65.65444,81.36297h-19.04982v-2.24999h19.04982z" id="878f553a-c4ca-4e7f-90cf-0a2c786a4473"/><path d="M43.87573,23.89604h-2.25v-2.24999h2.25z" id="0dbde1f4-7f2f-4229-9b06-e7c57b38eaff"/><path d="M43.87573,87.08718h-2.25v-2.24999h2.25z" id="1066de49-74df-4d8b-8266-2d75eefcf555"/><path d="M29.93602,50.24219l-1.94864,-1.125l9.52491,-16.49767l1.94864,1.125z" id="9f8264e3-79b6-4b28-84cb-6ecf95c97f6c"/><path d="M37.5123,76.11343l-9.52491,-16.49767l1.94864,-1.125l9.52491,16.49767z" id="bf690a9d-e12f-430a-9f93-e01367bc8b1d"/><path d="M35.04455,83.28753l-1.125,-1.94864l1.94864,-1.125l1.125,1.94864z" id="6c270417-3383-4aea-ac2f-9e7176ee0306"/><path d="M22.48913,51.69183l-1.94864,-1.125l1.125,-1.94864l1.94864,1.125z" id="52d48133-06ca-44ad-af19-4d9ed4f54dc8"/><path d="M21.66576,60.11476l-1.125,-1.94864l1.94864,-1.125l1.125,1.94864z" id="9740f760-4bb5-49e1-9f20-246e9b1f0bcc"/><path d="M35.04455,25.44569l1.94864,1.125l-1.125,1.94864l-1.94864,-1.125z" id="8f185902-ceb1-4682-b8e3-cb43a71186fb"/><path d="M95.22389,48.70048l-14.64323,-25.36297c-2.02431,-3.50622 -5.76522,-5.666 -9.81383,-5.666h-29.28645c-4.04862,0 -7.78952,2.15977 -9.81383,5.666l-14.64323,25.36297c-2.02431,3.50622 -2.02431,7.82577 0,11.33199l14.64323,25.36297c2.02431,3.50596 5.76522,5.666 9.81383,5.666h29.28645c4.04862,0 7.78952,-2.15977 9.81383,-5.666l14.64323,-25.36297c2.02431,-3.50622 2.02431,-7.82577 0,-11.33199z" id="c0d264c5-2326-44b7-b654-6eeb9ec89bdb"/></g><g id="g-2cd0b704-6141-49fb-81de-04417ef558cb" fill-rule="nonzero"><path d="M90.37604,38.26066c30.26611,-1.35554 45.39916,-2.0333 45.39916,-2.0333c-0.04604,0.79215 -0.03413,1.26787 0.28337,1.59913c0.80142,0.83687 3.15645,0.35639 3.57184,-0.77734c0.36777,-1.00382 -1.0443,-2.5413 -1.84651,-3.32128l0,-13.78571c0.803,-0.78051 2.21428,-2.31773 1.84651,-3.32128c-0.41539,-1.13373 -2.77043,-1.61394 -3.57184,-0.77734c-0.31723,0.33126 -0.3294,0.80697 -0.28337,1.59886c0,0 -15.13305,-0.67768 -45.39916,-2.03304zM92.49268,17.62336l43.17457,1.93356l0,14.55644l-43.17457,1.93382l0,-18.42382z" id="e85f37b9-cca2-4a62-9e9d-ca9a973b504d" fill="#f9932b" stroke="#fa9228"/><path d="M90.37604,38.25564l45.39916,-2.0333c-0.04604,0.79215 -0.03413,1.26787 0.28337,1.59913c0.80142,0.83687 3.15645,0.35639 3.57184,-0.77734c0.36777,-1.00382 -1.0443,-2.5413 -1.84651,-3.32128l0,-13.78571c0.803,-0.78051 2.21428,-2.31773 1.84651,-3.32128c-0.41539,-1.13373 -2.77043,-1.61394 -3.57184,-0.77734c-0.31723,0.33126 -0.3294,0.80697 -0.28337,1.59886l-45.39916,-2.03304zM92.49269,17.61834l43.17457,1.93356l0,14.55644l-43.17457,1.93382l0,-18.42382z" id="f8f5efbc-898b-48fe-a434-8c3db4ee5722" fill="none" stroke="#9926ff"/></g><g id="g-f67d4fad-a2dd-457c-81da-7f4e742b309c" fill="none" stroke="#9926ff"><ellipse cx="67.31086" cy="264.1782" transform="scale(0.74999,0.74999)" rx="23.64306" ry="23.64306" id="f3874163-0863-4aaf-9c47-41990f2d4628" fill-rule="evenodd"/><ellipse cx="67.31086" cy="264.1782" transform="scale(0.74999,0.74999)" rx="31.99697" ry="31.99697" id="40716d69-b866-4ddd-9cc4-3040f4e0ee33" fill-rule="evenodd"/><path d="M67.97158,168.20332l-34.97124,-0.0037c-0.01667,0.02884 -17.47292,30.25613 -17.48932,30.28418c0.01667,0.02884 17.46657,30.25983 17.48271,30.28814h34.97335c0.01667,-0.02884 17.47107,-30.25243 17.48721,-30.28047c-0.01667,-0.0291 -17.4663,-30.2601 -17.48271,-30.28814zM66.26159,225.81789h-31.56211c-0.01455,-0.02566 -15.7624,-27.30817 -15.77748,-27.3341c0.01482,-0.0254 15.76849,-27.30447 15.78357,-27.3304l31.56026,0.00344c0.01482,0.0254 15.7624,27.30764 15.77748,27.3341c-0.01455,0.02514 -15.76664,27.30103 -15.78172,27.32696z" id="7a06ebf7-602d-4fa6-9966-235dd31b1e77" fill-rule="nonzero"/></g><g id="g-408fae40-46f0-43e4-8598-76dd71935231" fill="#000000" fill-rule="nonzero" stroke="none" font-family="Inter, ui-sans-serif, system-ui, sans-serif" font-weight="400" font-size="16" text-anchor="start"/></g><g id="layer_undefined" fill="#000000" fill-rule="nonzero" stroke="none" font-family="Inter, ui-sans-serif, system-ui, sans-serif" font-weight="400" font-size="16" text-anchor="start"/><g fill="#fa9228" fill-rule="nonzero" stroke="#fa9228"><path d="M75.28988,99.60576l-34.97124,-0.0037c-0.01667,0.02884 -17.47292,30.25613 -17.48932,30.28418c0.01667,0.02884 17.46657,30.25983 17.48271,30.28814h34.97335c0.01667,-0.02884 17.47107,-30.25243 17.48721,-30.28047c-0.01667,-0.0291 -17.4663,-30.2601 -17.48271,-30.28814zM75.24728,160.10797h-34.89689l-17.44461,-30.222l17.45096,-30.21803l34.89477,0.0037l17.44461,30.222z" id="e3adf787-0ea9-455c-ab2a-95a359850d2e"/><path d="M147.00133,199.67749c-0.3929,1.88911 -1.6359,1.32132 -1.85207,0c-0.49953,2.40107 -2.27831,0.75829 -1.81344,-0.92921l0.05265,-0.00476c0.21801,0.43047 0.70987,1.6875 0.89957,1.73115c0.05239,0.04683 0.24976,-0.15954 0.29448,-0.21405c0.31406,-0.39819 0.49926,-1.02022 0.6051,-1.51684c0.03228,0.00291 0.02037,0.00291 0.05265,0c0.21801,0.43047 0.70987,1.6875 0.89957,1.73115c0.05239,0.04683 0.24976,-0.15954 0.29448,-0.21405c0.31406,-0.39819 0.49926,-1.02022 0.6051,-1.51684c0.03228,0.00291 0.02037,0.00291 0.05265,0c0.21801,0.43047 0.70987,1.6875 0.89957,1.73115c0.01085,0.00952 0.07302,-0.0082 0.12753,-0.05001c0.39343,-0.26299 0.67018,-1.20252 0.77231,-1.68115l0.05265,0.00476c0.00476,0.38205 -0.04048,0.76675 -0.14076,1.14775c-0.51778,1.72612 -1.6158,0.9218 -1.80206,-0.21907zM148.01812,194.7121l-0.05265,-0.00476c-0.10583,0.49662 -0.29077,1.11838 -0.6051,1.51684c-0.04498,0.0545 -0.24209,0.26088 -0.29448,0.21405c-0.1942,-0.04498 -0.66886,-1.27607 -0.89957,-1.73115c-0.03228,0.00291 -0.02037,0.00291 -0.05265,0c-0.10213,0.47863 -0.37914,1.41815 -0.77231,1.68115c-0.0545,0.04207 -0.11668,0.05953 -0.12753,0.05001c-0.1942,-0.04498 -0.66886,-1.27607 -0.89957,-1.73115l-0.05265,0.00476c-0.46778,1.69808 1.31603,3.32075 1.81344,0.92921c0.04948,0.30215 0.13758,0.57176 0.33734,0.82629c0.91915,1.10886 1.6232,-0.33575 1.60574,-1.75523zM146.95106,192.20282c0.10028,-0.381 0.14552,-0.76596 0.14076,-1.14775l-0.05265,-0.00503c-0.10557,0.49635 -0.29077,1.11812 -0.6051,1.51684c-0.04498,0.0545 -0.24209,0.26088 -0.29448,0.21405c-0.1942,-0.04471 -0.6686,-1.27554 -0.89957,-1.73115l-0.05265,0.00503c-0.42994,1.56103 1.12447,3.27974 1.7637,1.14802zM149.7289,203.93433c0.10028,-0.381 0.14552,-0.76596 0.14076,-1.14775l-0.05265,-0.00476c-0.1016,0.47651 -0.37835,1.41762 -0.77231,1.68115c-0.0545,0.0418 -0.11668,0.05927 -0.12753,0.04974c-0.1942,-0.04471 -0.6686,-1.27554 -0.89957,-1.73115c-0.03228,0.00291 -0.02037,0.00291 -0.05265,0c-0.10583,0.49635 -0.29077,1.11838 -0.6051,1.51684c-0.04498,0.0545 -0.24209,0.26088 -0.29448,0.21405c-0.1942,-0.04471 -0.6686,-1.27554 -0.89957,-1.73115c-0.03228,0.00291 -0.02037,0.00291 -0.05265,0c-0.10583,0.49635 -0.29077,1.11838 -0.6051,1.51684c-0.04498,0.0545 -0.24209,0.26088 -0.29448,0.21405c-0.18918,-0.04366 -0.68209,-1.30227 -0.89957,-1.73115c-0.03228,0.00291 -0.02037,0.00291 -0.05265,0c-0.10583,0.49635 -0.29077,1.11838 -0.6051,1.51684c-0.04498,0.0545 -0.24209,0.26088 -0.29448,0.21405c-0.1942,-0.04471 -0.6686,-1.27554 -0.89957,-1.73115l-0.05265,0.00476c-0.46857,1.70072 1.31655,3.31758 1.81344,0.92921c0.21272,1.29936 1.45599,1.90445 1.85207,0c0.21722,1.32687 1.46207,1.87482 1.85207,0c0.18574,1.13664 1.28692,1.93726 1.8018,0.2196zM150.79569,206.80609l-0.05265,-0.00503c-0.10557,0.49635 -0.29077,1.11812 -0.6051,1.51684c-0.04498,0.0545 -0.24236,0.26088 -0.29448,0.21405c-0.1942,-0.04471 -0.6686,-1.27554 -0.89957,-1.73115c-0.03228,0.00291 -0.02037,0.00291 -0.05265,0c-0.10213,0.47863 -0.37914,1.41815 -0.77231,1.68115c-0.0545,0.0418 -0.11668,0.05927 -0.12753,0.04974c-0.1942,-0.04471 -0.6686,-1.27554 -0.89957,-1.73115c-0.03228,0.00291 -0.02037,0.00291 -0.05265,0c-0.10557,0.49635 -0.29077,1.11812 -0.6051,1.51684c-0.04498,0.0545 -0.24209,0.26088 -0.29448,0.21405c-0.1942,-0.04471 -0.6686,-1.27554 -0.89957,-1.73115c-0.03228,0.00291 -0.02037,0.00291 -0.05265,0c-0.10213,0.47863 -0.37914,1.41815 -0.77231,1.68115c-0.0545,0.0418 -0.11668,0.05927 -0.12753,0.04974c-0.1942,-0.04471 -0.6686,-1.27554 -0.89957,-1.73115c-0.03228,0.00291 -0.02037,0.00291 -0.05265,0c-0.10557,0.49635 -0.29077,1.11812 -0.6051,1.51684c-0.04498,0.0545 -0.24209,0.26088 -0.29448,0.21405c-0.1942,-0.04471 -0.6686,-1.27554 -0.89957,-1.73115l-0.05265,0.00503c-0.46778,1.69808 1.31603,3.32075 1.81344,0.92921c0.21034,1.28586 1.45652,1.90101 1.85207,0c0.21034,1.28586 1.45652,1.90101 1.85207,0c0.21563,1.31867 1.45996,1.88461 1.85207,0c0.13282,0.812 0.79321,1.5687 1.36788,1.03848c0.4445,-0.4191 0.58287,-1.35412 0.57467,-1.96636zM152.50647,212.41917c0.10028,-0.381 0.14552,-0.76596 0.14076,-1.14775l-0.05265,-0.00503c-0.10213,0.47863 -0.37914,1.41815 -0.77231,1.68115c-0.0545,0.0418 -0.11668,0.05927 -0.12753,0.04974c-0.1942,-0.04471 -0.6686,-1.27554 -0.89957,-1.73115c-0.03228,0.00291 -0.02037,0.00291 -0.05265,0c-0.10557,0.49635 -0.29077,1.11812 -0.6051,1.51684c-0.04498,0.0545 -0.24236,0.26088 -0.29448,0.21405c-0.1942,-0.04471 -0.6686,-1.27554 -0.89957,-1.73115c-0.03228,0.00291 -0.02037,0.00291 -0.05265,0c-0.10557,0.49635 -0.29077,1.11812 -0.6051,1.51684c-0.04498,0.0545 -0.24209,0.26088 -0.29448,0.21405c-0.1942,-0.04471 -0.6686,-1.27554 -0.89957,-1.73115c-0.03228,0.00291 -0.02037,0.00291 -0.05265,0c-0.10557,0.49635 -0.29077,1.11812 -0.6051,1.51684c-0.04498,0.0545 -0.24209,0.26088 -0.29448,0.21405c-0.19632,-0.04524 -0.65457,-1.24776 -0.89957,-1.73115c-0.03228,0.00291 -0.02037,0.00291 -0.05265,0c-0.10557,0.49635 -0.29077,1.11812 -0.6051,1.51684c-0.04498,0.0545 -0.24209,0.26088 -0.29448,0.21405c-0.1942,-0.04471 -0.6686,-1.27554 -0.89957,-1.73115c-0.03228,0.00291 -0.02037,0.00291 -0.05265,0c-0.10557,0.49635 -0.29077,1.11812 -0.6051,1.51684c-0.04498,0.0545 -0.24209,0.26088 -0.29448,0.21405c-0.18918,-0.04366 -0.68209,-1.30253 -0.89957,-1.73115c-0.03228,0.00291 -0.02037,0.00291 -0.05265,0c-0.09975,0.46751 -0.37835,1.41762 -0.77231,1.68115c-0.0545,0.0418 -0.11668,0.05927 -0.12753,0.04974c-0.19632,-0.04524 -0.65457,-1.24776 -0.89957,-1.73115l-0.05265,0.00503c-0.46169,1.67559 1.30941,3.35277 1.81344,0.92921c0.21722,1.32714 1.46049,1.88276 1.85207,0c0.2204,1.34645 1.46631,1.85418 1.85207,0c0.2151,1.31523 1.46049,1.88223 1.85207,0c0.21246,1.29777 1.45678,1.90022 1.85207,0c0.22066,1.34804 1.46657,1.85259 1.85207,0c0.18388,1.12394 1.28136,1.95605 1.80127,0.2204zM153.43224,217.7756c0.10028,-0.381 0.14552,-0.76596 0.14076,-1.14775l-0.05265,-0.00476c-0.10583,0.49635 -0.29077,1.11838 -0.6051,1.51684c-0.04471,0.05424 -0.24209,0.26088 -0.29448,0.21405c-0.1942,-0.04498 -0.66886,-1.27607 -0.89957,-1.73115c-0.03228,0.00291 -0.02037,0.00291 -0.05265,0c-0.10583,0.49635 -0.29077,1.11838 -0.6051,1.51684c-0.04471,0.05424 -0.24209,0.26088 -0.29448,0.21405c-0.18944,-0.04392 -0.6813,-1.30094 -0.89957,-1.73115c-0.03228,0.00291 -0.02037,0.00291 -0.05265,0c-0.09975,0.46751 -0.37835,1.41762 -0.77231,1.68115c-0.0545,0.04207 -0.11668,0.05953 -0.12753,0.05001c-0.1942,-0.04498 -0.66886,-1.27607 -0.89957,-1.73115c-0.03228,0.00291 -0.02037,0.00291 -0.05265,0c-0.10583,0.49662 -0.29077,1.11838 -0.6051,1.51684c-0.04471,0.05424 -0.24209,0.26088 -0.29448,0.21405c-0.1942,-0.04498 -0.66886,-1.27607 -0.89957,-1.73115c-0.03228,0.00291 -0.02037,0.00291 -0.05265,0c-0.10583,0.49662 -0.29077,1.11838 -0.6051,1.51684c-0.04471,0.05424 -0.24209,0.26088 -0.29448,0.21405c-0.18944,-0.04392 -0.6813,-1.30094 -0.89957,-1.73115c-0.03228,0.00291 -0.02037,0.00291 -0.05265,0c-0.10583,0.49662 -0.29077,1.11838 -0.6051,1.51684c-0.04471,0.05424 -0.24209,0.26088 -0.29448,0.21405c-0.18944,-0.04392 -0.6813,-1.30094 -0.89957,-1.73115c-0.03228,0.00291 -0.02037,0.00291 -0.05265,0c-0.09975,0.46751 -0.37835,1.41762 -0.77231,1.68115c-0.0545,0.04207 -0.11668,0.05953 -0.12753,0.05001c-0.1942,-0.04498 -0.66886,-1.27607 -0.89957,-1.73115c-0.03228,0.00291 -0.02037,0.00291 -0.05265,0c-0.10583,0.49662 -0.29077,1.11838 -0.6051,1.51684c-0.04471,0.05424 -0.24209,0.26088 -0.29448,0.21405c-0.18944,-0.04392 -0.6813,-1.30094 -0.89957,-1.73115l-0.05265,0.00476c-0.4646,1.68617 1.31232,3.33822 1.81344,0.92921c0.21643,1.3229 1.46049,1.8817 1.85207,0c0.21193,1.29512 1.45493,1.90895 1.85207,0c0.21219,1.29671 1.45546,1.9071 1.85207,0c0.22992,1.40598 1.47107,1.83143 1.85207,0c0.20346,1.243 1.44673,1.94811 1.85207,0c0.21484,1.31259 1.4581,1.89413 1.85207,0c0.18388,1.12394 1.28136,1.95578 1.801,0.22013zM138.66413,223.64453c0.2196,1.34169 1.46498,1.86053 1.85207,0c0.21034,1.28586 1.45652,1.90101 1.85207,0c0.22225,1.35862 1.46816,1.84492 1.85207,0c0.21034,1.28586 1.45652,1.90101 1.85207,0c0.20505,1.25305 1.44832,1.94096 1.85207,0c0.21034,1.2856 1.45652,1.90101 1.85207,0c0.21034,1.28586 1.45652,1.90101 1.85207,0c0.22013,1.34513 1.46393,1.86556 1.85207,0c0.18415,1.12473 1.2811,1.95684 1.80259,0.21854c0.10028,-0.381 0.14552,-0.76596 0.14076,-1.14775l-0.05265,-0.00503c-0.10583,0.49635 -0.29077,1.11812 -0.6051,1.51684c-0.04498,0.0545 -0.24236,0.26088 -0.29448,0.21405c-0.1942,-0.04471 -0.6686,-1.27554 -0.89957,-1.73115c-0.03228,0.00291 -0.02037,0.00291 -0.05265,0c-0.10583,0.49635 -0.29077,1.11812 -0.6051,1.51684c-0.04498,0.0545 -0.24236,0.26088 -0.29448,0.21405c-0.19632,-0.04524 -0.65457,-1.24776 -0.89957,-1.73115c-0.03228,0.00291 -0.02037,0.00291 -0.05265,0c-0.10583,0.49635 -0.29077,1.11812 -0.6051,1.51684c-0.04498,0.0545 -0.24236,0.26088 -0.29448,0.21405c-0.1942,-0.04471 -0.6686,-1.27554 -0.89957,-1.73115c-0.03228,0.00291 -0.02037,0.00291 -0.05265,0c-0.10583,0.49635 -0.29077,1.11812 -0.6051,1.51684c-0.04498,0.0545 -0.24236,0.26088 -0.29448,0.21405c-0.1942,-0.04471 -0.6686,-1.27554 -0.89957,-1.73115c-0.03228,0.00291 -0.02037,0.00291 -0.05265,0c-0.10557,0.49635 -0.29077,1.11812 -0.6051,1.51684c-0.04498,0.0545 -0.24209,0.26088 -0.29448,0.21405c-0.1942,-0.04471 -0.6686,-1.27554 -0.89957,-1.73115c-0.03228,0.00291 -0.02037,0.00291 -0.05265,0c-0.10557,0.49635 -0.29077,1.11812 -0.6051,1.51684c-0.04498,0.0545 -0.24209,0.26088 -0.29448,0.21405c-0.1942,-0.04471 -0.6686,-1.27554 -0.89957,-1.73115c-0.03228,0.00291 -0.02037,0.00291 -0.05265,0c-0.10557,0.49635 -0.29077,1.11812 -0.6051,1.51684c-0.04498,0.0545 -0.24209,0.26088 -0.29448,0.21405c-0.1942,-0.04471 -0.6686,-1.27554 -0.89957,-1.73115c-0.03228,0.00291 -0.02037,0.00291 -0.05265,0c-0.10213,0.47863 -0.37914,1.41815 -0.77231,1.68115c-0.0545,0.0418 -0.11668,0.05927 -0.12753,0.04974c-0.1942,-0.04471 -0.6686,-1.27554 -0.89957,-1.73115c-0.03228,0.00291 -0.02037,0.00291 -0.05265,0c-0.10557,0.49635 -0.29077,1.11812 -0.6051,1.51684c-0.04498,0.0545 -0.24209,0.26088 -0.29448,0.21405c-0.1942,-0.04471 -0.6686,-1.27554 -0.89957,-1.73115c-0.03228,0.00291 -0.02037,0.00291 -0.05265,0c-0.10557,0.49635 -0.29077,1.11812 -0.6051,1.51684c-0.04498,0.0545 -0.24209,0.26088 -0.29448,0.21405c-0.1942,-0.04471 -0.6686,-1.27554 -0.89957,-1.73115l-0.05265,0.00503c-0.46778,1.69781 1.31603,3.32075 1.81106,0.93185z" id="fc1f9746-b66e-45b4-a901-4bf98c7b553b"/><path d="M131.88614,214.66007c0.10028,0.381 0.14552,0.7657 0.14076,1.14775l-0.05265,0.00476c-0.10213,-0.47863 -0.37888,-1.41815 -0.77231,-1.68115c-0.0545,-0.0418 -0.11668,-0.05953 -0.12753,-0.05001c-0.1897,0.04366 -0.68156,1.30068 -0.89957,1.73115c-0.03228,-0.00291 -0.02037,-0.00291 -0.05265,0c-0.10583,-0.49662 -0.29104,-1.11865 -0.6051,-1.51684c-0.04471,-0.0545 -0.24209,-0.26088 -0.29448,-0.21405c-0.1897,0.04366 -0.68156,1.30068 -0.89957,1.73115c-0.03228,-0.00291 -0.02037,-0.00291 -0.05265,0c-0.10583,-0.49662 -0.29104,-1.11865 -0.6051,-1.51684c-0.04471,-0.0545 -0.24209,-0.26088 -0.29448,-0.21405c-0.1897,0.04366 -0.68156,1.30068 -0.89957,1.73115l-0.05265,-0.00476c-0.46487,-1.6875 1.31391,-3.33028 1.81344,-0.92921c0.21616,-1.32132 1.45916,-1.88911 1.85207,0c0.18626,-1.14087 1.28428,-1.9452 1.80206,-0.21907zM129.49512,218.0893c-0.19976,0.25453 -0.28786,0.52413 -0.33734,0.82629c-0.49741,-2.39155 -2.28122,-0.76887 -1.81344,0.92921l0.05265,0.00476c0.23071,-0.45508 0.70537,-1.68617 0.89957,-1.73115c0.01085,-0.00952 0.07302,0.00794 0.12753,0.05001c0.39317,0.26299 0.67018,1.20252 0.77231,1.68115c0.03228,-0.00291 0.02037,-0.00291 0.05265,0c0.23071,-0.45508 0.70537,-1.68617 0.89957,-1.73115c0.05239,-0.04683 0.2495,0.15954 0.29448,0.21405c0.31432,0.39846 0.49926,1.02022 0.6051,1.51684l0.05265,-0.00476c0.01746,-1.41948 -0.68659,-2.86409 -1.60574,-1.75523zM128.27011,223.50183l0.05265,0.00503c0.23098,-0.45561 0.70537,-1.68644 0.89957,-1.73115c0.05239,-0.04683 0.2495,0.15954 0.29448,0.21405c0.31432,0.39872 0.49953,1.02049 0.6051,1.51684l0.05265,-0.00503c0.00476,-0.38179 -0.04048,-0.76675 -0.14076,-1.14775c-0.63923,-2.13173 -2.19364,-0.41301 -1.7637,1.14802zM131.00985,210.84164c-0.38999,-1.87482 -1.63484,-1.32687 -1.85207,0c-0.39608,-1.90445 -1.63934,-1.29936 -1.85207,0c-0.49688,-2.38837 -2.28201,-0.77152 -1.81344,0.92921l0.05265,0.00476c0.23098,-0.45561 0.70537,-1.68644 0.89957,-1.73115c0.05239,-0.04683 0.2495,0.15954 0.29448,0.21405c0.31432,0.39846 0.49926,1.02049 0.6051,1.51684c0.03228,-0.00291 0.02037,-0.00291 0.05265,0c0.21749,-0.42889 0.7104,-1.6875 0.89957,-1.73115c0.05239,-0.04683 0.2495,0.15954 0.29448,0.21405c0.31432,0.39846 0.49926,1.02049 0.6051,1.51684c0.03228,-0.00291 0.02037,-0.00291 0.05265,0c0.23098,-0.45561 0.70537,-1.68644 0.89957,-1.73115c0.05239,-0.04683 0.2495,0.15954 0.29448,0.21405c0.31432,0.39846 0.49926,1.02049 0.6051,1.51684c0.03228,-0.00291 0.02037,-0.00291 0.05265,0c0.23098,-0.45561 0.70537,-1.68644 0.89957,-1.73115c0.01085,-0.00952 0.07302,0.00794 0.12753,0.04974c0.39396,0.26352 0.67071,1.20464 0.77231,1.68115l0.05265,-0.00476c0.00476,-0.38179 -0.04048,-0.76675 -0.14076,-1.14775c-0.51487,-1.71739 -1.61606,-0.91677 -1.8018,0.2196zM133.30376,205.78391c-0.57467,-0.53022 -1.23506,0.22648 -1.36788,1.03848c-0.39211,-1.88461 -1.63643,-1.31867 -1.85207,0c-0.39555,-1.90101 -1.64172,-1.28586 -1.85207,0c-0.39555,-1.90101 -1.64172,-1.28586 -1.85207,0c-0.49741,-2.39155 -2.28122,-0.76887 -1.81344,0.92921l0.05265,0.00503c0.23098,-0.45561 0.70537,-1.68644 0.89957,-1.73115c0.05239,-0.04683 0.2495,0.15954 0.29448,0.21405c0.31432,0.39872 0.49953,1.02049 0.6051,1.51684c0.03228,-0.00291 0.02037,-0.00291 0.05265,0c0.23098,-0.45561 0.70537,-1.68644 0.89957,-1.73115c0.01085,-0.00952 0.07302,0.00794 0.12753,0.04974c0.39317,0.26299 0.67018,1.20252 0.77231,1.68115c0.03228,-0.00291 0.02037,-0.00291 0.05265,0c0.23098,-0.45561 0.70537,-1.68644 0.89957,-1.73115c0.05239,-0.04683 0.2495,0.15954 0.29448,0.21405c0.31432,0.39872 0.49953,1.02049 0.6051,1.51684c0.03228,-0.00291 0.02037,-0.00291 0.05265,0c0.23098,-0.45561 0.70537,-1.68644 0.89957,-1.73115c0.01085,-0.00952 0.07302,0.00794 0.12753,0.04974c0.39317,0.26299 0.67018,1.20252 0.77231,1.68115c0.03228,-0.00291 0.02037,-0.00291 0.05265,0c0.23098,-0.45561 0.70537,-1.68644 0.89957,-1.73115c0.05212,-0.04683 0.2495,0.15954 0.29448,0.21405c0.31432,0.39872 0.49953,1.02049 0.6051,1.51684l0.05265,-0.00503c0.0082,-0.61198 -0.13017,-1.547 -0.57467,-1.96636zM133.78795,202.35759c-0.38549,-1.85259 -1.63141,-1.34804 -1.85207,0c-0.39528,-1.90022 -1.63961,-1.29777 -1.85207,0c-0.39158,-1.88223 -1.63696,-1.31523 -1.85207,0c-0.38576,-1.85418 -1.63167,-1.34645 -1.85207,0c-0.39158,-1.88276 -1.63484,-1.32714 -1.85207,0c-0.50403,-2.42356 -2.27513,-0.74638 -1.81344,0.92921l0.05265,0.00503c0.245,-0.48339 0.70326,-1.68591 0.89957,-1.73115c0.01085,-0.00952 0.07302,0.00794 0.12753,0.04974c0.39396,0.26352 0.67256,1.21363 0.77231,1.68115c0.03228,-0.00291 0.02037,-0.00291 0.05265,0c0.21749,-0.42862 0.7104,-1.6875 0.89957,-1.73115c0.05239,-0.04683 0.2495,0.15954 0.29448,0.21405c0.31432,0.39872 0.49953,1.02049 0.6051,1.51684c0.03228,-0.00291 0.02037,-0.00291 0.05265,0c0.23098,-0.45561 0.70537,-1.68644 0.89957,-1.73115c0.05239,-0.04683 0.2495,0.15954 0.29448,0.21405c0.31432,0.39872 0.49953,1.02049 0.6051,1.51684c0.03228,-0.00291 0.02037,-0.00291 0.05265,0c0.245,-0.48339 0.70326,-1.68591 0.89957,-1.73115c0.05239,-0.04683 0.2495,0.15954 0.29448,0.21405c0.31432,0.39872 0.49953,1.02049 0.6051,1.51684c0.03228,-0.00291 0.02037,-0.00291 0.05265,0c0.23098,-0.45561 0.70537,-1.68644 0.89957,-1.73115c0.05239,-0.04683 0.2495,0.15954 0.29448,0.21405c0.31432,0.39872 0.49953,1.02049 0.6051,1.51684c0.03228,-0.00291 0.02037,-0.00291 0.05265,0c0.23098,-0.45561 0.70537,-1.68644 0.89957,-1.73115c0.05212,-0.04683 0.2495,0.15954 0.29448,0.21405c0.31432,0.39872 0.49953,1.02049 0.6051,1.51684c0.03228,-0.00291 0.02037,-0.00291 0.05265,0c0.23098,-0.45561 0.70537,-1.68644 0.89957,-1.73115c0.01085,-0.00952 0.07302,0.00794 0.12753,0.04974c0.39317,0.26299 0.67018,1.20252 0.77231,1.68115l0.05265,-0.00503c0.00476,-0.38179 -0.04048,-0.76675 -0.14076,-1.14775c-0.5199,-1.73539 -1.61738,-0.90354 -1.80127,0.2204zM134.71398,197.00089c-0.39396,-1.89413 -1.63723,-1.31259 -1.85207,0c-0.40534,-1.94811 -1.6486,-1.243 -1.85207,0c-0.381,-1.83143 -1.62215,-1.40598 -1.85207,0c-0.39661,-1.9071 -1.63987,-1.29671 -1.85207,0c-0.39714,-1.90895 -1.64014,-1.29512 -1.85207,0c-0.39158,-1.8817 -1.63564,-1.3229 -1.85207,0c-0.50112,-2.40901 -2.27804,-0.75697 -1.81344,0.92921l0.05265,0.00476c0.21828,-0.43021 0.71013,-1.68723 0.89957,-1.73115c0.05239,-0.04683 0.24976,0.15981 0.29448,0.21405c0.31432,0.39846 0.49926,1.02022 0.6051,1.51684c0.03228,-0.00291 0.02037,-0.00291 0.05265,0c0.23071,-0.45508 0.70537,-1.68617 0.89957,-1.73115c0.01085,-0.00952 0.07302,0.00794 0.12753,0.05001c0.39396,0.26352 0.67256,1.21363 0.77231,1.68115c0.03228,-0.00291 0.02037,-0.00291 0.05265,0c0.21828,-0.43021 0.71013,-1.68723 0.89957,-1.73115c0.05239,-0.04683 0.24976,0.15981 0.29448,0.21405c0.31432,0.39846 0.49926,1.02022 0.6051,1.51684c0.03228,-0.00291 0.02037,-0.00291 0.05265,0c0.21828,-0.43021 0.71013,-1.68723 0.89957,-1.73115c0.05239,-0.04683 0.24976,0.15981 0.29448,0.21405c0.31432,0.39846 0.49926,1.02022 0.6051,1.51684c0.03228,-0.00291 0.02037,-0.00291 0.05265,0c0.23071,-0.45508 0.70537,-1.68617 0.89957,-1.73115c0.05239,-0.04683 0.24976,0.15981 0.29448,0.21405c0.31432,0.39846 0.49926,1.02022 0.6051,1.51684c0.03228,-0.00291 0.02037,-0.00291 0.05265,0c0.23071,-0.45508 0.70537,-1.68617 0.89957,-1.73115c0.01085,-0.00952 0.07302,0.00794 0.12753,0.05001c0.39396,0.26352 0.67256,1.21363 0.77231,1.68115c0.03228,-0.00291 0.02037,-0.00291 0.05265,0c0.21828,-0.43021 0.71013,-1.68723 0.89957,-1.73115c0.05239,-0.04683 0.24976,0.15981 0.29448,0.21405c0.31432,0.39846 0.49926,1.02049 0.6051,1.51684c0.03228,-0.00291 0.02037,-0.00291 0.05265,0c0.23071,-0.45508 0.70537,-1.68617 0.89957,-1.73115c0.05239,-0.04683 0.24976,0.15981 0.29448,0.21405c0.31432,0.39846 0.49926,1.02049 0.6051,1.51684l0.05265,-0.00476c0.00476,-0.38179 -0.04048,-0.76675 -0.14076,-1.14775c-0.51964,-1.73539 -1.61712,-0.90381 -1.801,0.22013zM119.93582,191.84368l0.05265,0.00503c0.23098,-0.45561 0.70537,-1.68644 0.89957,-1.73115c0.05239,-0.04683 0.2495,0.15954 0.29448,0.21405c0.31432,0.39872 0.49953,1.02049 0.6051,1.51684c0.03228,-0.00291 0.02037,-0.00291 0.05265,0c0.23098,-0.45561 0.70537,-1.68644 0.89957,-1.73115c0.05239,-0.04683 0.2495,0.15954 0.29448,0.21405c0.31432,0.39872 0.49953,1.02049 0.6051,1.51684c0.03228,-0.00291 0.02037,-0.00291 0.05265,0c0.23098,-0.45561 0.70537,-1.68644 0.89957,-1.73115c0.01085,-0.00952 0.07302,0.00794 0.12753,0.04974c0.39317,0.26299 0.67018,1.20252 0.77231,1.68115c0.03228,-0.00291 0.02037,-0.00291 0.05265,0c0.23098,-0.45561 0.70537,-1.68644 0.89957,-1.73115c0.05239,-0.04683 0.2495,0.15954 0.29448,0.21405c0.31432,0.39872 0.49953,1.02049 0.6051,1.51684c0.03228,-0.00291 0.02037,-0.00291 0.05265,0c0.23098,-0.45561 0.70537,-1.68644 0.89957,-1.73115c0.05239,-0.04683 0.2495,0.15954 0.29448,0.21405c0.31432,0.39872 0.49953,1.02049 0.6051,1.51684c0.03228,-0.00291 0.02037,-0.00291 0.05265,0c0.23098,-0.45561 0.70537,-1.68644 0.89957,-1.73115c0.05239,-0.04683 0.2495,0.15954 0.29448,0.21405c0.31432,0.39872 0.49953,1.02049 0.6051,1.51684c0.03228,-0.00291 0.02037,-0.00291 0.05265,0c0.23098,-0.45561 0.70537,-1.68644 0.89957,-1.73115c0.05212,-0.04683 0.2495,0.15954 0.29448,0.21405c0.31432,0.39872 0.49926,1.02049 0.6051,1.51684c0.03228,-0.00291 0.02037,-0.00291 0.05265,0c0.23098,-0.45561 0.70537,-1.68644 0.89957,-1.73115c0.05212,-0.04683 0.2495,0.15954 0.29448,0.21405c0.31432,0.39872 0.49926,1.02049 0.6051,1.51684c0.03228,-0.00291 0.02037,-0.00291 0.05265,0c0.245,-0.48339 0.70326,-1.68591 0.89957,-1.73115c0.05212,-0.04683 0.2495,0.15954 0.29448,0.21405c0.31432,0.39872 0.49926,1.02049 0.6051,1.51684c0.03228,-0.00291 0.02037,-0.00291 0.05265,0c0.23098,-0.45561 0.70537,-1.68644 0.89957,-1.73115c0.05212,-0.04683 0.2495,0.15954 0.29448,0.21405c0.31432,0.39872 0.49926,1.02049 0.6051,1.51684l0.05265,-0.00503c0.00476,-0.38179 -0.04048,-0.76675 -0.14076,-1.14775c-0.52149,-1.7383 -1.61844,-0.90619 -1.80259,0.21854c-0.38814,-1.86556 -1.63193,-1.34513 -1.85207,0c-0.39555,-1.90101 -1.64172,-1.28586 -1.85207,0c-0.39555,-1.90101 -1.64172,-1.2856 -1.85207,0c-0.40375,-1.94096 -1.64702,-1.25305 -1.85207,0c-0.39555,-1.90101 -1.64172,-1.28586 -1.85207,0c-0.38391,-1.84492 -1.62982,-1.35862 -1.85207,0c-0.39555,-1.90101 -1.64172,-1.28586 -1.85207,0c-0.38708,-1.86053 -1.63246,-1.34169 -1.85207,0c-0.49503,-2.38863 -2.27883,-0.76596 -1.81106,0.93185z" id="9f88664e-491b-40d4-ba6e-e475123d6223"/><path d="M114.51519,199.82248c-0.3929,1.88911 -1.6359,1.32132 -1.85207,0c-0.49953,2.40107 -2.27831,0.75829 -1.81344,-0.92921l0.05265,-0.00476c0.21801,0.43047 0.70987,1.6875 0.89957,1.73115c0.05239,0.04683 0.24976,-0.15954 0.29448,-0.21405c0.31406,-0.39819 0.49926,-1.02022 0.6051,-1.51684c0.03228,0.00291 0.02037,0.00291 0.05265,0c0.21801,0.43047 0.70987,1.6875 0.89957,1.73115c0.05239,0.04683 0.24976,-0.15954 0.29448,-0.21405c0.31406,-0.39819 0.49926,-1.02022 0.6051,-1.51684c0.03228,0.00291 0.02037,0.00291 0.05265,0c0.21801,0.43047 0.70987,1.6875 0.89957,1.73115c0.01085,0.00952 0.07302,-0.0082 0.12753,-0.05001c0.39343,-0.26299 0.67018,-1.20252 0.77231,-1.68115l0.05265,0.00476c0.00476,0.38205 -0.04048,0.76675 -0.14076,1.14775c-0.51778,1.72612 -1.6158,0.9218 -1.80206,-0.21907zM115.53197,194.85709l-0.05265,-0.00476c-0.10583,0.49662 -0.29077,1.11838 -0.6051,1.51684c-0.04498,0.0545 -0.24209,0.26088 -0.29448,0.21405c-0.1942,-0.04498 -0.66886,-1.27607 -0.89957,-1.73115c-0.03228,0.00291 -0.02037,0.00291 -0.05265,0c-0.10213,0.47863 -0.37914,1.41815 -0.77231,1.68115c-0.0545,0.04207 -0.11668,0.05953 -0.12753,0.05001c-0.1942,-0.04498 -0.66886,-1.27607 -0.89957,-1.73115l-0.05265,0.00476c-0.46778,1.69808 1.31603,3.32075 1.81344,0.92921c0.04948,0.30215 0.13758,0.57176 0.33734,0.82629c0.91915,1.10886 1.6232,-0.33575 1.60574,-1.75523zM114.46492,192.34781c0.10028,-0.381 0.14552,-0.76596 0.14076,-1.14775l-0.05265,-0.00503c-0.10557,0.49635 -0.29077,1.11812 -0.6051,1.51684c-0.04498,0.0545 -0.24209,0.26088 -0.29448,0.21405c-0.1942,-0.04471 -0.6686,-1.27554 -0.89957,-1.73115l-0.05265,0.00503c-0.42994,1.56103 1.12447,3.27974 1.7637,1.14802zM117.24275,204.07932c0.10028,-0.381 0.14552,-0.76596 0.14076,-1.14775l-0.05265,-0.00476c-0.1016,0.47651 -0.37835,1.41762 -0.77231,1.68115c-0.0545,0.0418 -0.11668,0.05927 -0.12753,0.04974c-0.1942,-0.04471 -0.6686,-1.27554 -0.89957,-1.73115c-0.03228,0.00291 -0.02037,0.00291 -0.05265,0c-0.10583,0.49635 -0.29077,1.11838 -0.6051,1.51684c-0.04498,0.0545 -0.24209,0.26088 -0.29448,0.21405c-0.1942,-0.04471 -0.6686,-1.27554 -0.89957,-1.73115c-0.03228,0.00291 -0.02037,0.00291 -0.05265,0c-0.10583,0.49635 -0.29077,1.11838 -0.6051,1.51684c-0.04498,0.0545 -0.24209,0.26088 -0.29448,0.21405c-0.18918,-0.04366 -0.68209,-1.30227 -0.89957,-1.73115c-0.03228,0.00291 -0.02037,0.00291 -0.05265,0c-0.10583,0.49635 -0.29077,1.11838 -0.6051,1.51684c-0.04498,0.0545 -0.24209,0.26088 -0.29448,0.21405c-0.1942,-0.04471 -0.6686,-1.27554 -0.89957,-1.73115l-0.05265,0.00476c-0.46857,1.70072 1.31655,3.31758 1.81344,0.92921c0.21272,1.29936 1.45599,1.90445 1.85207,0c0.21722,1.32687 1.46207,1.87482 1.85207,0c0.18574,1.13664 1.28692,1.93726 1.8018,0.2196zM118.30954,206.95108l-0.05265,-0.00503c-0.10557,0.49635 -0.29077,1.11812 -0.6051,1.51684c-0.04498,0.0545 -0.24236,0.26088 -0.29448,0.21405c-0.1942,-0.04471 -0.6686,-1.27554 -0.89957,-1.73115c-0.03228,0.00291 -0.02037,0.00291 -0.05265,0c-0.10213,0.47863 -0.37914,1.41815 -0.77231,1.68115c-0.0545,0.0418 -0.11668,0.05927 -0.12753,0.04974c-0.1942,-0.04471 -0.6686,-1.27554 -0.89957,-1.73115c-0.03228,0.00291 -0.02037,0.00291 -0.05265,0c-0.10557,0.49635 -0.29077,1.11812 -0.6051,1.51684c-0.04498,0.0545 -0.24209,0.26088 -0.29448,0.21405c-0.1942,-0.04471 -0.6686,-1.27554 -0.89957,-1.73115c-0.03228,0.00291 -0.02037,0.00291 -0.05265,0c-0.10213,0.47863 -0.37914,1.41815 -0.77231,1.68115c-0.0545,0.0418 -0.11668,0.05927 -0.12753,0.04974c-0.1942,-0.04471 -0.6686,-1.27554 -0.89957,-1.73115c-0.03228,0.00291 -0.02037,0.00291 -0.05265,0c-0.10557,0.49635 -0.29077,1.11812 -0.6051,1.51684c-0.04498,0.0545 -0.24209,0.26088 -0.29448,0.21405c-0.1942,-0.04471 -0.6686,-1.27554 -0.89957,-1.73115l-0.05265,0.00503c-0.46778,1.69808 1.31603,3.32075 1.81344,0.92921c0.21034,1.28586 1.45652,1.90101 1.85207,0c0.21034,1.28586 1.45652,1.90101 1.85207,0c0.21563,1.31867 1.45996,1.88461 1.85207,0c0.13282,0.812 0.79321,1.5687 1.36788,1.03848c0.4445,-0.4191 0.58287,-1.35412 0.57467,-1.96636zM120.02032,212.56416c0.10028,-0.381 0.14552,-0.76596 0.14076,-1.14775l-0.05265,-0.00503c-0.10213,0.47863 -0.37914,1.41815 -0.77231,1.68115c-0.0545,0.0418 -0.11668,0.05927 -0.12753,0.04974c-0.1942,-0.04471 -0.6686,-1.27554 -0.89957,-1.73115c-0.03228,0.00291 -0.02037,0.00291 -0.05265,0c-0.10557,0.49635 -0.29077,1.11812 -0.6051,1.51684c-0.04498,0.0545 -0.24236,0.26088 -0.29448,0.21405c-0.1942,-0.04471 -0.6686,-1.27554 -0.89957,-1.73115c-0.03228,0.00291 -0.02037,0.00291 -0.05265,0c-0.10557,0.49635 -0.29077,1.11812 -0.6051,1.51684c-0.04498,0.0545 -0.24209,0.26088 -0.29448,0.21405c-0.1942,-0.04471 -0.6686,-1.27554 -0.89957,-1.73115c-0.03228,0.00291 -0.02037,0.00291 -0.05265,0c-0.10557,0.49635 -0.29077,1.11812 -0.6051,1.51684c-0.04498,0.0545 -0.24209,0.26088 -0.29448,0.21405c-0.19632,-0.04524 -0.65457,-1.24776 -0.89957,-1.73115c-0.03228,0.00291 -0.02037,0.00291 -0.05265,0c-0.10557,0.49635 -0.29077,1.11812 -0.6051,1.51684c-0.04498,0.0545 -0.24209,0.26088 -0.29448,0.21405c-0.1942,-0.04471 -0.6686,-1.27554 -0.89957,-1.73115c-0.03228,0.00291 -0.02037,0.00291 -0.05265,0c-0.10557,0.49635 -0.29077,1.11812 -0.6051,1.51684c-0.04498,0.0545 -0.24209,0.26088 -0.29448,0.21405c-0.18918,-0.04366 -0.68209,-1.30253 -0.89957,-1.73115c-0.03228,0.00291 -0.02037,0.00291 -0.05265,0c-0.09975,0.46751 -0.37835,1.41762 -0.77231,1.68115c-0.0545,0.0418 -0.11668,0.05927 -0.12753,0.04974c-0.19632,-0.04524 -0.65457,-1.24776 -0.89957,-1.73115l-0.05265,0.00503c-0.46169,1.67559 1.30941,3.35277 1.81344,0.92921c0.21722,1.32714 1.46049,1.88276 1.85207,0c0.2204,1.34645 1.46631,1.85418 1.85207,0c0.2151,1.31523 1.46049,1.88223 1.85207,0c0.21246,1.29777 1.45678,1.90022 1.85207,0c0.22066,1.34804 1.46657,1.85259 1.85207,0c0.18388,1.1242 1.28136,1.95605 1.80127,0.2204zM120.94609,217.92059c0.10028,-0.381 0.14552,-0.76596 0.14076,-1.14775l-0.05265,-0.00476c-0.10583,0.49635 -0.29077,1.11838 -0.6051,1.51684c-0.04471,0.05424 -0.24209,0.26088 -0.29448,0.21405c-0.1942,-0.04498 -0.66886,-1.27607 -0.89957,-1.73115c-0.03228,0.00291 -0.02037,0.00291 -0.05265,0c-0.10583,0.49635 -0.29077,1.11838 -0.6051,1.51684c-0.04471,0.05424 -0.24209,0.26088 -0.29448,0.21405c-0.18944,-0.04392 -0.6813,-1.30094 -0.89957,-1.73115c-0.03228,0.00291 -0.02037,0.00291 -0.05265,0c-0.09975,0.46751 -0.37835,1.41762 -0.77231,1.68115c-0.0545,0.04207 -0.11668,0.05953 -0.12753,0.05001c-0.1942,-0.04498 -0.66886,-1.27607 -0.89957,-1.73115c-0.03228,0.00291 -0.02037,0.00291 -0.05265,0c-0.10583,0.49662 -0.29077,1.11838 -0.6051,1.51684c-0.04471,0.05424 -0.24209,0.26088 -0.29448,0.21405c-0.1942,-0.04498 -0.66886,-1.27607 -0.89957,-1.73115c-0.03228,0.00291 -0.02037,0.00291 -0.05265,0c-0.10583,0.49662 -0.29077,1.11838 -0.6051,1.51684c-0.04471,0.05424 -0.24209,0.26088 -0.29448,0.21405c-0.18944,-0.04392 -0.6813,-1.30094 -0.89957,-1.73115c-0.03228,0.00291 -0.02037,0.00291 -0.05265,0c-0.10583,0.49662 -0.29077,1.11838 -0.6051,1.51684c-0.04471,0.05424 -0.24209,0.26088 -0.29448,0.21405c-0.18944,-0.04392 -0.6813,-1.30094 -0.89957,-1.73115c-0.03228,0.00291 -0.02037,0.00291 -0.05265,0c-0.09975,0.46751 -0.37835,1.41762 -0.77231,1.68115c-0.0545,0.04207 -0.11668,0.05953 -0.12753,0.05001c-0.1942,-0.04498 -0.66886,-1.27607 -0.89957,-1.73115c-0.03228,0.00291 -0.02037,0.00291 -0.05265,0c-0.10583,0.49662 -0.29077,1.11838 -0.6051,1.51684c-0.04471,0.05424 -0.24209,0.26088 -0.29448,0.21405c-0.18944,-0.04392 -0.6813,-1.30094 -0.89957,-1.73115l-0.05265,0.00476c-0.4646,1.68617 1.31232,3.33822 1.81344,0.92921c0.21643,1.3229 1.46049,1.8817 1.85207,0c0.21193,1.29512 1.45493,1.90895 1.85207,0c0.21219,1.29671 1.45546,1.9071 1.85207,0c0.22992,1.40598 1.47107,1.83143 1.85207,0c0.20346,1.243 1.44673,1.94811 1.85207,0c0.21484,1.31259 1.4581,1.89413 1.85207,0c0.18388,1.1242 1.28136,1.95578 1.801,0.22013zM106.17798,223.78952c0.2196,1.34169 1.46498,1.86053 1.85207,0c0.21034,1.28586 1.45652,1.90101 1.85207,0c0.22225,1.35862 1.46816,1.84492 1.85207,0c0.21034,1.28586 1.45652,1.90101 1.85207,0c0.20505,1.25305 1.44832,1.94096 1.85207,0c0.21034,1.2856 1.45652,1.90101 1.85207,0c0.21034,1.28586 1.45652,1.90101 1.85207,0c0.22013,1.34513 1.46393,1.86556 1.85207,0c0.18415,1.12473 1.2811,1.95684 1.80259,0.21854c0.10028,-0.381 0.14552,-0.76596 0.14076,-1.14775l-0.05265,-0.00503c-0.10583,0.49635 -0.29077,1.11812 -0.6051,1.51684c-0.04498,0.0545 -0.24236,0.26088 -0.29448,0.21405c-0.1942,-0.04471 -0.6686,-1.27554 -0.89957,-1.73115c-0.03228,0.00291 -0.02037,0.00291 -0.05265,0c-0.10583,0.49635 -0.29077,1.11812 -0.6051,1.51684c-0.04498,0.0545 -0.24236,0.26088 -0.29448,0.21405c-0.19632,-0.04524 -0.65457,-1.24776 -0.89957,-1.73115c-0.03228,0.00291 -0.02037,0.00291 -0.05265,0c-0.10583,0.49635 -0.29077,1.11812 -0.6051,1.51684c-0.04498,0.0545 -0.24236,0.26088 -0.29448,0.21405c-0.1942,-0.04471 -0.6686,-1.27554 -0.89957,-1.73115c-0.03228,0.00291 -0.02037,0.00291 -0.05265,0c-0.10583,0.49635 -0.29077,1.11812 -0.6051,1.51684c-0.04498,0.0545 -0.24236,0.26088 -0.29448,0.21405c-0.1942,-0.04471 -0.6686,-1.27554 -0.89957,-1.73115c-0.03228,0.00291 -0.02037,0.00291 -0.05265,0c-0.10557,0.49635 -0.29077,1.11812 -0.6051,1.51684c-0.04498,0.0545 -0.24209,0.26088 -0.29448,0.21405c-0.1942,-0.04471 -0.6686,-1.27554 -0.89957,-1.73115c-0.03228,0.00291 -0.02037,0.00291 -0.05265,0c-0.10557,0.49635 -0.29077,1.11812 -0.6051,1.51684c-0.04498,0.0545 -0.24209,0.26088 -0.29448,0.21405c-0.1942,-0.04471 -0.6686,-1.27554 -0.89957,-1.73115c-0.03228,0.00291 -0.02037,0.00291 -0.05265,0c-0.10557,0.49635 -0.29077,1.11812 -0.6051,1.51684c-0.04498,0.0545 -0.24209,0.26088 -0.29448,0.21405c-0.1942,-0.04471 -0.6686,-1.27554 -0.89957,-1.73115c-0.03228,0.00291 -0.02037,0.00291 -0.05265,0c-0.10213,0.47863 -0.37914,1.41815 -0.77231,1.68115c-0.0545,0.0418 -0.11668,0.05927 -0.12753,0.04974c-0.1942,-0.04471 -0.6686,-1.27554 -0.89957,-1.73115c-0.03228,0.00291 -0.02037,0.00291 -0.05265,0c-0.10557,0.49635 -0.29077,1.11812 -0.6051,1.51684c-0.04498,0.0545 -0.24209,0.26088 -0.29448,0.21405c-0.1942,-0.04471 -0.6686,-1.27554 -0.89957,-1.73115c-0.03228,0.00291 -0.02037,0.00291 -0.05265,0c-0.10557,0.49635 -0.29077,1.11812 -0.6051,1.51684c-0.04498,0.0545 -0.24209,0.26088 -0.29448,0.21405c-0.1942,-0.04471 -0.6686,-1.27554 -0.89957,-1.73115l-0.05265,0.00503c-0.46778,1.69808 1.31603,3.32075 1.81106,0.93185z" id="e929ca5a-5352-4012-be70-71ccf8db9b12"/><path d="M99.39999,214.80505c0.10028,0.381 0.14552,0.7657 0.14076,1.14775l-0.05265,0.00476c-0.10213,-0.47863 -0.37888,-1.41815 -0.77231,-1.68115c-0.0545,-0.0418 -0.11668,-0.05953 -0.12753,-0.05001c-0.1897,0.04366 -0.68156,1.30068 -0.89957,1.73115c-0.03228,-0.00291 -0.02037,-0.00291 -0.05265,0c-0.10583,-0.49662 -0.29104,-1.11865 -0.6051,-1.51684c-0.04471,-0.0545 -0.24209,-0.26088 -0.29448,-0.21405c-0.1897,0.04366 -0.68156,1.30068 -0.89957,1.73115c-0.03228,-0.00291 -0.02037,-0.00291 -0.05265,0c-0.10583,-0.49662 -0.29104,-1.11865 -0.6051,-1.51684c-0.04471,-0.0545 -0.24209,-0.26088 -0.29448,-0.21405c-0.1897,0.04366 -0.68156,1.30068 -0.89957,1.73115l-0.05265,-0.00476c-0.46487,-1.6875 1.31391,-3.33028 1.81344,-0.92921c0.21616,-1.32132 1.45916,-1.88911 1.85207,0c0.18626,-1.14087 1.28428,-1.9452 1.80206,-0.21907zM97.00897,218.23428c-0.19976,0.25453 -0.28786,0.52413 -0.33734,0.82629c-0.49741,-2.39155 -2.28122,-0.76887 -1.81344,0.92921l0.05265,0.00476c0.23071,-0.45508 0.70537,-1.68617 0.89957,-1.73115c0.01085,-0.00952 0.07302,0.00794 0.12753,0.05001c0.39317,0.26299 0.67018,1.20252 0.77231,1.68115c0.03228,-0.00291 0.02037,-0.00291 0.05265,0c0.23071,-0.45508 0.70537,-1.68617 0.89957,-1.73115c0.05239,-0.04683 0.2495,0.15954 0.29448,0.21405c0.31432,0.39846 0.49926,1.02022 0.6051,1.51684l0.05265,-0.00476c0.01746,-1.41948 -0.68659,-2.86409 -1.60574,-1.75523zM95.78396,223.64681l0.05265,0.00503c0.23098,-0.45561 0.70537,-1.68644 0.89957,-1.73115c0.05239,-0.04683 0.2495,0.15954 0.29448,0.21405c0.31432,0.39872 0.49953,1.02049 0.6051,1.51684l0.05265,-0.00503c0.00476,-0.38179 -0.04048,-0.76675 -0.14076,-1.14775c-0.63923,-2.13173 -2.19364,-0.41301 -1.7637,1.14802zM98.5237,210.98662c-0.38999,-1.87482 -1.63484,-1.32687 -1.85207,0c-0.39608,-1.90445 -1.63934,-1.29936 -1.85207,0c-0.49688,-2.38837 -2.28201,-0.77152 -1.81344,0.92921l0.05265,0.00476c0.23098,-0.45561 0.70537,-1.68644 0.89957,-1.73115c0.05239,-0.04683 0.2495,0.15954 0.29448,0.21405c0.31432,0.39846 0.49926,1.02049 0.6051,1.51684c0.03228,-0.00291 0.02037,-0.00291 0.05265,0c0.21749,-0.42889 0.7104,-1.6875 0.89957,-1.73115c0.05239,-0.04683 0.2495,0.15954 0.29448,0.21405c0.31432,0.39846 0.49926,1.02049 0.6051,1.51684c0.03228,-0.00291 0.02037,-0.00291 0.05265,0c0.23098,-0.45561 0.70537,-1.68644 0.89957,-1.73115c0.05239,-0.04683 0.2495,0.15954 0.29448,0.21405c0.31432,0.39846 0.49926,1.02049 0.6051,1.51684c0.03228,-0.00291 0.02037,-0.00291 0.05265,0c0.23098,-0.45561 0.70537,-1.68644 0.89957,-1.73115c0.01085,-0.00952 0.07302,0.00794 0.12753,0.04974c0.39396,0.26352 0.67071,1.20464 0.77231,1.68115l0.05265,-0.00476c0.00476,-0.38179 -0.04048,-0.76675 -0.14076,-1.14775c-0.51487,-1.71739 -1.61606,-0.91677 -1.8018,0.2196zM100.81761,205.9289c-0.57467,-0.53022 -1.23506,0.22648 -1.36788,1.03848c-0.39211,-1.88461 -1.63643,-1.31867 -1.85207,0c-0.39555,-1.90101 -1.64172,-1.28586 -1.85207,0c-0.39555,-1.90101 -1.64172,-1.28586 -1.85207,0c-0.49741,-2.39155 -2.28122,-0.76887 -1.81344,0.92921l0.05265,0.00503c0.23098,-0.45561 0.70537,-1.68644 0.89957,-1.73115c0.05239,-0.04683 0.2495,0.15954 0.29448,0.21405c0.31432,0.39872 0.49953,1.02049 0.6051,1.51684c0.03228,-0.00291 0.02037,-0.00291 0.05265,0c0.23098,-0.45561 0.70537,-1.68644 0.89957,-1.73115c0.01085,-0.00952 0.07302,0.00794 0.12753,0.04974c0.39317,0.26299 0.67018,1.20252 0.77231,1.68115c0.03228,-0.00291 0.02037,-0.00291 0.05265,0c0.23098,-0.45561 0.70537,-1.68644 0.89957,-1.73115c0.05239,-0.04683 0.2495,0.15954 0.29448,0.21405c0.31432,0.39872 0.49953,1.02049 0.6051,1.51684c0.03228,-0.00291 0.02037,-0.00291 0.05265,0c0.23098,-0.45561 0.70537,-1.68644 0.89957,-1.73115c0.01085,-0.00952 0.07302,0.00794 0.12753,0.04974c0.39317,0.26299 0.67018,1.20252 0.77231,1.68115c0.03228,-0.00291 0.02037,-0.00291 0.05265,0c0.23098,-0.45561 0.70537,-1.68644 0.89957,-1.73115c0.05212,-0.04683 0.2495,0.15954 0.29448,0.21405c0.31432,0.39872 0.49953,1.02049 0.6051,1.51684l0.05265,-0.00503c0.0082,-0.61198 -0.13017,-1.547 -0.57467,-1.96636zM101.3018,202.50257c-0.38549,-1.85259 -1.63141,-1.34804 -1.85207,0c-0.39528,-1.90022 -1.63961,-1.29777 -1.85207,0c-0.39158,-1.88223 -1.63696,-1.31523 -1.85207,0c-0.38576,-1.85418 -1.63167,-1.34645 -1.85207,0c-0.39158,-1.88276 -1.63484,-1.32714 -1.85207,0c-0.50403,-2.42356 -2.27513,-0.74638 -1.81344,0.92921l0.05265,0.00503c0.245,-0.48339 0.70326,-1.68591 0.89957,-1.73115c0.01085,-0.00952 0.07302,0.00794 0.12753,0.04974c0.39396,0.26352 0.67256,1.21363 0.77231,1.68115c0.03228,-0.00291 0.02037,-0.00291 0.05265,0c0.21749,-0.42862 0.7104,-1.6875 0.89957,-1.73115c0.05239,-0.04683 0.2495,0.15954 0.29448,0.21405c0.31432,0.39872 0.49953,1.02049 0.6051,1.51684c0.03228,-0.00291 0.02037,-0.00291 0.05265,0c0.23098,-0.45561 0.70537,-1.68644 0.89957,-1.73115c0.05239,-0.04683 0.2495,0.15954 0.29448,0.21405c0.31432,0.39872 0.49953,1.02049 0.6051,1.51684c0.03228,-0.00291 0.02037,-0.00291 0.05265,0c0.245,-0.48339 0.70326,-1.68591 0.89957,-1.73115c0.05239,-0.04683 0.2495,0.15954 0.29448,0.21405c0.31432,0.39872 0.49953,1.02049 0.6051,1.51684c0.03228,-0.00291 0.02037,-0.00291 0.05265,0c0.23098,-0.45561 0.70537,-1.68644 0.89957,-1.73115c0.05239,-0.04683 0.2495,0.15954 0.29448,0.21405c0.31432,0.39872 0.49953,1.02049 0.6051,1.51684c0.03228,-0.00291 0.02037,-0.00291 0.05265,0c0.23098,-0.45561 0.70537,-1.68644 0.89957,-1.73115c0.05212,-0.04683 0.2495,0.15954 0.29448,0.21405c0.31432,0.39872 0.49953,1.02049 0.6051,1.51684c0.03228,-0.00291 0.02037,-0.00291 0.05265,0c0.23098,-0.45561 0.70537,-1.68644 0.89957,-1.73115c0.01085,-0.00952 0.07302,0.00794 0.12753,0.04974c0.39317,0.26299 0.67018,1.20252 0.77231,1.68115l0.05265,-0.00503c0.00476,-0.38179 -0.04048,-0.76675 -0.14076,-1.14775c-0.5199,-1.73539 -1.61738,-0.90354 -1.80127,0.2204zM102.22783,197.14587c-0.39396,-1.89413 -1.63723,-1.31259 -1.85207,0c-0.40534,-1.94811 -1.6486,-1.243 -1.85207,0c-0.381,-1.83143 -1.62215,-1.40598 -1.85207,0c-0.39661,-1.9071 -1.63987,-1.29671 -1.85207,0c-0.39714,-1.90895 -1.64014,-1.29512 -1.85207,0c-0.39158,-1.8817 -1.63564,-1.3229 -1.85207,0c-0.50112,-2.40901 -2.27804,-0.75697 -1.81344,0.92921l0.05265,0.00476c0.21828,-0.43021 0.71013,-1.68723 0.89957,-1.73115c0.05239,-0.04683 0.24976,0.15981 0.29448,0.21405c0.31432,0.39846 0.49926,1.02022 0.6051,1.51684c0.03228,-0.00291 0.02037,-0.00291 0.05265,0c0.23071,-0.45508 0.70537,-1.68617 0.89957,-1.73115c0.01085,-0.00952 0.07302,0.00794 0.12753,0.05001c0.39396,0.26352 0.67256,1.21363 0.77231,1.68115c0.03228,-0.00291 0.02037,-0.00291 0.05265,0c0.21828,-0.43021 0.71013,-1.68723 0.89957,-1.73115c0.05239,-0.04683 0.24976,0.15981 0.29448,0.21405c0.31432,0.39846 0.49926,1.02022 0.6051,1.51684c0.03228,-0.00291 0.02037,-0.00291 0.05265,0c0.21828,-0.43021 0.71013,-1.68723 0.89957,-1.73115c0.05239,-0.04683 0.24976,0.15981 0.29448,0.21405c0.31432,0.39846 0.49926,1.02022 0.6051,1.51684c0.03228,-0.00291 0.02037,-0.00291 0.05265,0c0.23071,-0.45508 0.70537,-1.68617 0.89957,-1.73115c0.05239,-0.04683 0.24976,0.15981 0.29448,0.21405c0.31432,0.39846 0.49926,1.02022 0.6051,1.51684c0.03228,-0.00291 0.02037,-0.00291 0.05265,0c0.23071,-0.45508 0.70537,-1.68617 0.89957,-1.73115c0.01085,-0.00952 0.07302,0.00794 0.12753,0.05001c0.39396,0.26352 0.67256,1.21363 0.77231,1.68115c0.03228,-0.00291 0.02037,-0.00291 0.05265,0c0.21828,-0.43021 0.71013,-1.68723 0.89957,-1.73115c0.05239,-0.04683 0.24976,0.15981 0.29448,0.21405c0.31432,0.39846 0.49926,1.02049 0.6051,1.51684c0.03228,-0.00291 0.02037,-0.00291 0.05265,0c0.23071,-0.45508 0.70537,-1.68617 0.89957,-1.73115c0.05239,-0.04683 0.24976,0.15981 0.29448,0.21405c0.31432,0.39846 0.49926,1.02049 0.6051,1.51684l0.05265,-0.00476c0.00476,-0.38179 -0.04048,-0.76675 -0.14076,-1.14775c-0.51964,-1.73539 -1.61712,-0.90381 -1.801,0.22013zM87.44967,191.98867l0.05265,0.00503c0.23098,-0.45561 0.70537,-1.68644 0.89957,-1.73115c0.05239,-0.04683 0.2495,0.15954 0.29448,0.21405c0.31432,0.39872 0.49953,1.02049 0.6051,1.51684c0.03228,-0.00291 0.02037,-0.00291 0.05265,0c0.23098,-0.45561 0.70537,-1.68644 0.89957,-1.73115c0.05239,-0.04683 0.2495,0.15954 0.29448,0.21405c0.31432,0.39872 0.49953,1.02049 0.6051,1.51684c0.03228,-0.00291 0.02037,-0.00291 0.05265,0c0.23098,-0.45561 0.70537,-1.68644 0.89957,-1.73115c0.01085,-0.00952 0.07302,0.00794 0.12753,0.04974c0.39317,0.26299 0.67018,1.20252 0.77231,1.68115c0.03228,-0.00291 0.02037,-0.00291 0.05265,0c0.23098,-0.45561 0.70537,-1.68644 0.89957,-1.73115c0.05239,-0.04683 0.2495,0.15954 0.29448,0.21405c0.31432,0.39872 0.49953,1.02049 0.6051,1.51684c0.03228,-0.00291 0.02037,-0.00291 0.05265,0c0.23098,-0.45561 0.70537,-1.68644 0.89957,-1.73115c0.05239,-0.04683 0.2495,0.15954 0.29448,0.21405c0.31432,0.39872 0.49953,1.02049 0.6051,1.51684c0.03228,-0.00291 0.02037,-0.00291 0.05265,0c0.23098,-0.45561 0.70537,-1.68644 0.89957,-1.73115c0.05239,-0.04683 0.2495,0.15954 0.29448,0.21405c0.31432,0.39872 0.49953,1.02049 0.6051,1.51684c0.03228,-0.00291 0.02037,-0.00291 0.05265,0c0.23098,-0.45561 0.70537,-1.68644 0.89957,-1.73115c0.05212,-0.04683 0.2495,0.15954 0.29448,0.21405c0.31432,0.39872 0.49926,1.02049 0.6051,1.51684c0.03228,-0.00291 0.02037,-0.00291 0.05265,0c0.23098,-0.45561 0.70537,-1.68644 0.89957,-1.73115c0.05212,-0.04683 0.2495,0.15954 0.29448,0.21405c0.31432,0.39872 0.49926,1.02049 0.6051,1.51684c0.03228,-0.00291 0.02037,-0.00291 0.05265,0c0.245,-0.48339 0.70326,-1.68591 0.89957,-1.73115c0.05212,-0.04683 0.2495,0.15954 0.29448,0.21405c0.31432,0.39872 0.49926,1.02049 0.6051,1.51684c0.03228,-0.00291 0.02037,-0.00291 0.05265,0c0.23098,-0.45561 0.70537,-1.68644 0.89957,-1.73115c0.05212,-0.04683 0.2495,0.15954 0.29448,0.21405c0.31432,0.39872 0.49926,1.02049 0.6051,1.51684l0.05265,-0.00503c0.00476,-0.38179 -0.04048,-0.76675 -0.14076,-1.14775c-0.52149,-1.7383 -1.61844,-0.90619 -1.80259,0.21854c-0.38814,-1.86556 -1.63193,-1.34513 -1.85207,0c-0.39555,-1.90101 -1.64172,-1.28586 -1.85207,0c-0.39555,-1.90101 -1.64172,-1.2856 -1.85207,0c-0.40375,-1.94096 -1.64702,-1.25305 -1.85207,0c-0.39555,-1.90101 -1.64172,-1.28586 -1.85207,0c-0.38391,-1.84492 -1.62982,-1.35862 -1.85207,0c-0.39555,-1.90101 -1.64172,-1.28586 -1.85207,0c-0.38708,-1.86053 -1.63246,-1.34169 -1.85207,0c-0.49503,-2.38863 -2.27883,-0.76596 -1.81106,0.93185z" id="be4a7e2c-315b-4dc4-a695-7ef0268987a1"/></g></g></g></svg>