<svg version="1.1" xmlns="http://www.w3.org/2000/svg" xmlns:xlink="http://www.w3.org/1999/xlink" width="300" height="150" viewBox="0,0,300,150"><defs><clipPath id="clip-1"><rect x="0" y="0" width="632.25" height="1035.67" fill="none" stroke="none"/></clipPath></defs><g fill="none" fill-rule="nonzero" stroke="none" stroke-width="1" stroke-linecap="butt" stroke-linejoin="miter" stroke-miterlimit="10" stroke-dasharray="" stroke-dashoffset="0" font-family="none" font-weight="none" font-size="none" text-anchor="none" style="mix-blend-mode: normal"><g clip-path="url(#clip-1)"><g id="layer_undefined"><g id="2309f0aa-9504-4e7d-b135-a851ad67aabd" fill="#f9932b" stroke="#fa9228"><path d="M519.9757,606.95007l2.33,-6.06h0.86333l2.48,6.06h-0.91333l-0.70667,-1.83667h-2.53667l-0.66333,1.83667zM521.7257,604.46007h2.05333l-0.63,-1.67667c-0.19333,-0.51111 -0.33667,-0.93 -0.43,-1.25667c-0.07778,0.38889 -0.18667,0.77444 -0.32667,1.15667z"/><path d="M532.37676,606.95007v-6.06h0.74667v6.06z"/><path d="M537.39214,606.42007l0.10667,0.66c-0.20889,0.04222 -0.39667,0.06333 -0.56333,0.06333c-0.26889,0 -0.47778,-0.04222 -0.62667,-0.12667c-0.14889,-0.08667 -0.25333,-0.19889 -0.31333,-0.33667c-0.06222,-0.14 -0.09333,-0.43333 -0.09333,-0.88v-2.52333h-0.54333v-0.58h0.54333v-1.08667l0.74,-0.44667v1.53333h0.75v0.58h-0.75v2.56667c0,0.21111 0.01333,0.34667 0.04,0.40667c0.02667,0.06222 0.07,0.11111 0.13,0.14667c0.05778,0.03556 0.14222,0.05333 0.25333,0.05333c0.08222,0 0.19111,-0.01 0.32667,-0.03z"/><path d="M543.63676,607.10674l0.77,0.09333c-0.12222,0.45111 -0.34667,0.8 -0.67333,1.04667c-0.32889,0.24889 -0.74778,0.37333 -1.25667,0.37333c-0.64222,0 -1.15222,-0.19778 -1.53,-0.59333c-0.37556,-0.39556 -0.56333,-0.95 -0.56333,-1.66333c0,-0.74 0.19,-1.31333 0.57,-1.72c0.38,-0.40889 0.87333,-0.61333 1.48,-0.61333c0.58667,0 1.06667,0.2 1.44,0.6c0.37111,0.4 0.55667,0.96222 0.55667,1.68667c0,0.04444 -0.00111,0.11 -0.00333,0.19667h-3.27333c0.02667,0.48444 0.16222,0.85444 0.40667,1.11c0.24667,0.25556 0.55333,0.38333 0.92,0.38333c0.27333,0 0.50556,-0.07111 0.69667,-0.21333c0.19333,-0.14444 0.34667,-0.37333 0.46,-0.68667zM541.19343,605.9034h2.45333c-0.03333,-0.36889 -0.12778,-0.64556 -0.28333,-0.83c-0.23556,-0.28667 -0.54222,-0.43 -0.92,-0.43c-0.34222,0 -0.63,0.11444 -0.86333,0.34333c-0.23333,0.22889 -0.36222,0.53444 -0.38667,0.91667z"/><path d="M550.28094,608.52007v-4.39h0.67v0.66667c0.17111,-0.31333 0.32889,-0.51889 0.47333,-0.61667c0.14444,-0.1 0.30333,-0.15 0.47667,-0.15c0.25111,0 0.50667,0.08 0.76667,0.24l-0.25667,0.69c-0.18222,-0.10667 -0.36444,-0.16 -0.54667,-0.16c-0.16222,0 -0.30889,0.04889 -0.44,0.14667c-0.12889,0.09778 -0.22111,0.23333 -0.27667,0.40667c-0.08222,0.26444 -0.12333,0.55333 -0.12333,0.86667v2.3z"/><path d="M555.93321,608.52007v-4.39h0.67v0.62333c0.32222,-0.48222 0.78889,-0.72333 1.4,-0.72333c0.26444,0 0.50667,0.04778 0.72667,0.14333c0.22222,0.09556 0.38889,0.22 0.5,0.37333c0.11111,0.15556 0.18778,0.33889 0.23,0.55c0.02889,0.13778 0.04333,0.37889 0.04333,0.72333v2.7h-0.74333v-2.67c0,-0.30444 -0.03,-0.53111 -0.09,-0.68c-0.05778,-0.15111 -0.16,-0.27111 -0.30667,-0.36c-0.14667,-0.08889 -0.32,-0.13333 -0.52,-0.13333c-0.31556,0 -0.58889,0.1 -0.82,0.3c-0.22889,0.20222 -0.34333,0.58444 -0.34333,1.14667v2.39667z"/><path d="M567.96739,607.98007c-0.27556,0.23333 -0.54111,0.39778 -0.79667,0.49333c-0.25556,0.09778 -0.52889,0.14667 -0.82,0.14667c-0.48222,0 -0.85333,-0.11778 -1.11333,-0.35333c-0.25778,-0.23556 -0.38667,-0.53667 -0.38667,-0.90333c0,-0.21556 0.04889,-0.41222 0.14667,-0.59c0.09778,-0.17778 0.22556,-0.32 0.38333,-0.42667c0.15778,-0.10889 0.33667,-0.19111 0.53667,-0.24667c0.14444,-0.03778 0.36444,-0.07444 0.66,-0.11c0.60222,-0.07111 1.04444,-0.15667 1.32667,-0.25667c0.00444,-0.10222 0.00667,-0.16667 0.00667,-0.19333c0,-0.30444 -0.07111,-0.51778 -0.21333,-0.64c-0.18889,-0.16889 -0.47111,-0.25333 -0.84667,-0.25333c-0.34889,0 -0.60667,0.06111 -0.77333,0.18333c-0.16889,0.12222 -0.29222,0.33889 -0.37,0.65l-0.73,-0.09667c0.06667,-0.31111 0.17556,-0.56333 0.32667,-0.75667c0.15111,-0.19111 0.37,-0.33778 0.65667,-0.44c0.28667,-0.10444 0.61889,-0.15667 0.99667,-0.15667c0.37556,0 0.68,0.04444 0.91333,0.13333c0.23556,0.08667 0.40778,0.19778 0.51667,0.33333c0.11111,0.13333 0.18889,0.30222 0.23333,0.50667c0.02444,0.12667 0.03667,0.35444 0.03667,0.68333v0.99333c0,0.69111 0.01556,1.12889 0.04667,1.31333c0.03333,0.18222 0.09667,0.35778 0.19,0.52667h-0.77667c-0.07778,-0.15333 -0.12778,-0.33333 -0.15,-0.54zM567.90405,606.31674c-0.26889,0.11111 -0.67333,0.20444 -1.21333,0.28c-0.30667,0.04444 -0.52333,0.09444 -0.65,0.15c-0.12667,0.05556 -0.22444,0.13556 -0.29333,0.24c-0.06889,0.10667 -0.10333,0.22556 -0.10333,0.35667c0,0.19778 0.07444,0.36222 0.22333,0.49333c0.15111,0.13333 0.37111,0.2 0.66,0.2c0.28667,0 0.54222,-0.06333 0.76667,-0.19c0.22222,-0.12444 0.38556,-0.29556 0.49,-0.51333c0.08,-0.16889 0.12,-0.41667 0.12,-0.74333z"/><path d="M575.98823,606.42007l0.10667,0.66c-0.20889,0.04222 -0.39667,0.06333 -0.56333,0.06333c-0.26889,0 -0.47778,-0.04222 -0.62667,-0.12667c-0.14889,-0.08667 -0.25333,-0.19889 -0.31333,-0.33667c-0.06222,-0.14 -0.09333,-0.43333 -0.09333,-0.88v-2.52333h-0.54333v-0.58h0.54333v-1.08667l0.74,-0.44667v1.53333h0.75v0.58h-0.75v2.56667c0,0.21111 0.01333,0.34667 0.04,0.40667c0.02667,0.06222 0.07,0.11111 0.13,0.14667c0.05778,0.03556 0.14222,0.05333 0.25333,0.05333c0.08222,0 0.19111,-0.01 0.32667,-0.03z"/><path d="M582.23286,607.10674l0.77,0.09333c-0.12222,0.45111 -0.34667,0.8 -0.67333,1.04667c-0.32889,0.24889 -0.74778,0.37333 -1.25667,0.37333c-0.64222,0 -1.15222,-0.19778 -1.53,-0.59333c-0.37556,-0.39556 -0.56333,-0.95 -0.56333,-1.66333c0,-0.74 0.19,-1.31333 0.57,-1.72c0.38,-0.40889 0.87333,-0.61333 1.48,-0.61333c0.58667,0 1.06667,0.2 1.44,0.6c0.37111,0.4 0.55667,0.96222 0.55667,1.68667c0,0.04444 -0.00111,0.11 -0.00333,0.19667h-3.27333c0.02667,0.48444 0.16222,0.85444 0.40667,1.11c0.24667,0.25556 0.55333,0.38333 0.92,0.38333c0.27333,0 0.50556,-0.07111 0.69667,-0.21333c0.19333,-0.14444 0.34667,-0.37333 0.46,-0.68667zM579.78952,605.9034h2.45333c-0.03333,-0.36889 -0.12778,-0.64556 -0.28333,-0.83c-0.23556,-0.28667 -0.54222,-0.43 -0.92,-0.43c-0.34222,0 -0.63,0.11444 -0.86333,0.34333c-0.23333,0.22889 -0.36222,0.53444 -0.38667,0.91667z"/><path d="M592.1585,610.2034v-6.07333h0.68v0.57c0.16,-0.22222 0.34,-0.39 0.54,-0.50333c0.20222,-0.11111 0.44667,-0.16667 0.73333,-0.16667c0.37333,0 0.70333,0.09667 0.99,0.29c0.28667,0.19333 0.50333,0.46556 0.65,0.81667c0.14667,0.35111 0.22,0.73667 0.22,1.15667c0,0.44889 -0.08111,0.85333 -0.24333,1.21333c-0.16,0.35778 -0.39333,0.63333 -0.7,0.82667c-0.30889,0.19111 -0.63222,0.28667 -0.97,0.28667c-0.24889,0 -0.47222,-0.05222 -0.67,-0.15667c-0.19556,-0.10444 -0.35667,-0.23667 -0.48333,-0.39667v2.13667zM592.83517,606.35007c0,0.56444 0.11444,0.98222 0.34333,1.25333c0.22667,0.26889 0.50333,0.40333 0.83,0.40333c0.33111,0 0.61444,-0.14 0.85,-0.42c0.23556,-0.28 0.35333,-0.71333 0.35333,-1.3c0,-0.55778 -0.11556,-0.97667 -0.34667,-1.25667c-0.22889,-0.27778 -0.50333,-0.41667 -0.82333,-0.41667c-0.31778,0 -0.59889,0.14778 -0.84333,0.44333c-0.24222,0.29778 -0.36333,0.72889 -0.36333,1.29333z"/><path d="M604.19268,607.98007c-0.27556,0.23333 -0.54111,0.39778 -0.79667,0.49333c-0.25556,0.09778 -0.52889,0.14667 -0.82,0.14667c-0.48222,0 -0.85333,-0.11778 -1.11333,-0.35333c-0.25778,-0.23556 -0.38667,-0.53667 -0.38667,-0.90333c0,-0.21556 0.04889,-0.41222 0.14667,-0.59c0.09778,-0.17778 0.22556,-0.32 0.38333,-0.42667c0.15778,-0.10889 0.33667,-0.19111 0.53667,-0.24667c0.14444,-0.03778 0.36444,-0.07444 0.66,-0.11c0.60222,-0.07111 1.04444,-0.15667 1.32667,-0.25667c0.00444,-0.10222 0.00667,-0.16667 0.00667,-0.19333c0,-0.30444 -0.07111,-0.51778 -0.21333,-0.64c-0.18889,-0.16889 -0.47111,-0.25333 -0.84667,-0.25333c-0.34889,0 -0.60667,0.06111 -0.77333,0.18333c-0.16889,0.12222 -0.29222,0.33889 -0.37,0.65l-0.73,-0.09667c0.06667,-0.31111 0.17556,-0.56333 0.32667,-0.75667c0.15111,-0.19111 0.37,-0.33778 0.65667,-0.44c0.28667,-0.10444 0.61889,-0.15667 0.99667,-0.15667c0.37556,0 0.68,0.04444 0.91333,0.13333c0.23556,0.08667 0.40778,0.19778 0.51667,0.33333c0.11111,0.13333 0.18889,0.30222 0.23333,0.50667c0.02444,0.12667 0.03667,0.35444 0.03667,0.68333v0.99333c0,0.69111 0.01556,1.12889 0.04667,1.31333c0.03333,0.18222 0.09667,0.35778 0.19,0.52667h-0.77667c-0.07778,-0.15333 -0.12778,-0.33333 -0.15,-0.54zM604.12935,606.31674c-0.26889,0.11111 -0.67333,0.20444 -1.21333,0.28c-0.30667,0.04444 -0.52333,0.09444 -0.65,0.15c-0.12667,0.05556 -0.22444,0.13556 -0.29333,0.24c-0.06889,0.10667 -0.10333,0.22556 -0.10333,0.35667c0,0.19778 0.07444,0.36222 0.22333,0.49333c0.15111,0.13333 0.37111,0.2 0.66,0.2c0.28667,0 0.54222,-0.06333 0.76667,-0.19c0.22222,-0.12444 0.38556,-0.29556 0.49,-0.51333c0.08,-0.16889 0.12,-0.41667 0.12,-0.74333z"/><path d="M612.21353,606.42007l0.10667,0.66c-0.20889,0.04222 -0.39667,0.06333 -0.56333,0.06333c-0.26889,0 -0.47778,-0.04222 -0.62667,-0.12667c-0.14889,-0.08667 -0.25333,-0.19889 -0.31333,-0.33667c-0.06222,-0.14 -0.09333,-0.43333 -0.09333,-0.88v-2.52333h-0.54333v-0.58h0.54333v-1.08667l0.74,-0.44667v1.53333h0.75v0.58h-0.75v2.56667c0,0.21111 0.01333,0.34667 0.04,0.40667c0.02667,0.06222 0.07,0.11111 0.13,0.14667c0.05778,0.03556 0.14222,0.05333 0.25333,0.05333c0.08222,0 0.19111,-0.01 0.32667,-0.03z"/><path d="M616.91815,606.42007l0.10667,0.66c-0.20889,0.04222 -0.39667,0.06333 -0.56333,0.06333c-0.26889,0 -0.47778,-0.04222 -0.62667,-0.12667c-0.14889,-0.08667 -0.25333,-0.19889 -0.31333,-0.33667c-0.06222,-0.14 -0.09333,-0.43333 -0.09333,-0.88v-2.52333h-0.54333v-0.58h0.54333v-1.08667l0.74,-0.44667v1.53333h0.75v0.58h-0.75v2.56667c0,0.21111 0.01333,0.34667 0.04,0.40667c0.02667,0.06222 0.07,0.11111 0.13,0.14667c0.05778,0.03556 0.14222,0.05333 0.25333,0.05333c0.08222,0 0.19111,-0.01 0.32667,-0.03z"/><path d="M623.16277,607.10674l0.77,0.09333c-0.12222,0.45111 -0.34667,0.8 -0.67333,1.04667c-0.32889,0.24889 -0.74778,0.37333 -1.25667,0.37333c-0.64222,0 -1.15222,-0.19778 -1.53,-0.59333c-0.37556,-0.39556 -0.56333,-0.95 -0.56333,-1.66333c0,-0.74 0.19,-1.31333 0.57,-1.72c0.38,-0.40889 0.87333,-0.61333 1.48,-0.61333c0.58667,0 1.06667,0.2 1.44,0.6c0.37111,0.4 0.55667,0.96222 0.55667,1.68667c0,0.04444 -0.00111,0.11 -0.00333,0.19667h-3.27333c0.02667,0.48444 0.16222,0.85444 0.40667,1.11c0.24667,0.25556 0.55333,0.38333 0.92,0.38333c0.27333,0 0.50556,-0.07111 0.69667,-0.21333c0.19333,-0.14444 0.34667,-0.37333 0.46,-0.68667zM620.71944,605.9034h2.45333c-0.03333,-0.36889 -0.12778,-0.64556 -0.28333,-0.83c-0.23556,-0.28667 -0.54222,-0.43 -0.92,-0.43c-0.34222,0 -0.63,0.11444 -0.86333,0.34333c-0.23333,0.22889 -0.36222,0.53444 -0.38667,0.91667z"/><path d="M629.80695,608.52007v-4.39h0.67v0.66667c0.17111,-0.31333 0.32889,-0.51889 0.47333,-0.61667c0.14444,-0.1 0.30333,-0.15 0.47667,-0.15c0.25111,0 0.50667,0.08 0.76667,0.24l-0.25667,0.69c-0.18222,-0.10667 -0.36444,-0.16 -0.54667,-0.16c-0.16222,0 -0.30889,0.04889 -0.44,0.14667c-0.12889,0.09778 -0.22111,0.23333 -0.27667,0.40667c-0.08222,0.26444 -0.12333,0.55333 -0.12333,0.86667v2.3z"/><path d="M635.45922,608.52007v-4.39h0.67v0.62333c0.32222,-0.48222 0.78889,-0.72333 1.4,-0.72333c0.26444,0 0.50667,0.04778 0.72667,0.14333c0.22222,0.09556 0.38889,0.22 0.5,0.37333c0.11111,0.15556 0.18778,0.33889 0.23,0.55c0.02889,0.13778 0.04333,0.37889 0.04333,0.72333v2.7h-0.74333v-2.67c0,-0.30444 -0.03,-0.53111 -0.09,-0.68c-0.05778,-0.15111 -0.16,-0.27111 -0.30667,-0.36c-0.14667,-0.08889 -0.32,-0.13333 -0.52,-0.13333c-0.31556,0 -0.58889,0.1 -0.82,0.3c-0.22889,0.20222 -0.34333,0.58444 -0.34333,1.14667v2.39667z"/></g><path d="M579.547,692.93136l-32.10914,-55.61473c-2.6991,-4.67501 -7.68703,-7.55474 -13.08524,-7.55474h-64.21828c-5.39821,0 -10.38613,2.87973 -13.08524,7.55474l-32.10914,55.61473c-2.6991,4.67501 -2.6991,10.43446 0,15.10948l32.10914,55.61473c2.6991,4.67466 7.68703,7.55474 13.08524,7.55474h64.21828c5.39821,0 10.38613,-2.87973 13.08524,-7.55474l32.10914,-55.61473c2.6991,-4.67501 2.6991,-10.43446 0,-15.10948zM489.54348,653.4922h25.40001v3.00002h-25.40001v-3.00002zM467.89526,665.99042l2.59821,1.50001l-12.7,21.99711l-2.59821,-1.50001zM467.89526,734.98178l-12.7,-21.99711l2.59821,-1.50001l12.7,21.99711zM514.94348,747.48035h-25.40001v-3.00002h25.40001zM502.24348,737.49497c-20.43925,0 -37.00887,-16.56927 -37.00887,-37.00887c0,-20.4396 16.56927,-37.00887 37.00887,-37.00887c20.4396,0 37.00887,16.56927 37.00887,37.00887c0,20.4396 -16.56963,37.00887 -37.00887,37.00887zM536.5917,734.98178l-2.59821,-1.50001l12.7,-21.99711l2.59821,1.50001zM546.6935,689.48754l-12.7,-21.99711l2.59821,-1.50001l12.7,21.99711z" id="4436a6e5-ddff-45a9-9b2c-ad0827bb2f2c" fill="none" stroke="#9926ff"/><g id="4102312a-fb96-45cd-a44c-e1f856319914" fill="#f9932b" stroke="#fa9228"><path d="M197.73077,607.15674l2.33,-6.06h0.86333l2.48,6.06h-0.91333l-0.70667,-1.83667h-2.53667l-0.66333,1.83667zM199.48077,604.66674h2.05333l-0.63,-1.67667c-0.19333,-0.51111 -0.33667,-0.93 -0.43,-1.25667c-0.07778,0.38889 -0.18667,0.77444 -0.32667,1.15667z"/><path d="M210.13184,607.15674v-6.06h0.74667v6.06z"/><path d="M215.14721,606.62674l0.10667,0.66c-0.20889,0.04222 -0.39667,0.06333 -0.56333,0.06333c-0.26889,0 -0.47778,-0.04222 -0.62667,-0.12667c-0.14889,-0.08667 -0.25333,-0.19889 -0.31333,-0.33667c-0.06222,-0.14 -0.09333,-0.43333 -0.09333,-0.88v-2.52333h-0.54333v-0.58h0.54333v-1.08667l0.74,-0.44667v1.53333h0.75v0.58h-0.75v2.56667c0,0.21111 0.01333,0.34667 0.04,0.40667c0.02667,0.06222 0.07,0.11111 0.13,0.14667c0.05778,0.03556 0.14222,0.05333 0.25333,0.05333c0.08222,0 0.19111,-0.01 0.32667,-0.03z"/><path d="M221.39184,607.3134l0.77,0.09333c-0.12222,0.45111 -0.34667,0.8 -0.67333,1.04667c-0.32889,0.24889 -0.74778,0.37333 -1.25667,0.37333c-0.64222,0 -1.15222,-0.19778 -1.53,-0.59333c-0.37556,-0.39556 -0.56333,-0.95 -0.56333,-1.66333c0,-0.74 0.19,-1.31333 0.57,-1.72c0.38,-0.40889 0.87333,-0.61333 1.48,-0.61333c0.58667,0 1.06667,0.2 1.44,0.6c0.37111,0.4 0.55667,0.96222 0.55667,1.68667c0,0.04444 -0.00111,0.11 -0.00333,0.19667h-3.27333c0.02667,0.48444 0.16222,0.85444 0.40667,1.11c0.24667,0.25556 0.55333,0.38333 0.92,0.38333c0.27333,0 0.50556,-0.07111 0.69667,-0.21333c0.19333,-0.14444 0.34667,-0.37333 0.46,-0.68667zM218.9485,606.11007h2.45333c-0.03333,-0.36889 -0.12778,-0.64556 -0.28333,-0.83c-0.23556,-0.28667 -0.54222,-0.43 -0.92,-0.43c-0.34222,0 -0.63,0.11444 -0.86333,0.34333c-0.23333,0.22889 -0.36222,0.53444 -0.38667,0.91667z"/><path d="M228.03602,608.72674v-4.39h0.67v0.66667c0.17111,-0.31333 0.32889,-0.51889 0.47333,-0.61667c0.14444,-0.1 0.30333,-0.15 0.47667,-0.15c0.25111,0 0.50667,0.08 0.76667,0.24l-0.25667,0.69c-0.18222,-0.10667 -0.36444,-0.16 -0.54667,-0.16c-0.16222,0 -0.30889,0.04889 -0.44,0.14667c-0.12889,0.09778 -0.22111,0.23333 -0.27667,0.40667c-0.08222,0.26444 -0.12333,0.55333 -0.12333,0.86667v2.3z"/><path d="M233.68828,608.72674v-4.39h0.67v0.62333c0.32222,-0.48222 0.78889,-0.72333 1.4,-0.72333c0.26444,0 0.50667,0.04778 0.72667,0.14333c0.22222,0.09556 0.38889,0.22 0.5,0.37333c0.11111,0.15556 0.18778,0.33889 0.23,0.55c0.02889,0.13778 0.04333,0.37889 0.04333,0.72333v2.7h-0.74333v-2.67c0,-0.30444 -0.03,-0.53111 -0.09,-0.68c-0.05778,-0.15111 -0.16,-0.27111 -0.30667,-0.36c-0.14667,-0.08889 -0.32,-0.13333 -0.52,-0.13333c-0.31556,0 -0.58889,0.1 -0.82,0.3c-0.22889,0.20222 -0.34333,0.58444 -0.34333,1.14667v2.39667z"/><path d="M245.72246,608.18674c-0.27556,0.23333 -0.54111,0.39778 -0.79667,0.49333c-0.25556,0.09778 -0.52889,0.14667 -0.82,0.14667c-0.48222,0 -0.85333,-0.11778 -1.11333,-0.35333c-0.25778,-0.23556 -0.38667,-0.53667 -0.38667,-0.90333c0,-0.21556 0.04889,-0.41222 0.14667,-0.59c0.09778,-0.17778 0.22556,-0.32 0.38333,-0.42667c0.15778,-0.10889 0.33667,-0.19111 0.53667,-0.24667c0.14444,-0.03778 0.36444,-0.07444 0.66,-0.11c0.60222,-0.07111 1.04444,-0.15667 1.32667,-0.25667c0.00444,-0.10222 0.00667,-0.16667 0.00667,-0.19333c0,-0.30444 -0.07111,-0.51778 -0.21333,-0.64c-0.18889,-0.16889 -0.47111,-0.25333 -0.84667,-0.25333c-0.34889,0 -0.60667,0.06111 -0.77333,0.18333c-0.16889,0.12222 -0.29222,0.33889 -0.37,0.65l-0.73,-0.09667c0.06667,-0.31111 0.17556,-0.56333 0.32667,-0.75667c0.15111,-0.19111 0.37,-0.33778 0.65667,-0.44c0.28667,-0.10444 0.61889,-0.15667 0.99667,-0.15667c0.37556,0 0.68,0.04444 0.91333,0.13333c0.23556,0.08667 0.40778,0.19778 0.51667,0.33333c0.11111,0.13333 0.18889,0.30222 0.23333,0.50667c0.02444,0.12667 0.03667,0.35444 0.03667,0.68333v0.99333c0,0.69111 0.01556,1.12889 0.04667,1.31333c0.03333,0.18222 0.09667,0.35778 0.19,0.52667h-0.77667c-0.07778,-0.15333 -0.12778,-0.33333 -0.15,-0.54zM245.65913,606.5234c-0.26889,0.11111 -0.67333,0.20444 -1.21333,0.28c-0.30667,0.04444 -0.52333,0.09444 -0.65,0.15c-0.12667,0.05556 -0.22444,0.13556 -0.29333,0.24c-0.06889,0.10667 -0.10333,0.22556 -0.10333,0.35667c0,0.19778 0.07444,0.36222 0.22333,0.49333c0.15111,0.13333 0.37111,0.2 0.66,0.2c0.28667,0 0.54222,-0.06333 0.76667,-0.19c0.22222,-0.12444 0.38556,-0.29556 0.49,-0.51333c0.08,-0.16889 0.12,-0.41667 0.12,-0.74333z"/><path d="M253.74331,606.62674l0.10667,0.66c-0.20889,0.04222 -0.39667,0.06333 -0.56333,0.06333c-0.26889,0 -0.47778,-0.04222 -0.62667,-0.12667c-0.14889,-0.08667 -0.25333,-0.19889 -0.31333,-0.33667c-0.06222,-0.14 -0.09333,-0.43333 -0.09333,-0.88v-2.52333h-0.54333v-0.58h0.54333v-1.08667l0.74,-0.44667v1.53333h0.75v0.58h-0.75v2.56667c0,0.21111 0.01333,0.34667 0.04,0.40667c0.02667,0.06222 0.07,0.11111 0.13,0.14667c0.05778,0.03556 0.14222,0.05333 0.25333,0.05333c0.08222,0 0.19111,-0.01 0.32667,-0.03z"/><path d="M259.98793,607.3134l0.77,0.09333c-0.12222,0.45111 -0.34667,0.8 -0.67333,1.04667c-0.32889,0.24889 -0.74778,0.37333 -1.25667,0.37333c-0.64222,0 -1.15222,-0.19778 -1.53,-0.59333c-0.37556,-0.39556 -0.56333,-0.95 -0.56333,-1.66333c0,-0.74 0.19,-1.31333 0.57,-1.72c0.38,-0.40889 0.87333,-0.61333 1.48,-0.61333c0.58667,0 1.06667,0.2 1.44,0.6c0.37111,0.4 0.55667,0.96222 0.55667,1.68667c0,0.04444 -0.00111,0.11 -0.00333,0.19667h-3.27333c0.02667,0.48444 0.16222,0.85444 0.40667,1.11c0.24667,0.25556 0.55333,0.38333 0.92,0.38333c0.27333,0 0.50556,-0.07111 0.69667,-0.21333c0.19333,-0.14444 0.34667,-0.37333 0.46,-0.68667zM257.5446,606.11007h2.45333c-0.03333,-0.36889 -0.12778,-0.64556 -0.28333,-0.83c-0.23556,-0.28667 -0.54222,-0.43 -0.92,-0.43c-0.34222,0 -0.63,0.11444 -0.86333,0.34333c-0.23333,0.22889 -0.36222,0.53444 -0.38667,0.91667z"/><path d="M269.91358,610.41007v-6.07333h0.68v0.57c0.16,-0.22222 0.34,-0.39 0.54,-0.50333c0.20222,-0.11111 0.44667,-0.16667 0.73333,-0.16667c0.37333,0 0.70333,0.09667 0.99,0.29c0.28667,0.19333 0.50333,0.46556 0.65,0.81667c0.14667,0.35111 0.22,0.73667 0.22,1.15667c0,0.44889 -0.08111,0.85333 -0.24333,1.21333c-0.16,0.35778 -0.39333,0.63333 -0.7,0.82667c-0.30889,0.19111 -0.63222,0.28667 -0.97,0.28667c-0.24889,0 -0.47222,-0.05222 -0.67,-0.15667c-0.19556,-0.10444 -0.35667,-0.23667 -0.48333,-0.39667v2.13667zM270.59024,606.55674c0,0.56444 0.11444,0.98222 0.34333,1.25333c0.22667,0.26889 0.50333,0.40333 0.83,0.40333c0.33111,0 0.61444,-0.14 0.85,-0.42c0.23556,-0.28 0.35333,-0.71333 0.35333,-1.3c0,-0.55778 -0.11556,-0.97667 -0.34667,-1.25667c-0.22889,-0.27778 -0.50333,-0.41667 -0.82333,-0.41667c-0.31778,0 -0.59889,0.14778 -0.84333,0.44333c-0.24222,0.29778 -0.36333,0.72889 -0.36333,1.29333z"/><path d="M281.94776,608.18674c-0.27556,0.23333 -0.54111,0.39778 -0.79667,0.49333c-0.25556,0.09778 -0.52889,0.14667 -0.82,0.14667c-0.48222,0 -0.85333,-0.11778 -1.11333,-0.35333c-0.25778,-0.23556 -0.38667,-0.53667 -0.38667,-0.90333c0,-0.21556 0.04889,-0.41222 0.14667,-0.59c0.09778,-0.17778 0.22556,-0.32 0.38333,-0.42667c0.15778,-0.10889 0.33667,-0.19111 0.53667,-0.24667c0.14444,-0.03778 0.36444,-0.07444 0.66,-0.11c0.60222,-0.07111 1.04444,-0.15667 1.32667,-0.25667c0.00444,-0.10222 0.00667,-0.16667 0.00667,-0.19333c0,-0.30444 -0.07111,-0.51778 -0.21333,-0.64c-0.18889,-0.16889 -0.47111,-0.25333 -0.84667,-0.25333c-0.34889,0 -0.60667,0.06111 -0.77333,0.18333c-0.16889,0.12222 -0.29222,0.33889 -0.37,0.65l-0.73,-0.09667c0.06667,-0.31111 0.17556,-0.56333 0.32667,-0.75667c0.15111,-0.19111 0.37,-0.33778 0.65667,-0.44c0.28667,-0.10444 0.61889,-0.15667 0.99667,-0.15667c0.37556,0 0.68,0.04444 0.91333,0.13333c0.23556,0.08667 0.40778,0.19778 0.51667,0.33333c0.11111,0.13333 0.18889,0.30222 0.23333,0.50667c0.02444,0.12667 0.03667,0.35444 0.03667,0.68333v0.99333c0,0.69111 0.01556,1.12889 0.04667,1.31333c0.03333,0.18222 0.09667,0.35778 0.19,0.52667h-0.77667c-0.07778,-0.15333 -0.12778,-0.33333 -0.15,-0.54zM281.88442,606.5234c-0.26889,0.11111 -0.67333,0.20444 -1.21333,0.28c-0.30667,0.04444 -0.52333,0.09444 -0.65,0.15c-0.12667,0.05556 -0.22444,0.13556 -0.29333,0.24c-0.06889,0.10667 -0.10333,0.22556 -0.10333,0.35667c0,0.19778 0.07444,0.36222 0.22333,0.49333c0.15111,0.13333 0.37111,0.2 0.66,0.2c0.28667,0 0.54222,-0.06333 0.76667,-0.19c0.22222,-0.12444 0.38556,-0.29556 0.49,-0.51333c0.08,-0.16889 0.12,-0.41667 0.12,-0.74333z"/><path d="M289.9686,606.62674l0.10667,0.66c-0.20889,0.04222 -0.39667,0.06333 -0.56333,0.06333c-0.26889,0 -0.47778,-0.04222 -0.62667,-0.12667c-0.14889,-0.08667 -0.25333,-0.19889 -0.31333,-0.33667c-0.06222,-0.14 -0.09333,-0.43333 -0.09333,-0.88v-2.52333h-0.54333v-0.58h0.54333v-1.08667l0.74,-0.44667v1.53333h0.75v0.58h-0.75v2.56667c0,0.21111 0.01333,0.34667 0.04,0.40667c0.02667,0.06222 0.07,0.11111 0.13,0.14667c0.05778,0.03556 0.14222,0.05333 0.25333,0.05333c0.08222,0 0.19111,-0.01 0.32667,-0.03z"/><path d="M294.67323,606.62674l0.10667,0.66c-0.20889,0.04222 -0.39667,0.06333 -0.56333,0.06333c-0.26889,0 -0.47778,-0.04222 -0.62667,-0.12667c-0.14889,-0.08667 -0.25333,-0.19889 -0.31333,-0.33667c-0.06222,-0.14 -0.09333,-0.43333 -0.09333,-0.88v-2.52333h-0.54333v-0.58h0.54333v-1.08667l0.74,-0.44667v1.53333h0.75v0.58h-0.75v2.56667c0,0.21111 0.01333,0.34667 0.04,0.40667c0.02667,0.06222 0.07,0.11111 0.13,0.14667c0.05778,0.03556 0.14222,0.05333 0.25333,0.05333c0.08222,0 0.19111,-0.01 0.32667,-0.03z"/><path d="M300.91785,607.3134l0.77,0.09333c-0.12222,0.45111 -0.34667,0.8 -0.67333,1.04667c-0.32889,0.24889 -0.74778,0.37333 -1.25667,0.37333c-0.64222,0 -1.15222,-0.19778 -1.53,-0.59333c-0.37556,-0.39556 -0.56333,-0.95 -0.56333,-1.66333c0,-0.74 0.19,-1.31333 0.57,-1.72c0.38,-0.40889 0.87333,-0.61333 1.48,-0.61333c0.58667,0 1.06667,0.2 1.44,0.6c0.37111,0.4 0.55667,0.96222 0.55667,1.68667c0,0.04444 -0.00111,0.11 -0.00333,0.19667h-3.27333c0.02667,0.48444 0.16222,0.85444 0.40667,1.11c0.24667,0.25556 0.55333,0.38333 0.92,0.38333c0.27333,0 0.50556,-0.07111 0.69667,-0.21333c0.19333,-0.14444 0.34667,-0.37333 0.46,-0.68667zM298.47451,606.11007h2.45333c-0.03333,-0.36889 -0.12778,-0.64556 -0.28333,-0.83c-0.23556,-0.28667 -0.54222,-0.43 -0.92,-0.43c-0.34222,0 -0.63,0.11444 -0.86333,0.34333c-0.23333,0.22889 -0.36222,0.53444 -0.38667,0.91667z"/><path d="M307.56203,608.72674v-4.39h0.67v0.66667c0.17111,-0.31333 0.32889,-0.51889 0.47333,-0.61667c0.14444,-0.1 0.30333,-0.15 0.47667,-0.15c0.25111,0 0.50667,0.08 0.76667,0.24l-0.25667,0.69c-0.18222,-0.10667 -0.36444,-0.16 -0.54667,-0.16c-0.16222,0 -0.30889,0.04889 -0.44,0.14667c-0.12889,0.09778 -0.22111,0.23333 -0.27667,0.40667c-0.08222,0.26444 -0.12333,0.55333 -0.12333,0.86667v2.3z"/><path d="M313.21429,608.72674v-4.39h0.67v0.62333c0.32222,-0.48222 0.78889,-0.72333 1.4,-0.72333c0.26444,0 0.50667,0.04778 0.72667,0.14333c0.22222,0.09556 0.38889,0.22 0.5,0.37333c0.11111,0.15556 0.18778,0.33889 0.23,0.55c0.02889,0.13778 0.04333,0.37889 0.04333,0.72333v2.7h-0.74333v-2.67c0,-0.30444 -0.03,-0.53111 -0.09,-0.68c-0.05778,-0.15111 -0.16,-0.27111 -0.30667,-0.36c-0.14667,-0.08889 -0.32,-0.13333 -0.52,-0.13333c-0.31556,0 -0.58889,0.1 -0.82,0.3c-0.22889,0.20222 -0.34333,0.58444 -0.34333,1.14667v2.39667z"/><path d="M327.27994,608.83674c-0.41111,-0.52 -0.75778,-1.12667 -1.04,-1.82c-0.28444,-0.69556 -0.42667,-1.41556 -0.42667,-2.16c0,-0.65556 0.10556,-1.28333 0.31667,-1.88333c0.24889,-0.69778 0.63222,-1.39222 1.15,-2.08333h0.53333c-0.33333,0.57333 -0.55333,0.98222 -0.66,1.22667c-0.16889,0.38 -0.30111,0.77667 -0.39667,1.19c-0.12,0.51556 -0.18,1.03444 -0.18,1.55667c0,1.32444 0.41222,2.64889 1.23667,3.97333z"/><path d="M334.95554,602.5534l-0.74,0.05667c-0.06667,-0.29111 -0.16111,-0.50333 -0.28333,-0.63667c-0.2,-0.21111 -0.44778,-0.31667 -0.74333,-0.31667c-0.23556,0 -0.44333,0.06556 -0.62333,0.19667c-0.23333,0.17111 -0.41778,0.42111 -0.55333,0.75c-0.13556,0.32889 -0.20556,0.79556 -0.21,1.4c0.17778,-0.27111 0.39667,-0.47333 0.65667,-0.60667c0.25778,-0.13111 0.52889,-0.19667 0.81333,-0.19667c0.49556,0 0.91778,0.18222 1.26667,0.54667c0.34889,0.36444 0.52333,0.83667 0.52333,1.41667c0,0.38 -0.08222,0.73333 -0.24667,1.06c-0.16444,0.32667 -0.39,0.57667 -0.67667,0.75c-0.28667,0.17333 -0.61111,0.26 -0.97333,0.26c-0.62,0 -1.12556,-0.22778 -1.51667,-0.68333c-0.39333,-0.45778 -0.59,-1.21 -0.59,-2.25667c0,-1.17111 0.21667,-2.02222 0.65,-2.55333c0.37778,-0.46444 0.88667,-0.69667 1.52667,-0.69667c0.47556,0 0.86556,0.13444 1.17,0.40333c0.30667,0.26667 0.49,0.63556 0.55,1.10667zM331.91554,605.16674c0,0.25556 0.05444,0.50111 0.16333,0.73667c0.10889,0.23333 0.26111,0.41111 0.45667,0.53333c0.19556,0.12222 0.40111,0.18333 0.61667,0.18333c0.31333,0 0.58333,-0.12667 0.81,-0.38c0.22667,-0.25333 0.34,-0.59778 0.34,-1.03333c0,-0.41778 -0.11222,-0.74778 -0.33667,-0.99c-0.22222,-0.24 -0.50333,-0.36 -0.84333,-0.36c-0.33556,0 -0.62,0.12 -0.85333,0.36c-0.23556,0.24222 -0.35333,0.55889 -0.35333,0.95z"/><path d="M344.22452,608.72674v-4.39h0.67v0.62333c0.32222,-0.48222 0.78889,-0.72333 1.4,-0.72333c0.26444,0 0.50667,0.04778 0.72667,0.14333c0.22222,0.09556 0.38889,0.22 0.5,0.37333c0.11111,0.15556 0.18778,0.33889 0.23,0.55c0.02889,0.13778 0.04333,0.37889 0.04333,0.72333v2.7h-0.74333v-2.67c0,-0.30444 -0.03,-0.53111 -0.09,-0.68c-0.05778,-0.15111 -0.16,-0.27111 -0.30667,-0.36c-0.14667,-0.08889 -0.32,-0.13333 -0.52,-0.13333c-0.31556,0 -0.58889,0.1 -0.82,0.3c-0.22889,0.20222 -0.34333,0.58444 -0.34333,1.14667v2.39667z"/><path d="M356.40203,607.3134l0.77,0.09333c-0.12222,0.45111 -0.34667,0.8 -0.67333,1.04667c-0.32889,0.24889 -0.74778,0.37333 -1.25667,0.37333c-0.64222,0 -1.15222,-0.19778 -1.53,-0.59333c-0.37556,-0.39556 -0.56333,-0.95 -0.56333,-1.66333c0,-0.74 0.19,-1.31333 0.57,-1.72c0.38,-0.40889 0.87333,-0.61333 1.48,-0.61333c0.58667,0 1.06667,0.2 1.44,0.6c0.37111,0.4 0.55667,0.96222 0.55667,1.68667c0,0.04444 -0.00111,0.11 -0.00333,0.19667h-3.27333c0.02667,0.48444 0.16222,0.85444 0.40667,1.11c0.24667,0.25556 0.55333,0.38333 0.92,0.38333c0.27333,0 0.50556,-0.07111 0.69667,-0.21333c0.19333,-0.14444 0.34667,-0.37333 0.46,-0.68667zM353.9587,606.11007h2.45333c-0.03333,-0.36889 -0.12778,-0.64556 -0.28333,-0.83c-0.23556,-0.28667 -0.54222,-0.43 -0.92,-0.43c-0.34222,0 -0.63,0.11444 -0.86333,0.34333c-0.23333,0.22889 -0.36222,0.53444 -0.38667,0.91667z"/><path d="M365.81954,607.3134l0.77,0.09333c-0.12222,0.45111 -0.34667,0.8 -0.67333,1.04667c-0.32889,0.24889 -0.74778,0.37333 -1.25667,0.37333c-0.64222,0 -1.15222,-0.19778 -1.53,-0.59333c-0.37556,-0.39556 -0.56333,-0.95 -0.56333,-1.66333c0,-0.74 0.19,-1.31333 0.57,-1.72c0.38,-0.40889 0.87333,-0.61333 1.48,-0.61333c0.58667,0 1.06667,0.2 1.44,0.6c0.37111,0.4 0.55667,0.96222 0.55667,1.68667c0,0.04444 -0.00111,0.11 -0.00333,0.19667h-3.27333c0.02667,0.48444 0.16222,0.85444 0.40667,1.11c0.24667,0.25556 0.55333,0.38333 0.92,0.38333c0.27333,0 0.50556,-0.07111 0.69667,-0.21333c0.19333,-0.14444 0.34667,-0.37333 0.46,-0.68667zM363.37621,606.11007h2.45333c-0.03333,-0.36889 -0.12778,-0.64556 -0.28333,-0.83c-0.23556,-0.28667 -0.54222,-0.43 -0.92,-0.43c-0.34222,0 -0.63,0.11444 -0.86333,0.34333c-0.23333,0.22889 -0.36222,0.53444 -0.38667,0.91667z"/><path d="M375.06039,607.15674v-0.55333c-0.27778,0.43556 -0.68667,0.65333 -1.22667,0.65333c-0.35111,0 -0.67333,-0.09667 -0.96667,-0.29c-0.29333,-0.19333 -0.52111,-0.46333 -0.68333,-0.81c-0.16,-0.34444 -0.24,-0.74111 -0.24,-1.19c0,-0.44 0.07333,-0.83778 0.22,-1.19333c0.14444,-0.35778 0.36333,-0.63111 0.65667,-0.82c0.29111,-0.19111 0.61778,-0.28667 0.98,-0.28667c0.26444,0 0.5,0.05556 0.70667,0.16667c0.20667,0.11333 0.37444,0.25889 0.50333,0.43667v-2.17333h0.74v6.06zM372.70706,604.96674c0,0.56222 0.11889,0.98222 0.35667,1.26c0.23778,0.27778 0.51778,0.41667 0.84,0.41667c0.32444,0 0.6,-0.13222 0.82667,-0.39667c0.22889,-0.26667 0.34333,-0.67333 0.34333,-1.22c0,-0.6 -0.11667,-1.04111 -0.35,-1.32333c-0.23111,-0.28 -0.51556,-0.42 -0.85333,-0.42c-0.33111,0 -0.60778,0.13444 -0.83,0.40333c-0.22222,0.27111 -0.33333,0.69778 -0.33333,1.28z"/><path d="M384.65457,607.3134l0.77,0.09333c-0.12222,0.45111 -0.34667,0.8 -0.67333,1.04667c-0.32889,0.24889 -0.74778,0.37333 -1.25667,0.37333c-0.64222,0 -1.15222,-0.19778 -1.53,-0.59333c-0.37556,-0.39556 -0.56333,-0.95 -0.56333,-1.66333c0,-0.74 0.19,-1.31333 0.57,-1.72c0.38,-0.40889 0.87333,-0.61333 1.48,-0.61333c0.58667,0 1.06667,0.2 1.44,0.6c0.37111,0.4 0.55667,0.96222 0.55667,1.68667c0,0.04444 -0.00111,0.11 -0.00333,0.19667h-3.27333c0.02667,0.48444 0.16222,0.85444 0.40667,1.11c0.24667,0.25556 0.55333,0.38333 0.92,0.38333c0.27333,0 0.50556,-0.07111 0.69667,-0.21333c0.19333,-0.14444 0.34667,-0.37333 0.46,-0.68667zM382.21124,606.11007h2.45333c-0.03333,-0.36889 -0.12778,-0.64556 -0.28333,-0.83c-0.23556,-0.28667 -0.54222,-0.43 -0.92,-0.43c-0.34222,0 -0.63,0.11444 -0.86333,0.34333c-0.23333,0.22889 -0.36222,0.53444 -0.38667,0.91667z"/><path d="M393.89542,607.15674v-0.55333c-0.27778,0.43556 -0.68667,0.65333 -1.22667,0.65333c-0.35111,0 -0.67333,-0.09667 -0.96667,-0.29c-0.29333,-0.19333 -0.52111,-0.46333 -0.68333,-0.81c-0.16,-0.34444 -0.24,-0.74111 -0.24,-1.19c0,-0.44 0.07333,-0.83778 0.22,-1.19333c0.14444,-0.35778 0.36333,-0.63111 0.65667,-0.82c0.29111,-0.19111 0.61778,-0.28667 0.98,-0.28667c0.26444,0 0.5,0.05556 0.70667,0.16667c0.20667,0.11333 0.37444,0.25889 0.50333,0.43667v-2.17333h0.74v6.06zM391.54208,604.96674c0,0.56222 0.11889,0.98222 0.35667,1.26c0.23778,0.27778 0.51778,0.41667 0.84,0.41667c0.32444,0 0.6,-0.13222 0.82667,-0.39667c0.22889,-0.26667 0.34333,-0.67333 0.34333,-1.22c0,-0.6 -0.11667,-1.04111 -0.35,-1.32333c-0.23111,-0.28 -0.51556,-0.42 -0.85333,-0.42c-0.33111,0 -0.60778,0.13444 -0.83,0.40333c-0.22222,0.27111 -0.33333,0.69778 -0.33333,1.28z"/><path d="M401.17626,608.83674h-0.53333c0.82444,-1.32444 1.23667,-2.64889 1.23667,-3.97333c0,-0.51778 -0.06,-1.03222 -0.18,-1.54333c-0.09333,-0.41333 -0.22444,-0.81 -0.39333,-1.19c-0.10667,-0.24889 -0.32778,-0.66222 -0.66333,-1.24h0.53333c0.51778,0.69111 0.90111,1.38556 1.15,2.08333c0.21111,0.6 0.31667,1.22778 0.31667,1.88333c0,0.74444 -0.14222,1.46444 -0.42667,2.16c-0.28667,0.69333 -0.63333,1.3 -1.04,1.82z"/></g><path d="M255.2413,363.95462h-3.00002v3.00002h-4.18289v10.34521h-3.00002v3.00002h3.00002l0,6.00005h-3.00002v3.00002h3.00002v3.8922h2.69205c0.80504,0 1.53846,-0.46919 1.87643,-1.1998c3.15877,-6.82907 0.75001,-9.77477 2.89031,-13.40627c3.46887,-5.88504 14.09418,-6.63575 15.90676,-7.51981v-4.11163h-7.18291v-3.00002h-3.00002v3.00002h-5.99969l0,-3.00002z" id="8baf92fa-8660-4e72-a91b-6bf96c50ede8" fill="none" stroke="#9926ff"/><path d="M255.2413,423.62984h-3.00002v3.00002h-4.18289v10.34521h-3.00002v3.00002h3.00002v6.00005h-3.00002v3.00002h3.00002v3.8922h2.69205c0.80504,0 1.53846,-0.46919 1.87643,-1.1998c3.15877,-6.82907 0.75001,-9.77477 2.89031,-13.40627c3.46887,-5.88504 14.09418,-6.63575 15.90676,-7.51981v-4.11163h-7.18291v-3.00002h-3.00002v3.00002h-5.99969l0,-3.00002z" id="b7b7bbf4-8ee7-4cb4-9655-6e78e3d0edcc" fill="none" stroke="#9926ff"/><path d="M287.60691,452.86737h3.00002v-3.00002h4.18289v-10.34521h3.00002v-3.00002h-3.00002v-6.00005h3.00002v-3.00002h-3.00002v-3.8922h-2.69205c-0.80504,0 -1.53846,0.46919 -1.87643,1.1998c-3.15877,6.82907 -0.75001,9.77477 -2.89031,13.40627c-3.46887,5.88504 -14.09418,6.63575 -15.90676,7.51981v4.11163h7.18291v3.00002h3.00002v-3.00002l5.99969,0z" id="2f8d2984-2287-480c-b2c1-89432c1558cf" fill="none" stroke="#9926ff"/><path d="M287.60691,393.19214h3.00002v-3.00002h4.18289v-10.34521h3.00002v-3.00002h-3.00002v-6.00005h3.00002v-3.00002h-3.00002v-3.8922h-2.69205c-0.80504,0 -1.53846,0.46919 -1.87643,1.1998c-3.15877,6.82907 -0.75001,9.77477 -2.89031,13.40627c-3.46887,5.88504 -14.09418,6.63575 -15.90676,7.51981v4.11163h7.18291v3.00002h3.00002v-3.00002l5.99969,0z" id="1c17941c-86f0-4037-ad07-116bb8eb1b14" fill="none" stroke="#9926ff"/><path d="M336.40103,363.95461h-3.00002v3.00002h-4.18289v10.34521h-3.00002v3.00002h3.00002v6.00005h-3.00002v3.00002h3.00002v3.8922h2.69205c0.80504,0 1.53846,-0.46919 1.87643,-1.1998c3.15877,-6.82907 0.75001,-9.77477 2.89031,-13.40627c3.46887,-5.88504 14.09418,-6.63575 15.90676,-7.51981v-4.11163h-7.18291v-3.00002h-3.00002v3.00002h-5.99969v-3.00002z" id="236bd1e0-1c41-407f-9f36-ce0ed13d40fc" fill="none" stroke="#9926ff"/><path d="M336.40103,423.62982h-3.00002v3.00002h-4.18289v10.34521h-3.00002v3.00002h3.00002v6.00005h-3.00002v3.00002h3.00002v3.8922h2.69205c0.80504,0 1.53846,-0.46919 1.87643,-1.1998c3.15877,-6.82907 0.75001,-9.77477 2.89031,-13.40627c3.46887,-5.88504 14.09418,-6.63575 15.90676,-7.51981v-4.11163h-7.18291v-3.00002h-3.00002v3.00002h-5.99969l0,-3.00002z" id="beda5b30-d4c1-494e-b85f-608d9f2fd1b7" fill="none" stroke="#9926ff"/><path d="M368.76593,452.86735h3.00002v-3.00002h4.18289v-10.34521h3.00002v-3.00002h-3.00002v-6.00005h3.00002v-3.00002h-3.00002v-3.8922h-2.69205c-0.80504,0 -1.53846,0.46919 -1.87643,1.1998c-3.15877,6.82907 -0.75001,9.77477 -2.89031,13.40627c-3.46887,5.88504 -14.09418,6.63575 -15.90676,7.51981v4.11163h7.18291v3.00002h3.00002v-3.00002h5.99969v3.00002z" id="8219825b-908d-4216-b59a-6447c90ec59a" fill="none" stroke="#9926ff"/><path d="M368.76593,393.19214h3.00002v-3.00002h4.18289v-10.34521h3.00002v-3.00002h-3.00002v-6.00005h3.00002v-3.00002h-3.00002v-3.8922h-2.69205c-0.80504,0 -1.53846,0.46919 -1.87643,1.1998c-3.15877,6.82907 -0.75001,9.77477 -2.89031,13.40627c-3.46887,5.88504 -14.09418,6.63575 -15.90676,7.51981v4.11163h7.18291v3.00002h3.00002v-3.00002h5.99969v3.00002z" id="be310a79-b7a9-4495-9d20-89e57965ec09" fill="none" stroke="#9926ff"/><path d="M417.57471,363.35452h-3.00002v3.00002h-4.18289v10.34521h-3.00002v3.00002h3.00002v6.00005h-3.00002v3.00002h3.00002v3.8922h2.69205c0.80504,0 1.53846,-0.46919 1.87643,-1.1998c3.15877,-6.82907 0.75001,-9.77477 2.89031,-13.40627c3.46887,-5.88504 14.09418,-6.63575 15.90676,-7.51981v-4.11163h-7.18291v-3.00002h-3.00002v3.00002h-5.99969z" id="6f2399e5-6060-443f-8212-6a354251a9be" fill="none" stroke="#9926ff"/><path d="M417.57471,423.02975h-3.00002v3.00002h-4.18289v10.34521h-3.00002v3.00002h3.00002v6.00005h-3.00002v3.00002h3.00002v3.8922h2.69205c0.80504,0 1.53846,-0.46919 1.87643,-1.1998c3.15877,-6.82907 0.75001,-9.77477 2.89031,-13.40627c3.46887,-5.88504 14.09418,-6.63575 15.90676,-7.51981v-4.11163h-7.18291v-3.00002h-3.00002v3.00002h-5.99969z" id="a55ade1d-13de-4f06-80f9-5169742d9cd0" fill="none" stroke="#9926ff"/><path d="M449.93962,452.26728h3.00002v-3.00002h4.18289v-10.34521h3.00002v-3.00002h-3.00002v-6.00005h3.00002v-3.00002h-3.00002v-3.8922h-2.69205c-0.80504,0 -1.53846,0.46919 -1.87643,1.1998c-3.15877,6.82907 -0.75001,9.77477 -2.89031,13.40627c-3.46887,5.88504 -14.09418,6.63575 -15.90676,7.51981v4.11163h7.18291v3.00002h3.00002v-3.00002h5.99969z" id="c1264c13-32e3-4668-b6d5-db936c8bfbb9" fill="none" stroke="#9926ff"/><path d="M449.93962,392.59205h3.00002v-3.00002h4.18289v-10.34521h3.00002v-3.00002h-3.00002v-6.00005h3.00002v-3.00002h-3.00002v-3.8922h-2.69205c-0.80504,0 -1.53846,0.46919 -1.87643,1.1998c-3.15877,6.82907 -0.75001,9.77477 -2.89031,13.40627c-3.46887,5.88504 -14.09418,6.63575 -15.90676,7.51981v4.11163h7.18291v3.00002h3.00002v-3.00002h5.99969z" id="7c465aee-c720-4323-b8e5-ade2c484f8b8" fill="none" stroke="#9926ff"/><g id="g-b737f668-b02a-4f83-a93b-ada6a55cecc5" fill="#000000" stroke="none" font-family="Inter, ui-sans-serif, system-ui, sans-serif" font-weight="400" font-size="16" text-anchor="start"/><g id="g-471a8570-6b29-4c02-8db4-7e419a03743c" fill="#000000" stroke="none" font-family="Inter, ui-sans-serif, system-ui, sans-serif" font-weight="400" font-size="16" text-anchor="start"/><g id="g-05d5a7f1-39ea-407e-9e60-aa6d9999ee48"><path d="M360.83293,678.91418h0.5862l0.8006,-1.3868zM362.48033,677.07598l0.6382,-1.1053l-3.1728,-3.1728l1.7332,-1.7335l2.7085,2.7085l0.638,-1.1051l-0.7064,-0.7064l2.6367,-2.637l2.5657,-4.4439l-0.8291,-0.829l1.7332,-1.7336l0.3648,0.3648l1.9328,-3.3477l-4.0308,-4.0305l1.7336,-1.7331l3.566,3.5661l0.6382,-1.1054l-1.564,-1.5644l1.791,-1.791h-5.2802l-2.3925,2.3921h1.1258v3.0001h-2.1339l0.7728,0.7728l-1.7335,1.7327l-5.2699,-5.2699l1.7332,-1.7331l3.6313,3.6314v-1.7437l-0.991,-0.9915l1.7906,-1.7909h-5.2794l-3.5246,3.5245l-1.7331,-1.7336l1.7914,-1.7909h-5.2802l-1.7565,1.756l-1.7681,1.7686l-1.7331,-1.7336l1.791,-1.791h-5.2802l-3.525,3.5245l-1.7327,-1.7336l1.7906,-1.7909h-5.2794l-3.5246,3.5245l-1.7331,-1.7336l1.7914,-1.7909h-5.2802l-1.7565,1.756l-1.7681,1.7686l-1.7331,-1.7336l1.7909,-1.791h-5.2801l-3.525,3.5245l-0.1481,-0.1482v1.7434l1.0453,1.0453l-1.7336,1.7327l-5.2698,-5.2699l1.7332,-1.7331l1.4974,1.4974h1.7438l-0.6009,-0.6012l1.7905,-1.7909h-5.2793l-3.5246,3.5245l-1.4776,-1.478l3.0146,5.2214l1.9999,-1.9999l1.7327,1.7331l-2.4639,2.4643l0.6381,1.1052l0.9293,-0.9295l5.2702,5.2703l-1.7336,1.7327l-2.2695,-2.2694l2.2997,3.9832l4.3431,-4.3435l1.7336,1.7331l-4.808,4.808l1.9327,3.3474l1.1419,-1.1418l1.7332,1.7336l-1.6061,1.6061l0.0788,0.1367h5.0646l1.7078,-1.7078l1.769,-1.7686l1.7327,1.7336l-1.7427,1.7428h5.2802l3.4763,-3.4764l1.7328,1.7336l-1.7428,1.7428h5.2794l3.4767,-3.4764l1.7332,1.7336l-1.7428,1.7428h5.2802l1.7077,-1.7078l1.769,-1.7686l1.7327,1.7336l-1.7427,1.7428h5.2802l3.4764,-3.4764zM303.16143,654.39918l1.7229,-1.7225h-2.7174zM351.19873,672.79788l5.2707,5.2699l1.7327,-1.7332l-5.2698,-5.2702zM342.45243,672.79788l5.2703,5.2699l1.7336,-1.7332l-5.2707,-5.2702zM333.70583,672.79788l5.2699,5.2699l1.7335,-1.7332l-5.2702,-5.2702zM324.95883,672.79788l5.2707,5.2699l1.7327,-1.7332l-5.2698,-5.2702zM316.21253,672.79788l5.2703,5.2699l1.7336,-1.7332l-5.2707,-5.2702zM346.82623,671.96118l1.7331,1.7336l1.7681,-1.769v-3.3569h0.0001v3.3567l3.5017,-3.5012l-1.7027,-1.7031v-1.1524l-3,0v1.6896l-4.9409,-4.9406l-1.7332,1.7336l5.2703,5.2694l1.4038,-1.4031v0.6511h1.0915zM320.58633,671.96118l1.7331,1.7336l1.7681,-1.769v-3.4663zM355.57283,671.96138l1.7331,1.7331l5.2699,-5.2703l-1.7332,-1.7331zM338.07913,671.96138l1.7331,1.7331l5.2703,-5.2703l-1.7336,-1.7331zM329.33293,671.96138l1.7331,1.7331l5.2698,-5.2703l-1.7331,-1.7331zM324.08763,668.45938l0,3.4662l3.3571,-3.3567h2.0326l0.752,0.7519l1.7327,-1.7327l-5.2694,-5.2703l-1.734,1.7336l1.6491,1.6486v1.7425l-0.7515,-0.7517zM316.21253,664.05148l5.2703,5.2694l1.7336,-1.7327l-5.2707,-5.2703zM359.94573,664.05138l5.2699,5.2694l1.7335,-1.7327l-5.2702,-5.2703zM351.19853,664.05138l5.2707,5.2694l1.7327,-1.7327l-5.2694,-5.2703zM333.70583,664.05138l5.2699,5.2694l1.7335,-1.7327l-5.2702,-5.2703zM364.31873,663.21488l1.7336,1.7332l5.2698,-5.2703l-1.7331,-1.7331zM355.57253,663.21488l1.7336,1.7332l5.2693,-5.2703l-1.7327,-1.7331zM338.07883,663.21488l1.7336,1.7332l5.2698,-5.2703l-1.7332,-1.7331zM329.33263,663.21488l1.7335,1.7332l5.2694,-5.2703l-1.7327,-1.7331zM311.83893,663.21488l1.7335,1.7332l5.2699,-5.2703l-1.7332,-1.7331zM346.82623,663.21468l1.7331,1.7332l1.7681,-1.7686l0,-3.4663zM320.58633,663.21468l1.7331,1.7332l1.7681,-1.7686l0,-3.4663zM350.32753,659.71278v3.4663l3.5017,-3.5013l-1.7027,-1.7027v-1.4062h-3l0,1.9431l-4.9405,-4.9406l-1.7336,1.7331l5.2703,5.2699l1.4038,-1.4032v0.3977h1.345zM324.08763,659.71278v3.4663l3.5017,-3.5013l-0.1089,-0.1089h1.7434l1.0057,1.0055l1.7327,-1.7327l-5.2698,-5.2703l-1.7336,1.7331l1.6489,1.6486v1.7431l-0.7515,-0.7515zM351.19873,655.30448l5.2707,5.2699l1.7327,-1.7327l-5.2698,-5.2703zM333.70583,655.30448l5.2699,5.2699l1.7335,-1.7327l-5.2702,-5.2703zM316.21253,655.30448l5.2702,5.2699l1.7336,-1.7327l-5.2702,-5.2703z" id="0b99dd16-2981-46d7-8c9d-21c66ca939b8" fill="#f9932b" stroke="#fa9228"/><path d="M244.62465,652.67669h44.10429l15.14828,-26.2375h-74.40051zM292.61973,628.83137h3.00002v3.00002h-3.00002zM276.43605,630.33138h3.00002v3.00002h-3.00002zM276.43605,639.33145h3.00002v3.00002h-3.00002zM253.91717,630.33138h3.00002v3.00002h-3.00002zM253.91717,639.33145h3.00002v3.00002h-3.00002zM240.73351,628.83137v3.00002h-3.00002v-3.00002z" id="aa7c7608-9eb9-4e97-9951-3685f6c6132b" fill="none" stroke="#9926ff"/></g><g id="g-cf2deebf-f2ea-41fe-900c-ba691984d6ef"><path d="M360.83293,731.38921h0.5862l0.8006,-1.3868zM362.48033,729.55101l0.6382,-1.1053l-3.1728,-3.1728l1.7332,-1.7335l2.7085,2.7085l0.638,-1.1051l-0.7064,-0.7064l2.6367,-2.637l2.5657,-4.4439l-0.8291,-0.829l1.7332,-1.7336l0.3648,0.3648l1.9328,-3.3477l-4.0308,-4.0305l1.7336,-1.7331l3.566,3.5661l0.6382,-1.1054l-1.564,-1.5644l1.791,-1.791h-5.2802l-2.3925,2.3921h1.1258v3.0001h-2.1339l0.7728,0.7728l-1.7335,1.7327l-5.2699,-5.2699l1.7332,-1.7331l3.6313,3.6314v-1.7437l-0.991,-0.9915l1.7906,-1.7909h-5.2794l-3.5246,3.5245l-1.7331,-1.7336l1.7914,-1.7909h-5.2802l-1.7565,1.756l-1.7681,1.7686l-1.7331,-1.7336l1.791,-1.791h-5.2802l-3.525,3.5245l-1.7327,-1.7336l1.7906,-1.7909h-5.2794l-3.5246,3.5245l-1.7331,-1.7336l1.7914,-1.7909h-5.2802l-1.7565,1.756l-1.7681,1.7686l-1.7331,-1.7336l1.7909,-1.791h-5.2801l-3.525,3.5245l-0.1481,-0.1482v1.7434l1.0453,1.0453l-1.7336,1.7327l-5.2698,-5.2699l1.7332,-1.7331l1.4974,1.4974h1.7438l-0.6009,-0.6012l1.7905,-1.7909h-5.2793l-3.5246,3.5245l-1.4776,-1.478l3.0146,5.2214l1.9999,-1.9999l1.7327,1.7331l-2.4639,2.4643l0.6381,1.1052l0.9293,-0.9295l5.2702,5.2703l-1.7336,1.7327l-2.2695,-2.2694l2.2997,3.9832l4.3431,-4.3435l1.7336,1.7331l-4.808,4.808l1.9327,3.3474l1.1419,-1.1418l1.7332,1.7336l-1.6061,1.6061l0.0788,0.1367h5.0646l1.7078,-1.7078l1.769,-1.7686l1.7327,1.7336l-1.7427,1.7428h5.2802l3.4763,-3.4764l1.7328,1.7336l-1.7428,1.7428h5.2794l3.4767,-3.4764l1.7332,1.7336l-1.7428,1.7428h5.2802l1.7077,-1.7078l1.769,-1.7686l1.7327,1.7336l-1.7427,1.7428h5.2802l3.4764,-3.4764zM303.16143,706.87421l1.7229,-1.7225h-2.7174zM351.19873,725.27291l5.2707,5.2699l1.7327,-1.7332l-5.2698,-5.2702zM342.45243,725.27291l5.2703,5.2699l1.7336,-1.7332l-5.2707,-5.2702zM333.70583,725.27291l5.2699,5.2699l1.7335,-1.7332l-5.2702,-5.2702zM324.95883,725.27291l5.2707,5.2699l1.7327,-1.7332l-5.2698,-5.2702zM316.21253,725.27291l5.2703,5.2699l1.7336,-1.7332l-5.2707,-5.2702zM346.82623,724.43621l1.7331,1.7336l1.7681,-1.769v-3.3569h0.0001v3.3567l3.5017,-3.5012l-1.7027,-1.7031v-1.1524h-3v1.6896l-4.9409,-4.9406l-1.7332,1.7336l5.2703,5.2694l1.4038,-1.4031v0.6511h1.0915zM320.58633,724.43621l1.7331,1.7336l1.7681,-1.769v-3.4663zM355.57283,724.43641l1.7331,1.7331l5.2699,-5.2703l-1.7332,-1.7331zM338.07913,724.43641l1.7331,1.7331l5.2703,-5.2703l-1.7336,-1.7331zM329.33293,724.43641l1.7331,1.7331l5.2698,-5.2703l-1.7331,-1.7331zM324.08763,720.93441l0,3.4662l3.3571,-3.3567h2.0326l0.752,0.7519l1.7327,-1.7327l-5.2694,-5.2703l-1.734,1.7336l1.6491,1.6486v1.7425l-0.7515,-0.7517zM316.21253,716.52651l5.2703,5.2694l1.7336,-1.7327l-5.2707,-5.2703zM359.94573,716.52641l5.2699,5.2694l1.7335,-1.7327l-5.2702,-5.2703zM351.19853,716.52641l5.2707,5.2694l1.7327,-1.7327l-5.2694,-5.2703zM333.70583,716.52641l5.2699,5.2694l1.7335,-1.7327l-5.2702,-5.2703zM364.31873,715.68991l1.7336,1.7332l5.2698,-5.2703l-1.7331,-1.7331zM355.57253,715.68991l1.7336,1.7332l5.2693,-5.2703l-1.7327,-1.7331zM338.07883,715.68991l1.7336,1.7332l5.2698,-5.2703l-1.7332,-1.7331zM329.33263,715.68991l1.7335,1.7332l5.2694,-5.2703l-1.7327,-1.7331zM311.83893,715.68991l1.7335,1.7332l5.2699,-5.2703l-1.7332,-1.7331zM346.82623,715.68971l1.7331,1.7332l1.7681,-1.7686l0,-3.4663zM320.58633,715.68971l1.7331,1.7332l1.7681,-1.7686l0,-3.4663zM350.32753,712.18781v3.4663l3.5017,-3.5013l-1.7027,-1.7027v-1.4062h-3l0,1.9431l-4.9405,-4.9406l-1.7336,1.7331l5.2703,5.2699l1.4038,-1.4032v0.3977h1.345zM324.08763,712.18781v3.4663l3.5017,-3.5013l-0.1089,-0.1089h1.7434l1.0057,1.0055l1.7327,-1.7327l-5.2698,-5.2703l-1.7336,1.7331l1.6489,1.6486v1.7431l-0.7515,-0.7515zM351.19873,707.77951l5.2707,5.2699l1.7327,-1.7327l-5.2698,-5.2703zM333.70583,707.77951l5.2699,5.2699l1.7335,-1.7327l-5.2702,-5.2703zM316.21253,707.77951l5.2702,5.2699l1.7336,-1.7327l-5.2702,-5.2703z" id="36a14fbf-efc1-47f6-801b-471a9a171bdd" fill="#f9932b" stroke="#fa9228"/><path d="M244.62465,705.15173h44.10429l15.14828,-26.2375h-74.40051zM292.61973,681.30641h3.00002v3.00002h-3.00002zM276.43605,682.80642h3.00002v3.00002h-3.00002zM276.43605,691.80649h3.00002v3.00002h-3.00002zM253.91717,682.80642h3.00002v3.00002h-3.00002zM253.91717,691.80649h3.00002v3.00002h-3.00002zM240.73351,681.30641v3.00002h-3.00002v-3.00002z" id="4a0e1ae0-3ff0-4637-a814-651d575ac2ba" fill="none" stroke="#9926ff"/></g><g id="g-af870585-a479-48f2-b0a1-449bad507a3f" fill="#000000" stroke="none" font-family="Inter, ui-sans-serif, system-ui, sans-serif" font-weight="400" font-size="16" text-anchor="start"/><g id="g-ec184c8a-6f45-4e20-a3ed-cba50bd2fa6a" fill="#000000" stroke="none" font-family="Inter, ui-sans-serif, system-ui, sans-serif" font-weight="400" font-size="16" text-anchor="start"/><g id="g-62d88c1b-909d-4baa-8983-a967baeee337"><path d="M360.83223,783.86421h0.5862l0.8006,-1.3868zM362.47963,782.02601l0.6382,-1.1053l-3.1728,-3.1728l1.7332,-1.7335l2.7085,2.7085l0.638,-1.1051l-0.7064,-0.7064l2.6367,-2.637l2.5657,-4.4439l-0.8291,-0.829l1.7332,-1.7336l0.3648,0.3648l1.9328,-3.3477l-4.0308,-4.0305l1.7336,-1.7331l3.566,3.5661l0.6382,-1.1054l-1.564,-1.5644l1.791,-1.791h-5.2802l-2.3925,2.3921h1.1258v3.0001h-2.1339l0.7728,0.7728l-1.7335,1.7327l-5.2699,-5.2699l1.7332,-1.7331l3.6313,3.6314v-1.7437l-0.991,-0.9915l1.7906,-1.7909h-5.2794l-3.5246,3.5245l-1.7331,-1.7336l1.7914,-1.7909h-5.2802l-1.7565,1.756l-1.7681,1.7686l-1.7331,-1.7336l1.791,-1.791h-5.2802l-3.525,3.5245l-1.7327,-1.7336l1.7906,-1.7909h-5.2794l-3.5246,3.5245l-1.7331,-1.7336l1.7914,-1.7909h-5.2802l-1.7565,1.756l-1.7681,1.7686l-1.7331,-1.7336l1.7909,-1.791h-5.2801l-3.525,3.5245l-0.1481,-0.1482v1.7434l1.0453,1.0453l-1.7336,1.7327l-5.2698,-5.2699l1.7332,-1.7331l1.4974,1.4974h1.7438l-0.6009,-0.6012l1.7905,-1.7909h-5.2793l-3.5246,3.5245l-1.4776,-1.478l3.0146,5.2214l1.9999,-1.9999l1.7327,1.7331l-2.4639,2.4643l0.6381,1.1052l0.9293,-0.9295l5.2702,5.2703l-1.7336,1.7327l-2.2695,-2.2694l2.2997,3.9832l4.3431,-4.3435l1.7336,1.7331l-4.808,4.808l1.9327,3.3474l1.1419,-1.1418l1.7332,1.7336l-1.6061,1.6061l0.0788,0.1367h5.0646l1.7078,-1.7078l1.769,-1.7686l1.7327,1.7336l-1.7427,1.7428h5.2802l3.4763,-3.4764l1.7328,1.7336l-1.7428,1.7428h5.2794l3.4767,-3.4764l1.7332,1.7336l-1.7428,1.7428h5.2802l1.7077,-1.7078l1.769,-1.7686l1.7327,1.7336l-1.7427,1.7428h5.2802l3.4764,-3.4764zM303.16073,759.34921l1.7229,-1.7225h-2.7174zM351.19803,777.74791l5.2707,5.2699l1.7327,-1.7332l-5.2698,-5.2702zM342.45173,777.74791l5.2703,5.2699l1.7336,-1.7332l-5.2707,-5.2702zM333.70513,777.74791l5.2699,5.2699l1.7335,-1.7332l-5.2702,-5.2702zM324.95813,777.74791l5.2707,5.2699l1.7327,-1.7332l-5.2698,-5.2702zM316.21183,777.74791l5.2703,5.2699l1.7336,-1.7332l-5.2707,-5.2702zM346.82553,776.91121l1.7331,1.7336l1.7681,-1.769v-3.3569h0.0001v3.3567l3.5017,-3.5012l-1.7027,-1.7031v-1.1524h-3v1.6896l-4.9409,-4.9406l-1.7332,1.7336l5.2703,5.2694l1.4038,-1.4031v0.6511h1.0915zM320.58563,776.91121l1.7331,1.7336l1.7681,-1.769v-3.4663zM355.57213,776.91141l1.7331,1.7331l5.2699,-5.2703l-1.7332,-1.7331zM338.07843,776.91141l1.7331,1.7331l5.2703,-5.2703l-1.7336,-1.7331zM329.33223,776.91141l1.7331,1.7331l5.2698,-5.2703l-1.7331,-1.7331zM324.08693,773.40941l0,3.4662l3.3571,-3.3567h2.0326l0.752,0.7519l1.7327,-1.7327l-5.2694,-5.2703l-1.734,1.7336l1.6491,1.6486v1.7425l-0.7515,-0.7517zM316.21183,769.00151l5.2703,5.2694l1.7336,-1.7327l-5.2707,-5.2703zM359.94503,769.00141l5.2699,5.2694l1.7335,-1.7327l-5.2702,-5.2703zM351.19783,769.00141l5.2707,5.2694l1.7327,-1.7327l-5.2694,-5.2703zM333.70513,769.00141l5.2699,5.2694l1.7335,-1.7327l-5.2702,-5.2703zM364.31803,768.16491l1.7336,1.7332l5.2698,-5.2703l-1.7331,-1.7331zM355.57183,768.16491l1.7336,1.7332l5.2693,-5.2703l-1.7327,-1.7331zM338.07813,768.16491l1.7336,1.7332l5.2698,-5.2703l-1.7332,-1.7331zM329.33193,768.16491l1.7335,1.7332l5.2694,-5.2703l-1.7327,-1.7331zM311.83823,768.16491l1.7335,1.7332l5.2699,-5.2703l-1.7332,-1.7331zM346.82553,768.16471l1.7331,1.7332l1.7681,-1.7686l0,-3.4663zM320.58563,768.16471l1.7331,1.7332l1.7681,-1.7686l0,-3.4663zM350.32683,764.66281v3.4663l3.5017,-3.5013l-1.7027,-1.7027v-1.4062h-3l0,1.9431l-4.9405,-4.9406l-1.7336,1.7331l5.2703,5.2699l1.4038,-1.4032v0.3977h1.345zM324.08693,764.66281v3.4663l3.5017,-3.5013l-0.1089,-0.1089h1.7434l1.0057,1.0055l1.7327,-1.7327l-5.2698,-5.2703l-1.7336,1.7331l1.6489,1.6486v1.7431l-0.7515,-0.7515zM351.19803,760.25451l5.2707,5.2699l1.7327,-1.7327l-5.2698,-5.2703zM333.70513,760.25451l5.2699,5.2699l1.7335,-1.7327l-5.2702,-5.2703zM316.21183,760.25451l5.2702,5.2699l1.7336,-1.7327l-5.2702,-5.2703z" id="341dcbed-81f0-4fcc-a37e-2c33e6041dfd" fill="#f9932b" stroke="#fa9228"/><path d="M244.62394,757.62672h44.10429l15.14828,-26.2375h-74.40051zM292.61902,733.78141h3.00002v3.00002h-3.00002zM276.43534,735.28142h3.00002v3.00002h-3.00002zM276.43534,744.28149h3.00002v3.00002h-3.00002zM253.91647,735.28142h3.00002v3.00002h-3.00002zM253.91647,744.28149h3.00002v3.00002h-3.00002zM240.7328,733.78141v3.00002h-3.00002v-3.00002z" id="3de92691-0f9f-473c-9afd-832f3c903541" fill="none" stroke="#9926ff"/></g><g id="g-26be703b-68d2-45c0-989a-7cb299c67396"><path d="M360.83223,836.33925h0.5862l0.8006,-1.3868zM362.47963,834.50105l0.6382,-1.1053l-3.1728,-3.1728l1.7332,-1.7335l2.7085,2.7085l0.638,-1.1051l-0.7064,-0.7064l2.6367,-2.637l2.5657,-4.4439l-0.8291,-0.829l1.7332,-1.7336l0.3648,0.3648l1.9328,-3.3477l-4.0308,-4.0305l1.7336,-1.7331l3.566,3.5661l0.6382,-1.1054l-1.564,-1.5644l1.791,-1.791h-5.2802l-2.3925,2.3921h1.1258v3.0001h-2.1339l0.7728,0.7728l-1.7335,1.7327l-5.2699,-5.2699l1.7332,-1.7331l3.6313,3.6314v-1.7437l-0.991,-0.9915l1.7906,-1.7909h-5.2794l-3.5246,3.5245l-1.7331,-1.7336l1.7914,-1.7909h-5.2802l-1.7565,1.756l-1.7681,1.7686l-1.7331,-1.7336l1.791,-1.791h-5.2802l-3.525,3.5245l-1.7327,-1.7336l1.7906,-1.7909h-5.2794l-3.5246,3.5245l-1.7331,-1.7336l1.7914,-1.7909h-5.2802l-1.7565,1.756l-1.7681,1.7686l-1.7331,-1.7336l1.7909,-1.791h-5.2801l-3.525,3.5245l-0.1481,-0.1482v1.7434l1.0453,1.0453l-1.7336,1.7327l-5.2698,-5.2699l1.7332,-1.7331l1.4974,1.4974h1.7438l-0.6009,-0.6012l1.7905,-1.7909h-5.2793l-3.5246,3.5245l-1.4776,-1.478l3.0146,5.2214l1.9999,-1.9999l1.7327,1.7331l-2.4639,2.4643l0.6381,1.1052l0.9293,-0.9295l5.2702,5.2703l-1.7336,1.7327l-2.2695,-2.2694l2.2997,3.9832l4.3431,-4.3435l1.7336,1.7331l-4.808,4.808l1.9327,3.3474l1.1419,-1.1418l1.7332,1.7336l-1.6061,1.6061l0.0788,0.1367h5.0646l1.7078,-1.7078l1.769,-1.7686l1.7327,1.7336l-1.7427,1.7428h5.2802l3.4763,-3.4764l1.7328,1.7336l-1.7428,1.7428h5.2794l3.4767,-3.4764l1.7332,1.7336l-1.7428,1.7428h5.2802l1.7077,-1.7078l1.769,-1.7686l1.7327,1.7336l-1.7427,1.7428h5.2802l3.4764,-3.4764zM303.16073,811.82425l1.7229,-1.7225h-2.7174zM351.19803,830.22295l5.2707,5.2699l1.7327,-1.7332l-5.2698,-5.2702zM342.45173,830.22295l5.2703,5.2699l1.7336,-1.7332l-5.2707,-5.2702zM333.70513,830.22295l5.2699,5.2699l1.7335,-1.7332l-5.2702,-5.2702zM324.95813,830.22295l5.2707,5.2699l1.7327,-1.7332l-5.2698,-5.2702zM316.21183,830.22295l5.2703,5.2699l1.7336,-1.7332l-5.2707,-5.2702zM346.82553,829.38625l1.7331,1.7336l1.7681,-1.769v-3.3569h0.0001v3.3567l3.5017,-3.5012l-1.7027,-1.7031v-1.1524h-3v1.6896l-4.9409,-4.9406l-1.7332,1.7336l5.2703,5.2694l1.4038,-1.4031v0.6511h1.0915zM320.58563,829.38625l1.7331,1.7336l1.7681,-1.769v-3.4663zM355.57213,829.38645l1.7331,1.7331l5.2699,-5.2703l-1.7332,-1.7331zM338.07843,829.38645l1.7331,1.7331l5.2703,-5.2703l-1.7336,-1.7331zM329.33223,829.38645l1.7331,1.7331l5.2698,-5.2703l-1.7331,-1.7331zM324.08693,825.88445l0,3.4662l3.3571,-3.3567h2.0326l0.752,0.7519l1.7327,-1.7327l-5.2694,-5.2703l-1.734,1.7336l1.6491,1.6486v1.7425l-0.7515,-0.7517zM316.21183,821.47655l5.2703,5.2694l1.7336,-1.7327l-5.2707,-5.2703zM359.94503,821.47645l5.2699,5.2694l1.7335,-1.7327l-5.2702,-5.2703zM351.19783,821.47645l5.2707,5.2694l1.7327,-1.7327l-5.2694,-5.2703zM333.70513,821.47645l5.2699,5.2694l1.7335,-1.7327l-5.2702,-5.2703zM364.31803,820.63995l1.7336,1.7332l5.2698,-5.2703l-1.7331,-1.7331zM355.57183,820.63995l1.7336,1.7332l5.2693,-5.2703l-1.7327,-1.7331zM338.07813,820.63995l1.7336,1.7332l5.2698,-5.2703l-1.7332,-1.7331zM329.33193,820.63995l1.7335,1.7332l5.2694,-5.2703l-1.7327,-1.7331zM311.83823,820.63995l1.7335,1.7332l5.2699,-5.2703l-1.7332,-1.7331zM346.82553,820.63975l1.7331,1.7332l1.7681,-1.7686l0,-3.4663zM320.58563,820.63975l1.7331,1.7332l1.7681,-1.7686l0,-3.4663zM350.32683,817.13785v3.4663l3.5017,-3.5013l-1.7027,-1.7027v-1.4062h-3l0,1.9431l-4.9405,-4.9406l-1.7336,1.7331l5.2703,5.2699l1.4038,-1.4032v0.3977h1.345zM324.08693,817.13785v3.4663l3.5017,-3.5013l-0.1089,-0.1089h1.7434l1.0057,1.0055l1.7327,-1.7327l-5.2698,-5.2703l-1.7336,1.7331l1.6489,1.6486v1.7431l-0.7515,-0.7515zM351.19803,812.72955l5.2707,5.2699l1.7327,-1.7327l-5.2698,-5.2703zM333.70513,812.72955l5.2699,5.2699l1.7335,-1.7327l-5.2702,-5.2703zM316.21183,812.72955l5.2702,5.2699l1.7336,-1.7327l-5.2702,-5.2703z" id="597623a6-3746-44eb-872f-379002d8bec5" fill="#f9932b" stroke="#fa9228"/><path d="M244.62394,810.10176h44.10429l15.14828,-26.2375h-74.40051zM292.61902,786.25644h3.00002v3.00002h-3.00002zM276.43534,787.75646h3.00002v3.00002h-3.00002zM276.43534,796.75653h3.00002v3.00002h-3.00002zM253.91647,787.75646h3.00002v3.00002h-3.00002zM253.91647,796.75653h3.00002v3.00002h-3.00002zM240.7328,786.25644v3.00002h-3.00002v-3.00002z" id="5cd1aa3d-85be-4eff-b1c9-a1d0e2ecb174" fill="none" stroke="#9926ff"/></g><g id="g-7b21a838-a58e-452c-81bf-78e53da338c4"><path d="M360.83293,888.81428h0.5862l0.8006,-1.3868zM362.48033,886.97608l0.6382,-1.1053l-3.1728,-3.1728l1.7332,-1.7335l2.7085,2.7085l0.638,-1.1051l-0.7064,-0.7064l2.6367,-2.637l2.5657,-4.4439l-0.8291,-0.829l1.7332,-1.7336l0.3648,0.3648l1.9328,-3.3477l-4.0308,-4.0305l1.7336,-1.7331l3.566,3.5661l0.6382,-1.1054l-1.564,-1.5644l1.791,-1.791h-5.2802l-2.3925,2.3921h1.1258v3.0001h-2.1339l0.7728,0.7728l-1.7335,1.7327l-5.2699,-5.2699l1.7332,-1.7331l3.6313,3.6314v-1.7437l-0.991,-0.9915l1.7906,-1.7909h-5.2794l-3.5246,3.5245l-1.7331,-1.7336l1.7914,-1.7909h-5.2802l-1.7565,1.756l-1.7681,1.7686l-1.7331,-1.7336l1.791,-1.791h-5.2802l-3.525,3.5245l-1.7327,-1.7336l1.7906,-1.7909h-5.2794l-3.5246,3.5245l-1.7331,-1.7336l1.7914,-1.7909h-5.2802l-1.7565,1.756l-1.7681,1.7686l-1.7331,-1.7336l1.7909,-1.791h-5.2801l-3.525,3.5245l-0.1481,-0.1482v1.7434l1.0453,1.0453l-1.7336,1.7327l-5.2698,-5.2699l1.7332,-1.7331l1.4974,1.4974h1.7438l-0.6009,-0.6012l1.7905,-1.7909h-5.2793l-3.5246,3.5245l-1.4776,-1.478l3.0146,5.2214l1.9999,-1.9999l1.7327,1.7331l-2.4639,2.4643l0.6381,1.1052l0.9293,-0.9295l5.2702,5.2703l-1.7336,1.7327l-2.2695,-2.2694l2.2997,3.9832l4.3431,-4.3435l1.7336,1.7331l-4.808,4.808l1.9327,3.3474l1.1419,-1.1418l1.7332,1.7336l-1.6061,1.6061l0.0788,0.1367h5.0646l1.7078,-1.7078l1.769,-1.7686l1.7327,1.7336l-1.7427,1.7428h5.2802l3.4763,-3.4764l1.7328,1.7336l-1.7428,1.7428h5.2794l3.4767,-3.4764l1.7332,1.7336l-1.7428,1.7428h5.2802l1.7077,-1.7078l1.769,-1.7686l1.7327,1.7336l-1.7427,1.7428h5.2802l3.4764,-3.4764zM303.16143,864.29928l1.7229,-1.7225h-2.7174zM351.19873,882.69798l5.2707,5.2699l1.7327,-1.7332l-5.2698,-5.2702zM342.45243,882.69798l5.2703,5.2699l1.7336,-1.7332l-5.2707,-5.2702zM333.70583,882.69798l5.2699,5.2699l1.7335,-1.7332l-5.2702,-5.2702zM324.95883,882.69798l5.2707,5.2699l1.7327,-1.7332l-5.2698,-5.2702zM316.21253,882.69798l5.2703,5.2699l1.7336,-1.7332l-5.2707,-5.2702zM346.82623,881.86128l1.7331,1.7336l1.7681,-1.769v-3.3569h0.0001v3.3567l3.5017,-3.5012l-1.7027,-1.7031v-1.1524h-3v1.6896l-4.9409,-4.9406l-1.7332,1.7336l5.2703,5.2694l1.4038,-1.4031v0.6511h1.0915zM320.58633,881.86128l1.7331,1.7336l1.7681,-1.769v-3.4663zM355.57283,881.86148l1.7331,1.7331l5.2699,-5.2703l-1.7332,-1.7331zM338.07913,881.86148l1.7331,1.7331l5.2703,-5.2703l-1.7336,-1.7331zM329.33293,881.86148l1.7331,1.7331l5.2698,-5.2703l-1.7331,-1.7331zM324.08763,878.35948l0,3.4662l3.3571,-3.3567h2.0326l0.752,0.7519l1.7327,-1.7327l-5.2694,-5.2703l-1.734,1.7336l1.6491,1.6486v1.7425l-0.7515,-0.7517zM316.21253,873.95158l5.2703,5.2694l1.7336,-1.7327l-5.2707,-5.2703zM359.94573,873.95148l5.2699,5.2694l1.7335,-1.7327l-5.2702,-5.2703zM351.19853,873.95148l5.2707,5.2694l1.7327,-1.7327l-5.2694,-5.2703zM333.70583,873.95148l5.2699,5.2694l1.7335,-1.7327l-5.2702,-5.2703zM364.31873,873.11498l1.7336,1.7332l5.2698,-5.2703l-1.7331,-1.7331zM355.57253,873.11498l1.7336,1.7332l5.2693,-5.2703l-1.7327,-1.7331zM338.07883,873.11498l1.7336,1.7332l5.2698,-5.2703l-1.7332,-1.7331zM329.33263,873.11498l1.7335,1.7332l5.2694,-5.2703l-1.7327,-1.7331zM311.83893,873.11498l1.7335,1.7332l5.2699,-5.2703l-1.7332,-1.7331zM346.82623,873.11478l1.7331,1.7332l1.7681,-1.7686l0,-3.4663zM320.58633,873.11478l1.7331,1.7332l1.7681,-1.7686l0,-3.4663zM350.32753,869.61288v3.4663l3.5017,-3.5013l-1.7027,-1.7027v-1.4062h-3l0,1.9431l-4.9405,-4.9406l-1.7336,1.7331l5.2703,5.2699l1.4038,-1.4032v0.3977h1.345zM324.08763,869.61288v3.4663l3.5017,-3.5013l-0.1089,-0.1089h1.7434l1.0057,1.0055l1.7327,-1.7327l-5.2698,-5.2703l-1.7336,1.7331l1.6489,1.6486v1.7431l-0.7515,-0.7515zM351.19873,865.20458l5.2707,5.2699l1.7327,-1.7327l-5.2698,-5.2703zM333.70583,865.20458l5.2699,5.2699l1.7335,-1.7327l-5.2702,-5.2703zM316.21253,865.20458l5.2702,5.2699l1.7336,-1.7327l-5.2702,-5.2703z" id="19855a0d-7762-4e3e-88b1-4f3058e07c3e" fill="#f9932b" stroke="#fa9228"/><path d="M244.62465,862.5768h44.10429l15.14828,-26.2375h-74.40051zM292.61973,838.73148h3.00002v3.00002h-3.00002zM276.43605,840.23149h3.00002v3.00002h-3.00002zM276.43605,849.23156h3.00002v3.00002h-3.00002zM253.91717,840.23149h3.00002v3.00002h-3.00002zM253.91717,849.23156h3.00002v3.00002h-3.00002zM240.73351,838.73148v3.00002h-3.00002v-3.00002z" id="d646e7cc-b0a7-420a-a352-9fcf50145b81" fill="none" stroke="#9926ff"/></g><g id="g-7b346374-6597-4465-ab3e-927569b4ede5"><path d="M360.83293,941.28932h0.5862l0.8006,-1.3868zM362.48033,939.45112l0.6382,-1.1053l-3.1728,-3.1728l1.7332,-1.7335l2.7085,2.7085l0.638,-1.1051l-0.7064,-0.7064l2.6367,-2.637l2.5657,-4.4439l-0.8291,-0.829l1.7332,-1.7336l0.3648,0.3648l1.9328,-3.3477l-4.0308,-4.0305l1.7336,-1.7331l3.566,3.5661l0.6382,-1.1054l-1.564,-1.5644l1.791,-1.791h-5.2802l-2.3925,2.3921h1.1258v3.0001h-2.1339l0.7728,0.7728l-1.7335,1.7327l-5.2699,-5.2699l1.7332,-1.7331l3.6313,3.6314v-1.7437l-0.991,-0.9915l1.7906,-1.7909h-5.2794l-3.5246,3.5245l-1.7331,-1.7336l1.7914,-1.7909h-5.2802l-1.7565,1.756l-1.7681,1.7686l-1.7331,-1.7336l1.791,-1.791h-5.2802l-3.525,3.5245l-1.7327,-1.7336l1.7906,-1.7909h-5.2794l-3.5246,3.5245l-1.7331,-1.7336l1.7914,-1.7909h-5.2802l-1.7565,1.756l-1.7681,1.7686l-1.7331,-1.7336l1.7909,-1.791h-5.2801l-3.525,3.5245l-0.1481,-0.1482v1.7434l1.0453,1.0453l-1.7336,1.7327l-5.2698,-5.2699l1.7332,-1.7331l1.4974,1.4974h1.7438l-0.6009,-0.6012l1.7905,-1.7909h-5.2793l-3.5246,3.5245l-1.4776,-1.478l3.0146,5.2214l1.9999,-1.9999l1.7327,1.7331l-2.4639,2.4643l0.6381,1.1052l0.9293,-0.9295l5.2702,5.2703l-1.7336,1.7327l-2.2695,-2.2694l2.2997,3.9832l4.3431,-4.3435l1.7336,1.7331l-4.808,4.808l1.9327,3.3474l1.1419,-1.1418l1.7332,1.7336l-1.6061,1.6061l0.0788,0.1367h5.0646l1.7078,-1.7078l1.769,-1.7686l1.7327,1.7336l-1.7427,1.7428h5.2802l3.4763,-3.4764l1.7328,1.7336l-1.7428,1.7428h5.2794l3.4767,-3.4764l1.7332,1.7336l-1.7428,1.7428h5.2802l1.7077,-1.7078l1.769,-1.7686l1.7327,1.7336l-1.7427,1.7428h5.2802l3.4764,-3.4764zM303.16143,916.77432l1.7229,-1.7225h-2.7174zM351.19873,935.17302l5.2707,5.2699l1.7327,-1.7332l-5.2698,-5.2702zM342.45243,935.17302l5.2703,5.2699l1.7336,-1.7332l-5.2707,-5.2702zM333.70583,935.17302l5.2699,5.2699l1.7335,-1.7332l-5.2702,-5.2702zM324.95883,935.17302l5.2707,5.2699l1.7327,-1.7332l-5.2698,-5.2702zM316.21253,935.17302l5.2703,5.2699l1.7336,-1.7332l-5.2707,-5.2702zM346.82623,934.33632l1.7331,1.7336l1.7681,-1.769v-3.3569h0.0001v3.3567l3.5017,-3.5012l-1.7027,-1.7031v-1.1524h-3v1.6896l-4.9409,-4.9406l-1.7332,1.7336l5.2703,5.2694l1.4038,-1.4031v0.6511h1.0915zM320.58633,934.33632l1.7331,1.7336l1.7681,-1.769v-3.4663zM355.57283,934.33652l1.7331,1.7331l5.2699,-5.2703l-1.7332,-1.7331zM338.07913,934.33652l1.7331,1.7331l5.2703,-5.2703l-1.7336,-1.7331zM329.33293,934.33652l1.7331,1.7331l5.2698,-5.2703l-1.7331,-1.7331zM324.08763,930.83452l0,3.4662l3.3571,-3.3567h2.0326l0.752,0.7519l1.7327,-1.7327l-5.2694,-5.2703l-1.734,1.7336l1.6491,1.6486v1.7425l-0.7515,-0.7517zM316.21253,926.42662l5.2703,5.2694l1.7336,-1.7327l-5.2707,-5.2703zM359.94573,926.42652l5.2699,5.2694l1.7335,-1.7327l-5.2702,-5.2703zM351.19853,926.42652l5.2707,5.2694l1.7327,-1.7327l-5.2694,-5.2703zM333.70583,926.42652l5.2699,5.2694l1.7335,-1.7327l-5.2702,-5.2703zM364.31873,925.59002l1.7336,1.7332l5.2698,-5.2703l-1.7331,-1.7331zM355.57253,925.59002l1.7336,1.7332l5.2693,-5.2703l-1.7327,-1.7331zM338.07883,925.59002l1.7336,1.7332l5.2698,-5.2703l-1.7332,-1.7331zM329.33263,925.59002l1.7335,1.7332l5.2694,-5.2703l-1.7327,-1.7331zM311.83893,925.59002l1.7335,1.7332l5.2699,-5.2703l-1.7332,-1.7331zM346.82623,925.58982l1.7331,1.7332l1.7681,-1.7686l0,-3.4663zM320.58633,925.58982l1.7331,1.7332l1.7681,-1.7686l0,-3.4663zM350.32753,922.08792v3.4663l3.5017,-3.5013l-1.7027,-1.7027v-1.4062h-3l0,1.9431l-4.9405,-4.9406l-1.7336,1.7331l5.2703,5.2699l1.4038,-1.4032v0.3977h1.345zM324.08763,922.08792v3.4663l3.5017,-3.5013l-0.1089,-0.1089h1.7434l1.0057,1.0055l1.7327,-1.7327l-5.2698,-5.2703l-1.7336,1.7331l1.6489,1.6486v1.7431l-0.7515,-0.7515zM351.19873,917.67962l5.2707,5.2699l1.7327,-1.7327l-5.2698,-5.2703zM333.70583,917.67962l5.2699,5.2699l1.7335,-1.7327l-5.2702,-5.2703zM316.21253,917.67962l5.2702,5.2699l1.7336,-1.7327l-5.2702,-5.2703z" id="3e930fea-ea3a-4ca3-9adf-d20691a7d18e" fill="#f9932b" stroke="#fa9228"/><path d="M244.62465,915.05183h44.10429l15.14828,-26.2375h-74.40051zM292.61973,891.20652h3.00002v3.00002h-3.00002zM276.43605,892.70653h3.00002v3.00002h-3.00002zM276.43605,901.7066h3.00002v3.00002h-3.00002zM253.91717,892.70653h3.00002v3.00002h-3.00002zM253.91717,901.7066h3.00002v3.00002h-3.00002zM240.73351,891.20652v3.00002h-3.00002v-3.00002z" id="a24e2e38-7771-4d90-92e2-b1367092c6f3" fill="none" stroke="#9926ff"/></g></g><g id="layer_undefined" fill="#000000" stroke="none" font-family="Inter, ui-sans-serif, system-ui, sans-serif" font-weight="400" font-size="16" text-anchor="start"/><g fill="#000000" stroke="none" font-family="Inter, ui-sans-serif, system-ui, sans-serif" font-weight="400" font-size="16" text-anchor="start"/></g></g></svg>