<svg xmlns="http://www.w3.org/2000/svg" viewBox="-395.8611982410977 -409.2197198436152 1110.0126356726357 1330.6953911800679" width="293.69084318838486mm" height="352.07982224972625mm">
    <g id="group-c3656138-aee2-495a-802c-14e111c50b9c">
<path d="M460.38,1147.333l-91.018-157.648  c-7.651-13.252-21.79-21.415-37.092-21.415H150.234c-15.302,0-29.441,8.163-37.092,21.415l-91.018,157.648  c-7.651,13.252-7.651,29.578,0,42.83l91.018,157.648c7.651,13.251,21.79,21.415,37.092,21.415H332.27  c15.302,0,29.441-8.163,37.092-21.415l91.018-157.648C468.031,1176.911,468.031,1160.585,460.38,1147.333z M205.252,1035.537h72  v8.504h-72L205.252,1035.537L205.252,1035.537z M143.887,1070.965l7.365,4.252l-36,62.354l-7.365-4.252L143.887,1070.965z   M143.887,1266.531l-36-62.354l7.365-4.252l36,62.354L143.887,1266.531z M277.252,1301.96h-72v-8.504h72V1301.96z M241.252,1273.655  c-57.938,0-104.907-46.968-104.907-104.907s46.968-104.907,104.907-104.907s104.907,46.968,104.907,104.907  S299.19,1273.655,241.252,1273.655z M338.617,1266.531l-7.365-4.252l36-62.354l7.365,4.252L338.617,1266.531z M367.252,1137.571  l-36-62.354l7.365-4.252l36,62.354L367.252,1137.571z" transform="translate(143.9102591803221, -249.45331087128636) scale(0.3527779078384746, 0.3527779078384746) rotate(0)" stroke="#9926ff" stroke-width="1" fill="none" vector-effect="non-scaling-stroke" />
</g>
<g id="group-faadcb04-6f3d-40f6-bd8c-3b896f3ad1e1">
<g transform="translate(168.43989302023414, 254.35233870745725) scale(0.2222222222222221, 0.2222222222222221) rotate(90.00000000000016)" stroke="#fa9228" stroke-width="1" fill="#f9932b" vector-effect="non-scaling-stroke"><path d="M8.28 0.25Q6.07 0.25 4.48 -0.77Q2.9 -1.8 2.06 -3.71Q1.22 -5.61 1.22 -8.23Q1.22 -10.85 2.06 -12.75Q2.9 -14.66 4.48 -15.7Q6.07 -16.74 8.28 -16.74Q10.52 -16.74 12.1 -15.7Q13.69 -14.66 14.54 -12.75Q15.39 -10.85 15.39 -8.23Q15.39 -5.61 14.54 -3.71Q13.69 -1.8 12.1 -0.77Q10.52 0.25 8.28 0.25ZM8.28 -0.97Q10.72 -0.97 12.03 -2.82Q13.34 -4.67 13.34 -8.23Q13.34 -11.79 12.01 -13.65Q10.69 -15.52 8.28 -15.52Q5.89 -15.52 4.58 -13.65Q3.28 -11.79 3.28 -8.23Q3.28 -4.67 4.57 -2.82Q5.87 -0.97 8.28 -0.97Z" transform="translate(172.15989296937153, 254.62344982492624) rotate(90.00000000000016) scale(0.2222222222222221, 0.2222222222222221)" stroke="#fa9228" fill="#f9932b" stroke-width="1" vector-effect="non-scaling-stroke" /><path d="M2.08 0L2.08 -12.7L5.49 -12.7Q7.52 -12.7 8.69 -11.7Q9.86 -10.69 9.86 -8.61Q9.86 -7.01 9.19 -6.07Q8.53 -5.13 7.54 -4.72Q6.55 -4.32 5.51 -4.32L3.91 -4.32L3.91 0ZM3.91 -5.33L5.26 -5.33Q5.99 -5.33 6.59 -5.61Q7.19 -5.89 7.54 -6.59Q7.9 -7.29 7.9 -8.53Q7.9 -10.24 7.2 -10.95Q6.5 -11.66 5.26 -11.66L3.91 -11.66Z" transform="translate(171.26211520007087, 258.50602757939197) rotate(90.00000000000016) scale(0.2222222222222221, 0.2222222222222221)" stroke="#fa9228" fill="#f9932b" stroke-width="1" vector-effect="non-scaling-stroke" /><path d="M2.08 0L2.08 -12.7L9.4 -12.7L9.4 -11.58L3.91 -11.58L3.91 -6.96L8.89 -6.96L8.89 -5.87L3.91 -5.87L3.91 -1.12L9.78 -1.12L9.78 0Z" transform="translate(171.26211520007087, 260.89362757939193) rotate(90.00000000000016) scale(0.2222222222222221, 0.2222222222222221)" stroke="#fa9228" fill="#f9932b" stroke-width="1" vector-effect="non-scaling-stroke" /><path d="M2.08 0L2.08 -12.7L4.01 -12.7L10.44 -2.74L10.36 -3.28L10.36 -12.7L11.68 -12.7L11.68 0L10.11 0L3.33 -10.39L3.3 -10.39L3.43 -9.63L3.43 0Z" transform="translate(171.2621152000708, 263.3150942460586) rotate(90.00000000000016) scale(0.2222222222222221, 0.2222222222222221)" stroke="#fa9228" fill="#f9932b" stroke-width="1" vector-effect="non-scaling-stroke" /></g>
</g>
<g id="group-671e4f91-a38b-4f94-ba17-2a650f84f9b4">
<path d="M511.928,1485.769v-16.175h-12.504v-16.175  c-6.055,0-131.18,0-137.486,0v16.175h11.504v16.175h-11.504v16.175h11.504v16.175h-11.504v16.175h11.504v16.175h-11.504v16.175  h11.504v16.175h-11.504v16.175h11.504v16.175h-11.504v16.175h11.504v16.175c0,0,112.806,0,138.486,0v-16.175h-12.504v-16.175h12.504  v-16.175h-12.504v-16.175h12.504v-16.175h-12.504v-16.175h12.504v-16.175h-12.504v-16.175h12.504v-16.175h-12.504v-16.175H511.928z   M408.404,1630.996h-22.531v-37.263h22.531V1630.996z M408.404,1589.733h-22.531v-37.263h22.531V1589.733z M408.404,1548.47h-22.531  v-37.263h22.531V1548.47z M408.404,1507.208h-22.531v-37.263h22.531V1507.208z M434.935,1630.996h-22.53v-37.263h22.53V1630.996z   M434.935,1589.733h-22.53v-37.263h22.53V1589.733z M434.935,1548.47h-22.53v-37.263h22.53V1548.47z M434.935,1507.208h-22.53  v-37.263h22.53V1507.208z M461.464,1630.996h-22.53v-37.263h22.53V1630.996z M461.464,1589.733h-22.53v-37.263h22.53V1589.733z   M461.464,1548.47h-22.53v-37.263h22.53V1548.47z M461.464,1507.208h-22.53v-37.263h22.53V1507.208z M487.995,1630.996h-22.53  v-37.263h22.53V1630.996z M487.995,1589.733h-22.53v-37.263h22.53V1589.733z M487.995,1548.47h-22.53v-37.263h22.53V1548.47z   M487.995,1507.208h-22.53v-37.263h22.53V1507.208z" transform="translate(748.5363222464828, 105.89562961265702) scale(0.3527779078384737, 0.3527779078384737) rotate(89.99999999999994)" stroke="#9926ff" stroke-width="1" fill="none" vector-effect="non-scaling-stroke" />
</g>
<g id="group-3e1d3eee-284c-49bf-b4d5-1c2bcbb7aea0">
<path d="M194.6249283785636,280.23387890355156L238.72922241652958,280.23387890355156L253.8775057791138,253.99637478597282L179.47699779388728,253.99637478597282L194.6249283785636,280.23387890355156ZM242.62000996208013,256.38856177902557L245.62003329033848,256.38856177902557L245.62003329033848,259.3885851072839L242.62000996208013,259.3885851072839L242.62000996208013,256.38856177902557ZM226.4363234399902,257.8885734431547L229.43634676824848,257.8885734431547L229.43634676824848,260.8885967714131L226.4363234399902,260.8885967714131L226.4363234399902,257.8885734431547ZM226.4363234399902,266.8886434279299L229.43634676824848,266.8886434279299L229.43634676824848,269.8886667561883L226.4363234399902,269.8886667561883L226.4363234399902,266.8886434279299ZM203.9174512489368,257.8885734431547L206.9174745771952,257.8885734431547L206.9174745771952,260.8885967714131L203.9174512489368,260.8885967714131L203.9174512489368,257.8885734431547ZM203.9174512489368,266.8886434279299L206.9174745771952,266.8886434279299L206.9174745771952,269.8886667561883L203.9174512489368,269.8886667561883L203.9174512489368,266.8886434279299ZM190.73378805510515,256.38856177902557L190.73378805510515,259.3885851072839L187.73376472684674,259.3885851072839L187.73376472684674,256.38856177902557L190.73378805510515,256.38856177902557Z" transform="translate(54.46022858748124, -192.00720800484427) scale(0.9999999999999999, 0.9999999999999999) rotate(0)" stroke="#9926ff" stroke-width="1" fill="none" vector-effect="non-scaling-stroke" />
</g>
<g id="group-dca40972-baa4-4ab6-b429-30df27696d44">
<path d="M358.3373232067839,174.49871824749476L364.4073232067839,174.49871824749476L364.4073232067839,199.91871824749475L358.3373232067839,199.91871824749475L358.3373232067839,174.49871824749476ZM364.4073232067839,174.49871824749476L370.4773232067839,174.49871824749476L370.4773232067839,199.91871824749475L364.4073232067839,199.91871824749475L364.4073232067839,174.49871824749476ZM370.4773232067839,174.49871824749476L376.54732320678386,174.49871824749476L376.54732320678386,199.91871824749475L370.4773232067839,199.91871824749475L370.4773232067839,174.49871824749476Z" transform="translate(-71.18831636955623, -82.68312020776182) scale(0.9999999999999867, 0.9999999999999867) rotate(0)" stroke="#9926ff" stroke-width="1" fill="none" vector-effect="non-scaling-stroke" />
</g>
<g id="group-378bd1e9-3f80-433d-9449-80ecf8f2b41b">
<path d="M358.3373232067839,174.49871824749476L364.4073232067839,174.49871824749476L364.4073232067839,199.91871824749475L358.3373232067839,199.91871824749475L358.3373232067839,174.49871824749476ZM364.4073232067839,174.49871824749476L370.4773232067839,174.49871824749476L370.4773232067839,199.91871824749475L364.4073232067839,199.91871824749475L364.4073232067839,174.49871824749476ZM370.4773232067839,174.49871824749476L376.54732320678386,174.49871824749476L376.54732320678386,199.91871824749475L370.4773232067839,199.91871824749475L370.4773232067839,174.49871824749476Z" transform="translate(-71.1883163695593, 32.956071120784536) scale(0.9999999999999948, 0.9999999999999948) rotate(0)" stroke="#9926ff" stroke-width="1" fill="none" vector-effect="non-scaling-stroke" />
</g>
<g id="group-g-f67d4fad-a2dd-457c-81da-7f4e742b309c">
<ellipse rx="23.64305612012317" ry="23.643056120123077" transform="translate(87.29780833287539, 281.71514246913455) scale(0.008649320502361172, 0.008785530274051873) rotate(0)" stroke="#9926ff" stroke-width="1" fill="none" vector-effect="non-scaling-stroke" />
<ellipse rx="31.996970419035357" ry="31.996970419035307" transform="translate(78.94389403395857, 273.36122817022516) scale(0.011705426356589162, 0.011889763779527567) rotate(0)" stroke="#9926ff" stroke-width="1" fill="none" vector-effect="non-scaling-stroke" />
<path d="M856.511,1007.59l-132.176-0.014  c-0.063,0.109-66.04,114.355-66.102,114.461c0.063,0.109,66.016,114.369,66.077,114.476h132.184  c0.063-0.109,66.033-114.341,66.094-114.447C922.525,1121.956,856.573,1007.696,856.511,1007.59z M850.048,1225.348H730.757  c-0.055-0.097-59.575-103.213-59.632-103.311c0.056-0.096,59.598-103.199,59.655-103.297l119.284,0.013  c0.056,0.096,59.575,103.211,59.632,103.311C909.641,1122.159,850.105,1225.25,850.048,1225.348z" transform="translate(-167.8984952283823, -90.00212164223447) scale(0.35277790783847435, 0.35277790783847435) rotate(0)" stroke="#9926ff" stroke-width="1" fill="none" vector-effect="non-scaling-stroke" />
</g>
<g id="group-g-41f1181d-4338-4398-ad26-8373d4013e3e">
<path d="M679.989 969.416L675.7370000000001 962.051 683.1020000000001 957.7990000000001 687.354 965.1640000000001 679.989 969.416Z" transform="translate(-76.56104573211951, -231.88540600439504) scale(0.3527779078384739, 0.3527779078384739) rotate(0)" stroke="#9926ff" stroke-width="1" fill="none" vector-effect="non-scaling-stroke" />
<path d="M683.101 1001.251L675.736 996.999 679.9879999999999 989.634 687.353 993.886 683.101 1001.251Z" transform="translate(-76.56104573211917, -231.8854060043949) scale(0.3527779078384739, 0.3527779078384739) rotate(0)" stroke="#9926ff" stroke-width="1" fill="none" vector-effect="non-scaling-stroke" />
<path d="M651.844 963.937L615.844 901.583 623.2090000000001 897.331 659.2090000000001 959.6850000000001 651.844 963.937Z" transform="translate(-76.5610457321178, -231.88540600439504) scale(0.3527779078384739, 0.3527779078384739) rotate(0)" stroke="#9926ff" stroke-width="1" fill="none" vector-effect="non-scaling-stroke" />
<path d="M623.208 1061.719L615.843 1057.467 651.843 995.113 659.208 999.365 623.208 1061.719Z" transform="translate(-76.56104573212127, -231.88540600439612) scale(0.3527779078384739, 0.3527779078384739) rotate(0)" stroke="#9926ff" stroke-width="1" fill="none" vector-effect="non-scaling-stroke" />
<path d="M632.536 1088.834L625.1709999999999 1084.582 629.4229999999999 1077.217 636.7879999999999 1081.469 632.536 1088.834Z" transform="translate(-76.5610457321227, -231.8854060043963) scale(0.3527779078384739, 0.3527779078384739) rotate(0)" stroke="#9926ff" stroke-width="1" fill="none" vector-effect="non-scaling-stroke" />
<path d="M632.536 870.217L636.7879999999999 877.582 629.4229999999999 881.834 625.1709999999999 874.4689999999999 632.536 870.217Z" transform="translate(-76.5610457321227, -231.88540600439256) scale(0.3527779078384739, 0.3527779078384739) rotate(0)" stroke="#9926ff" stroke-width="1" fill="none" vector-effect="non-scaling-stroke" />
<path d="M607.662 864.36H599.158V855.856H607.662V864.36Z" transform="translate(-76.56104573212173, -231.88540600439325) scale(0.3527779078384739, 0.3527779078384739) rotate(0)" stroke="#9926ff" stroke-width="1" fill="none" vector-effect="non-scaling-stroke" />
<path d="M607.662 1103.195H599.158V1094.691H607.662V1103.195Z" transform="translate(-76.56104573212173, -231.88540600439657) scale(0.3527779078384739, 0.3527779078384739) rotate(0)" stroke="#9926ff" stroke-width="1" fill="none" vector-effect="non-scaling-stroke" />
<path d="M588.844 885.994H516.844V877.49H588.844V885.994Z" transform="translate(-76.56104573212258, -231.88540600439472) scale(0.3527779078384739, 0.3527779078384739) rotate(0)" stroke="#9926ff" stroke-width="1" fill="none" vector-effect="non-scaling-stroke" />
<path d="M588.844 1081.56H516.844V1073.056H588.844V1081.56Z" transform="translate(-76.56104573212258, -231.88540600439515) scale(0.3527779078384739, 0.3527779078384739) rotate(0)" stroke="#9926ff" stroke-width="1" fill="none" vector-effect="non-scaling-stroke" />
<path d="M506.53 864.36H498.02599999999995V855.856H506.53V864.36Z" transform="translate(-76.56104573212025, -231.88540600439325) scale(0.3527779078384739, 0.3527779078384739) rotate(0)" stroke="#9926ff" stroke-width="1" fill="none" vector-effect="non-scaling-stroke" />
<path d="M506.53 1103.195H498.02599999999995V1094.691H506.53V1103.195Z" transform="translate(-76.56104573212025, -231.88540600439657) scale(0.3527779078384739, 0.3527779078384739) rotate(0)" stroke="#9926ff" stroke-width="1" fill="none" vector-effect="non-scaling-stroke" />
<path d="M453.844 963.937L446.479 959.6850000000001 482.479 897.331 489.844 901.583 453.844 963.937Z" transform="translate(-76.56104573211917, -231.88540600439504) scale(0.3527779078384739, 0.3527779078384739) rotate(0)" stroke="#9926ff" stroke-width="1" fill="none" vector-effect="non-scaling-stroke" />
<path d="M482.479 1061.719L446.479 999.365 453.844 995.113 489.844 1057.467 482.479 1061.719Z" transform="translate(-76.56104573211917, -231.88540600439612) scale(0.3527779078384739, 0.3527779078384739) rotate(0)" stroke="#9926ff" stroke-width="1" fill="none" vector-effect="non-scaling-stroke" />
<path d="M473.152 1088.834L468.9 1081.469 476.265 1077.217 480.517 1084.582 473.152 1088.834Z" transform="translate(-76.56104573212167, -231.8854060043963) scale(0.3527779078384739, 0.3527779078384739) rotate(0)" stroke="#9926ff" stroke-width="1" fill="none" vector-effect="non-scaling-stroke" />
<path d="M425.698 969.416L418.33299999999997 965.1640000000001 422.585 957.7990000000001 429.95 962.051 425.698 969.416Z" transform="translate(-76.56104573212062, -231.88540600439504) scale(0.3527779078384739, 0.3527779078384739) rotate(0)" stroke="#9926ff" stroke-width="1" fill="none" vector-effect="non-scaling-stroke" />
<path d="M422.586 1001.251L418.334 993.886 425.699 989.634 429.951 996.999 422.586 1001.251Z" transform="translate(-76.56104573211991, -231.8854060043949) scale(0.3527779078384739, 0.3527779078384739) rotate(0)" stroke="#9926ff" stroke-width="1" fill="none" vector-effect="non-scaling-stroke" />
<path d="M473.152 870.217L480.517 874.4689999999999 476.265 881.834 468.9 877.582 473.152 870.217Z" transform="translate(-76.56104573212167, -231.88540600439256) scale(0.3527779078384739, 0.3527779078384739) rotate(0)" stroke="#9926ff" stroke-width="1" fill="none" vector-effect="non-scaling-stroke" />
<path d="M700.626 958.11L645.281 862.249C637.63 848.9970000000001 623.491 840.8340000000001 608.189 840.8340000000001H497.49899999999997C482.19699999999995 840.8340000000001 468.058 848.9970000000001 460.407 862.249L405.062 958.11C397.411 971.362 397.411 987.688 405.062 1000.94L460.40700000000004 1096.8010000000002C468.05800000000005 1110.0520000000001 482.19700000000006 1118.2160000000001 497.499 1118.2160000000001H608.1890000000001C623.4910000000001 1118.2160000000001 637.6300000000001 1110.053 645.2810000000001 1096.8010000000002L700.6260000000001 1000.9400000000002C708.277 987.688 708.277 971.362 700.626 958.11Z" transform="translate(-76.56894792280744, -231.88540600439555) scale(0.3527779078384739, 0.3527779078384739) rotate(0)" stroke="#9926ff" stroke-width="1" fill="none" vector-effect="non-scaling-stroke" />
</g>
<g id="group-1d6c49bc-f510-4142-834b-db88b58bd37b">
<path d="M296.3511704100233,289.1670868811184L322.58867452760205,304.31537024370243L322.58867452760194,229.91486225847603L296.3511704100232,245.0631456210602L296.3511704100233,289.1670868811184ZM320.1964875345493,293.0582272045767L320.1964875345493,296.05825053283513L317.196464206291,296.05825053283513L317.196464206291,293.0582272045767L320.1964875345493,293.0582272045767ZM318.69647587042016,276.8745406824868L318.69647587042016,279.87456401074513L315.69645254216175,279.87456401074513L315.69645254216175,276.8745406824868L318.69647587042016,276.8745406824868ZM309.69640588564494,276.8745406824868L309.69640588564494,279.87456401074513L306.69638255738664,279.87456401074513L306.69638255738664,276.8745406824868L309.69640588564494,276.8745406824868ZM318.69647587042016,254.3556684914334L318.69647587042016,257.3556918196918L315.69645254216175,257.3556918196918L315.69645254216175,254.3556684914334L318.69647587042016,254.3556684914334ZM309.69640588564494,254.3556684914334L309.69640588564494,257.3556918196918L306.6963825573865,257.3556918196918L306.6963825573865,254.3556684914334L309.69640588564494,254.3556684914334ZM317.1964642062908,241.17200529760183L317.1964642062908,238.17198196934342L320.1964875345492,238.17198196934342L320.1964875345492,241.17200529760183L317.1964642062908,241.17200529760183Z" transform="translate(290.4145153605156, -153.60257778563275) scale(0.9999999999999963, 0.9999999999999963) rotate(52.66149179037131)" stroke="#9926ff" stroke-width="1" fill="none" vector-effect="non-scaling-stroke" />
</g>
<g id="group-6921fe39-15cd-475e-a09f-27a8016c2799">
<ellipse rx="29.999999999999996" ry="29.99999999999995" transform="translate(90.69869729273911, 184.36834514574892) scale(0.010974876249182771, 0.011147708946020287) rotate(0)" stroke="#9926ff" stroke-width="1" fill="none" vector-effect="non-scaling-stroke" />
</g>
<g id="group-f4c7d3f5-83f2-4f38-82b3-68b370796bbb">
<path d="M646.652,1177.969l-132.176-0.014  c-0.063,0.109-66.04,114.355-66.102,114.461c0.063,0.109,66.016,114.369,66.077,114.476h132.184  c0.063-0.109,66.033-114.341,66.094-114.447C712.666,1292.335,646.714,1178.075,646.652,1177.969z M646.491,1406.641H514.596  l-65.933-114.226l65.957-114.211l131.887,0.014l65.933,114.226L646.491,1406.641z" transform="translate(-84.10704570992405, -241.57240369811785) scale(0.35277790783847424, 0.35277790783847424) rotate(0)" stroke="#fa9228" stroke-width="1" fill="#fa9228" vector-effect="non-scaling-stroke" />
</g>
<g id="group-b091efa6-5135-49da-891b-545f5d171e7c">
<path d="M660.471,1153.739H500.633l-79.919,138.691l79.919,138.691h159.838  l79.92-138.691L660.471,1153.739z M650.917,1210.236l36,62.354l-7.365,4.252l-36-62.354L650.917,1210.236z M510.188,1374.624  l-36-62.354l7.365-4.252l36,62.354L510.188,1374.624z M481.552,1276.842l-7.365-4.252l36-62.354l7.365,4.252L481.552,1276.842z   M616.552,1394.465h-72v-8.504h72V1394.465z M616.552,1198.899h-72v-8.504h72V1198.899z M650.917,1374.624l-7.365-4.252l36-62.354  l7.365,4.252L650.917,1374.624z" transform="translate(-84.10704570992459, -241.57240369811788) scale(0.35277790783847424, 0.35277790783847424) rotate(0)" stroke="#9926ff" stroke-width="1" fill="none" vector-effect="non-scaling-stroke" />
</g>
<g id="group-f767fe96-a738-4fe8-8cf4-a87f28337d90">
<path d="M977.411,904.534c7.14,1.485,4.994,6.183,0,7  c9.075,1.888,2.866,8.611-3.512,6.854l-0.018-0.199c1.627-0.824,6.378-2.683,6.543-3.4c0.177-0.198-0.603-0.944-0.809-1.113  c-1.505-1.187-3.856-1.887-5.733-2.287c0.011-0.122,0.011-0.077,0-0.199c1.627-0.824,6.378-2.683,6.543-3.4  c0.177-0.198-0.603-0.944-0.809-1.113c-1.505-1.187-3.856-1.887-5.733-2.287c0.011-0.122,0.011-0.077,0-0.199  c1.627-0.824,6.378-2.683,6.543-3.4c0.036-0.041-0.031-0.276-0.189-0.482c-0.994-1.487-4.545-2.533-6.354-2.919l0.018-0.199  c1.444-0.018,2.898,0.153,4.338,0.532C984.763,899.68,981.723,903.83,977.411,904.534z M958.644,900.691l-0.018,0.199  c1.877,0.4,4.227,1.099,5.733,2.287c0.206,0.17,0.986,0.915,0.809,1.113c-0.17,0.734-4.823,2.528-6.543,3.4  c0.011,0.122,0.011,0.077,0,0.199c1.809,0.386,5.36,1.433,6.354,2.919c0.159,0.206,0.225,0.441,0.189,0.482  c-0.17,0.734-4.823,2.528-6.543,3.4l0.018,0.199c6.418,1.768,12.551-4.974,3.512-6.854c1.142-0.187,2.161-0.52,3.123-1.275  C969.469,903.286,964.009,900.625,958.644,900.691z M949.16,904.724c-1.44-0.379-2.895-0.55-4.338-0.532l-0.019,0.199  c1.876,0.399,4.226,1.099,5.733,2.287c0.206,0.17,0.986,0.915,0.809,1.113c-0.169,0.734-4.821,2.527-6.543,3.4l0.019,0.199  C950.721,913.015,957.217,907.14,949.16,904.724z M993.5,894.225c-1.44-0.379-2.895-0.55-4.338-0.532l-0.018,0.199  c1.801,0.384,5.358,1.43,6.354,2.919c0.158,0.206,0.224,0.441,0.188,0.482c-0.169,0.734-4.821,2.527-6.543,3.4  c0.011,0.122,0.011,0.077,0,0.199c1.876,0.4,4.227,1.099,5.733,2.287c0.206,0.17,0.986,0.915,0.809,1.113  c-0.169,0.734-4.821,2.527-6.543,3.4c0.011,0.122,0.011,0.077,0,0.199c1.876,0.4,4.227,1.099,5.733,2.287  c0.206,0.17,0.986,0.915,0.809,1.113c-0.165,0.715-4.922,2.578-6.543,3.4c0.011,0.122,0.011,0.077,0,0.199  c1.876,0.4,4.227,1.099,5.733,2.287c0.206,0.17,0.986,0.915,0.809,1.113c-0.169,0.734-4.821,2.527-6.543,3.4l0.018,0.199  c6.428,1.771,12.539-4.976,3.512-6.854c4.911-0.804,7.198-5.503,0-7c5.015-0.821,7.086-5.526,0-7  C996.966,900.333,999.992,896.171,993.5,894.225z M1004.354,890.193l-0.019,0.199c1.876,0.399,4.226,1.099,5.733,2.287  c0.206,0.17,0.986,0.916,0.809,1.113c-0.169,0.734-4.821,2.527-6.543,3.4c0.011,0.122,0.011,0.077,0,0.199  c1.809,0.386,5.36,1.433,6.354,2.919c0.158,0.206,0.224,0.441,0.188,0.482c-0.169,0.734-4.821,2.527-6.543,3.4  c0.011,0.122,0.011,0.077,0,0.199c1.876,0.399,4.226,1.099,5.733,2.287c0.206,0.17,0.986,0.915,0.809,1.113  c-0.169,0.734-4.821,2.527-6.543,3.4c0.011,0.122,0.011,0.077,0,0.199c1.809,0.386,5.36,1.433,6.354,2.919  c0.158,0.206,0.224,0.441,0.188,0.482c-0.169,0.734-4.821,2.527-6.543,3.4c0.011,0.122,0.011,0.077,0,0.199  c1.876,0.399,4.226,1.099,5.733,2.287c0.206,0.17,0.986,0.915,0.809,1.113c-0.169,0.734-4.821,2.527-6.543,3.4l0.019,0.199  c6.418,1.768,12.551-4.974,3.512-6.854c4.86-0.795,7.185-5.505,0-7c4.86-0.795,7.185-5.505,0-7c4.984-0.815,7.123-5.518,0-7  c3.069-0.502,5.929-2.998,3.925-5.17C1010.202,890.685,1006.668,890.162,1004.354,890.193z M1025.569,883.727  c-1.44-0.379-2.895-0.55-4.338-0.532l-0.019,0.199c1.809,0.386,5.36,1.433,6.354,2.919c0.158,0.206,0.224,0.441,0.188,0.482  c-0.169,0.734-4.821,2.527-6.543,3.4c0.011,0.122,0.011,0.077,0,0.199c1.876,0.399,4.226,1.099,5.733,2.287  c0.206,0.17,0.986,0.916,0.809,1.113c-0.169,0.734-4.821,2.527-6.543,3.4c0.011,0.122,0.011,0.077,0,0.199  c1.876,0.399,4.226,1.099,5.733,2.287c0.206,0.17,0.986,0.915,0.809,1.113c-0.169,0.734-4.821,2.527-6.543,3.4  c0.011,0.122,0.011,0.077,0,0.199c1.876,0.399,4.226,1.099,5.733,2.287c0.206,0.17,0.986,0.915,0.809,1.113  c-0.171,0.742-4.716,2.474-6.543,3.4c0.011,0.122,0.011,0.077,0,0.199c1.876,0.399,4.226,1.099,5.733,2.287  c0.206,0.17,0.986,0.915,0.809,1.113c-0.169,0.734-4.821,2.527-6.543,3.4c0.011,0.122,0.011,0.077,0,0.199  c1.876,0.399,4.226,1.099,5.733,2.287c0.206,0.17,0.986,0.915,0.809,1.113c-0.165,0.715-4.923,2.578-6.543,3.4  c0.011,0.122,0.011,0.077,0,0.199c1.767,0.377,5.358,1.43,6.354,2.919c0.158,0.206,0.224,0.441,0.188,0.482  c-0.171,0.742-4.716,2.474-6.543,3.4l0.019,0.199c6.333,1.745,12.672-4.949,3.512-6.854c5.016-0.821,7.116-5.52,0-7  c5.089-0.833,7.008-5.542,0-7c4.971-0.813,7.114-5.52,0-7c4.905-0.803,7.182-5.506,0-7c5.095-0.834,7.002-5.543,0-7  C1028.984,889.84,1032.129,885.692,1025.569,883.727z M1045.814,880.228c-1.44-0.379-2.895-0.55-4.338-0.532l-0.018,0.199  c1.876,0.4,4.227,1.099,5.733,2.287c0.205,0.169,0.986,0.915,0.809,1.113c-0.17,0.734-4.823,2.528-6.543,3.4  c0.011,0.122,0.011,0.077,0,0.199c1.876,0.4,4.227,1.099,5.733,2.287c0.205,0.169,0.986,0.915,0.809,1.113  c-0.166,0.716-4.917,2.575-6.543,3.4c0.011,0.122,0.011,0.077,0,0.199c1.767,0.377,5.358,1.43,6.354,2.919  c0.159,0.206,0.225,0.441,0.189,0.482c-0.17,0.734-4.823,2.528-6.543,3.4c0.011,0.122,0.011,0.077,0,0.199  c1.877,0.4,4.227,1.099,5.733,2.287c0.205,0.169,0.986,0.915,0.809,1.113c-0.17,0.734-4.823,2.528-6.543,3.4  c0.011,0.122,0.011,0.077,0,0.199c1.877,0.4,4.227,1.099,5.733,2.287c0.205,0.169,0.986,0.915,0.809,1.113  c-0.166,0.716-4.917,2.575-6.543,3.4c0.011,0.122,0.011,0.077,0,0.199c1.877,0.4,4.227,1.099,5.733,2.287  c0.205,0.169,0.986,0.915,0.809,1.113c-0.166,0.716-4.917,2.575-6.543,3.4c0.011,0.122,0.011,0.077,0,0.199  c1.767,0.377,5.358,1.43,6.354,2.919c0.159,0.206,0.225,0.441,0.189,0.482c-0.17,0.734-4.823,2.528-6.543,3.4  c0.011,0.122,0.011,0.077,0,0.199c1.877,0.4,4.227,1.099,5.733,2.287c0.205,0.169,0.986,0.915,0.809,1.113  c-0.166,0.716-4.917,2.575-6.543,3.4l0.018,0.199c6.373,1.756,12.617-4.96,3.512-6.854c5-0.818,7.112-5.52,0-7  c4.895-0.801,7.215-5.499,0-7c4.901-0.802,7.208-5.501,0-7c5.314-0.869,6.922-5.56,0-7c4.698-0.769,7.363-5.468,0-7  c4.961-0.812,7.159-5.511,0-7C1049.23,886.34,1052.374,882.192,1045.814,880.228z M1067.996,936.045c5.071-0.83,7.032-5.537,0-7  c4.86-0.795,7.185-5.505,0-7c5.135-0.84,6.973-5.549,0-7c4.86-0.795,7.185-5.505,0-7c4.736-0.775,7.336-5.474,0-7  c4.859-0.795,7.185-5.505,0-7c4.86-0.795,7.185-5.505,0-7c5.084-0.832,7.051-5.533,0-7c4.251-0.696,7.396-4.842,0.826-6.813  c-1.44-0.379-2.895-0.55-4.338-0.532l-0.019,0.199c1.876,0.4,4.226,1.099,5.733,2.287c0.206,0.17,0.986,0.916,0.809,1.113  c-0.169,0.734-4.821,2.527-6.543,3.4c0.011,0.122,0.011,0.077,0,0.199c1.876,0.4,4.226,1.099,5.733,2.287  c0.206,0.17,0.986,0.916,0.809,1.113c-0.171,0.742-4.716,2.474-6.543,3.4c0.011,0.122,0.011,0.077,0,0.199  c1.876,0.4,4.226,1.099,5.733,2.287c0.206,0.17,0.986,0.916,0.809,1.113c-0.169,0.734-4.821,2.527-6.543,3.4  c0.011,0.122,0.011,0.077,0,0.199c1.876,0.4,4.226,1.099,5.733,2.287c0.206,0.17,0.986,0.916,0.809,1.113  c-0.169,0.734-4.821,2.527-6.543,3.4c0.011,0.122,0.011,0.077,0,0.199c1.876,0.399,4.226,1.099,5.733,2.287  c0.206,0.17,0.986,0.915,0.809,1.113c-0.169,0.734-4.821,2.527-6.543,3.4c0.011,0.122,0.011,0.077,0,0.199  c1.876,0.399,4.226,1.099,5.733,2.287c0.206,0.17,0.986,0.915,0.809,1.113c-0.169,0.734-4.821,2.527-6.543,3.4  c0.011,0.122,0.011,0.077,0,0.199c1.876,0.399,4.226,1.099,5.733,2.287c0.206,0.17,0.986,0.915,0.809,1.113  c-0.169,0.734-4.821,2.527-6.543,3.4c0.011,0.122,0.011,0.077,0,0.199c1.809,0.386,5.36,1.433,6.354,2.919  c0.158,0.206,0.224,0.441,0.188,0.482c-0.169,0.734-4.821,2.527-6.543,3.4c0.011,0.122,0.011,0.077,0,0.199  c1.876,0.399,4.226,1.099,5.733,2.287c0.206,0.17,0.986,0.915,0.809,1.113c-0.169,0.734-4.821,2.527-6.543,3.4  c0.011,0.122,0.011,0.077,0,0.199c1.876,0.399,4.226,1.099,5.733,2.287c0.206,0.17,0.986,0.915,0.809,1.113  c-0.169,0.734-4.821,2.527-6.543,3.4l0.019,0.199C1070.891,944.658,1077.025,937.916,1067.996,936.045z" transform="translate(558.7333143637337, -37.389649495753375) scale(0.3527779078384722, 0.3527779078384722) rotate(89.99999999999976)" stroke="#fa9228" stroke-width="1" fill="#fa9228" vector-effect="non-scaling-stroke" />
</g>
<g id="group-dd7a56d6-ceda-489a-acfb-57a42f6e59f2">
<path d="M919.088,907.58l174.647,54v-18h-8.504v-72h8.504v-18L919.088,907.58z   M1015.747,914.667v-14.173h14.173v14.173H1015.747z" transform="translate(558.6333143637394, -37.18964949575881) scale(0.3527779078384722, 0.3527779078384722) rotate(89.99999999999976)" stroke="#9926ff" stroke-width="1" fill="none" vector-effect="non-scaling-stroke" />
</g>
<g id="group-73e97740-a306-4697-98ff-37c35b3b28f3">
<path d="M1034.036,961.664c1.44-0.379,2.894-0.55,4.338-0.532l0.018,0.199  c-1.809,0.386-5.36,1.432-6.354,2.919c-0.158,0.206-0.225,0.441-0.189,0.482c0.165,0.717,4.916,2.576,6.543,3.4  c-0.011,0.122-0.011,0.077,0,0.199c-1.877,0.4-4.228,1.1-5.733,2.287c-0.206,0.169-0.986,0.915-0.809,1.113  c0.165,0.717,4.916,2.576,6.543,3.4c-0.011,0.122-0.011,0.077,0,0.199c-1.877,0.4-4.228,1.1-5.733,2.287  c-0.206,0.169-0.986,0.915-0.809,1.113c0.165,0.717,4.916,2.576,6.543,3.4l-0.018,0.199c-6.378,1.757-12.587-4.966-3.512-6.854  c-4.994-0.817-7.14-5.515,0-7C1030.552,967.771,1027.512,963.621,1034.036,961.664z M1046.997,970.701  c0.962,0.755,1.981,1.088,3.123,1.275c-9.039,1.88-2.906,8.622,3.512,6.854l0.018-0.199c-1.72-0.872-6.373-2.666-6.543-3.4  c-0.036-0.041,0.03-0.276,0.189-0.482c0.994-1.486,4.545-2.533,6.354-2.919c-0.011-0.122-0.011-0.077,0-0.199  c-1.72-0.872-6.373-2.666-6.543-3.4c-0.177-0.198,0.603-0.943,0.809-1.113c1.506-1.188,3.856-1.887,5.733-2.287l-0.018-0.199  C1048.266,964.566,1042.806,967.227,1046.997,970.701z M1067.454,975.331l0.019-0.199c-1.722-0.873-6.374-2.666-6.543-3.4  c-0.177-0.198,0.603-0.943,0.809-1.113c1.507-1.188,3.857-1.888,5.733-2.287l-0.019-0.199c-1.443-0.018-2.898,0.153-4.338,0.532  C1055.058,971.081,1061.554,976.956,1067.454,975.331z M1019.604,964.976c-7.086,1.474-5.015,6.179,0,7  c-7.198,1.497-4.911,6.196,0,7c-9.027,1.878-2.916,8.625,3.512,6.854l0.018-0.199c-1.722-0.873-6.374-2.666-6.543-3.4  c-0.177-0.198,0.603-0.943,0.809-1.113c1.506-1.188,3.857-1.887,5.733-2.287c-0.011-0.122-0.011-0.077,0-0.199  c-1.621-0.822-6.378-2.685-6.543-3.4c-0.177-0.198,0.603-0.943,0.809-1.113c1.506-1.188,3.857-1.887,5.733-2.287  c-0.011-0.122-0.011-0.077,0-0.199c-1.722-0.873-6.374-2.666-6.543-3.4c-0.177-0.198,0.603-0.943,0.809-1.113  c1.506-1.188,3.857-1.887,5.733-2.287c-0.011-0.122-0.011-0.077,0-0.199c-1.722-0.873-6.374-2.666-6.543-3.4  c-0.036-0.041,0.03-0.276,0.188-0.482c0.996-1.489,4.553-2.535,6.354-2.919l-0.018-0.199c-1.443-0.018-2.898,0.153-4.338,0.532  C1012.283,960.112,1015.309,964.274,1019.604,964.976z M1000.488,956.306c-2.004,2.172,0.856,4.668,3.925,5.17  c-7.123,1.482-4.984,6.185,0,7c-7.185,1.495-4.86,6.205,0,7c-7.185,1.495-4.86,6.205,0,7c-9.039,1.88-2.906,8.622,3.512,6.854  l0.019-0.199c-1.722-0.873-6.374-2.666-6.543-3.4c-0.177-0.198,0.603-0.943,0.809-1.113c1.507-1.188,3.857-1.888,5.733-2.287  c-0.011-0.122-0.011-0.077,0-0.199c-1.722-0.873-6.374-2.666-6.543-3.4c-0.036-0.041,0.03-0.276,0.188-0.482  c0.994-1.486,4.545-2.533,6.354-2.919c-0.011-0.122-0.011-0.077,0-0.199c-1.722-0.873-6.374-2.666-6.543-3.4  c-0.177-0.198,0.603-0.943,0.809-1.113c1.507-1.188,3.857-1.888,5.733-2.287c-0.011-0.122-0.011-0.077,0-0.199  c-1.722-0.873-6.374-2.666-6.543-3.4c-0.036-0.041,0.03-0.276,0.188-0.482c0.994-1.486,4.545-2.533,6.354-2.919  c-0.011-0.122-0.011-0.077,0-0.199c-1.722-0.873-6.374-2.666-6.543-3.4c-0.177-0.197,0.603-0.943,0.809-1.113  c1.507-1.188,3.857-1.888,5.733-2.287l-0.019-0.199C1005.607,954.103,1002.073,954.626,1000.488,956.306z M987.538,954.476  c-7.002,1.457-5.095,6.166,0,7c-7.182,1.494-4.905,6.197,0,7c-7.114,1.48-4.971,6.187,0,7c-7.008,1.458-5.089,6.167,0,7  c-7.116,1.48-5.016,6.179,0,7c-9.16,1.905-2.821,8.599,3.512,6.854l0.019-0.199c-1.827-0.926-6.372-2.658-6.543-3.4  c-0.036-0.041,0.03-0.276,0.188-0.482c0.996-1.489,4.587-2.542,6.354-2.919c-0.011-0.122-0.011-0.077,0-0.199  c-1.62-0.822-6.378-2.685-6.543-3.4c-0.177-0.198,0.603-0.943,0.809-1.113c1.507-1.188,3.857-1.888,5.733-2.287  c-0.011-0.122-0.011-0.077,0-0.199c-1.722-0.873-6.374-2.666-6.543-3.4c-0.177-0.198,0.603-0.943,0.809-1.113  c1.507-1.188,3.857-1.888,5.733-2.287c-0.011-0.122-0.011-0.077,0-0.199c-1.827-0.926-6.372-2.658-6.543-3.4  c-0.177-0.198,0.603-0.943,0.809-1.113c1.507-1.188,3.857-1.888,5.733-2.287c-0.011-0.122-0.011-0.077,0-0.199  c-1.722-0.873-6.374-2.666-6.543-3.4c-0.177-0.198,0.603-0.943,0.809-1.113c1.507-1.188,3.857-1.888,5.733-2.287  c-0.011-0.122-0.011-0.077,0-0.199c-1.722-0.873-6.374-2.666-6.543-3.4c-0.177-0.197,0.603-0.943,0.809-1.113  c1.507-1.188,3.857-1.888,5.733-2.287c-0.011-0.122-0.011-0.077,0-0.199c-1.722-0.873-6.374-2.666-6.543-3.4  c-0.036-0.041,0.03-0.276,0.188-0.482c0.994-1.486,4.545-2.533,6.354-2.919l-0.019-0.199c-1.443-0.018-2.898,0.153-4.338,0.532  C980.146,949.633,983.29,953.781,987.538,954.476z M967.292,950.976c-7.159,1.489-4.961,6.188,0,7c-7.363,1.532-4.698,6.231,0,7  c-6.922,1.44-5.314,6.131,0,7c-7.208,1.499-4.901,6.198,0,7c-7.215,1.501-4.895,6.199,0,7c-7.112,1.48-5,6.182,0,7  c-9.105,1.894-2.861,8.61,3.512,6.854l0.018-0.199c-1.626-0.825-6.377-2.684-6.543-3.4c-0.177-0.198,0.604-0.944,0.809-1.113  c1.506-1.188,3.856-1.887,5.733-2.287c-0.011-0.122-0.011-0.077,0-0.199c-1.72-0.872-6.373-2.666-6.543-3.4  c-0.036-0.041,0.03-0.276,0.189-0.482c0.996-1.489,4.587-2.542,6.354-2.919c-0.011-0.122-0.011-0.077,0-0.199  c-1.626-0.825-6.377-2.684-6.543-3.4c-0.177-0.198,0.604-0.944,0.809-1.113c1.506-1.188,3.856-1.887,5.733-2.287  c-0.011-0.122-0.011-0.077,0-0.199c-1.626-0.825-6.377-2.684-6.543-3.4c-0.177-0.198,0.604-0.944,0.809-1.113  c1.506-1.188,3.856-1.887,5.733-2.287c-0.011-0.122-0.011-0.077,0-0.199c-1.72-0.872-6.373-2.666-6.543-3.4  c-0.177-0.198,0.604-0.944,0.809-1.113c1.506-1.188,3.856-1.887,5.733-2.287c-0.011-0.122-0.011-0.077,0-0.199  c-1.72-0.872-6.373-2.666-6.543-3.4c-0.036-0.041,0.03-0.276,0.189-0.482c0.996-1.489,4.587-2.542,6.354-2.919  c-0.011-0.122-0.011-0.077,0-0.199c-1.626-0.825-6.377-2.684-6.543-3.4c-0.177-0.198,0.604-0.944,0.809-1.113  c1.506-1.188,3.857-1.887,5.733-2.287c-0.011-0.122-0.011-0.077,0-0.199c-1.72-0.872-6.373-2.666-6.543-3.4  c-0.177-0.198,0.604-0.944,0.809-1.113c1.506-1.188,3.857-1.887,5.733-2.287l-0.018-0.199c-1.443-0.018-2.898,0.153-4.338,0.532  C959.901,946.133,963.044,950.281,967.292,950.976z M947.8,1006.831l0.019-0.199c-1.722-0.873-6.374-2.666-6.543-3.4  c-0.177-0.198,0.603-0.943,0.809-1.113c1.507-1.188,3.857-1.888,5.733-2.287c-0.011-0.122-0.011-0.077,0-0.199  c-1.722-0.873-6.374-2.666-6.543-3.4c-0.177-0.198,0.603-0.943,0.809-1.113c1.507-1.188,3.857-1.888,5.733-2.287  c-0.011-0.122-0.011-0.077,0-0.199c-1.722-0.873-6.374-2.666-6.543-3.4c-0.036-0.041,0.03-0.276,0.188-0.482  c0.994-1.486,4.545-2.533,6.354-2.919c-0.011-0.122-0.011-0.077,0-0.199c-1.722-0.873-6.374-2.666-6.543-3.4  c-0.177-0.198,0.603-0.943,0.809-1.113c1.507-1.188,3.857-1.888,5.733-2.287c-0.011-0.122-0.011-0.077,0-0.199  c-1.722-0.873-6.374-2.666-6.543-3.4c-0.177-0.198,0.603-0.943,0.809-1.113c1.507-1.188,3.857-1.888,5.733-2.287  c-0.011-0.122-0.011-0.077,0-0.199c-1.722-0.873-6.374-2.666-6.543-3.4c-0.177-0.198,0.603-0.943,0.809-1.113  c1.507-1.188,3.857-1.888,5.733-2.287c-0.011-0.122-0.011-0.077,0-0.199c-1.722-0.873-6.374-2.666-6.543-3.4  c-0.177-0.197,0.603-0.943,0.809-1.113c1.507-1.188,3.857-1.887,5.733-2.287c-0.011-0.122-0.011-0.077,0-0.199  c-1.722-0.873-6.374-2.666-6.543-3.4c-0.177-0.197,0.603-0.943,0.809-1.113c1.507-1.188,3.857-1.887,5.733-2.287  c-0.011-0.122-0.011-0.077,0-0.199c-1.827-0.926-6.372-2.658-6.543-3.4c-0.177-0.197,0.603-0.943,0.809-1.113  c1.507-1.188,3.857-1.887,5.733-2.287c-0.011-0.122-0.011-0.077,0-0.199c-1.722-0.873-6.374-2.666-6.543-3.4  c-0.177-0.197,0.603-0.943,0.809-1.113c1.507-1.188,3.857-1.887,5.733-2.287l-0.019-0.199c-1.443-0.018-2.898,0.153-4.338,0.532  c-6.57,1.971-3.425,6.117,0.826,6.813c-7.051,1.467-5.084,6.168,0,7c-7.185,1.495-4.86,6.205,0,7c-7.185,1.495-4.859,6.205,0,7  c-7.336,1.526-4.736,6.225,0,7c-7.185,1.495-4.86,6.205,0,7c-6.973,1.451-5.135,6.16,0,7c-7.185,1.495-4.86,6.205,0,7  c-7.032,1.463-5.071,6.17,0,7C935.25,1001.857,941.383,1008.599,947.8,1006.831z" transform="translate(558.7337234689779, -37.388723626000356) scale(0.3527779078384722, 0.3527779078384722) rotate(89.99999999999976)" stroke="#fa9228" stroke-width="1" fill="#fa9228" vector-effect="non-scaling-stroke" />
</g>
<g id="group-9cdcebab-36f2-45dc-bb02-56d912867675">
<path d="M918.54,917.521v18h8.504v72h-8.504v18l174.647-54L918.54,917.521z   M982.355,978.608v-14.173h14.173v14.173H982.355z" transform="translate(558.633314363741, -37.18964949575483) scale(0.3527779078384722, 0.3527779078384722) rotate(89.99999999999976)" stroke="#9926ff" stroke-width="1" fill="none" vector-effect="non-scaling-stroke" />
</g>
<g id="group-8364c541-0ff0-4945-8a58-06250ca7a822">
<path d="M162.442,845.867c7.14,1.485,4.994,6.183,0,7  c9.075,1.888,2.866,8.611-3.512,6.854l-0.018-0.199c1.627-0.824,6.378-2.683,6.543-3.4c0.177-0.198-0.603-0.944-0.809-1.113  c-1.505-1.187-3.856-1.887-5.733-2.287c0.011-0.122,0.011-0.077,0-0.199c1.627-0.824,6.378-2.683,6.543-3.4  c0.177-0.198-0.603-0.944-0.809-1.113c-1.505-1.187-3.856-1.887-5.733-2.287c0.011-0.122,0.011-0.077,0-0.199  c1.627-0.824,6.378-2.683,6.543-3.4c0.036-0.041-0.031-0.276-0.189-0.482c-0.994-1.487-4.545-2.533-6.354-2.919l0.018-0.199  c1.444-0.018,2.898,0.153,4.338,0.532C169.794,841.013,166.754,845.163,162.442,845.867z M143.675,842.024l-0.018,0.199  c1.877,0.4,4.227,1.099,5.733,2.287c0.206,0.17,0.986,0.915,0.809,1.113c-0.17,0.734-4.823,2.528-6.543,3.4  c0.011,0.122,0.011,0.077,0,0.199c1.809,0.386,5.36,1.433,6.354,2.919c0.159,0.206,0.225,0.441,0.189,0.482  c-0.17,0.734-4.823,2.528-6.543,3.4l0.018,0.199c6.418,1.768,12.551-4.974,3.512-6.854c1.142-0.187,2.161-0.52,3.123-1.275  C154.5,844.619,149.04,841.958,143.675,842.024z M134.191,846.057c-1.44-0.379-2.895-0.55-4.338-0.532l-0.019,0.199  c1.876,0.399,4.226,1.099,5.733,2.287c0.206,0.17,0.986,0.915,0.809,1.113c-0.169,0.734-4.821,2.527-6.543,3.4l0.019,0.199  C135.752,854.348,142.248,848.473,134.191,846.057z M178.531,835.558c-1.44-0.379-2.895-0.55-4.338-0.532l-0.018,0.199  c1.801,0.384,5.358,1.43,6.354,2.919c0.158,0.206,0.224,0.441,0.188,0.482c-0.169,0.734-4.821,2.527-6.543,3.4  c0.011,0.122,0.011,0.077,0,0.199c1.876,0.4,4.227,1.099,5.733,2.287c0.206,0.17,0.986,0.915,0.809,1.113  c-0.169,0.734-4.821,2.527-6.543,3.4c0.011,0.122,0.011,0.077,0,0.199c1.876,0.4,4.227,1.099,5.733,2.287  c0.206,0.17,0.986,0.915,0.809,1.113c-0.165,0.715-4.922,2.578-6.543,3.4c0.011,0.122,0.011,0.077,0,0.199  c1.876,0.4,4.227,1.099,5.733,2.287c0.206,0.17,0.986,0.915,0.809,1.113c-0.169,0.734-4.821,2.527-6.543,3.4l0.018,0.199  c6.428,1.771,12.539-4.976,3.512-6.854c4.911-0.804,7.198-5.503,0-7c5.015-0.821,7.086-5.526,0-7  C181.997,841.666,185.023,837.504,178.531,835.558z M189.385,831.526l-0.019,0.199c1.876,0.399,4.226,1.099,5.733,2.287  c0.206,0.17,0.986,0.916,0.809,1.113c-0.169,0.734-4.821,2.527-6.543,3.4c0.011,0.122,0.011,0.077,0,0.199  c1.809,0.386,5.36,1.433,6.354,2.919c0.158,0.206,0.224,0.441,0.188,0.482c-0.169,0.734-4.821,2.527-6.543,3.4  c0.011,0.122,0.011,0.077,0,0.199c1.876,0.399,4.226,1.099,5.733,2.287c0.206,0.17,0.986,0.915,0.809,1.113  c-0.169,0.734-4.821,2.527-6.543,3.4c0.011,0.122,0.011,0.077,0,0.199c1.809,0.386,5.36,1.433,6.354,2.919  c0.158,0.206,0.224,0.441,0.188,0.482c-0.169,0.734-4.821,2.527-6.543,3.4c0.011,0.122,0.011,0.077,0,0.199  c1.876,0.399,4.226,1.099,5.733,2.287c0.206,0.17,0.986,0.915,0.809,1.113c-0.169,0.734-4.821,2.527-6.543,3.4l0.019,0.199  c6.418,1.768,12.551-4.974,3.512-6.854c4.86-0.795,7.185-5.505,0-7c4.86-0.795,7.185-5.505,0-7c4.984-0.815,7.123-5.518,0-7  c3.069-0.502,5.929-2.998,3.925-5.17C195.233,832.018,191.699,831.495,189.385,831.526z M210.6,825.06  c-1.44-0.379-2.895-0.55-4.338-0.532l-0.019,0.199c1.809,0.386,5.36,1.433,6.354,2.919c0.158,0.206,0.224,0.441,0.188,0.482  c-0.169,0.734-4.821,2.527-6.543,3.4c0.011,0.122,0.011,0.077,0,0.199c1.876,0.399,4.226,1.099,5.733,2.287  c0.206,0.17,0.986,0.916,0.809,1.113c-0.169,0.734-4.821,2.527-6.543,3.4c0.011,0.122,0.011,0.077,0,0.199  c1.876,0.399,4.226,1.099,5.733,2.287c0.206,0.17,0.986,0.915,0.809,1.113c-0.169,0.734-4.821,2.527-6.543,3.4  c0.011,0.122,0.011,0.077,0,0.199c1.876,0.399,4.226,1.099,5.733,2.287c0.206,0.17,0.986,0.915,0.809,1.113  c-0.171,0.742-4.716,2.474-6.543,3.4c0.011,0.122,0.011,0.077,0,0.199c1.876,0.399,4.226,1.099,5.733,2.287  c0.206,0.17,0.986,0.915,0.809,1.113c-0.169,0.734-4.821,2.527-6.543,3.4c0.011,0.122,0.011,0.077,0,0.199  c1.876,0.399,4.226,1.099,5.733,2.287c0.206,0.17,0.986,0.915,0.809,1.113c-0.165,0.715-4.923,2.578-6.543,3.4  c0.011,0.122,0.011,0.077,0,0.199c1.767,0.377,5.358,1.43,6.354,2.919c0.158,0.206,0.224,0.441,0.188,0.482  c-0.171,0.742-4.716,2.474-6.543,3.4l0.019,0.199c6.333,1.745,12.672-4.949,3.512-6.854c5.016-0.821,7.116-5.52,0-7  c5.089-0.833,7.008-5.542,0-7c4.971-0.813,7.114-5.52,0-7c4.905-0.803,7.182-5.506,0-7c5.095-0.834,7.002-5.543,0-7  C214.016,831.173,217.16,827.025,210.6,825.06z M230.845,821.561c-1.44-0.379-2.895-0.55-4.338-0.532l-0.018,0.199  c1.876,0.4,4.227,1.099,5.733,2.287c0.205,0.169,0.986,0.915,0.809,1.113c-0.17,0.734-4.823,2.528-6.543,3.4  c0.011,0.122,0.011,0.077,0,0.199c1.876,0.4,4.227,1.099,5.733,2.287c0.205,0.169,0.986,0.915,0.809,1.113  c-0.166,0.716-4.917,2.575-6.543,3.4c0.011,0.122,0.011,0.077,0,0.199c1.767,0.377,5.358,1.43,6.354,2.919  c0.159,0.206,0.225,0.441,0.189,0.482c-0.17,0.734-4.823,2.528-6.543,3.4c0.011,0.122,0.011,0.077,0,0.199  c1.877,0.4,4.227,1.099,5.733,2.287c0.205,0.169,0.986,0.915,0.809,1.113c-0.17,0.734-4.823,2.528-6.543,3.4  c0.011,0.122,0.011,0.077,0,0.199c1.877,0.4,4.227,1.099,5.733,2.287c0.205,0.169,0.986,0.915,0.809,1.113  c-0.166,0.716-4.917,2.575-6.543,3.4c0.011,0.122,0.011,0.077,0,0.199c1.877,0.4,4.227,1.099,5.733,2.287  c0.205,0.169,0.986,0.915,0.809,1.113c-0.166,0.716-4.917,2.575-6.543,3.4c0.011,0.122,0.011,0.077,0,0.199  c1.767,0.377,5.358,1.43,6.354,2.919c0.159,0.206,0.225,0.441,0.189,0.482c-0.17,0.734-4.823,2.528-6.543,3.4  c0.011,0.122,0.011,0.077,0,0.199c1.877,0.4,4.227,1.099,5.733,2.287c0.205,0.169,0.986,0.915,0.809,1.113  c-0.166,0.716-4.917,2.575-6.543,3.4l0.018,0.199c6.373,1.756,12.617-4.96,3.512-6.854c5-0.818,7.112-5.52,0-7  c4.895-0.801,7.215-5.499,0-7c4.901-0.802,7.208-5.501,0-7c5.314-0.869,6.922-5.56,0-7c4.698-0.769,7.363-5.468,0-7  c4.961-0.812,7.159-5.511,0-7C234.262,827.673,237.405,823.525,230.845,821.561z M253.027,877.378c5.071-0.83,7.032-5.537,0-7  c4.86-0.795,7.185-5.505,0-7c5.135-0.84,6.973-5.549,0-7c4.86-0.795,7.185-5.505,0-7c4.736-0.775,7.336-5.474,0-7  c4.859-0.795,7.185-5.505,0-7c4.86-0.795,7.185-5.505,0-7c5.084-0.832,7.051-5.533,0-7c4.251-0.696,7.396-4.842,0.826-6.813  c-1.44-0.379-2.895-0.55-4.338-0.532l-0.019,0.199c1.876,0.4,4.226,1.099,5.733,2.287c0.206,0.17,0.986,0.916,0.809,1.113  c-0.169,0.734-4.821,2.527-6.543,3.4c0.011,0.122,0.011,0.077,0,0.199c1.876,0.4,4.226,1.099,5.733,2.287  c0.206,0.17,0.986,0.916,0.809,1.113c-0.171,0.742-4.716,2.474-6.543,3.4c0.011,0.122,0.011,0.077,0,0.199  c1.876,0.4,4.226,1.099,5.733,2.287c0.206,0.17,0.986,0.916,0.809,1.113c-0.169,0.734-4.821,2.527-6.543,3.4  c0.011,0.122,0.011,0.077,0,0.199c1.876,0.4,4.226,1.099,5.733,2.287c0.206,0.17,0.986,0.916,0.809,1.113  c-0.169,0.734-4.821,2.527-6.543,3.4c0.011,0.122,0.011,0.077,0,0.199c1.876,0.399,4.226,1.099,5.733,2.287  c0.206,0.17,0.986,0.915,0.809,1.113c-0.169,0.734-4.821,2.527-6.543,3.4c0.011,0.122,0.011,0.077,0,0.199  c1.876,0.399,4.226,1.099,5.733,2.287c0.206,0.17,0.986,0.915,0.809,1.113c-0.169,0.734-4.821,2.527-6.543,3.4  c0.011,0.122,0.011,0.077,0,0.199c1.876,0.399,4.226,1.099,5.733,2.287c0.206,0.17,0.986,0.915,0.809,1.113  c-0.169,0.734-4.821,2.527-6.543,3.4c0.011,0.122,0.011,0.077,0,0.199c1.809,0.386,5.36,1.433,6.354,2.919  c0.158,0.206,0.224,0.441,0.188,0.482c-0.169,0.734-4.821,2.527-6.543,3.4c0.011,0.122,0.011,0.077,0,0.199  c1.876,0.399,4.226,1.099,5.733,2.287c0.206,0.17,0.986,0.915,0.809,1.113c-0.169,0.734-4.821,2.527-6.543,3.4  c0.011,0.122,0.011,0.077,0,0.199c1.876,0.399,4.226,1.099,5.733,2.287c0.206,0.17,0.986,0.915,0.809,1.113  c-0.169,0.734-4.821,2.527-6.543,3.4l0.019,0.199C255.923,885.991,262.056,879.249,253.027,877.378z" transform="translate(494.721602742641, 250.3067309680721) scale(0.35277790783847357, 0.35277790783847357) rotate(89.99999999999994)" stroke="#fa9228" stroke-width="1" fill="#fa9228" vector-effect="non-scaling-stroke" />
</g>
<g id="group-26029f68-57b1-4dcb-92d1-f81a814bcbe7">
<path d="M104.119,848.913l174.647,54v-18h-8.504v-72h8.504v-18  L104.119,848.913z M200.778,856v-14.173h14.173V856H200.778z" transform="translate(494.6216027426462, 250.50673096807049) scale(0.35277790783847357, 0.35277790783847357) rotate(89.99999999999994)" stroke="#9926ff" stroke-width="1" fill="none" vector-effect="non-scaling-stroke" />
</g>
<g id="group-6b77311b-2dee-43fe-9848-db6fa50bcdf4">
<path d="M219.067,902.997c1.44-0.379,2.894-0.55,4.338-0.532l0.018,0.199  c-1.809,0.386-5.36,1.432-6.354,2.919c-0.158,0.206-0.225,0.441-0.189,0.482c0.165,0.717,4.916,2.576,6.543,3.4  c-0.011,0.122-0.011,0.077,0,0.199c-1.877,0.4-4.228,1.1-5.733,2.287c-0.206,0.169-0.986,0.915-0.809,1.113  c0.165,0.717,4.916,2.576,6.543,3.4c-0.011,0.122-0.011,0.077,0,0.199c-1.877,0.4-4.228,1.1-5.733,2.287  c-0.206,0.169-0.986,0.915-0.809,1.113c0.165,0.717,4.916,2.576,6.543,3.4l-0.018,0.199c-6.378,1.757-12.587-4.966-3.512-6.854  c-4.994-0.817-7.14-5.515,0-7C215.583,909.104,212.543,904.954,219.067,902.997z M232.028,912.034  c0.962,0.755,1.981,1.088,3.123,1.275c-9.039,1.88-2.906,8.622,3.512,6.854l0.018-0.199c-1.72-0.872-6.373-2.666-6.543-3.4  c-0.036-0.041,0.03-0.276,0.189-0.482c0.994-1.486,4.545-2.533,6.354-2.919c-0.011-0.122-0.011-0.077,0-0.199  c-1.72-0.872-6.373-2.666-6.543-3.4c-0.177-0.198,0.603-0.943,0.809-1.113c1.506-1.188,3.856-1.887,5.733-2.287l-0.018-0.199  C233.297,905.899,227.837,908.56,232.028,912.034z M252.485,916.664l0.019-0.199c-1.722-0.873-6.374-2.666-6.543-3.4  c-0.177-0.198,0.603-0.943,0.809-1.113c1.507-1.188,3.857-1.888,5.733-2.287l-0.019-0.199c-1.443-0.018-2.898,0.153-4.338,0.532  C240.089,912.414,246.585,918.289,252.485,916.664z M204.635,906.309c-7.086,1.474-5.015,6.179,0,7c-7.198,1.497-4.911,6.196,0,7  c-9.027,1.878-2.916,8.625,3.512,6.854l0.018-0.199c-1.722-0.873-6.374-2.666-6.543-3.4c-0.177-0.198,0.603-0.943,0.809-1.113  c1.506-1.188,3.857-1.887,5.733-2.287c-0.011-0.122-0.011-0.077,0-0.199c-1.621-0.822-6.378-2.685-6.543-3.4  c-0.177-0.198,0.603-0.943,0.809-1.113c1.506-1.188,3.857-1.887,5.733-2.287c-0.011-0.122-0.011-0.077,0-0.199  c-1.722-0.873-6.374-2.666-6.543-3.4c-0.177-0.198,0.603-0.943,0.809-1.113c1.506-1.188,3.857-1.887,5.733-2.287  c-0.011-0.122-0.011-0.077,0-0.199c-1.722-0.873-6.374-2.666-6.543-3.4c-0.036-0.041,0.03-0.276,0.188-0.482  c0.996-1.489,4.553-2.535,6.354-2.919l-0.018-0.199c-1.443-0.018-2.898,0.153-4.338,0.532  C197.314,901.445,200.34,905.607,204.635,906.309z M185.519,897.639c-2.004,2.172,0.856,4.668,3.925,5.17  c-7.123,1.482-4.984,6.185,0,7c-7.185,1.495-4.86,6.205,0,7c-7.185,1.495-4.86,6.205,0,7c-9.039,1.88-2.906,8.622,3.512,6.854  l0.019-0.199c-1.722-0.873-6.374-2.666-6.543-3.4c-0.177-0.198,0.603-0.943,0.809-1.113c1.507-1.188,3.857-1.888,5.733-2.287  c-0.011-0.122-0.011-0.077,0-0.199c-1.722-0.873-6.374-2.666-6.543-3.4c-0.036-0.041,0.03-0.276,0.188-0.482  c0.994-1.486,4.545-2.533,6.354-2.919c-0.011-0.122-0.011-0.077,0-0.199c-1.722-0.873-6.374-2.666-6.543-3.4  c-0.177-0.198,0.603-0.943,0.809-1.113c1.507-1.188,3.857-1.888,5.733-2.287c-0.011-0.122-0.011-0.077,0-0.199  c-1.722-0.873-6.374-2.666-6.543-3.4c-0.036-0.041,0.03-0.276,0.188-0.482c0.994-1.486,4.545-2.533,6.354-2.919  c-0.011-0.122-0.011-0.077,0-0.199c-1.722-0.873-6.374-2.666-6.543-3.4c-0.177-0.197,0.603-0.943,0.809-1.113  c1.507-1.188,3.857-1.888,5.733-2.287l-0.019-0.199C190.638,895.436,187.104,895.959,185.519,897.639z M172.569,895.809  c-7.002,1.457-5.095,6.166,0,7c-7.182,1.494-4.905,6.197,0,7c-7.114,1.48-4.971,6.187,0,7c-7.008,1.458-5.089,6.167,0,7  c-7.116,1.48-5.016,6.179,0,7c-9.16,1.905-2.821,8.599,3.512,6.854l0.019-0.199c-1.827-0.926-6.372-2.658-6.543-3.4  c-0.036-0.041,0.03-0.276,0.188-0.482c0.996-1.489,4.587-2.542,6.354-2.919c-0.011-0.122-0.011-0.077,0-0.199  c-1.62-0.822-6.378-2.685-6.543-3.4c-0.177-0.198,0.603-0.943,0.809-1.113c1.507-1.188,3.857-1.888,5.733-2.287  c-0.011-0.122-0.011-0.077,0-0.199c-1.722-0.873-6.374-2.666-6.543-3.4c-0.177-0.198,0.603-0.943,0.809-1.113  c1.507-1.188,3.857-1.888,5.733-2.287c-0.011-0.122-0.011-0.077,0-0.199c-1.827-0.926-6.372-2.658-6.543-3.4  c-0.177-0.198,0.603-0.943,0.809-1.113c1.507-1.188,3.857-1.888,5.733-2.287c-0.011-0.122-0.011-0.077,0-0.199  c-1.722-0.873-6.374-2.666-6.543-3.4c-0.177-0.198,0.603-0.943,0.809-1.113c1.507-1.188,3.857-1.888,5.733-2.287  c-0.011-0.122-0.011-0.077,0-0.199c-1.722-0.873-6.374-2.666-6.543-3.4c-0.177-0.197,0.603-0.943,0.809-1.113  c1.507-1.188,3.857-1.888,5.733-2.287c-0.011-0.122-0.011-0.077,0-0.199c-1.722-0.873-6.374-2.666-6.543-3.4  c-0.036-0.041,0.03-0.276,0.188-0.482c0.994-1.486,4.545-2.533,6.354-2.919l-0.019-0.199c-1.443-0.018-2.898,0.153-4.338,0.532  C165.177,890.966,168.321,895.114,172.569,895.809z M152.323,892.309c-7.159,1.489-4.961,6.188,0,7c-7.363,1.532-4.698,6.231,0,7  c-6.922,1.44-5.314,6.131,0,7c-7.208,1.499-4.901,6.198,0,7c-7.215,1.501-4.895,6.199,0,7c-7.112,1.48-5,6.182,0,7  c-9.105,1.894-2.861,8.61,3.512,6.854l0.018-0.199c-1.626-0.825-6.377-2.684-6.543-3.4c-0.177-0.198,0.604-0.944,0.809-1.113  c1.506-1.188,3.856-1.887,5.733-2.287c-0.011-0.122-0.011-0.077,0-0.199c-1.72-0.872-6.373-2.666-6.543-3.4  c-0.036-0.041,0.03-0.276,0.189-0.482c0.996-1.489,4.587-2.542,6.354-2.919c-0.011-0.122-0.011-0.077,0-0.199  c-1.626-0.825-6.377-2.684-6.543-3.4c-0.177-0.198,0.604-0.944,0.809-1.113c1.506-1.188,3.856-1.887,5.733-2.287  c-0.011-0.122-0.011-0.077,0-0.199c-1.626-0.825-6.377-2.684-6.543-3.4c-0.177-0.198,0.604-0.944,0.809-1.113  c1.506-1.188,3.856-1.887,5.733-2.287c-0.011-0.122-0.011-0.077,0-0.199c-1.72-0.872-6.373-2.666-6.543-3.4  c-0.177-0.198,0.604-0.944,0.809-1.113c1.506-1.188,3.856-1.887,5.733-2.287c-0.011-0.122-0.011-0.077,0-0.199  c-1.72-0.872-6.373-2.666-6.543-3.4c-0.036-0.041,0.03-0.276,0.189-0.482c0.996-1.489,4.587-2.542,6.354-2.919  c-0.011-0.122-0.011-0.077,0-0.199c-1.626-0.825-6.377-2.684-6.543-3.4c-0.177-0.198,0.604-0.944,0.809-1.113  c1.506-1.188,3.857-1.887,5.733-2.287c-0.011-0.122-0.011-0.077,0-0.199c-1.72-0.872-6.373-2.666-6.543-3.4  c-0.177-0.198,0.604-0.944,0.809-1.113c1.506-1.188,3.857-1.887,5.733-2.287l-0.018-0.199c-1.443-0.018-2.898,0.153-4.338,0.532  C144.932,887.466,148.075,891.614,152.323,892.309z M132.831,948.164l0.019-0.199c-1.722-0.873-6.374-2.666-6.543-3.4  c-0.177-0.198,0.603-0.943,0.809-1.113c1.507-1.188,3.857-1.888,5.733-2.287c-0.011-0.122-0.011-0.077,0-0.199  c-1.722-0.873-6.374-2.666-6.543-3.4c-0.177-0.198,0.603-0.943,0.809-1.113c1.507-1.188,3.857-1.888,5.733-2.287  c-0.011-0.122-0.011-0.077,0-0.199c-1.722-0.873-6.374-2.666-6.543-3.4c-0.036-0.041,0.03-0.276,0.188-0.482  c0.994-1.486,4.545-2.533,6.354-2.919c-0.011-0.122-0.011-0.077,0-0.199c-1.722-0.873-6.374-2.666-6.543-3.4  c-0.177-0.198,0.603-0.943,0.809-1.113c1.507-1.188,3.857-1.888,5.733-2.287c-0.011-0.122-0.011-0.077,0-0.199  c-1.722-0.873-6.374-2.666-6.543-3.4c-0.177-0.198,0.603-0.943,0.809-1.113c1.507-1.188,3.857-1.888,5.733-2.287  c-0.011-0.122-0.011-0.077,0-0.199c-1.722-0.873-6.374-2.666-6.543-3.4c-0.177-0.198,0.603-0.943,0.809-1.113  c1.507-1.188,3.857-1.888,5.733-2.287c-0.011-0.122-0.011-0.077,0-0.199c-1.722-0.873-6.374-2.666-6.543-3.4  c-0.177-0.197,0.603-0.943,0.809-1.113c1.507-1.188,3.857-1.887,5.733-2.287c-0.011-0.122-0.011-0.077,0-0.199  c-1.722-0.873-6.374-2.666-6.543-3.4c-0.177-0.197,0.603-0.943,0.809-1.113c1.507-1.188,3.857-1.887,5.733-2.287  c-0.011-0.122-0.011-0.077,0-0.199c-1.827-0.926-6.372-2.658-6.543-3.4c-0.177-0.197,0.603-0.943,0.809-1.113  c1.507-1.188,3.857-1.887,5.733-2.287c-0.011-0.122-0.011-0.077,0-0.199c-1.722-0.873-6.374-2.666-6.543-3.4  c-0.177-0.197,0.603-0.943,0.809-1.113c1.507-1.188,3.857-1.887,5.733-2.287l-0.019-0.199c-1.443-0.018-2.898,0.153-4.338,0.532  c-6.57,1.971-3.425,6.117,0.826,6.813c-7.051,1.467-5.084,6.168,0,7c-7.185,1.495-4.86,6.205,0,7c-7.185,1.495-4.859,6.205,0,7  c-7.336,1.526-4.736,6.225,0,7c-7.185,1.495-4.86,6.205,0,7c-6.973,1.451-5.135,6.16,0,7c-7.185,1.495-4.86,6.205,0,7  c-7.032,1.463-5.071,6.17,0,7C120.281,943.19,126.414,949.932,132.831,948.164z" transform="translate(494.72201184788133, 250.3076487633807) scale(0.35277790783847357, 0.35277790783847357) rotate(89.99999999999994)" stroke="#fa9228" stroke-width="1" fill="#fa9228" vector-effect="non-scaling-stroke" />
</g>
<g id="group-77690ff4-7013-4165-9905-99a1258f73cb">
<path d="M103.571,858.854v18h8.504v72h-8.504v18l174.647-54L103.571,858.854z   M167.386,919.941v-14.173h14.173v14.173H167.386z" transform="translate(494.6216027426456, 250.50673096807105) scale(0.35277790783847357, 0.35277790783847357) rotate(89.99999999999994)" stroke="#9926ff" stroke-width="1" fill="none" vector-effect="non-scaling-stroke" />
</g>
<g id="group-6b3afa19-14a7-45c7-af4a-c43c2f9643fc">
<path d="M919.088,907.58l174.647,54v-18h-8.504v-72h8.504v-18L919.088,907.58z   M1015.747,914.667v-14.173h14.173v14.173H1015.747z" transform="translate(558.629288339543, -37.19632304661506) scale(0.3527779078384722, 0.3527779078384722) rotate(89.99999999999976)" stroke="#fa9228" stroke-width="1" fill="#f9932b" vector-effect="non-scaling-stroke" />
</g>
<g id="group-a821efb8-c1d2-40c1-9faa-6bcbfd96d7fa">
<path d="M918.54,917.521v18h8.504v72h-8.504v18l174.647-54L918.54,917.521z   M982.355,978.608v-14.173h14.173v14.173H982.355z" transform="translate(558.6292883395439, -37.19632304661046) scale(0.3527779078384722, 0.3527779078384722) rotate(89.99999999999976)" stroke="#fa9228" stroke-width="1" fill="#f9932b" vector-effect="non-scaling-stroke" />
</g>
<g id="group-581234c2-44fd-46fb-b6c8-9ecadd682082">
<path d="M104.119,848.913l174.647,54v-18h-8.504v-72h8.504v-18  L104.119,848.913z M200.778,856v-14.173h14.173V856H200.778z" transform="translate(494.61757671845277, 250.5000574172151) scale(0.35277790783847357, 0.35277790783847357) rotate(89.99999999999994)" stroke="#fa9228" stroke-width="1" fill="#f9932b" vector-effect="non-scaling-stroke" />
</g>
<g id="group-49c7f51a-4d85-45ca-ac3f-926a529b6f10">
<path d="M103.571,858.854v18h8.504v72h-8.504v18l174.647-54L103.571,858.854z   M167.386,919.941v-14.173h14.173v14.173H167.386z" transform="translate(494.6175767184498, 250.50005741721588) scale(0.35277790783847357, 0.35277790783847357) rotate(89.99999999999994)" stroke="#fa9228" stroke-width="1" fill="#f9932b" vector-effect="non-scaling-stroke" />
</g>
<g id="group-7ea5eba8-ba35-4d88-9a3f-e88a156a9faf">
<path d="M993.7,1485.769v-16.175h-12.504v-16.175c-6.055,0-131.18,0-137.486,0  v16.175h11.504v16.175H843.71v16.175h11.504v16.175H843.71v16.175h11.504v16.175H843.71v16.175h11.504v16.175H843.71v16.175h11.504  v16.175H843.71v16.175h11.504v16.175h8.673v8.504h8.504v-8.504h92.628v8.504h8.504v-8.504c23.755,0-5.503,0,20.177,0v-16.175  h-12.504v-16.175H993.7v-16.175h-12.504v-16.175H993.7v-16.175h-12.504v-16.175H993.7v-16.175h-12.504v-16.175H993.7v-16.175  h-12.504v-16.175H993.7z M890.175,1630.996h-22.531v-37.263h22.531V1630.996z M890.175,1589.733h-22.531v-37.263h22.531V1589.733z   M890.175,1548.47h-22.531v-37.263h22.531V1548.47z M890.175,1507.208h-22.531v-37.263h22.531V1507.208z M916.706,1630.996h-22.53  v-37.263h22.53V1630.996z M916.706,1589.733h-22.53v-37.263h22.53V1589.733z M916.706,1548.47h-22.53v-37.263h22.53V1548.47z   M916.706,1507.208h-22.53v-37.263h22.53V1507.208z M943.236,1630.996h-22.53v-37.263h22.53V1630.996z M943.236,1589.733h-22.53  v-37.263h22.53V1589.733z M943.236,1548.47h-22.53v-37.263h22.53V1548.47z M943.236,1507.208h-22.53v-37.263h22.53V1507.208z   M969.766,1630.996h-22.53v-37.263h22.53V1630.996z M969.766,1589.733h-22.53v-37.263h22.53V1589.733z M969.766,1548.47h-22.53  v-37.263h22.53V1548.47z M969.766,1507.208h-22.53v-37.263h22.53V1507.208z" transform="translate(11.563315523385832, -235.9529068206351) scale(0.35277790783847424, 0.35277790783847424) rotate(0)" stroke="#9926ff" stroke-width="1" fill="none" vector-effect="non-scaling-stroke" />
</g>
<g id="group-09c8ae30-76a7-40ff-9059-2721c65fbec9">
<path d="M833.109,1485.769v-16.175h-12.504v-16.175  c-6.055,0-131.18,0-137.486,0v16.175h11.504v16.175h-11.504v16.175h11.504v16.175h-11.504v16.175h11.504v16.175h-11.504v16.175  h11.504v16.175h-11.504v16.175h11.504v16.175h-11.504v16.175h11.504v16.175h8.673v8.504h8.504v-8.504h92.628v8.504h8.504v-8.504  c23.755,0-5.503,0,20.177,0v-16.175h-12.504v-16.175h12.504v-16.175h-12.504v-16.175h12.504v-16.175h-12.504v-16.175h12.504v-16.175  h-12.504v-16.175h12.504v-16.175h-12.504v-16.175H833.109z M729.584,1630.996h-22.531v-37.263h22.531V1630.996z M729.584,1589.733  h-22.531v-37.263h22.531V1589.733z M729.584,1548.47h-22.531v-37.263h22.531V1548.47z M729.584,1507.208h-22.531v-37.263h22.531  V1507.208z M756.115,1630.996h-22.53v-37.263h22.53V1630.996z M756.115,1589.733h-22.53v-37.263h22.53V1589.733z M756.115,1548.47  h-22.53v-37.263h22.53V1548.47z M756.115,1507.208h-22.53v-37.263h22.53V1507.208z M782.645,1630.996h-22.53v-37.263h22.53V1630.996  z M782.645,1589.733h-22.53v-37.263h22.53V1589.733z M782.645,1548.47h-22.53v-37.263h22.53V1548.47z M782.645,1507.208h-22.53  v-37.263h22.53V1507.208z M809.175,1630.996h-22.53v-37.263h22.53V1630.996z M809.175,1589.733h-22.53v-37.263h22.53V1589.733z   M809.175,1548.47h-22.53v-37.263h22.53V1548.47z M809.175,1507.208h-22.53v-37.263h22.53V1507.208z" transform="translate(18.30311877526217, -235.9529068206351) scale(0.35277790783847424, 0.35277790783847424) rotate(0)" stroke="#9926ff" stroke-width="1" fill="none" vector-effect="non-scaling-stroke" />
</g>
<g id="group-4b5fd3b1-54ba-4dee-aa10-c0e0e8dc08c0">
<path d="M993.7,1485.769v-16.175h-12.504v-16.175c-6.055,0-131.18,0-137.486,0  v16.175h11.504v16.175H843.71v16.175h11.504v16.175H843.71v16.175h11.504v16.175H843.71v16.175h11.504v16.175H843.71v16.175h11.504  v16.175H843.71v16.175h11.504v16.175h8.673v8.504h8.504v-8.504h92.628v8.504h8.504v-8.504c23.755,0-5.503,0,20.177,0v-16.175  h-12.504v-16.175H993.7v-16.175h-12.504v-16.175H993.7v-16.175h-12.504v-16.175H993.7v-16.175h-12.504v-16.175H993.7v-16.175  h-12.504v-16.175H993.7z M890.175,1630.996h-22.531v-37.263h22.531V1630.996z M890.175,1589.733h-22.531v-37.263h22.531V1589.733z   M890.175,1548.47h-22.531v-37.263h22.531V1548.47z M890.175,1507.208h-22.531v-37.263h22.531V1507.208z M916.706,1630.996h-22.53  v-37.263h22.53V1630.996z M916.706,1589.733h-22.53v-37.263h22.53V1589.733z M916.706,1548.47h-22.53v-37.263h22.53V1548.47z   M916.706,1507.208h-22.53v-37.263h22.53V1507.208z M943.236,1630.996h-22.53v-37.263h22.53V1630.996z M943.236,1589.733h-22.53  v-37.263h22.53V1589.733z M943.236,1548.47h-22.53v-37.263h22.53V1548.47z M943.236,1507.208h-22.53v-37.263h22.53V1507.208z   M969.766,1630.996h-22.53v-37.263h22.53V1630.996z M969.766,1589.733h-22.53v-37.263h22.53V1589.733z M969.766,1548.47h-22.53  v-37.263h22.53V1548.47z M969.766,1507.208h-22.53v-37.263h22.53V1507.208z" transform="translate(11.563315523385853, -450.8080814002456) scale(0.35277790783847424, 0.35277790783847424) rotate(0)" stroke="#9926ff" stroke-width="1" fill="none" vector-effect="non-scaling-stroke" />
</g>
<g id="group-6a7b5a6d-f9f2-42cf-8fb2-1c0b4da7e82a">
<path d="M833.109,1485.769v-16.175h-12.504v-16.175  c-6.055,0-131.18,0-137.486,0v16.175h11.504v16.175h-11.504v16.175h11.504v16.175h-11.504v16.175h11.504v16.175h-11.504v16.175  h11.504v16.175h-11.504v16.175h11.504v16.175h-11.504v16.175h11.504v16.175h8.673v8.504h8.504v-8.504h92.628v8.504h8.504v-8.504  c23.755,0-5.503,0,20.177,0v-16.175h-12.504v-16.175h12.504v-16.175h-12.504v-16.175h12.504v-16.175h-12.504v-16.175h12.504v-16.175  h-12.504v-16.175h12.504v-16.175h-12.504v-16.175H833.109z M729.584,1630.996h-22.531v-37.263h22.531V1630.996z M729.584,1589.733  h-22.531v-37.263h22.531V1589.733z M729.584,1548.47h-22.531v-37.263h22.531V1548.47z M729.584,1507.208h-22.531v-37.263h22.531  V1507.208z M756.115,1630.996h-22.53v-37.263h22.53V1630.996z M756.115,1589.733h-22.53v-37.263h22.53V1589.733z M756.115,1548.47  h-22.53v-37.263h22.53V1548.47z M756.115,1507.208h-22.53v-37.263h22.53V1507.208z M782.645,1630.996h-22.53v-37.263h22.53V1630.996  z M782.645,1589.733h-22.53v-37.263h22.53V1589.733z M782.645,1548.47h-22.53v-37.263h22.53V1548.47z M782.645,1507.208h-22.53  v-37.263h22.53V1507.208z M809.175,1630.996h-22.53v-37.263h22.53V1630.996z M809.175,1589.733h-22.53v-37.263h22.53V1589.733z   M809.175,1548.47h-22.53v-37.263h22.53V1548.47z M809.175,1507.208h-22.53v-37.263h22.53V1507.208z" transform="translate(68.21627372685815, -379.33386478250065) scale(0.35277790783847424, 0.35277790783847424) rotate(0)" stroke="#9926ff" stroke-width="1" fill="none" vector-effect="non-scaling-stroke" />
</g>
<g id="group-0073839b-4993-46ba-9327-122ac57c00a0">
<path d="M672.519,1485.769v-16.175h-12.504v-16.175  c-6.055,0-131.18,0-137.486,0v16.175h11.504v16.175h-11.504v16.175h11.504v16.175h-11.504v16.175h11.504v16.175h-11.504v16.175  h11.504v16.175h-11.504v16.175h11.504v16.175h-11.504v16.175h11.504v16.175h8.673v8.504h8.504v-8.504h92.628v8.504h8.504v-8.504  c23.755,0-5.503,0,20.177,0v-16.175h-12.504v-16.175h12.504v-16.175h-12.504v-16.175h12.504v-16.175h-12.504v-16.175h12.504v-16.175  h-12.504v-16.175h12.504v-16.175h-12.504v-16.175H672.519z M568.994,1630.996h-22.531v-37.263h22.531V1630.996z M568.994,1589.733  h-22.531v-37.263h22.531V1589.733z M568.994,1548.47h-22.531v-37.263h22.531V1548.47z M568.994,1507.208h-22.531v-37.263h22.531  V1507.208z M595.525,1630.996h-22.53v-37.263h22.53V1630.996z M595.525,1589.733h-22.53v-37.263h22.53V1589.733z M595.525,1548.47  h-22.53v-37.263h22.53V1548.47z M595.525,1507.208h-22.53v-37.263h22.53V1507.208z M622.055,1630.996h-22.53v-37.263h22.53V1630.996  z M622.055,1589.733h-22.53v-37.263h22.53V1589.733z M622.055,1548.47h-22.53v-37.263h22.53V1548.47z M622.055,1507.208h-22.53  v-37.263h22.53V1507.208z M648.585,1630.996h-22.53v-37.263h22.53V1630.996z M648.585,1589.733h-22.53v-37.263h22.53V1589.733z   M648.585,1548.47h-22.53v-37.263h22.53V1548.47z M648.585,1507.208h-22.53v-37.263h22.53V1507.208z" transform="translate(124.8688874206549, -307.85964816475536) scale(0.35277790783847407, 0.35277790783847407) rotate(0)" stroke="#9926ff" stroke-width="1" fill="none" vector-effect="non-scaling-stroke" />
</g>
<g id="group-g-2cd0b704-6141-49fb-81de-04417ef558cb">
<path d="M134.0646178203164,52.92709893966155Q73.53180939222054,55.63819716140037 73.53180939222054,55.63819716140037C73.5931927481844,54.58198010533199 73.57731774233173,53.94768542703841 73.15398425292554,53.50600748642458C72.08541997008277,52.39017096393151 68.94534381241255,53.03081564456615 68.39148249710615,54.54246897965409C67.90112120521067,55.880908361993306 69.78389689934465,57.9309007844426 70.85351951591093,58.97089005675048C70.85351951591093,58.97089005675048 70.85351951591096,77.35203016676627 70.85351951591096,77.35203016676627C69.7828385656212,78.39272499488985 67.90112120521076,80.44236463943136 68.39148249710624,81.78045124386273C68.94534381241263,83.29210457895061 72.08541997008285,83.93239648167739 73.15398425292562,82.81691273709217C73.57696496442392,82.37523479647842 73.59319274818449,81.74094011818485 73.53180939222062,80.68507584002433Q73.53180939222062,80.68507584002433 134.06461782031644,83.39582128385496L134.0646178203164,52.92709893966155ZM131.2423945576087,80.4437757510625L73.67574277861871,77.86567480057906L73.67574277861868,58.45689264502974L131.2423945576086,55.87843891663822L131.2423945576087,80.4437757510625L131.2423945576087,80.4437757510625Z" transform="translate(298.19718224682, 145.1218339575755) scale(0.9999999999999987, 0.9999999999999987) rotate(179.99999999999986)" stroke="#fa9228" stroke-width="1" fill="#f9932b" vector-effect="non-scaling-stroke" />
<path d="M1161.967,616.918l7.685,171.589  c-2.994-0.174-4.792-0.129-6.044,1.071c-3.163,3.029-1.347,11.93,2.938,13.5c3.794,1.39,9.605-3.947,12.553-6.979h52.104  c2.95,3.035,8.76,8.369,12.553,6.979c4.285-1.57,6.1-10.471,2.938-13.5c-1.252-1.199-3.05-1.245-6.043-1.071l7.684-171.589H1161.967  z M1239.967,624.918l-7.308,163.181h-55.017l-7.309-163.181L1239.967,624.918L1239.967,624.918z" transform="translate(-53.50246802826554, 502.10432078705475) scale(0.35277790783847396, 0.35277790783847396) rotate(-90.00000000000036)" stroke="#9926ff" stroke-width="1" fill="none" vector-effect="non-scaling-stroke" />
</g>
  </svg>