<svg version="1.1" xmlns="http://www.w3.org/2000/svg" xmlns:xlink="http://www.w3.org/1999/xlink" width="300" height="150" viewBox="0,0,300,150"><defs><clipPath id="clip-1"><rect x="0" y="0" width="300" height="150" fill="none" stroke="none"/></clipPath><clipPath id="clip-2"><rect x="0" y="0" transform="scale(0.26458,0.26458)" width="1330.98226" height="751.70521" id="clip-1" fill="none" stroke="none"/></clipPath></defs><g fill="none" fill-rule="nonzero" stroke="none" stroke-width="1" stroke-linecap="butt" stroke-linejoin="miter" stroke-miterlimit="10" stroke-dasharray="" stroke-dashoffset="0" font-family="none" font-weight="none" font-size="none" text-anchor="none" style="mix-blend-mode: normal"><g clip-path="url(#clip-1)"><g><g clip-path="url(#clip-2)"><rect x="0" y="0" transform="scale(0.26458,0.26458)" width="352.15572" height="198.88867" fill="none" stroke="none"/><g id="group_g-7b346374-6597-4465-ab3e-927569b4ede5"><path d="M18.16788,9.58784h0.1551l0.21183,-0.36692zM18.60375,9.10148l0.16886,-0.29244l-0.83947,-0.83947l0.45858,-0.45866l0.71662,0.71662l0.1688,-0.29239l-0.1869,-0.1869l0.69763,-0.69771l0.67884,-1.17578l-0.21937,-0.21934l0.45858,-0.45868l0.09652,0.09652l0.51139,-0.88575l-1.06648,-1.0664l0.45868,-0.45855l0.9435,0.94353l0.16886,-0.29247l-0.41381,-0.41391l0.47387,-0.47387h-1.39705l-0.63302,0.63291h0.29787v0.79378h-0.56459l0.20447,0.20447l-0.45866,0.45844l-1.39433,-1.39433l0.45858,-0.45855l0.96078,0.96081v-0.46135l-0.2622,-0.26233l0.47376,-0.47384h-1.39684l-0.93255,0.93252l-0.45855,-0.45868l0.47397,-0.47384h-1.39705l-0.46474,0.46461l-0.46781,0.46794l-0.45855,-0.45868l0.47387,-0.47387h-1.39705l-0.93266,0.93252l-0.45844,-0.45868l0.47376,-0.47384h-1.39684l-0.93255,0.93252l-0.45855,-0.45868l0.47397,-0.47384h-1.39705l-0.46474,0.46461l-0.46781,0.46794l-0.45855,-0.45868l0.47384,-0.47387h-1.39703l-0.93266,0.93252l-0.03918,-0.03921v0.46127l0.27657,0.27657l-0.45868,0.45844l-1.3943,-1.39433l0.45858,-0.45855l0.39619,0.39619h0.46138l-0.15899,-0.15907l0.47374,-0.47384h-1.39681l-0.93255,0.93252l-0.39095,-0.39105l0.79761,1.3815l0.52914,-0.52914l0.45844,0.45855l-0.65191,0.65201l0.16883,0.29242l0.24588,-0.24593l1.39441,1.39443l-0.45868,0.45844l-0.60047,-0.60045l0.60846,1.05389l1.14911,-1.14922l0.45868,0.45855l-1.27212,1.27212l0.51136,0.88567l0.30213,-0.3021l0.45858,0.45868l-0.42495,0.42495l0.02085,0.03617h1.34001l0.45186,-0.45186l0.46805,-0.46794l0.45844,0.45868l-0.46109,0.46112h1.39705l0.91977,-0.9198l0.45847,0.45868l-0.46112,0.46112h1.39684l0.91988,-0.9198l0.45858,0.45868l-0.46112,0.46112h1.39705l0.45183,-0.45186l0.46805,-0.46794l0.45844,0.45868l-0.46109,0.46112h1.39705l0.9198,-0.9198zM2.90896,3.10158l0.45585,-0.45574h-0.71898zM15.61883,7.96957l1.39454,1.39433l0.45844,-0.45858l-1.3943,-1.39441zM13.30471,7.96957l1.39443,1.39433l0.45868,-0.45858l-1.39454,-1.39441zM10.9905,7.96957l1.39433,1.39433l0.45866,-0.45858l-1.39441,-1.39441zM8.67619,7.96957l1.39454,1.39433l0.45844,-0.45858l-1.3943,-1.39441zM6.36206,7.96957l1.39443,1.39433l0.45868,-0.45858l-1.39454,-1.39441zM14.46194,7.74819l0.45855,0.45868l0.46781,-0.46805v-0.88818h0.00003v0.88813l0.92649,-0.92636l-0.45051,-0.45061v-0.30491h-0.79375v0.44704l-1.30728,-1.3072l-0.45858,0.45868l1.39443,1.3942l0.37142,-0.37124v0.17227h0.28879zM7.5193,7.74819l0.45855,0.45868l0.46781,-0.46805v-0.91713zM16.77614,7.74824l0.45855,0.45855l1.39433,-1.39443l-0.45858,-0.45855zM12.1476,7.74824l0.45855,0.45855l1.39443,-1.39443l-0.45868,-0.45855zM9.8335,7.74824l0.45855,0.45855l1.3943,-1.39443l-0.45855,-0.45855zM8.44569,6.82167v0.9171l0.88823,-0.88813h0.53779l0.19897,0.19894l0.45844,-0.45844l-1.3942,-1.39443l-0.45879,0.45868l0.43632,0.43619v0.46104l-0.19883,-0.19889zM6.36206,5.65542l1.39443,1.3942l0.45868,-0.45844l-1.39454,-1.39443zM17.93314,5.65539l1.39433,1.3942l0.45866,-0.45844l-1.39441,-1.39443zM15.61878,5.65539l1.39454,1.3942l0.45844,-0.45844l-1.3942,-1.39443zM10.9905,5.65539l1.39433,1.3942l0.45866,-0.45844l-1.39441,-1.39443zM19.09016,5.43407l0.45868,0.45858l1.3943,-1.39443l-0.45855,-0.45855zM16.77606,5.43407l0.45868,0.45858l1.39417,-1.39443l-0.45844,-0.45855zM12.14752,5.43407l0.45868,0.45858l1.3943,-1.39443l-0.45858,-0.45855zM9.83342,5.43407l0.45866,0.45858l1.3942,-1.39443l-0.45844,-0.45855zM5.20488,5.43407l0.45866,0.45858l1.39433,-1.39443l-0.45858,-0.45855zM14.46194,5.43401l0.45855,0.45858l0.46781,-0.46794v-0.91713zM7.5193,5.43401l0.45855,0.45858l0.46781,-0.46794v-0.91713zM15.38833,4.50747v0.91713l0.92649,-0.92639l-0.45051,-0.45051v-0.37206h-0.79375v0.51411l-1.30717,-1.3072l-0.45868,0.45855l1.39443,1.39433l0.37142,-0.37126v0.10522h0.35586zM8.44569,4.50747v0.91713l0.92649,-0.92639l-0.02881,-0.02881h0.46127l0.26609,0.26604l0.45844,-0.45844l-1.3943,-1.39443l-0.45868,0.45855l0.43627,0.43619v0.4612l-0.19883,-0.19883zM15.61883,3.34111l1.39454,1.39433l0.45844,-0.45844l-1.3943,-1.39443zM10.9905,3.34111l1.39433,1.39433l0.45866,-0.45844l-1.39441,-1.39443zM6.36206,3.34111l1.39441,1.39433l0.45868,-0.45844l-1.39441,-1.39443z" fill="#f9932b" stroke="#fa9228"/><path d="M59.96382,88.53357h11.66926l4.00798,-6.94201h-19.68513zM72.66252,82.2245h0.79376v0.79376h-0.79376zM68.38059,82.62138h0.79376v0.79376h-0.79376zM68.38059,85.00265h0.79376v0.79376h-0.79376zM62.42247,82.62138h0.79376v0.79376h-0.79376zM62.42247,85.00265h0.79376v0.79376h-0.79376zM58.93429,82.2245v0.79376h-0.79376v-0.79376z" fill="none" stroke="#9926ff"/></g><g id="group_g-7b21a838-a58e-452c-81bf-78e53da338c4"><path d="M93.27978,9.58784h0.1551l0.21183,-0.36692zM93.71566,9.10148l0.16886,-0.29244l-0.83947,-0.83947l0.45858,-0.45866l0.71662,0.71662l0.1688,-0.29239l-0.1869,-0.1869l0.69763,-0.69771l0.67884,-1.17578l-0.21937,-0.21934l0.45858,-0.45868l0.09652,0.09652l0.51139,-0.88575l-1.06648,-1.0664l0.45868,-0.45855l0.9435,0.94353l0.16886,-0.29247l-0.41381,-0.41391l0.47387,-0.47387h-1.39705l-0.63302,0.63291h0.29787v0.79378h-0.56459l0.20447,0.20447l-0.45866,0.45844l-1.39433,-1.39433l0.45858,-0.45855l0.96078,0.96081v-0.46135l-0.2622,-0.26233l0.47376,-0.47384h-1.39684l-0.93255,0.93252l-0.45855,-0.45868l0.47397,-0.47384h-1.39705l-0.46474,0.46461l-0.46781,0.46794l-0.45855,-0.45868l0.47387,-0.47387h-1.39705l-0.93266,0.93252l-0.45844,-0.45868l0.47376,-0.47384h-1.39684l-0.93255,0.93252l-0.45855,-0.45868l0.47397,-0.47384h-1.39705l-0.46474,0.46461l-0.46781,0.46794l-0.45855,-0.45868l0.47384,-0.47387h-1.39703l-0.93266,0.93252l-0.03918,-0.03921v0.46127l0.27657,0.27657l-0.45868,0.45844l-1.3943,-1.39433l0.45858,-0.45855l0.39619,0.39619h0.46138l-0.15899,-0.15907l0.47374,-0.47384h-1.39681l-0.93255,0.93252l-0.39095,-0.39105l0.79761,1.3815l0.52914,-0.52914l0.45844,0.45855l-0.65191,0.65201l0.16883,0.29242l0.24588,-0.24593l1.39441,1.39443l-0.45868,0.45844l-0.60047,-0.60045l0.60846,1.05389l1.14911,-1.14922l0.45868,0.45855l-1.27212,1.27212l0.51136,0.88567l0.30213,-0.3021l0.45858,0.45868l-0.42495,0.42495l0.02085,0.03617h1.34001l0.45186,-0.45186l0.46805,-0.46794l0.45844,0.45868l-0.46109,0.46112h1.39705l0.91977,-0.9198l0.45847,0.45868l-0.46112,0.46112h1.39684l0.91988,-0.9198l0.45858,0.45868l-0.46112,0.46112h1.39705l0.45183,-0.45186l0.46805,-0.46794l0.45844,0.45868l-0.46109,0.46112h1.39705l0.9198,-0.9198zM78.02086,3.10158l0.45585,-0.45574h-0.71898zM90.73073,7.96957l1.39454,1.39433l0.45844,-0.45858l-1.3943,-1.39441zM88.41661,7.96957l1.39443,1.39433l0.45868,-0.45858l-1.39454,-1.39441zM86.1024,7.96957l1.39433,1.39433l0.45866,-0.45858l-1.39441,-1.39441zM83.78809,7.96957l1.39454,1.39433l0.45844,-0.45858l-1.3943,-1.39441zM81.47397,7.96957l1.39443,1.39433l0.45868,-0.45858l-1.39454,-1.39441zM89.57384,7.74819l0.45855,0.45868l0.46781,-0.46805v-0.88818h0.00003v0.88813l0.92649,-0.92636l-0.45051,-0.45061v-0.30491h-0.79375v0.44704l-1.30728,-1.3072l-0.45858,0.45868l1.39443,1.3942l0.37142,-0.37124v0.17227h0.28879zM82.6312,7.74819l0.45855,0.45868l0.46781,-0.46805v-0.91713zM91.88805,7.74824l0.45855,0.45855l1.39433,-1.39443l-0.45858,-0.45855zM87.2595,7.74824l0.45855,0.45855l1.39443,-1.39443l-0.45868,-0.45855zM84.94541,7.74824l0.45855,0.45855l1.3943,-1.39443l-0.45855,-0.45855zM83.55759,6.82167v0.9171l0.88823,-0.88813h0.53779l0.19897,0.19894l0.45844,-0.45844l-1.3942,-1.39443l-0.45879,0.45868l0.43632,0.43619v0.46104l-0.19883,-0.19889zM81.47397,5.65542l1.39443,1.3942l0.45868,-0.45844l-1.39454,-1.39443zM93.04504,5.65539l1.39433,1.3942l0.45866,-0.45844l-1.39441,-1.39443zM90.73068,5.65539l1.39454,1.3942l0.45844,-0.45844l-1.3942,-1.39443zM86.1024,5.65539l1.39433,1.3942l0.45866,-0.45844l-1.39441,-1.39443zM94.20207,5.43407l0.45868,0.45858l1.3943,-1.39443l-0.45855,-0.45855zM91.88797,5.43407l0.45868,0.45858l1.39417,-1.39443l-0.45844,-0.45855zM87.25943,5.43407l0.45868,0.45858l1.3943,-1.39443l-0.45858,-0.45855zM84.94533,5.43407l0.45866,0.45858l1.3942,-1.39443l-0.45844,-0.45855zM80.31679,5.43407l0.45866,0.45858l1.39433,-1.39443l-0.45858,-0.45855zM89.57384,5.43401l0.45855,0.45858l0.46781,-0.46794v-0.91713zM82.6312,5.43401l0.45855,0.45858l0.46781,-0.46794v-0.91713zM90.50023,4.50747v0.91713l0.92649,-0.92639l-0.45051,-0.45051v-0.37206h-0.79375v0.51411l-1.30717,-1.3072l-0.45868,0.45855l1.39443,1.39433l0.37142,-0.37126v0.10522h0.35586zM83.55759,4.50747v0.91713l0.92649,-0.92639l-0.02881,-0.02881h0.46127l0.26609,0.26604l0.45844,-0.45844l-1.3943,-1.39443l-0.45868,0.45855l0.43627,0.43619v0.4612l-0.19883,-0.19883zM90.73073,3.34111l1.39454,1.39433l0.45844,-0.45844l-1.3943,-1.39443zM86.1024,3.34111l1.39433,1.39433l0.45866,-0.45844l-1.39441,-1.39443zM81.47397,3.34111l1.39441,1.39433l0.45868,-0.45844l-1.39441,-1.39443z" fill="#f9932b" stroke="#fa9228"/><path d="M135.07573,88.53357h11.66926l4.00798,-6.94201h-19.68513zM147.77442,82.2245h0.79376v0.79376h-0.79376zM143.49249,82.62138h0.79376v0.79376h-0.79376zM143.49249,85.00265h0.79376v0.79376h-0.79376zM137.53437,82.62138h0.79376v0.79376h-0.79376zM137.53437,85.00265h0.79376v0.79376h-0.79376zM134.0462,82.2245v0.79376h-0.79376v-0.79376z" fill="none" stroke="#9926ff"/></g><g fill="#f9932b" stroke="#fa9228"><path d="M78.79451,57.32816l0.20549,-0.53446h0.07614l0.21872,0.53446h-0.08055l-0.06232,-0.16198h-0.22372l-0.0585,0.16198zM78.94885,57.10856h0.18109l-0.05556,-0.14787c-0.01705,-0.04508 -0.02969,-0.08202 -0.03792,-0.11083c-0.00686,0.0343 -0.01646,0.0683 -0.02881,0.10201z"/><path d="M79.39016,57.32816v-0.53446h0.06585v0.53446z"/><path d="M79.6666,57.28142l0.00941,0.05821c-0.01842,0.00372 -0.03498,0.00559 -0.04968,0.00559c-0.02371,0 -0.04214,-0.00372 -0.05527,-0.01117c-0.01313,-0.00764 -0.02234,-0.01754 -0.02763,-0.02969c-0.00549,-0.01235 -0.00823,-0.03822 -0.00823,-0.07761v-0.22254h-0.04792v-0.05115h0.04792v-0.09584l0.06526,-0.03939v0.13523h0.06615v0.05115h-0.06615v0.22637c0,0.01862 0.00118,0.03057 0.00353,0.03587c0.00235,0.00549 0.00617,0.0098 0.01147,0.01294c0.0051,0.00314 0.01254,0.0047 0.02234,0.0047c0.00725,0 0.01685,-0.00088 0.02881,-0.00265z"/><path d="M80.00988,57.34198l0.06791,0.00823c-0.01078,0.03979 -0.03057,0.07056 -0.05938,0.09231c-0.02901,0.02195 -0.06595,0.03293 -0.11083,0.03293c-0.05664,0 -0.10162,-0.01744 -0.13494,-0.05233c-0.03312,-0.03489 -0.04968,-0.08378 -0.04968,-0.1467c0,-0.06526 0.01676,-0.11583 0.05027,-0.15169c0.03351,-0.03606 0.07702,-0.05409 0.13053,-0.05409c0.05174,0 0.09407,0.01764 0.127,0.05292c0.03273,0.03528 0.04909,0.08486 0.04909,0.14875c0,0.00392 -0.0001,0.0097 -0.00029,0.01734h-0.28869c0.00235,0.04273 0.01431,0.07536 0.03587,0.0979c0.02175,0.02254 0.0488,0.03381 0.08114,0.03381c0.02411,0 0.04459,-0.00627 0.06144,-0.01881c0.01705,-0.01274 0.03057,-0.03293 0.04057,-0.06056zM79.79439,57.23585h0.21637c-0.00294,-0.03253 -0.01127,-0.05693 -0.02499,-0.0732c-0.02077,-0.02528 -0.04782,-0.03792 -0.08114,-0.03792c-0.03018,0 -0.05556,0.01009 -0.07614,0.03028c-0.02058,0.02019 -0.03195,0.04714 -0.0341,0.08084z"/><path d="M80.18057,57.46663v-0.38717h0.05909v0.0588c0.01509,-0.02763 0.02901,-0.04576 0.04175,-0.05439c0.01274,-0.00882 0.02675,-0.01323 0.04204,-0.01323c0.02215,0 0.04469,0.00706 0.06762,0.02117l-0.02264,0.06085c-0.01607,-0.00941 -0.03214,-0.01411 -0.04821,-0.01411c-0.01431,0 -0.02724,0.00431 -0.03881,0.01294c-0.01137,0.00862 -0.0195,0.02058 -0.0244,0.03587c-0.00725,0.02332 -0.01088,0.0488 -0.01088,0.07644v0.20285z"/><path d="M80.43041,57.46663v-0.38717h0.05909v0.05497c0.02842,-0.04253 0.06958,-0.06379 0.12347,-0.06379c0.02332,0 0.04469,0.00421 0.06409,0.01264c0.0196,0.00843 0.0343,0.0194 0.0441,0.03293c0.0098,0.01372 0.01656,0.02989 0.02028,0.04851c0.00255,0.01215 0.00382,0.03342 0.00382,0.06379v0.23812h-0.06556v-0.23548c0,-0.02685 -0.00265,-0.04684 -0.00794,-0.05997c-0.0051,-0.01333 -0.01411,-0.02391 -0.02705,-0.03175c-0.01294,-0.00784 -0.02822,-0.01176 -0.04586,-0.01176c-0.02783,0 -0.05194,0.00882 -0.07232,0.02646c-0.02019,0.01783 -0.03028,0.05154 -0.03028,0.10113v0.21137z"/><path d="M81.07647,57.41901c-0.0243,0.02058 -0.04772,0.03508 -0.07026,0.04351c-0.02254,0.00862 -0.04665,0.01294 -0.07232,0.01294c-0.04253,0 -0.07526,-0.01039 -0.09819,-0.03116c-0.02273,-0.02077 -0.0341,-0.04733 -0.0341,-0.07967c0,-0.01901 0.00431,-0.03636 0.01294,-0.05203c0.00862,-0.01568 0.01989,-0.02822 0.03381,-0.03763c0.01392,-0.0096 0.02969,-0.01685 0.04733,-0.02175c0.01274,-0.00333 0.03214,-0.00657 0.05821,-0.0097c0.05311,-0.00627 0.09211,-0.01382 0.117,-0.02264c0.00039,-0.00902 0.00059,-0.0147 0.00059,-0.01705c0,-0.02685 -0.00627,-0.04567 -0.01881,-0.05644c-0.01666,-0.0149 -0.04155,-0.02234 -0.07467,-0.02234c-0.03077,0 -0.0535,0.00539 -0.0682,0.01617c-0.0149,0.01078 -0.02577,0.02989 -0.03263,0.05733l-0.06438,-0.00853c0.00588,-0.02744 0.01548,-0.04968 0.02881,-0.06673c0.01333,-0.01685 0.03263,-0.02979 0.05791,-0.03881c0.02528,-0.00921 0.05458,-0.01382 0.0879,-0.01382c0.03312,0 0.05997,0.00392 0.08055,0.01176c0.02077,0.00764 0.03596,0.01744 0.04557,0.0294c0.0098,0.01176 0.01666,0.02665 0.02058,0.04469c0.00216,0.01117 0.00323,0.03126 0.00323,0.06027v0.08761c0,0.06095 0.00137,0.09956 0.00412,0.11583c0.00294,0.01607 0.00853,0.03155 0.01676,0.04645h-0.0685c-0.00686,-0.01352 -0.01127,-0.0294 -0.01323,-0.04762zM81.07088,57.27231c-0.02371,0.0098 -0.05938,0.01803 -0.10701,0.02469c-0.02705,0.00392 -0.04616,0.00833 -0.05733,0.01323c-0.01117,0.0049 -0.01979,0.01196 -0.02587,0.02117c-0.00608,0.00941 -0.00911,0.01989 -0.00911,0.03146c0,0.01744 0.00657,0.03195 0.0197,0.04351c0.01333,0.01176 0.03273,0.01764 0.05821,0.01764c0.02528,0 0.04782,-0.00559 0.06762,-0.01676c0.0196,-0.01098 0.034,-0.02607 0.04322,-0.04527c0.00706,-0.0149 0.01058,-0.03675 0.01058,-0.06556z"/><path d="M81.36858,57.28142l0.00941,0.05821c-0.01842,0.00372 -0.03498,0.00559 -0.04968,0.00559c-0.02371,0 -0.04214,-0.00372 -0.05527,-0.01117c-0.01313,-0.00764 -0.02234,-0.01754 -0.02763,-0.02969c-0.00549,-0.01235 -0.00823,-0.03822 -0.00823,-0.07761v-0.22254h-0.04792v-0.05115h0.04792v-0.09584l0.06526,-0.03939v0.13523h0.06615v0.05115h-0.06615v0.22637c0,0.01862 0.00118,0.03057 0.00353,0.03587c0.00235,0.00549 0.00617,0.0098 0.01147,0.01294c0.0051,0.00314 0.01254,0.0047 0.02234,0.0047c0.00725,0 0.01685,-0.00088 0.02881,-0.00265z"/><path d="M81.71186,57.34198l0.06791,0.00823c-0.01078,0.03979 -0.03057,0.07056 -0.05938,0.09231c-0.02901,0.02195 -0.06595,0.03293 -0.11083,0.03293c-0.05664,0 -0.10162,-0.01744 -0.13494,-0.05233c-0.03312,-0.03489 -0.04968,-0.08378 -0.04968,-0.1467c0,-0.06526 0.01676,-0.11583 0.05027,-0.15169c0.03351,-0.03606 0.07702,-0.05409 0.13053,-0.05409c0.05174,0 0.09407,0.01764 0.127,0.05292c0.03273,0.03528 0.04909,0.08486 0.04909,0.14875c0,0.00392 -0.0001,0.0097 -0.00029,0.01734h-0.28869c0.00235,0.04273 0.01431,0.07536 0.03587,0.0979c0.02175,0.02254 0.0488,0.03381 0.08114,0.03381c0.02411,0 0.04459,-0.00627 0.06144,-0.01881c0.01705,-0.01274 0.03057,-0.03293 0.04057,-0.06056zM81.49637,57.23585h0.21637c-0.00294,-0.03253 -0.01127,-0.05693 -0.02499,-0.0732c-0.02077,-0.02528 -0.04782,-0.03792 -0.08114,-0.03792c-0.03018,0 -0.05556,0.01009 -0.07614,0.03028c-0.02058,0.02019 -0.03195,0.04714 -0.0341,0.08084z"/><path d="M82.02784,57.61509v-0.53563h0.05997v0.05027c0.01411,-0.0196 0.02999,-0.0344 0.04762,-0.04439c0.01783,-0.0098 0.03939,-0.0147 0.06468,-0.0147c0.03293,0 0.06203,0.00853 0.08731,0.02558c0.02528,0.01705 0.04439,0.04106 0.05733,0.07203c0.01294,0.03097 0.0194,0.06497 0.0194,0.10201c0,0.03959 -0.00715,0.07526 -0.02146,0.10701c-0.01411,0.03155 -0.03469,0.05586 -0.06174,0.07291c-0.02724,0.01685 -0.05576,0.02528 -0.08555,0.02528c-0.02195,0 -0.04165,-0.00461 -0.05909,-0.01382c-0.01725,-0.00921 -0.03146,-0.02087 -0.04263,-0.03498v0.18844zM82.08752,57.27525c0,0.04978 0.01009,0.08663 0.03028,0.11054c0.01999,0.02371 0.04439,0.03557 0.0732,0.03557c0.0292,0 0.05419,-0.01235 0.07497,-0.03704c0.02077,-0.02469 0.03116,-0.06291 0.03116,-0.11465c0,-0.04919 -0.01019,-0.08614 -0.03057,-0.11083c-0.02019,-0.0245 -0.04439,-0.03675 -0.07261,-0.03675c-0.02803,0 -0.05282,0.01303 -0.07438,0.0391c-0.02136,0.02626 -0.03204,0.06428 -0.03204,0.11406z"/><path d="M82.6739,57.41901c-0.0243,0.02058 -0.04772,0.03508 -0.07026,0.04351c-0.02254,0.00862 -0.04665,0.01294 -0.07232,0.01294c-0.04253,0 -0.07526,-0.01039 -0.09819,-0.03116c-0.02273,-0.02077 -0.0341,-0.04733 -0.0341,-0.07967c0,-0.01901 0.00431,-0.03636 0.01294,-0.05203c0.00862,-0.01568 0.01989,-0.02822 0.03381,-0.03763c0.01392,-0.0096 0.02969,-0.01685 0.04733,-0.02175c0.01274,-0.00333 0.03214,-0.00657 0.05821,-0.0097c0.05311,-0.00627 0.09211,-0.01382 0.117,-0.02264c0.00039,-0.00902 0.00059,-0.0147 0.00059,-0.01705c0,-0.02685 -0.00627,-0.04567 -0.01881,-0.05644c-0.01666,-0.0149 -0.04155,-0.02234 -0.07467,-0.02234c-0.03077,0 -0.0535,0.00539 -0.0682,0.01617c-0.0149,0.01078 -0.02577,0.02989 -0.03263,0.05733l-0.06438,-0.00853c0.00588,-0.02744 0.01548,-0.04968 0.02881,-0.06673c0.01333,-0.01685 0.03263,-0.02979 0.05791,-0.03881c0.02528,-0.00921 0.05458,-0.01382 0.0879,-0.01382c0.03312,0 0.05997,0.00392 0.08055,0.01176c0.02077,0.00764 0.03596,0.01744 0.04557,0.0294c0.0098,0.01176 0.01666,0.02665 0.02058,0.04469c0.00216,0.01117 0.00323,0.03126 0.00323,0.06027v0.08761c0,0.06095 0.00137,0.09956 0.00412,0.11583c0.00294,0.01607 0.00853,0.03155 0.01676,0.04645h-0.0685c-0.00686,-0.01352 -0.01127,-0.0294 -0.01323,-0.04762zM82.66832,57.27231c-0.02371,0.0098 -0.05938,0.01803 -0.10701,0.02469c-0.02705,0.00392 -0.04616,0.00833 -0.05733,0.01323c-0.01117,0.0049 -0.01979,0.01196 -0.02587,0.02117c-0.00608,0.00941 -0.00911,0.01989 -0.00911,0.03146c0,0.01744 0.00657,0.03195 0.0197,0.04351c0.01333,0.01176 0.03273,0.01764 0.05821,0.01764c0.02528,0 0.04782,-0.00559 0.06762,-0.01676c0.0196,-0.01098 0.034,-0.02607 0.04322,-0.04527c0.00706,-0.0149 0.01058,-0.03675 0.01058,-0.06556z"/><path d="M82.96601,57.28142l0.00941,0.05821c-0.01842,0.00372 -0.03498,0.00559 -0.04968,0.00559c-0.02371,0 -0.04214,-0.00372 -0.05527,-0.01117c-0.01313,-0.00764 -0.02234,-0.01754 -0.02763,-0.02969c-0.00549,-0.01235 -0.00823,-0.03822 -0.00823,-0.07761v-0.22254h-0.04792v-0.05115h0.04792v-0.09584l0.06526,-0.03939v0.13523h0.06615v0.05115h-0.06615v0.22637c0,0.01862 0.00118,0.03057 0.00353,0.03587c0.00235,0.00549 0.00617,0.0098 0.01147,0.01294c0.0051,0.00314 0.01254,0.0047 0.02234,0.0047c0.00725,0 0.01685,-0.00088 0.02881,-0.00265z"/><path d="M83.17347,57.28142l0.00941,0.05821c-0.01842,0.00372 -0.03498,0.00559 -0.04968,0.00559c-0.02371,0 -0.04214,-0.00372 -0.05527,-0.01117c-0.01313,-0.00764 -0.02234,-0.01754 -0.02763,-0.02969c-0.00549,-0.01235 -0.00823,-0.03822 -0.00823,-0.07761v-0.22254h-0.04792v-0.05115h0.04792v-0.09584l0.06526,-0.03939v0.13523h0.06615v0.05115h-0.06615v0.22637c0,0.01862 0.00118,0.03057 0.00353,0.03587c0.00235,0.00549 0.00617,0.0098 0.01147,0.01294c0.0051,0.00314 0.01254,0.0047 0.02234,0.0047c0.00725,0 0.01685,-0.00088 0.02881,-0.00265z"/><path d="M83.51675,57.34198l0.06791,0.00823c-0.01078,0.03979 -0.03057,0.07056 -0.05938,0.09231c-0.02901,0.02195 -0.06595,0.03293 -0.11083,0.03293c-0.05664,0 -0.10162,-0.01744 -0.13494,-0.05233c-0.03312,-0.03489 -0.04968,-0.08378 -0.04968,-0.1467c0,-0.06526 0.01676,-0.11583 0.05027,-0.15169c0.03351,-0.03606 0.07702,-0.05409 0.13053,-0.05409c0.05174,0 0.09407,0.01764 0.127,0.05292c0.03273,0.03528 0.04909,0.08486 0.04909,0.14875c0,0.00392 -0.0001,0.0097 -0.00029,0.01734h-0.28869c0.00235,0.04273 0.01431,0.07536 0.03587,0.0979c0.02175,0.02254 0.0488,0.03381 0.08114,0.03381c0.02411,0 0.04459,-0.00627 0.06144,-0.01881c0.01705,-0.01274 0.03057,-0.03293 0.04057,-0.06056zM83.30126,57.23585h0.21637c-0.00294,-0.03253 -0.01127,-0.05693 -0.02499,-0.0732c-0.02077,-0.02528 -0.04782,-0.03792 -0.08114,-0.03792c-0.03018,0 -0.05556,0.01009 -0.07614,0.03028c-0.02058,0.02019 -0.03195,0.04714 -0.0341,0.08084z"/><path d="M83.68745,57.46663v-0.38717h0.05909v0.0588c0.01509,-0.02763 0.02901,-0.04576 0.04175,-0.05439c0.01274,-0.00882 0.02675,-0.01323 0.04204,-0.01323c0.02215,0 0.04469,0.00706 0.06762,0.02117l-0.02264,0.06085c-0.01607,-0.00941 -0.03214,-0.01411 -0.04821,-0.01411c-0.01431,0 -0.02724,0.00431 -0.03881,0.01294c-0.01137,0.00862 -0.0195,0.02058 -0.0244,0.03587c-0.00725,0.02332 -0.01088,0.0488 -0.01088,0.07644v0.20285z"/><path d="M83.93728,57.46663v-0.38717h0.05909v0.05497c0.02842,-0.04253 0.06958,-0.06379 0.12347,-0.06379c0.02332,0 0.04469,0.00421 0.06409,0.01264c0.0196,0.00843 0.0343,0.0194 0.0441,0.03293c0.0098,0.01372 0.01656,0.02989 0.02028,0.04851c0.00255,0.01215 0.00382,0.03342 0.00382,0.06379v0.23812h-0.06556v-0.23548c0,-0.02685 -0.00265,-0.04684 -0.00794,-0.05997c-0.0051,-0.01333 -0.01411,-0.02391 -0.02705,-0.03175c-0.01294,-0.00784 -0.02822,-0.01176 -0.04586,-0.01176c-0.02783,0 -0.05194,0.00882 -0.07232,0.02646c-0.02019,0.01783 -0.03028,0.05154 -0.03028,0.10113v0.21137z"/></g><path d="M209.82048,43.59085l-8.49554,-14.71473c-0.71414,-1.23693 -2.03386,-1.99886 -3.46214,-1.99886h-16.99109c-1.42828,0 -2.748,0.76193 -3.46214,1.99886l-8.49554,14.71473c-0.71414,1.23693 -0.71414,2.76079 0,3.99772l8.49554,14.71473c0.71414,1.23684 2.03386,1.99886 3.46214,1.99886h16.99109c1.42828,0 2.748,-0.76193 3.46214,-1.99886l8.49554,-14.71473c0.71414,-1.23693 0.71414,-2.76079 0,-3.99772zM186.00705,33.1559h6.72042v0.79376h-6.72042zM180.27929,36.46272l0.68744,0.39688l-3.36021,5.82007l-0.68744,-0.39688zM180.27929,54.71669l-3.36021,-5.82007l0.68744,-0.39688l3.36021,5.82007zM192.72746,58.0236h-6.72042v-0.79376h6.72042zM189.36725,55.38163c-5.40788,0 -9.79193,-4.38395 -9.79193,-9.79193c0,-5.40798 4.38395,-9.79193 9.79193,-9.79193c5.40798,0 9.79193,4.38395 9.79193,9.79193c0,5.40798 -4.38405,9.79193 -9.79193,9.79193zM198.45522,54.71669l-0.68744,-0.39688l3.36021,-5.82007l0.68744,0.39688zM201.12799,42.67967l-3.36021,-5.82007l0.68744,-0.39688l3.36021,5.82007z" fill="none" stroke="#9926ff"/><g fill="#f9932b" stroke="#fa9228"><path d="M21.95408,57.33728l0.20549,-0.53446h0.07614l0.21872,0.53446h-0.08055l-0.06232,-0.16198h-0.22372l-0.0585,0.16198zM22.10843,57.11767h0.18109l-0.05556,-0.14787c-0.01705,-0.04508 -0.02969,-0.08202 -0.03792,-0.11083c-0.00686,0.0343 -0.01646,0.0683 -0.02881,0.10201z"/><path d="M22.54974,57.33728v-0.53446h0.06585v0.53446z"/><path d="M22.82617,57.29054l0.00941,0.05821c-0.01842,0.00372 -0.03498,0.00559 -0.04968,0.00559c-0.02371,0 -0.04214,-0.00372 -0.05527,-0.01117c-0.01313,-0.00764 -0.02234,-0.01754 -0.02763,-0.02969c-0.00549,-0.01235 -0.00823,-0.03822 -0.00823,-0.07761v-0.22254h-0.04792v-0.05115h0.04792v-0.09584l0.06526,-0.03939v0.13523h0.06615v0.05115h-0.06615v0.22637c0,0.01862 0.00118,0.03057 0.00353,0.03587c0.00235,0.00549 0.00617,0.0098 0.01147,0.01294c0.0051,0.00314 0.01254,0.0047 0.02234,0.0047c0.00725,0 0.01685,-0.00088 0.02881,-0.00265z"/><path d="M23.16945,57.3511l0.06791,0.00823c-0.01078,0.03979 -0.03057,0.07056 -0.05938,0.09231c-0.02901,0.02195 -0.06595,0.03293 -0.11083,0.03293c-0.05664,0 -0.10162,-0.01744 -0.13494,-0.05233c-0.03312,-0.03489 -0.04968,-0.08378 -0.04968,-0.1467c0,-0.06526 0.01676,-0.11583 0.05027,-0.15169c0.03351,-0.03606 0.07702,-0.05409 0.13053,-0.05409c0.05174,0 0.09407,0.01764 0.127,0.05292c0.03273,0.03528 0.04909,0.08486 0.04909,0.14875c0,0.00392 -0.0001,0.0097 -0.00029,0.01734h-0.28869c0.00235,0.04273 0.01431,0.07536 0.03587,0.0979c0.02175,0.02254 0.0488,0.03381 0.08114,0.03381c0.02411,0 0.04459,-0.00627 0.06144,-0.01881c0.01705,-0.01274 0.03057,-0.03293 0.04057,-0.06056zM22.95396,57.24497h0.21637c-0.00294,-0.03253 -0.01127,-0.05693 -0.02499,-0.0732c-0.02077,-0.02528 -0.04782,-0.03792 -0.08114,-0.03792c-0.03018,0 -0.05556,0.01009 -0.07614,0.03028c-0.02058,0.02019 -0.03195,0.04714 -0.0341,0.08084z"/><path d="M23.34014,57.47574v-0.38717h0.05909v0.0588c0.01509,-0.02763 0.02901,-0.04576 0.04175,-0.05439c0.01274,-0.00882 0.02675,-0.01323 0.04204,-0.01323c0.02215,0 0.04469,0.00706 0.06762,0.02117l-0.02264,0.06085c-0.01607,-0.00941 -0.03214,-0.01411 -0.04821,-0.01411c-0.01431,0 -0.02724,0.00431 -0.03881,0.01294c-0.01137,0.00862 -0.0195,0.02058 -0.0244,0.03587c-0.00725,0.02332 -0.01088,0.0488 -0.01088,0.07644v0.20285z"/><path d="M23.58998,57.47574v-0.38717h0.05909v0.05497c0.02842,-0.04253 0.06958,-0.06379 0.12347,-0.06379c0.02332,0 0.04469,0.00421 0.06409,0.01264c0.0196,0.00843 0.0343,0.0194 0.0441,0.03293c0.0098,0.01372 0.01656,0.02989 0.02028,0.04851c0.00255,0.01215 0.00382,0.03342 0.00382,0.06379v0.23812h-0.06556v-0.23548c0,-0.02685 -0.00265,-0.04684 -0.00794,-0.05997c-0.0051,-0.01333 -0.01411,-0.02391 -0.02705,-0.03175c-0.01294,-0.00784 -0.02822,-0.01176 -0.04586,-0.01176c-0.02783,0 -0.05194,0.00882 -0.07232,0.02646c-0.02019,0.01783 -0.03028,0.05154 -0.03028,0.10113v0.21137z"/><path d="M24.23604,57.42812c-0.0243,0.02058 -0.04772,0.03508 -0.07026,0.04351c-0.02254,0.00862 -0.04665,0.01294 -0.07232,0.01294c-0.04253,0 -0.07526,-0.01039 -0.09819,-0.03116c-0.02273,-0.02077 -0.0341,-0.04733 -0.0341,-0.07967c0,-0.01901 0.00431,-0.03636 0.01294,-0.05203c0.00862,-0.01568 0.01989,-0.02822 0.03381,-0.03763c0.01392,-0.0096 0.02969,-0.01685 0.04733,-0.02175c0.01274,-0.00333 0.03214,-0.00657 0.05821,-0.0097c0.05311,-0.00627 0.09211,-0.01382 0.117,-0.02264c0.00039,-0.00902 0.00059,-0.0147 0.00059,-0.01705c0,-0.02685 -0.00627,-0.04567 -0.01881,-0.05644c-0.01666,-0.0149 -0.04155,-0.02234 -0.07467,-0.02234c-0.03077,0 -0.0535,0.00539 -0.0682,0.01617c-0.0149,0.01078 -0.02577,0.02989 -0.03263,0.05733l-0.06438,-0.00853c0.00588,-0.02744 0.01548,-0.04968 0.02881,-0.06673c0.01333,-0.01685 0.03263,-0.02979 0.05791,-0.03881c0.02528,-0.00921 0.05458,-0.01382 0.0879,-0.01382c0.03312,0 0.05997,0.00392 0.08055,0.01176c0.02077,0.00764 0.03596,0.01744 0.04557,0.0294c0.0098,0.01176 0.01666,0.02665 0.02058,0.04469c0.00216,0.01117 0.00323,0.03126 0.00323,0.06027v0.08761c0,0.06095 0.00137,0.09956 0.00412,0.11583c0.00294,0.01607 0.00853,0.03155 0.01676,0.04645h-0.0685c-0.00686,-0.01352 -0.01127,-0.0294 -0.01323,-0.04762zM24.23046,57.28142c-0.02371,0.0098 -0.05938,0.01803 -0.10701,0.02469c-0.02705,0.00392 -0.04616,0.00833 -0.05733,0.01323c-0.01117,0.0049 -0.01979,0.01196 -0.02587,0.02117c-0.00608,0.00941 -0.00911,0.01989 -0.00911,0.03146c0,0.01744 0.00657,0.03195 0.0197,0.04351c0.01333,0.01176 0.03273,0.01764 0.05821,0.01764c0.02528,0 0.04782,-0.00559 0.06762,-0.01676c0.0196,-0.01098 0.034,-0.02607 0.04322,-0.04527c0.00706,-0.0149 0.01058,-0.03675 0.01058,-0.06556z"/><path d="M24.52815,57.29054l0.00941,0.05821c-0.01842,0.00372 -0.03498,0.00559 -0.04968,0.00559c-0.02371,0 -0.04214,-0.00372 -0.05527,-0.01117c-0.01313,-0.00764 -0.02234,-0.01754 -0.02763,-0.02969c-0.00549,-0.01235 -0.00823,-0.03822 -0.00823,-0.07761v-0.22254h-0.04792v-0.05115h0.04792v-0.09584l0.06526,-0.03939v0.13523h0.06615v0.05115h-0.06615v0.22637c0,0.01862 0.00118,0.03057 0.00353,0.03587c0.00235,0.00549 0.00617,0.0098 0.01147,0.01294c0.0051,0.00314 0.01254,0.0047 0.02234,0.0047c0.00725,0 0.01685,-0.00088 0.02881,-0.00265z"/><path d="M24.87143,57.3511l0.06791,0.00823c-0.01078,0.03979 -0.03057,0.07056 -0.05938,0.09231c-0.02901,0.02195 -0.06595,0.03293 -0.11083,0.03293c-0.05664,0 -0.10162,-0.01744 -0.13494,-0.05233c-0.03312,-0.03489 -0.04968,-0.08378 -0.04968,-0.1467c0,-0.06526 0.01676,-0.11583 0.05027,-0.15169c0.03351,-0.03606 0.07702,-0.05409 0.13053,-0.05409c0.05174,0 0.09407,0.01764 0.127,0.05292c0.03273,0.03528 0.04909,0.08486 0.04909,0.14875c0,0.00392 -0.0001,0.0097 -0.00029,0.01734h-0.28869c0.00235,0.04273 0.01431,0.07536 0.03587,0.0979c0.02175,0.02254 0.0488,0.03381 0.08114,0.03381c0.02411,0 0.04459,-0.00627 0.06144,-0.01881c0.01705,-0.01274 0.03057,-0.03293 0.04057,-0.06056zM24.65594,57.24497h0.21637c-0.00294,-0.03253 -0.01127,-0.05693 -0.02499,-0.0732c-0.02077,-0.02528 -0.04782,-0.03792 -0.08114,-0.03792c-0.03018,0 -0.05556,0.01009 -0.07614,0.03028c-0.02058,0.02019 -0.03195,0.04714 -0.0341,0.08084z"/><path d="M25.18742,57.6242v-0.53563h0.05997v0.05027c0.01411,-0.0196 0.02999,-0.0344 0.04763,-0.04439c0.01783,-0.0098 0.03939,-0.0147 0.06468,-0.0147c0.03293,0 0.06203,0.00853 0.08731,0.02558c0.02528,0.01705 0.04439,0.04106 0.05733,0.07203c0.01294,0.03097 0.0194,0.06497 0.0194,0.10201c0,0.03959 -0.00715,0.07526 -0.02146,0.10701c-0.01411,0.03155 -0.03469,0.05586 -0.06174,0.07291c-0.02724,0.01685 -0.05576,0.02528 -0.08555,0.02528c-0.02195,0 -0.04165,-0.00461 -0.05909,-0.01382c-0.01725,-0.00921 -0.03146,-0.02087 -0.04263,-0.03498v0.18844zM25.2471,57.28436c0,0.04978 0.01009,0.08663 0.03028,0.11054c0.01999,0.02371 0.04439,0.03557 0.0732,0.03557c0.0292,0 0.05419,-0.01235 0.07497,-0.03704c0.02077,-0.02469 0.03116,-0.06291 0.03116,-0.11465c0,-0.04919 -0.01019,-0.08614 -0.03057,-0.11083c-0.02019,-0.0245 -0.04439,-0.03675 -0.07261,-0.03675c-0.02803,0 -0.05282,0.01303 -0.07438,0.0391c-0.02136,0.02626 -0.03204,0.06428 -0.03204,0.11406z"/><path d="M25.83348,57.42812c-0.0243,0.02058 -0.04772,0.03508 -0.07026,0.04351c-0.02254,0.00862 -0.04665,0.01294 -0.07232,0.01294c-0.04253,0 -0.07526,-0.01039 -0.09819,-0.03116c-0.02273,-0.02077 -0.0341,-0.04733 -0.0341,-0.07967c0,-0.01901 0.00431,-0.03636 0.01294,-0.05203c0.00862,-0.01568 0.01989,-0.02822 0.03381,-0.03763c0.01392,-0.0096 0.02969,-0.01685 0.04733,-0.02175c0.01274,-0.00333 0.03214,-0.00657 0.05821,-0.0097c0.05311,-0.00627 0.09211,-0.01382 0.117,-0.02264c0.00039,-0.00902 0.00059,-0.0147 0.00059,-0.01705c0,-0.02685 -0.00627,-0.04567 -0.01881,-0.05644c-0.01666,-0.0149 -0.04155,-0.02234 -0.07467,-0.02234c-0.03077,0 -0.0535,0.00539 -0.0682,0.01617c-0.0149,0.01078 -0.02577,0.02989 -0.03263,0.05733l-0.06438,-0.00853c0.00588,-0.02744 0.01548,-0.04968 0.02881,-0.06673c0.01333,-0.01685 0.03263,-0.02979 0.05791,-0.03881c0.02528,-0.00921 0.05458,-0.01382 0.0879,-0.01382c0.03312,0 0.05997,0.00392 0.08055,0.01176c0.02077,0.00764 0.03596,0.01744 0.04557,0.0294c0.0098,0.01176 0.01666,0.02665 0.02058,0.04469c0.00216,0.01117 0.00323,0.03126 0.00323,0.06027v0.08761c0,0.06095 0.00137,0.09956 0.00412,0.11583c0.00294,0.01607 0.00853,0.03155 0.01676,0.04645h-0.0685c-0.00686,-0.01352 -0.01127,-0.0294 -0.01323,-0.04762zM25.82789,57.28142c-0.02371,0.0098 -0.05938,0.01803 -0.10701,0.02469c-0.02705,0.00392 -0.04616,0.00833 -0.05733,0.01323c-0.01117,0.0049 -0.01979,0.01196 -0.02587,0.02117c-0.00608,0.00941 -0.00911,0.01989 -0.00911,0.03146c0,0.01744 0.00657,0.03195 0.0197,0.04351c0.01333,0.01176 0.03273,0.01764 0.05821,0.01764c0.02528,0 0.04782,-0.00559 0.06762,-0.01676c0.0196,-0.01098 0.034,-0.02607 0.04322,-0.04527c0.00706,-0.0149 0.01058,-0.03675 0.01058,-0.06556z"/><path d="M26.12559,57.29054l0.00941,0.05821c-0.01842,0.00372 -0.03498,0.00559 -0.04968,0.00559c-0.02371,0 -0.04214,-0.00372 -0.05527,-0.01117c-0.01313,-0.00764 -0.02234,-0.01754 -0.02763,-0.02969c-0.00549,-0.01235 -0.00823,-0.03822 -0.00823,-0.07761v-0.22254h-0.04792v-0.05115h0.04792v-0.09584l0.06526,-0.03939v0.13523h0.06615v0.05115h-0.06615v0.22637c0,0.01862 0.00118,0.03057 0.00353,0.03587c0.00235,0.00549 0.00617,0.0098 0.01147,0.01294c0.0051,0.00314 0.01254,0.0047 0.02234,0.0047c0.00725,0 0.01685,-0.00088 0.02881,-0.00265z"/><path d="M26.33305,57.29054l0.00941,0.05821c-0.01842,0.00372 -0.03498,0.00559 -0.04968,0.00559c-0.02371,0 -0.04214,-0.00372 -0.05527,-0.01117c-0.01313,-0.00764 -0.02234,-0.01754 -0.02763,-0.02969c-0.00549,-0.01235 -0.00823,-0.03822 -0.00823,-0.07761v-0.22254h-0.04792v-0.05115h0.04792v-0.09584l0.06526,-0.03939v0.13523h0.06615v0.05115h-0.06615v0.22637c0,0.01862 0.00118,0.03057 0.00353,0.03587c0.00235,0.00549 0.00617,0.0098 0.01147,0.01294c0.0051,0.00314 0.01254,0.0047 0.02234,0.0047c0.00725,0 0.01685,-0.00088 0.02881,-0.00265z"/><path d="M26.67633,57.3511l0.06791,0.00823c-0.01078,0.03979 -0.03057,0.07056 -0.05938,0.09231c-0.02901,0.02195 -0.06595,0.03293 -0.11083,0.03293c-0.05664,0 -0.10162,-0.01744 -0.13494,-0.05233c-0.03312,-0.03489 -0.04968,-0.08378 -0.04968,-0.1467c0,-0.06526 0.01676,-0.11583 0.05027,-0.15169c0.03351,-0.03606 0.07702,-0.05409 0.13053,-0.05409c0.05174,0 0.09407,0.01764 0.127,0.05292c0.03273,0.03528 0.04909,0.08486 0.04909,0.14875c0,0.00392 -0.0001,0.0097 -0.00029,0.01734h-0.28869c0.00235,0.04273 0.01431,0.07536 0.03587,0.0979c0.02175,0.02254 0.0488,0.03381 0.08114,0.03381c0.02411,0 0.04459,-0.00627 0.06144,-0.01881c0.01705,-0.01274 0.03057,-0.03293 0.04057,-0.06056zM26.46084,57.24497h0.21637c-0.00294,-0.03253 -0.01127,-0.05693 -0.02499,-0.0732c-0.02077,-0.02528 -0.04782,-0.03792 -0.08114,-0.03792c-0.03018,0 -0.05556,0.01009 -0.07614,0.03028c-0.02058,0.02019 -0.03195,0.04714 -0.0341,0.08084z"/><path d="M26.84702,57.47574v-0.38717h0.05909v0.0588c0.01509,-0.02763 0.02901,-0.04576 0.04175,-0.05439c0.01274,-0.00882 0.02675,-0.01323 0.04204,-0.01323c0.02215,0 0.04469,0.00706 0.06762,0.02117l-0.02264,0.06085c-0.01607,-0.00941 -0.03214,-0.01411 -0.04821,-0.01411c-0.01431,0 -0.02724,0.00431 -0.03881,0.01294c-0.01137,0.00862 -0.0195,0.02058 -0.0244,0.03587c-0.00725,0.02332 -0.01088,0.0488 -0.01088,0.07644v0.20285z"/><path d="M27.09686,57.47574v-0.38717h0.05909v0.05497c0.02842,-0.04253 0.06958,-0.06379 0.12347,-0.06379c0.02332,0 0.04469,0.00421 0.06409,0.01264c0.0196,0.00843 0.0343,0.0194 0.0441,0.03293c0.0098,0.01372 0.01656,0.02989 0.02028,0.04851c0.00255,0.01215 0.00382,0.03342 0.00382,0.06379v0.23812h-0.06556v-0.23548c0,-0.02685 -0.00265,-0.04684 -0.00794,-0.05997c-0.0051,-0.01333 -0.01411,-0.02391 -0.02705,-0.03175c-0.01294,-0.00784 -0.02822,-0.01176 -0.04586,-0.01176c-0.02783,0 -0.05194,0.00882 -0.07232,0.02646c-0.02019,0.01783 -0.03028,0.05154 -0.03028,0.10113v0.21137z"/><path d="M27.77797,57.48544c-0.03626,-0.04586 -0.06683,-0.09937 -0.09172,-0.16051c-0.02509,-0.06134 -0.03763,-0.12484 -0.03763,-0.1905c0,-0.05782 0.00931,-0.11318 0.02793,-0.1661c0.02195,-0.06154 0.05576,-0.12279 0.10142,-0.18374h0.04704c-0.0294,0.05056 -0.0488,0.08663 -0.05821,0.10819c-0.0149,0.03351 -0.02656,0.0685 -0.03498,0.10495c-0.01058,0.04547 -0.01588,0.09123 -0.01588,0.13729c0,0.11681 0.03636,0.23362 0.10907,0.35043z"/><path d="M28.20625,56.93129l-0.06526,0.005c-0.00588,-0.02567 -0.01421,-0.04439 -0.02499,-0.05615c-0.01764,-0.01862 -0.03949,-0.02793 -0.06556,-0.02793c-0.02077,0 -0.0391,0.00578 -0.05497,0.01734c-0.02058,0.01509 -0.03685,0.03714 -0.0488,0.06615c-0.01196,0.02901 -0.01813,0.07016 -0.01852,0.12347c0.01568,-0.02391 0.03498,-0.04175 0.05791,-0.0535c0.02273,-0.01156 0.04665,-0.01734 0.07173,-0.01734c0.04371,0 0.08094,0.01607 0.11171,0.04821c0.03077,0.03214 0.04616,0.07379 0.04616,0.12494c0,0.03351 -0.00725,0.06468 -0.02175,0.09349c-0.0145,0.02881 -0.0344,0.05086 -0.05968,0.06615c-0.02528,0.01529 -0.0539,0.02293 -0.08584,0.02293c-0.05468,0 -0.09927,-0.02009 -0.13376,-0.06027c-0.03469,-0.04037 -0.05203,-0.10672 -0.05203,-0.19903c0,-0.10329 0.01911,-0.17835 0.05733,-0.22519c0.03332,-0.04096 0.0782,-0.06144 0.13464,-0.06144c0.04194,0 0.07634,0.01186 0.10319,0.03557c0.02705,0.02352 0.04322,0.05605 0.04851,0.0976zM27.93814,57.16177c0,0.02254 0.0048,0.0442 0.01441,0.06497c0.0096,0.02058 0.02303,0.03626 0.04028,0.04704c0.01725,0.01078 0.03538,0.01617 0.05439,0.01617c0.02763,0 0.05145,-0.01117 0.07144,-0.03351c0.01999,-0.02234 0.02999,-0.05272 0.02999,-0.09113c0,-0.03685 -0.0099,-0.06595 -0.02969,-0.08731c-0.0196,-0.02117 -0.04439,-0.03175 -0.07438,-0.03175c-0.02959,0 -0.05468,0.01058 -0.07526,0.03175c-0.02077,0.02136 -0.03116,0.04929 -0.03116,0.08378z"/><path d="M28.46432,57.47574v-0.38717h0.05909v0.05497c0.02842,-0.04253 0.06958,-0.06379 0.12347,-0.06379c0.02332,0 0.04469,0.00421 0.06409,0.01264c0.0196,0.00843 0.0343,0.0194 0.0441,0.03293c0.0098,0.01372 0.01656,0.02989 0.02028,0.04851c0.00255,0.01215 0.00382,0.03342 0.00382,0.06379v0.23812h-0.06556v-0.23548c0,-0.02685 -0.00265,-0.04684 -0.00794,-0.05997c-0.0051,-0.01333 -0.01411,-0.02391 -0.02705,-0.03175c-0.01294,-0.00784 -0.02822,-0.01176 -0.04586,-0.01176c-0.02783,0 -0.05194,0.00882 -0.07232,0.02646c-0.02019,0.01783 -0.03028,0.05154 -0.03028,0.10113v0.21137z"/><path d="M29.12303,57.3511l0.06791,0.00823c-0.01078,0.03979 -0.03057,0.07056 -0.05938,0.09231c-0.02901,0.02195 -0.06595,0.03293 -0.11083,0.03293c-0.05664,0 -0.10162,-0.01744 -0.13494,-0.05233c-0.03312,-0.03489 -0.04968,-0.08378 -0.04968,-0.1467c0,-0.06526 0.01676,-0.11583 0.05027,-0.15169c0.03351,-0.03606 0.07702,-0.05409 0.13053,-0.05409c0.05174,0 0.09407,0.01764 0.127,0.05292c0.03273,0.03528 0.04909,0.08486 0.04909,0.14875c0,0.00392 -0.0001,0.0097 -0.00029,0.01734h-0.28869c0.00235,0.04273 0.01431,0.07536 0.03587,0.0979c0.02175,0.02254 0.0488,0.03381 0.08114,0.03381c0.02411,0 0.04459,-0.00627 0.06144,-0.01881c0.01705,-0.01274 0.03057,-0.03293 0.04057,-0.06056zM28.90754,57.24497h0.21637c-0.00294,-0.03253 -0.01127,-0.05693 -0.02499,-0.0732c-0.02077,-0.02528 -0.04782,-0.03792 -0.08114,-0.03792c-0.03018,0 -0.05556,0.01009 -0.07614,0.03028c-0.02058,0.02019 -0.03195,0.04714 -0.0341,0.08084z"/><path d="M29.53831,57.3511l0.06791,0.00823c-0.01078,0.03979 -0.03057,0.07056 -0.05938,0.09231c-0.02901,0.02195 -0.06595,0.03293 -0.11083,0.03293c-0.05664,0 -0.10162,-0.01744 -0.13494,-0.05233c-0.03312,-0.03489 -0.04968,-0.08378 -0.04968,-0.1467c0,-0.06526 0.01676,-0.11583 0.05027,-0.15169c0.03351,-0.03606 0.07702,-0.05409 0.13053,-0.05409c0.05174,0 0.09407,0.01764 0.127,0.05292c0.03273,0.03528 0.04909,0.08486 0.04909,0.14875c0,0.00392 -0.0001,0.0097 -0.00029,0.01734h-0.28869c0.00235,0.04273 0.01431,0.07536 0.03587,0.0979c0.02175,0.02254 0.0488,0.03381 0.08114,0.03381c0.02411,0 0.04459,-0.00627 0.06144,-0.01881c0.01705,-0.01274 0.03057,-0.03293 0.04057,-0.06056zM29.32282,57.24497h0.21637c-0.00294,-0.03253 -0.01127,-0.05693 -0.02499,-0.0732c-0.02077,-0.02528 -0.04782,-0.03792 -0.08114,-0.03792c-0.03018,0 -0.05556,0.01009 -0.07614,0.03028c-0.02058,0.02019 -0.03195,0.04714 -0.0341,0.08084z"/><path d="M29.93802,57.33728v-0.0488c-0.0245,0.03841 -0.06056,0.05762 -0.10819,0.05762c-0.03097,0 -0.05938,-0.00853 -0.08525,-0.02558c-0.02587,-0.01705 -0.04596,-0.04086 -0.06027,-0.07144c-0.01411,-0.03038 -0.02117,-0.06536 -0.02117,-0.10495c0,-0.03881 0.00647,-0.07389 0.0194,-0.10525c0.01274,-0.03155 0.03204,-0.05566 0.05791,-0.07232c0.02567,-0.01685 0.05448,-0.02528 0.08643,-0.02528c0.02332,0 0.0441,0.0049 0.06232,0.0147c0.01823,0.01 0.03302,0.02283 0.04439,0.03851v-0.19168h0.06526v0.53446zM29.73047,57.14413c0,0.04958 0.01049,0.08663 0.03146,0.11113c0.02097,0.0245 0.04567,0.03675 0.07408,0.03675c0.02861,0 0.05292,-0.01166 0.07291,-0.03498c0.02019,-0.02352 0.03028,-0.05938 0.03028,-0.1076c0,-0.05292 -0.01029,-0.09182 -0.03087,-0.11671c-0.02038,-0.02469 -0.04547,-0.03704 -0.07526,-0.03704c-0.0292,0 -0.0536,0.01186 -0.0732,0.03557c-0.0196,0.02391 -0.0294,0.06154 -0.0294,0.11289z"/><path d="M30.36888,57.3511l0.06791,0.00823c-0.01078,0.03979 -0.03057,0.07056 -0.05938,0.09231c-0.02901,0.02195 -0.06595,0.03293 -0.11083,0.03293c-0.05664,0 -0.10162,-0.01744 -0.13494,-0.05233c-0.03312,-0.03489 -0.04968,-0.08378 -0.04968,-0.1467c0,-0.06526 0.01676,-0.11583 0.05027,-0.15169c0.03351,-0.03606 0.07702,-0.05409 0.13053,-0.05409c0.05174,0 0.09407,0.01764 0.127,0.05292c0.03273,0.03528 0.04909,0.08486 0.04909,0.14875c0,0.00392 -0.0001,0.0097 -0.00029,0.01734h-0.28869c0.00235,0.04273 0.01431,0.07536 0.03587,0.0979c0.02175,0.02254 0.0488,0.03381 0.08114,0.03381c0.02411,0 0.04459,-0.00627 0.06144,-0.01881c0.01705,-0.01274 0.03057,-0.03293 0.04057,-0.06056zM30.1534,57.24497h0.21637c-0.00294,-0.03253 -0.01127,-0.05693 -0.02499,-0.0732c-0.02077,-0.02528 -0.04782,-0.03792 -0.08114,-0.03792c-0.03018,0 -0.05556,0.01009 -0.07614,0.03028c-0.02058,0.02019 -0.03195,0.04714 -0.0341,0.08084z"/><path d="M30.76859,57.33728v-0.0488c-0.0245,0.03841 -0.06056,0.05762 -0.10819,0.05762c-0.03097,0 -0.05938,-0.00853 -0.08525,-0.02558c-0.02587,-0.01705 -0.04596,-0.04086 -0.06027,-0.07144c-0.01411,-0.03038 -0.02117,-0.06536 -0.02117,-0.10495c0,-0.03881 0.00647,-0.07389 0.0194,-0.10525c0.01274,-0.03155 0.03204,-0.05566 0.05791,-0.07232c0.02567,-0.01685 0.05448,-0.02528 0.08643,-0.02528c0.02332,0 0.0441,0.0049 0.06232,0.0147c0.01823,0.01 0.03302,0.02283 0.04439,0.03851v-0.19168h0.06526v0.53446zM30.56104,57.14413c0,0.04958 0.01049,0.08663 0.03146,0.11113c0.02097,0.0245 0.04567,0.03675 0.07408,0.03675c0.02861,0 0.05292,-0.01166 0.07291,-0.03498c0.02019,-0.02352 0.03028,-0.05938 0.03028,-0.1076c0,-0.05292 -0.01029,-0.09182 -0.03087,-0.11671c-0.02038,-0.02469 -0.04547,-0.03704 -0.07526,-0.03704c-0.0292,0 -0.0536,0.01186 -0.0732,0.03557c-0.0196,0.02391 -0.0294,0.06154 -0.0294,0.11289z"/><path d="M30.99543,57.48544h-0.04704c0.07271,-0.11681 0.10907,-0.23362 0.10907,-0.35043c0,-0.04567 -0.00529,-0.09104 -0.01588,-0.13611c-0.00823,-0.03645 -0.01979,-0.07144 -0.03469,-0.10495c-0.00941,-0.02195 -0.02891,-0.0584 -0.0585,-0.10936h0.04704c0.04567,0.06095 0.07947,0.1222 0.10142,0.18374c0.01862,0.05292 0.02793,0.10828 0.02793,0.1661c0,0.06566 -0.01254,0.12916 -0.03763,0.1905c-0.02528,0.06115 -0.05586,0.11465 -0.09172,0.16051z"/></g><g id="group_g-26be703b-68d2-45c0-989a-7cb299c67396"><path d="M292.0367,9.58784h0.1551l0.21183,-0.36692zM292.47257,9.10148l0.16886,-0.29244l-0.83947,-0.83947l0.45858,-0.45866l0.71662,0.71662l0.1688,-0.29239l-0.1869,-0.1869l0.69763,-0.69771l0.67884,-1.17578l-0.21937,-0.21934l0.45858,-0.45868l0.09652,0.09652l0.51139,-0.88575l-1.06648,-1.0664l0.45868,-0.45855l0.9435,0.94353l0.16886,-0.29247l-0.41381,-0.41391l0.47387,-0.47387h-1.39705l-0.63302,0.63291h0.29787v0.79378h-0.56459l0.20447,0.20447l-0.45866,0.45844l-1.39433,-1.39433l0.45858,-0.45855l0.96078,0.96081v-0.46135l-0.2622,-0.26233l0.47376,-0.47384h-1.39684l-0.93255,0.93252l-0.45855,-0.45868l0.47397,-0.47384h-1.39705l-0.46474,0.46461l-0.46781,0.46794l-0.45855,-0.45868l0.47387,-0.47387h-1.39705l-0.93266,0.93252l-0.45844,-0.45868l0.47376,-0.47384h-1.39684l-0.93255,0.93252l-0.45855,-0.45868l0.47397,-0.47384h-1.39705l-0.46474,0.46461l-0.46781,0.46794l-0.45855,-0.45868l0.47384,-0.47387h-1.39703l-0.93266,0.93252l-0.03918,-0.03921v0.46127l0.27657,0.27657l-0.45868,0.45844l-1.3943,-1.39433l0.45858,-0.45855l0.39619,0.39619h0.46138l-0.15899,-0.15907l0.47374,-0.47384h-1.39681l-0.93255,0.93252l-0.39095,-0.39105l0.79761,1.3815l0.52914,-0.52914l0.45844,0.45855l-0.65191,0.65201l0.16883,0.29242l0.24588,-0.24593l1.39441,1.39443l-0.45868,0.45844l-0.60047,-0.60045l0.60846,1.05389l1.14911,-1.14922l0.45868,0.45855l-1.27212,1.27212l0.51136,0.88567l0.30213,-0.3021l0.45858,0.45868l-0.42495,0.42495l0.02085,0.03617h1.34001l0.45186,-0.45186l0.46805,-0.46794l0.45844,0.45868l-0.46109,0.46112h1.39705l0.91977,-0.9198l0.45847,0.45868l-0.46112,0.46112h1.39684l0.91988,-0.9198l0.45858,0.45868l-0.46112,0.46112h1.39705l0.45183,-0.45186l0.46805,-0.46794l0.45844,0.45868l-0.46109,0.46112h1.39705l0.9198,-0.9198zM276.77778,3.10158l0.45585,-0.45574h-0.71898zM289.48765,7.96957l1.39454,1.39433l0.45844,-0.45858l-1.3943,-1.39441zM287.17353,7.96957l1.39443,1.39433l0.45868,-0.45858l-1.39454,-1.39441zM284.85932,7.96957l1.39433,1.39433l0.45866,-0.45858l-1.39441,-1.39441zM282.54501,7.96957l1.39454,1.39433l0.45844,-0.45858l-1.3943,-1.39441zM280.23089,7.96957l1.39443,1.39433l0.45868,-0.45858l-1.39454,-1.39441zM288.33076,7.74819l0.45855,0.45868l0.46781,-0.46805v-0.88818h0.00003v0.88813l0.92649,-0.92636l-0.45051,-0.45061v-0.30491h-0.79375v0.44704l-1.30728,-1.3072l-0.45858,0.45868l1.39443,1.3942l0.37142,-0.37124v0.17227h0.28879zM281.38812,7.74819l0.45855,0.45868l0.46781,-0.46805v-0.91713zM290.64497,7.74824l0.45855,0.45855l1.39433,-1.39443l-0.45858,-0.45855zM286.01642,7.74824l0.45855,0.45855l1.39443,-1.39443l-0.45868,-0.45855zM283.70233,7.74824l0.45855,0.45855l1.3943,-1.39443l-0.45855,-0.45855zM282.31451,6.82167v0.9171l0.88823,-0.88813h0.53779l0.19897,0.19894l0.45844,-0.45844l-1.3942,-1.39443l-0.45879,0.45868l0.43632,0.43619v0.46104l-0.19883,-0.19889zM280.23089,5.65542l1.39443,1.3942l0.45868,-0.45844l-1.39454,-1.39443zM291.80196,5.65539l1.39433,1.3942l0.45866,-0.45844l-1.39441,-1.39443zM289.4876,5.65539l1.39454,1.3942l0.45844,-0.45844l-1.3942,-1.39443zM284.85932,5.65539l1.39433,1.3942l0.45866,-0.45844l-1.39441,-1.39443zM292.95898,5.43407l0.45868,0.45858l1.3943,-1.39443l-0.45855,-0.45855zM290.64489,5.43407l0.45868,0.45858l1.39417,-1.39443l-0.45844,-0.45855zM286.01634,5.43407l0.45868,0.45858l1.3943,-1.39443l-0.45858,-0.45855zM283.70225,5.43407l0.45866,0.45858l1.3942,-1.39443l-0.45844,-0.45855zM279.0737,5.43407l0.45866,0.45858l1.39433,-1.39443l-0.45858,-0.45855zM288.33076,5.43401l0.45855,0.45858l0.46781,-0.46794v-0.91713zM281.38812,5.43401l0.45855,0.45858l0.46781,-0.46794v-0.91713zM289.25715,4.50747v0.91713l0.92649,-0.92639l-0.45051,-0.45051v-0.37206h-0.79375v0.51411l-1.30717,-1.3072l-0.45868,0.45855l1.39443,1.39433l0.37142,-0.37126v0.10522h0.35586zM282.31451,4.50747v0.91713l0.92649,-0.92639l-0.02881,-0.02881h0.46127l0.26609,0.26604l0.45844,-0.45844l-1.3943,-1.39443l-0.45868,0.45855l0.43627,0.43619v0.4612l-0.19883,-0.19883zM289.48765,3.34111l1.39454,1.39433l0.45844,-0.45844l-1.3943,-1.39443zM284.85932,3.34111l1.39433,1.39433l0.45866,-0.45844l-1.39441,-1.39443zM280.23089,3.34111l1.39441,1.39433l0.45868,-0.45844l-1.39441,-1.39443z" fill="#f9932b" stroke="#fa9228"/><path d="M333.83265,88.53357h11.66926l4.00798,-6.94201h-19.68513zM346.53134,82.2245h0.79376v0.79376h-0.79376zM342.24941,82.62138h0.79376v0.79376h-0.79376zM342.24941,85.00265h0.79376v0.79376h-0.79376zM336.29129,82.62138h0.79376v0.79376h-0.79376zM336.29129,85.00265h0.79376v0.79376h-0.79376zM332.80311,82.2245v0.79376h-0.79376v-0.79376z" fill="none" stroke="#9926ff"/></g><g id="group_g-62d88c1b-909d-4baa-8983-a967baeee337"><path d="M18.16788,97.59225h0.1551l0.21183,-0.36692zM18.60375,97.10589l0.16886,-0.29244l-0.83947,-0.83947l0.45858,-0.45866l0.71662,0.71662l0.1688,-0.29239l-0.1869,-0.1869l0.69763,-0.69771l0.67884,-1.17578l-0.21937,-0.21934l0.45858,-0.45868l0.09652,0.09652l0.51139,-0.88575l-1.06648,-1.0664l0.45868,-0.45855l0.9435,0.94353l0.16886,-0.29247l-0.41381,-0.41391l0.47387,-0.47387h-1.39705l-0.63302,0.63291h0.29787v0.79378h-0.56459l0.20447,0.20447l-0.45866,0.45844l-1.39433,-1.39433l0.45858,-0.45855l0.96078,0.96081v-0.46135l-0.2622,-0.26233l0.47376,-0.47384h-1.39684l-0.93255,0.93252l-0.45855,-0.45868l0.47397,-0.47384h-1.39705l-0.46474,0.46461l-0.46781,0.46794l-0.45855,-0.45868l0.47387,-0.47387h-1.39705l-0.93266,0.93252l-0.45844,-0.45868l0.47376,-0.47384h-1.39684l-0.93255,0.93252l-0.45855,-0.45868l0.47397,-0.47384h-1.39705l-0.46474,0.46461l-0.46781,0.46794l-0.45855,-0.45868l0.47384,-0.47387h-1.39703l-0.93266,0.93252l-0.03918,-0.03921v0.46127l0.27657,0.27657l-0.45868,0.45844l-1.3943,-1.39433l0.45858,-0.45855l0.39619,0.39619h0.46138l-0.15899,-0.15907l0.47374,-0.47384h-1.39681l-0.93255,0.93252l-0.39095,-0.39105l0.79761,1.3815l0.52914,-0.52914l0.45844,0.45855l-0.65191,0.65201l0.16883,0.29242l0.24588,-0.24593l1.39441,1.39443l-0.45868,0.45844l-0.60047,-0.60045l0.60846,1.05389l1.14911,-1.14922l0.45868,0.45855l-1.27212,1.27212l0.51136,0.88567l0.30213,-0.3021l0.45858,0.45868l-0.42495,0.42495l0.02085,0.03617h1.34001l0.45186,-0.45186l0.46805,-0.46794l0.45844,0.45868l-0.46109,0.46112h1.39705l0.91977,-0.9198l0.45847,0.45868l-0.46112,0.46112h1.39684l0.91988,-0.9198l0.45858,0.45868l-0.46112,0.46112h1.39705l0.45183,-0.45186l0.46805,-0.46794l0.45844,0.45868l-0.46109,0.46112h1.39705l0.9198,-0.9198zM2.90896,91.10598l0.45585,-0.45574h-0.71898zM15.61883,95.97397l1.39454,1.39433l0.45844,-0.45858l-1.3943,-1.39441zM13.30471,95.97397l1.39443,1.39433l0.45868,-0.45858l-1.39454,-1.39441zM10.9905,95.97397l1.39433,1.39433l0.45866,-0.45858l-1.39441,-1.39441zM8.67619,95.97397l1.39454,1.39433l0.45844,-0.45858l-1.3943,-1.39441zM6.36207,95.97397l1.39443,1.39433l0.45868,-0.45858l-1.39454,-1.39441zM14.46194,95.7526l0.45855,0.45868l0.46781,-0.46805v-0.88818h0.00003v0.88813l0.92649,-0.92636l-0.45051,-0.45061v-0.30491h-0.79375v0.44704l-1.30728,-1.3072l-0.45858,0.45868l1.39443,1.3942l0.37142,-0.37124v0.17227h0.28879zM7.5193,95.7526l0.45855,0.45868l0.46781,-0.46805v-0.91713zM16.77614,95.75265l0.45855,0.45855l1.39433,-1.39443l-0.45858,-0.45855zM12.1476,95.75265l0.45855,0.45855l1.39443,-1.39443l-0.45868,-0.45855zM9.8335,95.75265l0.45855,0.45855l1.3943,-1.39443l-0.45855,-0.45855zM8.44569,94.82608v0.9171l0.88823,-0.88813h0.53779l0.19897,0.19894l0.45844,-0.45844l-1.3942,-1.39443l-0.45879,0.45868l0.43632,0.43619v0.46104l-0.19883,-0.19889zM6.36207,93.65982l1.39443,1.3942l0.45868,-0.45844l-1.39454,-1.39443zM17.93314,93.6598l1.39433,1.3942l0.45866,-0.45844l-1.39441,-1.39443zM15.61878,93.6598l1.39454,1.3942l0.45844,-0.45844l-1.3942,-1.39443zM10.9905,93.6598l1.39433,1.3942l0.45866,-0.45844l-1.39441,-1.39443zM19.09016,93.43847l0.45868,0.45858l1.3943,-1.39443l-0.45855,-0.45855zM16.77607,93.43847l0.45868,0.45858l1.39417,-1.39443l-0.45844,-0.45855zM12.14752,93.43847l0.45868,0.45858l1.3943,-1.39443l-0.45858,-0.45855zM9.83342,93.43847l0.45866,0.45858l1.3942,-1.39443l-0.45844,-0.45855zM5.20488,93.43847l0.45866,0.45858l1.39433,-1.39443l-0.45858,-0.45855zM14.46194,93.43842l0.45855,0.45858l0.46781,-0.46794v-0.91713zM7.5193,93.43842l0.45855,0.45858l0.46781,-0.46794v-0.91713zM15.38833,92.51187v0.91713l0.92649,-0.92639l-0.45051,-0.45051v-0.37206h-0.79375v0.51411l-1.30717,-1.3072l-0.45868,0.45855l1.39443,1.39433l0.37142,-0.37126v0.10522h0.35586zM8.44569,92.51187v0.91713l0.92649,-0.92639l-0.02881,-0.02881h0.46127l0.26609,0.26604l0.45844,-0.45844l-1.3943,-1.39443l-0.45868,0.45855l0.43627,0.43619v0.4612l-0.19883,-0.19883zM15.61883,91.34551l1.39454,1.39433l0.45844,-0.45844l-1.3943,-1.39443zM10.9905,91.34551l1.39433,1.39433l0.45866,-0.45844l-1.39441,-1.39443zM6.36207,91.34551l1.39441,1.39433l0.45868,-0.45844l-1.39441,-1.39443z" fill="#f9932b" stroke="#fa9228"/><path d="M59.96382,176.53798h11.66926l4.00798,-6.94201h-19.68513zM72.66252,170.22891h0.79376v0.79376h-0.79376zM68.38059,170.62578h0.79376v0.79376h-0.79376zM68.38059,173.00705h0.79376v0.79376h-0.79376zM62.42247,170.62578h0.79376v0.79376h-0.79376zM62.42247,173.00705h0.79376v0.79376h-0.79376zM58.93429,170.22891v0.79376h-0.79376v-0.79376z" fill="none" stroke="#9926ff"/></g><g id="group_g-cf2deebf-f2ea-41fe-900c-ba691984d6ef"><path d="M93.27978,97.59225h0.1551l0.21183,-0.36692zM93.71566,97.10589l0.16886,-0.29244l-0.83947,-0.83947l0.45858,-0.45866l0.71662,0.71662l0.1688,-0.29239l-0.1869,-0.1869l0.69763,-0.69771l0.67884,-1.17578l-0.21937,-0.21934l0.45858,-0.45868l0.09652,0.09652l0.51139,-0.88575l-1.06648,-1.0664l0.45868,-0.45855l0.9435,0.94353l0.16886,-0.29247l-0.41381,-0.41391l0.47387,-0.47387h-1.39705l-0.63302,0.63291h0.29787v0.79378h-0.56459l0.20447,0.20447l-0.45866,0.45844l-1.39433,-1.39433l0.45858,-0.45855l0.96078,0.96081v-0.46135l-0.2622,-0.26233l0.47376,-0.47384h-1.39684l-0.93255,0.93252l-0.45855,-0.45868l0.47397,-0.47384h-1.39705l-0.46474,0.46461l-0.46781,0.46794l-0.45855,-0.45868l0.47387,-0.47387h-1.39705l-0.93266,0.93252l-0.45844,-0.45868l0.47376,-0.47384h-1.39684l-0.93255,0.93252l-0.45855,-0.45868l0.47397,-0.47384h-1.39705l-0.46474,0.46461l-0.46781,0.46794l-0.45855,-0.45868l0.47384,-0.47387h-1.39703l-0.93266,0.93252l-0.03918,-0.03921v0.46127l0.27657,0.27657l-0.45868,0.45844l-1.3943,-1.39433l0.45858,-0.45855l0.39619,0.39619h0.46138l-0.15899,-0.15907l0.47374,-0.47384h-1.39681l-0.93255,0.93252l-0.39095,-0.39105l0.79761,1.3815l0.52914,-0.52914l0.45844,0.45855l-0.65191,0.65201l0.16883,0.29242l0.24588,-0.24593l1.39441,1.39443l-0.45868,0.45844l-0.60047,-0.60045l0.60846,1.05389l1.14911,-1.14922l0.45868,0.45855l-1.27212,1.27212l0.51136,0.88567l0.30213,-0.3021l0.45858,0.45868l-0.42495,0.42495l0.02085,0.03617h1.34001l0.45186,-0.45186l0.46805,-0.46794l0.45844,0.45868l-0.46109,0.46112h1.39705l0.91977,-0.9198l0.45847,0.45868l-0.46112,0.46112h1.39684l0.91988,-0.9198l0.45858,0.45868l-0.46112,0.46112h1.39705l0.45183,-0.45186l0.46805,-0.46794l0.45844,0.45868l-0.46109,0.46112h1.39705l0.9198,-0.9198zM78.02086,91.10598l0.45585,-0.45574h-0.71898zM90.73073,95.97397l1.39454,1.39433l0.45844,-0.45858l-1.3943,-1.39441zM88.41661,95.97397l1.39443,1.39433l0.45868,-0.45858l-1.39454,-1.39441zM86.1024,95.97397l1.39433,1.39433l0.45866,-0.45858l-1.39441,-1.39441zM83.78809,95.97397l1.39454,1.39433l0.45844,-0.45858l-1.3943,-1.39441zM81.47397,95.97397l1.39443,1.39433l0.45868,-0.45858l-1.39454,-1.39441zM89.57384,95.7526l0.45855,0.45868l0.46781,-0.46805v-0.88818h0.00003v0.88813l0.92649,-0.92636l-0.45051,-0.45061v-0.30491h-0.79375v0.44704l-1.30728,-1.3072l-0.45858,0.45868l1.39443,1.3942l0.37142,-0.37124v0.17227h0.28879zM82.6312,95.7526l0.45855,0.45868l0.46781,-0.46805v-0.91713zM91.88805,95.75265l0.45855,0.45855l1.39433,-1.39443l-0.45858,-0.45855zM87.2595,95.75265l0.45855,0.45855l1.39443,-1.39443l-0.45868,-0.45855zM84.94541,95.75265l0.45855,0.45855l1.3943,-1.39443l-0.45855,-0.45855zM83.55759,94.82608v0.9171l0.88823,-0.88813h0.53779l0.19897,0.19894l0.45844,-0.45844l-1.3942,-1.39443l-0.45879,0.45868l0.43632,0.43619v0.46104l-0.19883,-0.19889zM81.47397,93.65982l1.39443,1.3942l0.45868,-0.45844l-1.39454,-1.39443zM93.04504,93.6598l1.39433,1.3942l0.45866,-0.45844l-1.39441,-1.39443zM90.73068,93.6598l1.39454,1.3942l0.45844,-0.45844l-1.3942,-1.39443zM86.1024,93.6598l1.39433,1.3942l0.45866,-0.45844l-1.39441,-1.39443zM94.20207,93.43847l0.45868,0.45858l1.3943,-1.39443l-0.45855,-0.45855zM91.88797,93.43847l0.45868,0.45858l1.39417,-1.39443l-0.45844,-0.45855zM87.25943,93.43847l0.45868,0.45858l1.3943,-1.39443l-0.45858,-0.45855zM84.94533,93.43847l0.45866,0.45858l1.3942,-1.39443l-0.45844,-0.45855zM80.31679,93.43847l0.45866,0.45858l1.39433,-1.39443l-0.45858,-0.45855zM89.57384,93.43842l0.45855,0.45858l0.46781,-0.46794v-0.91713zM82.6312,93.43842l0.45855,0.45858l0.46781,-0.46794v-0.91713zM90.50023,92.51187v0.91713l0.92649,-0.92639l-0.45051,-0.45051v-0.37206h-0.79375v0.51411l-1.30717,-1.3072l-0.45868,0.45855l1.39443,1.39433l0.37142,-0.37126v0.10522h0.35586zM83.55759,92.51187v0.91713l0.92649,-0.92639l-0.02881,-0.02881h0.46127l0.26609,0.26604l0.45844,-0.45844l-1.3943,-1.39443l-0.45868,0.45855l0.43627,0.43619v0.4612l-0.19883,-0.19883zM90.73073,91.34551l1.39454,1.39433l0.45844,-0.45844l-1.3943,-1.39443zM86.1024,91.34551l1.39433,1.39433l0.45866,-0.45844l-1.39441,-1.39443zM81.47397,91.34551l1.39441,1.39433l0.45868,-0.45844l-1.39441,-1.39443z" fill="#f9932b" stroke="#fa9228"/><path d="M135.07573,176.53798h11.66926l4.00798,-6.94201h-19.68513zM147.77442,170.22891h0.79376v0.79376h-0.79376zM143.49249,170.62578h0.79376v0.79376h-0.79376zM143.49249,173.00705h0.79376v0.79376h-0.79376zM137.53437,170.62578h0.79376v0.79376h-0.79376zM137.53437,173.00705h0.79376v0.79376h-0.79376zM134.0462,170.22891v0.79376h-0.79376v-0.79376z" fill="none" stroke="#9926ff"/></g><g id="group_g-05d5a7f1-39ea-407e-9e60-aa6d9999ee48"><path d="M168.39168,97.59225h0.1551l0.21183,-0.36692zM168.82756,97.10589l0.16886,-0.29244l-0.83947,-0.83947l0.45858,-0.45866l0.71662,0.71662l0.1688,-0.29239l-0.1869,-0.1869l0.69763,-0.69771l0.67884,-1.17578l-0.21937,-0.21934l0.45858,-0.45868l0.09652,0.09652l0.51139,-0.88575l-1.06648,-1.0664l0.45868,-0.45855l0.9435,0.94353l0.16886,-0.29247l-0.41381,-0.41391l0.47387,-0.47387h-1.39705l-0.63302,0.63291h0.29787v0.79378h-0.56459l0.20447,0.20447l-0.45866,0.45844l-1.39433,-1.39433l0.45858,-0.45855l0.96078,0.96081v-0.46135l-0.2622,-0.26233l0.47376,-0.47384h-1.39684l-0.93255,0.93252l-0.45855,-0.45868l0.47397,-0.47384h-1.39705l-0.46474,0.46461l-0.46781,0.46794l-0.45855,-0.45868l0.47387,-0.47387h-1.39705l-0.93266,0.93252l-0.45844,-0.45868l0.47376,-0.47384h-1.39684l-0.93255,0.93252l-0.45855,-0.45868l0.47397,-0.47384h-1.39705l-0.46474,0.46461l-0.46781,0.46794l-0.45855,-0.45868l0.47384,-0.47387h-1.39703l-0.93266,0.93252l-0.03918,-0.03921v0.46127l0.27657,0.27657l-0.45868,0.45844l-1.3943,-1.39433l0.45858,-0.45855l0.39619,0.39619h0.46138l-0.15899,-0.15907l0.47374,-0.47384h-1.39681l-0.93255,0.93252l-0.39095,-0.39105l0.79761,1.3815l0.52914,-0.52914l0.45844,0.45855l-0.65191,0.65201l0.16883,0.29242l0.24588,-0.24593l1.39441,1.39443l-0.45868,0.45844l-0.60047,-0.60045l0.60846,1.05389l1.14911,-1.14922l0.45868,0.45855l-1.27212,1.27212l0.51136,0.88567l0.30213,-0.3021l0.45858,0.45868l-0.42495,0.42495l0.02085,0.03617h1.34001l0.45186,-0.45186l0.46805,-0.46794l0.45844,0.45868l-0.46109,0.46112h1.39705l0.91977,-0.9198l0.45847,0.45868l-0.46112,0.46112h1.39684l0.91988,-0.9198l0.45858,0.45868l-0.46112,0.46112h1.39705l0.45183,-0.45186l0.46805,-0.46794l0.45844,0.45868l-0.46109,0.46112h1.39705l0.9198,-0.9198zM153.13277,91.10598l0.45585,-0.45574h-0.71898zM165.84263,95.97397l1.39454,1.39433l0.45844,-0.45858l-1.3943,-1.39441zM163.52851,95.97397l1.39443,1.39433l0.45868,-0.45858l-1.39454,-1.39441zM161.2143,95.97397l1.39433,1.39433l0.45866,-0.45858l-1.39441,-1.39441zM158.89999,95.97397l1.39454,1.39433l0.45844,-0.45858l-1.3943,-1.39441zM156.58587,95.97397l1.39443,1.39433l0.45868,-0.45858l-1.39454,-1.39441zM164.68574,95.7526l0.45855,0.45868l0.46781,-0.46805v-0.88818h0.00003v0.88813l0.92649,-0.92636l-0.45051,-0.45061v-0.30491h-0.79375v0.44704l-1.30728,-1.3072l-0.45858,0.45868l1.39443,1.3942l0.37142,-0.37124v0.17227h0.28879zM157.7431,95.7526l0.45855,0.45868l0.46781,-0.46805v-0.91713zM166.99995,95.75265l0.45855,0.45855l1.39433,-1.39443l-0.45858,-0.45855zM162.37141,95.75265l0.45855,0.45855l1.39443,-1.39443l-0.45868,-0.45855zM160.05731,95.75265l0.45855,0.45855l1.3943,-1.39443l-0.45855,-0.45855zM158.66949,94.82608v0.9171l0.88823,-0.88813h0.53779l0.19897,0.19894l0.45844,-0.45844l-1.3942,-1.39443l-0.45879,0.45868l0.43632,0.43619v0.46104l-0.19883,-0.19889zM156.58587,93.65982l1.39443,1.3942l0.45868,-0.45844l-1.39454,-1.39443zM168.15694,93.6598l1.39433,1.3942l0.45866,-0.45844l-1.39441,-1.39443zM165.84258,93.6598l1.39454,1.3942l0.45844,-0.45844l-1.3942,-1.39443zM161.2143,93.6598l1.39433,1.3942l0.45866,-0.45844l-1.39441,-1.39443zM169.31397,93.43847l0.45868,0.45858l1.3943,-1.39443l-0.45855,-0.45855zM166.99987,93.43847l0.45868,0.45858l1.39417,-1.39443l-0.45844,-0.45855zM162.37133,93.43847l0.45868,0.45858l1.3943,-1.39443l-0.45858,-0.45855zM160.05723,93.43847l0.45866,0.45858l1.3942,-1.39443l-0.45844,-0.45855zM155.42869,93.43847l0.45866,0.45858l1.39433,-1.39443l-0.45858,-0.45855zM164.68574,93.43842l0.45855,0.45858l0.46781,-0.46794v-0.91713zM157.7431,93.43842l0.45855,0.45858l0.46781,-0.46794v-0.91713zM165.61213,92.51187v0.91713l0.92649,-0.92639l-0.45051,-0.45051v-0.37206h-0.79375v0.51411l-1.30717,-1.3072l-0.45868,0.45855l1.39443,1.39433l0.37142,-0.37126v0.10522h0.35586zM158.66949,92.51187v0.91713l0.92649,-0.92639l-0.02881,-0.02881h0.46127l0.26609,0.26604l0.45844,-0.45844l-1.3943,-1.39443l-0.45868,0.45855l0.43627,0.43619v0.4612l-0.19883,-0.19883zM165.84263,91.34551l1.39454,1.39433l0.45844,-0.45844l-1.3943,-1.39443zM161.2143,91.34551l1.39433,1.39433l0.45866,-0.45844l-1.39441,-1.39443zM156.58587,91.34551l1.39441,1.39433l0.45868,-0.45844l-1.39441,-1.39443z" fill="#f9932b" stroke="#fa9228"/><path d="M210.18763,176.53798h11.66926l4.00798,-6.94201h-19.68513zM222.88633,170.22891h0.79376v0.79376h-0.79376zM218.60439,170.62578h0.79376v0.79376h-0.79376zM218.60439,173.00705h0.79376v0.79376h-0.79376zM212.64627,170.62578h0.79376v0.79376h-0.79376zM212.64627,173.00705h0.79376v0.79376h-0.79376zM209.1581,170.22891v0.79376h-0.79376v-0.79376z" fill="none" stroke="#9926ff"/></g><path d="M250.39605,129.72623h-0.79376v0.79376h-1.10672v2.73717h-0.79376v0.79376h0.79376v1.58751h-0.79376v0.79376h0.79376v1.02981h0.71227c0.213,0 0.40705,-0.12414 0.49647,-0.31745c0.83576,-1.80686 0.19844,-2.58624 0.76473,-3.54707c0.9178,-1.55708 3.72909,-1.75571 4.20866,-1.98962v-1.08787h-1.90048v-0.79376h-0.79376v0.79376h-1.58742v-0.79376z" fill="none" stroke="#9926ff"/><path d="M312.21856,129.72623h-0.79376v0.79376h-1.10672v2.73717h-0.79376v0.79376h0.79376v1.58751h-0.79376v0.79376h0.79376v1.02981h0.71227c0.213,0 0.40705,-0.12414 0.49647,-0.31745c0.83576,-1.80686 0.19844,-2.58624 0.76473,-3.54707c0.9178,-1.55708 3.72909,-1.75571 4.20866,-1.98962v-1.08787h-1.90048v-0.79376h-0.79376v0.79376h-1.58742v-0.79376z" fill="none" stroke="#9926ff"/><path d="M39.93716,186.39041h0.79376v-0.79376h1.10672v-2.73717h0.79376v-0.79376h-0.79376v-1.58751h0.79376v-0.79376h-0.79376v-1.02981h-0.71227c-0.213,0 -0.40705,0.12414 -0.49647,0.31745c-0.83576,1.80686 -0.19844,2.58624 -0.76473,3.54707c-0.9178,1.55708 -3.72909,1.75571 -4.20866,1.98962v1.08787h1.90048v0.79376h0.79376v-0.79376h1.58742z" fill="none" stroke="#9926ff"/><path d="M115.04906,186.39041h0.79376v-0.79376h1.10672v-2.73717h0.79376v-0.79376h-0.79376v-1.58751h0.79376v-0.79376h-0.79376v-1.02981h-0.71227c-0.213,0 -0.40705,0.12414 -0.49647,0.31745c-0.83576,1.80686 -0.19844,2.58624 -0.76473,3.54707c-0.9178,1.55708 -3.72909,1.75571 -4.20866,1.98962v1.08787h1.90048v0.79376h0.79376v-0.79376h1.58742z" fill="none" stroke="#9926ff"/><path d="M188.57355,178.65465h-0.79376v0.79376h-1.10672v2.73717h-0.79376v0.79376h0.79376v1.58751h-0.79376v0.79376h0.79376v1.02981h0.71227c0.213,0 0.40705,-0.12414 0.49647,-0.31745c0.83576,-1.80686 0.19844,-2.58624 0.76473,-3.54707c0.9178,-1.55708 3.72909,-1.75571 4.20866,-1.98962v-1.08787h-1.90048v-0.79376h-0.79376v0.79376h-1.58742v-0.79376z" fill="none" stroke="#9926ff"/><path d="M250.39605,178.65465h-0.79376v0.79376h-1.10672v2.73717h-0.79376v0.79376h0.79376v1.58751h-0.79376v0.79376h0.79376v1.02981h0.71227c0.213,0 0.40705,-0.12414 0.49647,-0.31745c0.83576,-1.80686 0.19844,-2.58624 0.76473,-3.54707c0.9178,-1.55708 3.72909,-1.75571 4.20866,-1.98962v-1.08787h-1.90048v-0.79376h-0.79376v0.79376h-1.58742v-0.79376z" fill="none" stroke="#9926ff"/><path d="M313.80598,186.39041h0.79376v-0.79376h1.10672v-2.73717h0.79376v-0.79376h-0.79376v-1.58751h0.79376v-0.79376h-0.79376v-1.02981h-0.71227c-0.213,0 -0.40705,0.12414 -0.49647,0.31745c-0.83576,1.80686 -0.19844,2.58624 -0.76473,3.54707c-0.9178,1.55708 -3.72909,1.75571 -4.20866,1.98962v1.08787h1.90048v0.79376h0.79376v-0.79376h1.58742v0.79376z" fill="none" stroke="#9926ff"/><path d="M39.93716,196.24284h0.79376v-0.79376h1.10672v-2.73717h0.79376v-0.79376h-0.79376v-1.58751h0.79376v-0.79376h-0.79376v-1.02981h-0.71227c-0.213,0 -0.40705,0.12414 -0.49647,0.31745c-0.83576,1.80686 -0.19844,2.58624 -0.76473,3.54707c-0.9178,1.55708 -3.72909,1.75571 -4.20866,1.98962v1.08787h1.90048v0.79376h0.79376v-0.79376h1.58742v0.79376z" fill="none" stroke="#9926ff"/><path d="M113.46164,188.50708h-0.79376v0.79376h-1.10672v2.73717h-0.79376v0.79376h0.79376v1.58751h-0.79376v0.79376h0.79376v1.02981h0.71227c0.213,0 0.40705,-0.12414 0.49647,-0.31745c0.83576,-1.80686 0.19844,-2.58624 0.76473,-3.54707c0.9178,-1.55708 3.72909,-1.75571 4.20866,-1.98962v-1.08787h-1.90048v-0.79376h-0.79376v0.79376h-1.58742z" fill="none" stroke="#9926ff"/><path d="M188.57355,188.50708h-0.79376v0.79376h-1.10672v2.73717h-0.79376v0.79376h0.79376v1.58751h-0.79376v0.79376h0.79376v1.02981h0.71227c0.213,0 0.40705,-0.12414 0.49647,-0.31745c0.83576,-1.80686 0.19844,-2.58624 0.76473,-3.54707c0.9178,-1.55708 3.72909,-1.75571 4.20866,-1.98962v-1.08787h-1.90048v-0.79376h-0.79376v0.79376h-1.58742z" fill="none" stroke="#9926ff"/><path d="M251.98347,196.24284h0.79376v-0.79376h1.10672v-2.73717h0.79376v-0.79376h-0.79376v-1.58751h0.79376v-0.79376h-0.79376v-1.02981h-0.71227c-0.213,0 -0.40705,0.12414 -0.49647,0.31745c-0.83576,1.80686 -0.19844,2.58624 -0.76473,3.54707c-0.9178,1.55708 -3.72909,1.75571 -4.20866,1.98962v1.08787h1.90048v0.79376h0.79376v-0.79376h1.58742z" fill="none" stroke="#9926ff"/><path d="M313.80598,196.24284h0.79376v-0.79376h1.10672v-2.73717h0.79376v-0.79376h-0.79376v-1.58751h0.79376v-0.79376h-0.79376v-1.02981h-0.71227c-0.213,0 -0.40705,0.12414 -0.49647,0.31745c-0.83576,1.80686 -0.19844,2.58624 -0.76473,3.54707c-0.9178,1.55708 -3.72909,1.75571 -4.20866,1.98962v1.08787h1.90048v0.79376h0.79376v-0.79376h1.58742z" fill="none" stroke="#9926ff"/></g></g></g></g></svg>