<svg version="1.1" xmlns="http://www.w3.org/2000/svg" xmlns:xlink="http://www.w3.org/1999/xlink" width="300" height="150" viewBox="0,0,300,150"><defs><clipPath id="clip-1"><rect x="0" y="0" width="300" height="150" fill="none" stroke="none"/></clipPath><clipPath id="clip-2"><rect x="0" y="0" transform="scale(0.26458,0.26458)" width="1165.84501" height="1184.41638" id="clip-1" fill="none" stroke="none"/></clipPath></defs><g fill="none" fill-rule="nonzero" stroke="none" stroke-width="1" stroke-linecap="butt" stroke-linejoin="miter" stroke-miterlimit="10" stroke-dasharray="" stroke-dashoffset="0" font-family="none" font-weight="none" font-size="none" text-anchor="none" style="mix-blend-mode: normal"><g clip-path="url(#clip-1)"><g><g clip-path="url(#clip-2)"><rect x="0" y="0" transform="scale(0.26458,0.26458)" width="308.46316" height="313.37683" fill="none" stroke="none"/><path d="M49.53066,57.35805l-8.49554,-14.71473c-0.71414,-1.23693 -2.03386,-1.99886 -3.46214,-1.99886h-16.99109c-1.42828,0 -2.748,0.76193 -3.46214,1.99886l-8.49554,14.71473c-0.71414,1.23693 -0.71414,2.76079 0,3.99772l8.49554,14.71473c0.71414,1.23684 2.03386,1.99886 3.46214,1.99886h16.99109c1.42828,0 2.748,-0.76193 3.46214,-1.99886l8.49554,-14.71473c0.71414,-1.23693 0.71414,-2.76079 0,-3.99772zM25.71723,46.9231h6.72042v0.79376h-6.72042zM19.98947,50.22992l0.68744,0.39688l-3.36021,5.82007l-0.68744,-0.39688zM19.98947,68.48389l-3.36021,-5.82007l0.68744,-0.39688l3.36021,5.82007zM32.43765,71.7908h-6.72042v-0.79376h6.72042zM29.07744,69.14883c-5.40788,0 -9.79193,-4.38395 -9.79193,-9.79193c0,-5.40798 4.38395,-9.79193 9.79193,-9.79193c5.40798,0 9.79193,4.38395 9.79193,9.79193c0,5.40798 -4.38405,9.79193 -9.79193,9.79193zM38.16541,68.48389l-0.68744,-0.39688l3.36021,-5.82007l0.68744,0.39688zM40.83817,56.44687l-3.36021,-5.82007l0.68744,-0.39688l3.36021,5.82007z" fill="none" stroke="#9926ff"/><g fill="#f9932b" stroke="#fa9228"><path d="M30.47154,77.48822c0.01925,0 0.0358,0.00444 0.04965,0.01333c0.01376,0.00897 0.0243,0.02178 0.03162,0.03841c0.00732,0.01655 0.01098,0.03624 0.01098,0.05906c0,0.02282 -0.00366,0.04251 -0.01098,0.05906c-0.00732,0.01664 -0.01786,0.02949 -0.03162,0.03854c-0.01385,0.00906 -0.0304,0.01359 -0.04965,0.01359c-0.01951,0 -0.03615,-0.00453 -0.04991,-0.01359c-0.01385,-0.00906 -0.02448,-0.02191 -0.03188,-0.03854c-0.0074,-0.01655 -0.01111,-0.03624 -0.01111,-0.05906c0,-0.02282 0.0037,-0.04251 0.01111,-0.05906c0.0074,-0.01664 0.01803,-0.02944 0.03188,-0.03841c0.01376,-0.00888 0.0304,-0.01333 0.04991,-0.01333zM30.47154,77.50416c-0.02125,0 -0.03759,0.00806 -0.049,0.02417c-0.01141,0.01611 -0.01712,0.03968 -0.01712,0.07069c0,0.03101 0.00579,0.05462 0.01738,0.07082c0.0115,0.01629 0.02774,0.02443 0.04874,0.02443c0.02082,0 0.03693,-0.00814 0.04834,-0.02443c0.01132,-0.0162 0.01699,-0.03981 0.01699,-0.07082c0,-0.03101 -0.00562,-0.05457 -0.01685,-0.07069c-0.01132,-0.01611 -0.02748,-0.02417 -0.04847,-0.02417z"/><path d="M30.32426,77.4387v0.16594h-0.04455c-0.01768,0 -0.03162,-0.00436 -0.04181,-0.01307c-0.01019,-0.0088 -0.01529,-0.02226 -0.01529,-0.04037c0,-0.01394 0.00292,-0.025 0.00875,-0.03319c0.00575,-0.00819 0.01294,-0.01407 0.02156,-0.01764c0.00862,-0.00348 0.01746,-0.00523 0.02652,-0.00523h0.02091v-0.05644zM30.30035,77.50834h-0.01764c-0.00636,0 -0.01215,0.00122 -0.01738,0.00366c-0.00523,0.00244 -0.00936,0.00671 -0.01241,0.0128c-0.00314,0.0061 -0.0047,0.01455 -0.0047,0.02535c0,0.0149 0.00305,0.02543 0.00915,0.03162c0.0061,0.00618 0.01455,0.00928 0.02535,0.00928h0.01764z"/><path d="M30.18388,77.4387v0.16594h-0.09564v-0.01463h0.07173v-0.06036h-0.06507v-0.01424h0.06507v-0.06206h-0.0767v-0.01463z"/><path d="M30.04151,77.4387v0.16594h-0.02522l-0.08401,-0.13014l0.00105,0.00706v0.12308h-0.01725v-0.16594h0.02051l0.08859,0.13575h0.00039l-0.0017,-0.00993v-0.12582z"/></g><path d="M73.59549,66.35687h1.50976v-1.16711h1.50976c0,-0.56517 0,-12.24423 0,-12.83283h-1.50976v1.07377h-1.50976v-1.07377h-1.50976v1.07377h-1.50976v-1.07377h-1.50976v1.07377h-1.50976v-1.07377h-1.50976v1.07377h-1.50976v-1.07377h-1.50976v1.07377h-1.50976v-1.07377h-1.50976v1.07377h-1.50976c0,0 0,10.52922 0,12.92617h1.50976v-1.16711h1.50976v1.16711h1.50976v-1.16711h1.50976v1.16711h1.50976v-1.16711h1.50976v1.16711h1.50976v-1.16711h1.50976v1.16711h1.50976v-1.16711h1.50976zM60.04012,56.69403v-2.10302h3.4781v2.10302zM63.89158,56.69403v-2.10302h3.4781v2.10302zM67.74303,56.69403v-2.10302h3.4781v2.10302zM71.59439,56.69403v-2.10302h3.4781v2.10302zM60.04012,59.17041v-2.10293h3.4781v2.10293zM63.89158,59.17041v-2.10293h3.4781v2.10293zM67.74303,59.17041v-2.10293h3.4781v2.10293zM71.59439,59.17041v-2.10293h3.4781v2.10293zM60.04012,61.64661v-2.10293h3.4781v2.10293zM63.89158,61.64661v-2.10293h3.4781v2.10293zM67.74303,61.64661v-2.10293h3.4781v2.10293zM71.59439,61.64661v-2.10293h3.4781v2.10293zM60.04012,64.12299v-2.10293h3.4781v2.10293zM63.89158,64.12299v-2.10293h3.4781v2.10293zM67.74303,64.12299v-2.10293h3.4781v2.10293zM71.59439,64.12299v-2.10293h3.4781v2.10293z" fill="none" stroke="#9926ff"/><path d="M83.61174,62.82791h11.66926l4.00798,-6.94201h-19.68513zM96.31044,56.51883h0.79376v0.79376h-0.79376zM92.0285,56.91571h0.79376v0.79376h-0.79376zM92.0285,59.29698h0.79376v0.79376h-0.79376zM86.07038,56.91571h0.79376v0.79376h-0.79376zM86.07038,59.29698h0.79376v0.79376h-0.79376zM82.58221,56.51883v0.79376h-0.79376v-0.79376z" fill="none" stroke="#9926ff"/><path d="M111.33395,55.99405h1.60602v6.72571h-1.60602zM112.93997,55.99405h1.60602v6.72571h-1.60602zM114.54599,55.99405h1.60602v6.72571h-1.60602z" fill="none" stroke="#9926ff"/><path d="M172.36919,55.99405h1.60602v6.72571h-1.60602zM173.97521,55.99405h1.60602v6.72571h-1.60602zM175.58123,55.99405h1.60602v6.72571h-1.60602z" fill="none" stroke="#9926ff"/><g id="group_g-f67d4fad-a2dd-457c-81da-7f4e742b309c" fill="none" stroke="#9926ff"><ellipse cx="98662.38618" cy="2132.40978" transform="scale(0.00229,0.00232)" rx="23.64306" ry="23.64306"/><ellipse cx="72189.48371" cy="873.05657" transform="scale(0.0031,0.00315)" rx="31.99697" ry="31.99697"/><path d="M299.64975,94.70049l-12.3372,-0.00131c-0.00588,0.01017 -6.16412,10.6738 -6.1699,10.68369c0.00588,0.01017 6.16188,10.67511 6.16757,10.68509h12.33794c0.00588,-0.01017 6.16346,-10.67249 6.16916,-10.68239c-0.00588,-0.01027 -6.16178,-10.6752 -6.16757,-10.68509zM299.0465,115.02584h-11.13452c-0.00513,-0.00905 -5.56068,-9.63381 -5.566,-9.64296c0.00523,-0.00896 5.56283,-9.63251 5.56815,-9.64165l11.13387,0.00121c0.00523,0.00896 5.56068,9.63363 5.566,9.64296c-0.00513,0.00887 -5.56217,9.63129 -5.56749,9.64044z"/></g><g id="group_g-41f1181d-4338-4398-ad26-8373d4013e3e" fill="none" stroke="#9926ff"><path d="M54.8216,141.10379l-0.39688,-0.68744l0.68744,-0.39688l0.39688,0.68744z"/><path d="M55.11198,147.04669l-0.68744,-0.39688l0.39688,-0.68744l0.68744,0.39688z"/><path d="M46.60421,134.94835l-3.36021,-5.82007l0.68744,-0.39688l3.36021,5.82007z"/><path d="M43.93126,153.20213l-0.68744,-0.39688l3.36021,-5.82007l0.68744,0.39688z"/><path d="M45.67259,163.39655l-0.68744,-0.39688l0.39688,-0.68744l0.68744,0.39688z"/><path d="M45.67259,123.66981l0.39688,0.68744l-0.68744,0.39688l-0.39688,-0.68744z"/><path d="M40.92284,121.78268h-0.79376v-0.79376h0.79376z"/><path d="M40.92284,166.368h-0.79376v-0.79376h0.79376z"/><path d="M31.48327,162.32921h-6.72042v-0.79376h6.72042z"/><path d="M22.04369,166.368h-0.79376v-0.79376h0.79376z"/><path d="M14.98744,153.20213l-3.36021,-5.82007l0.68744,-0.39688l3.36021,5.82007z"/><path d="M16.20962,163.39655l-0.39688,-0.68744l0.68744,-0.39688l0.39688,0.68744z"/><path d="M7.06043,141.10379l-0.68744,-0.39688l0.39688,-0.68744l0.68744,0.39688z"/><path d="M6.77005,147.04669l-0.39688,-0.68744l0.68744,-0.39688l0.39688,0.68744z"/><path d="M16.20962,123.66981l0.68744,0.39688l-0.39688,0.68744l-0.68744,-0.39688z"/><path d="M12.31467,134.94835l-0.68744,-0.39688l3.36021,-5.82007l0.68744,0.39688z"/><path d="M22.04369,121.78268h-0.79376v-0.79376h0.79376z"/><path d="M31.48327,125.82128h-2.44651l1.9109,3.30981c0.71414,1.23693 0.71414,2.76079 0,3.99772l-5.16586,8.94758c-0.71414,1.23693 -2.03386,1.99886 -3.46214,1.99886h-10.33171c-1.42828,0 -2.748,-0.76202 -3.46214,-1.99886l-5.16586,-8.94758c-0.71414,-1.23693 -0.71414,-2.76079 0,-3.99772l5.16586,-8.94758c0.71414,-1.23693 2.03386,-1.99886 3.46214,-1.99886h10.33171c1.42828,0 2.748,0.76193 3.46214,1.99886l2.79667,4.84401h0.00002l0.00001,0.00001h2.90476z"/><path d="M28.57848,125.02753l0.00002,0l0.45826,0.79375h-4.27391v-0.79376l3.81562,0z"/></g><path d="M60.81232,143.05545l1.02387,7.95029l15.65098,-11.93948l-7.3971,-3.08842zM63.82038,148.69601l-0.63109,0.48143l-0.48143,-0.63109l0.63109,-0.48143zM66.98408,145.78338l-0.63109,0.48143l-0.48143,-0.63109l0.63109,-0.48143zM65.53979,143.89011l-0.63109,0.48143l-0.48143,-0.63109l0.63109,-0.48143zM71.72118,142.16964l-0.63109,0.48143l-0.48143,-0.63109l0.63109,-0.48143zM70.27688,140.27638l-0.63109,0.48143l-0.48143,-0.63109l0.63109,-0.48143zM74.25379,139.73844l0.63109,-0.48143l0.48143,0.63109l-0.63109,0.48143z" fill="none" stroke="#9926ff"/><ellipse cx="30803.55331" cy="48237.46929" transform="scale(0.0029,0.00295)" rx="30" ry="30" fill="none" stroke="#9926ff"/><path d="M119.91275,131.59323l-12.3372,-0.00131c-0.00588,0.01017 -6.16412,10.6738 -6.1699,10.68369c0.00588,0.01017 6.16188,10.67511 6.16757,10.68509h12.33794c0.00588,-0.01017 6.16346,-10.67249 6.16916,-10.68239c-0.00588,-0.01027 -6.16178,-10.6752 -6.16757,-10.68509zM119.89772,152.93728h-12.31097l-6.15413,-10.66176l6.15637,-10.66036l12.31022,0.00131l6.15413,10.66176z" fill="#fa9228" stroke="#fa9228"/><path d="M182.23774,129.33102h-14.91914l-7.45957,12.9453l7.45957,12.9453h14.91914l7.45967,-12.9453zM181.34598,134.6044l3.36021,5.82007l-0.68744,0.39688l-3.36021,-5.82007zM168.21046,149.94824l-3.36021,-5.82007l0.68744,-0.39688l3.36021,5.82007zM165.5376,140.82135l-0.68744,-0.39688l3.36021,-5.82007l0.68744,0.39688zM178.13838,151.80018h-6.72042v-0.79376h6.72042zM178.13838,133.54621h-6.72042v-0.79376h6.72042zM181.34598,149.94824l-0.68744,-0.39688l3.36021,-5.82007l0.68744,0.39688z" fill="none" stroke="#9926ff"/><path d="M265.03277,139.14922c-0.13861,0.66644 -0.57712,0.46614 -0.65337,0c-0.17622,0.84705 -0.80374,0.26751 -0.63975,-0.32781l0.01857,-0.00168c0.07691,0.15186 0.25043,0.59532 0.31735,0.61072c0.01848,0.01652 0.08811,-0.05628 0.10389,-0.07551c0.11079,-0.14048 0.17613,-0.35992 0.21347,-0.53511c0.01139,0.00103 0.00719,0.00103 0.01857,0c0.07691,0.15186 0.25043,0.59532 0.31735,0.61072c0.01848,0.01652 0.08811,-0.05628 0.10389,-0.07551c0.11079,-0.14048 0.17613,-0.35992 0.21347,-0.53511c0.01139,0.00103 0.00719,0.00103 0.01857,0c0.07691,0.15186 0.25043,0.59532 0.31735,0.61072c0.00383,0.00336 0.02576,-0.00289 0.04499,-0.01764c0.1388,-0.09278 0.23643,-0.42423 0.27246,-0.59308l0.01857,0.00168c0.00168,0.13478 -0.01428,0.2705 -0.04966,0.40491c-0.18266,0.60894 -0.57002,0.32519 -0.63573,-0.07728zM265.39148,137.39753l-0.01857,-0.00168c-0.03734,0.1752 -0.10258,0.39454 -0.21347,0.53511c-0.01587,0.01923 -0.08541,0.09203 -0.10389,0.07551c-0.06851,-0.01587 -0.23596,-0.45017 -0.31735,-0.61072c-0.01139,0.00103 -0.00719,0.00103 -0.01857,0c-0.03603,0.16885 -0.13376,0.5003 -0.27246,0.59308c-0.01923,0.01484 -0.04116,0.021 -0.04499,0.01764c-0.06851,-0.01587 -0.23596,-0.45017 -0.31735,-0.61072l-0.01857,0.00168c-0.16502,0.59905 0.46427,1.1715 0.63975,0.32781c0.01745,0.10659 0.04854,0.20171 0.11901,0.2915c0.32426,0.39118 0.57264,-0.11845 0.56648,-0.61921zM265.01504,136.5123c0.03538,-0.13441 0.05134,-0.27022 0.04966,-0.40491l-0.01857,-0.00177c-0.03724,0.1751 -0.10258,0.39445 -0.21347,0.53511c-0.01587,0.01923 -0.08541,0.09203 -0.10389,0.07551c-0.06851,-0.01577 -0.23587,-0.44999 -0.31735,-0.61072l-0.01857,0.00177c-0.15168,0.5507 0.39669,1.15703 0.6222,0.405zM265.99501,140.65096c0.03538,-0.13441 0.05134,-0.27022 0.04966,-0.40491l-0.01857,-0.00168c-0.03584,0.1681 -0.13347,0.50011 -0.27246,0.59308c-0.01923,0.01475 -0.04116,0.02091 -0.04499,0.01755c-0.06851,-0.01577 -0.23587,-0.44999 -0.31735,-0.61072c-0.01139,0.00103 -0.00719,0.00103 -0.01857,0c-0.03734,0.1751 -0.10258,0.39454 -0.21347,0.53511c-0.01587,0.01923 -0.08541,0.09203 -0.10389,0.07551c-0.06851,-0.01577 -0.23587,-0.44999 -0.31735,-0.61072c-0.01139,0.00103 -0.00719,0.00103 -0.01857,0c-0.03734,0.1751 -0.10258,0.39454 -0.21347,0.53511c-0.01587,0.01923 -0.08541,0.09203 -0.10389,0.07551c-0.06674,-0.0154 -0.24063,-0.45942 -0.31735,-0.61072c-0.01139,0.00103 -0.00719,0.00103 -0.01857,0c-0.03734,0.1751 -0.10258,0.39454 -0.21347,0.53511c-0.01587,0.01923 -0.08541,0.09203 -0.10389,0.07551c-0.06851,-0.01577 -0.23587,-0.44999 -0.31735,-0.61072l-0.01857,0.00168c-0.1653,0.59998 0.46446,1.17038 0.63975,0.32781c0.07504,0.45839 0.51365,0.67186 0.65337,0c0.07663,0.4681 0.51579,0.6614 0.65337,0c0.06552,0.40099 0.454,0.68343 0.63564,0.07747zM266.37135,141.66406l-0.01857,-0.00177c-0.03724,0.1751 -0.10258,0.39445 -0.21347,0.53511c-0.01587,0.01923 -0.0855,0.09203 -0.10389,0.07551c-0.06851,-0.01577 -0.23587,-0.44999 -0.31735,-0.61072c-0.01139,0.00103 -0.00719,0.00103 -0.01857,0c-0.03603,0.16885 -0.13376,0.5003 -0.27246,0.59308c-0.01923,0.01475 -0.04116,0.02091 -0.04499,0.01755c-0.06851,-0.01577 -0.23587,-0.44999 -0.31735,-0.61072c-0.01139,0.00103 -0.00719,0.00103 -0.01857,0c-0.03724,0.1751 -0.10258,0.39445 -0.21347,0.53511c-0.01587,0.01923 -0.08541,0.09203 -0.10389,0.07551c-0.06851,-0.01577 -0.23587,-0.44999 -0.31735,-0.61072c-0.01139,0.00103 -0.00719,0.00103 -0.01857,0c-0.03603,0.16885 -0.13376,0.5003 -0.27246,0.59308c-0.01923,0.01475 -0.04116,0.02091 -0.04499,0.01755c-0.06851,-0.01577 -0.23587,-0.44999 -0.31735,-0.61072c-0.01139,0.00103 -0.00719,0.00103 -0.01857,0c-0.03724,0.1751 -0.10258,0.39445 -0.21347,0.53511c-0.01587,0.01923 -0.08541,0.09203 -0.10389,0.07551c-0.06851,-0.01577 -0.23587,-0.44999 -0.31735,-0.61072l-0.01857,0.00177c-0.16502,0.59905 0.46427,1.1715 0.63975,0.32781c0.0742,0.45363 0.51383,0.67064 0.65337,0c0.0742,0.45363 0.51383,0.67064 0.65337,0c0.07607,0.4652 0.51505,0.66485 0.65337,0c0.04686,0.28646 0.27983,0.55341 0.48256,0.36636c0.15681,-0.14785 0.20563,-0.47771 0.20273,-0.6937zM266.97488,143.64425c0.03538,-0.13441 0.05134,-0.27022 0.04966,-0.40491l-0.01857,-0.00177c-0.03603,0.16885 -0.13376,0.5003 -0.27246,0.59308c-0.01923,0.01475 -0.04116,0.02091 -0.04499,0.01755c-0.06851,-0.01577 -0.23587,-0.44999 -0.31735,-0.61072c-0.01139,0.00103 -0.00719,0.00103 -0.01857,0c-0.03724,0.1751 -0.10258,0.39445 -0.21347,0.53511c-0.01587,0.01923 -0.0855,0.09203 -0.10389,0.07551c-0.06851,-0.01577 -0.23587,-0.44999 -0.31735,-0.61072c-0.01139,0.00103 -0.00719,0.00103 -0.01857,0c-0.03724,0.1751 -0.10258,0.39445 -0.21347,0.53511c-0.01587,0.01923 -0.08541,0.09203 -0.10389,0.07551c-0.06851,-0.01577 -0.23587,-0.44999 -0.31735,-0.61072c-0.01139,0.00103 -0.00719,0.00103 -0.01857,0c-0.03724,0.1751 -0.10258,0.39445 -0.21347,0.53511c-0.01587,0.01923 -0.08541,0.09203 -0.10389,0.07551c-0.06926,-0.01596 -0.23092,-0.44019 -0.31735,-0.61072c-0.01139,0.00103 -0.00719,0.00103 -0.01857,0c-0.03724,0.1751 -0.10258,0.39445 -0.21347,0.53511c-0.01587,0.01923 -0.08541,0.09203 -0.10389,0.07551c-0.06851,-0.01577 -0.23587,-0.44999 -0.31735,-0.61072c-0.01139,0.00103 -0.00719,0.00103 -0.01857,0c-0.03724,0.1751 -0.10258,0.39445 -0.21347,0.53511c-0.01587,0.01923 -0.08541,0.09203 -0.10389,0.07551c-0.06674,-0.0154 -0.24063,-0.45951 -0.31735,-0.61072c-0.01139,0.00103 -0.00719,0.00103 -0.01857,0c-0.03519,0.16493 -0.13347,0.50011 -0.27246,0.59308c-0.01923,0.01475 -0.04116,0.02091 -0.04499,0.01755c-0.06926,-0.01596 -0.23092,-0.44019 -0.31735,-0.61072l-0.01857,0.00177c-0.16288,0.59112 0.46194,1.18279 0.63975,0.32781c0.07663,0.46819 0.51523,0.6642 0.65337,0c0.07775,0.475 0.51729,0.65412 0.65337,0c0.07588,0.46399 0.51523,0.66401 0.65337,0c0.07495,0.45783 0.51393,0.67036 0.65337,0c0.07784,0.47556 0.51738,0.65356 0.65337,0c0.06487,0.3965 0.45204,0.69006 0.63545,0.07775zM267.30147,145.5339c0.03538,-0.13441 0.05134,-0.27022 0.04966,-0.40491l-0.01857,-0.00168c-0.03734,0.1751 -0.10258,0.39454 -0.21347,0.53511c-0.01577,0.01913 -0.08541,0.09203 -0.10389,0.07551c-0.06851,-0.01587 -0.23596,-0.45017 -0.31735,-0.61072c-0.01139,0.00103 -0.00719,0.00103 -0.01857,0c-0.03734,0.1751 -0.10258,0.39454 -0.21347,0.53511c-0.01577,0.01913 -0.08541,0.09203 -0.10389,0.07551c-0.06683,-0.01549 -0.24035,-0.45895 -0.31735,-0.61072c-0.01139,0.00103 -0.00719,0.00103 -0.01857,0c-0.03519,0.16493 -0.13347,0.50011 -0.27246,0.59308c-0.01923,0.01484 -0.04116,0.021 -0.04499,0.01764c-0.06851,-0.01587 -0.23596,-0.45017 -0.31735,-0.61072c-0.01139,0.00103 -0.00719,0.00103 -0.01857,0c-0.03734,0.1752 -0.10258,0.39454 -0.21347,0.53511c-0.01577,0.01913 -0.08541,0.09203 -0.10389,0.07551c-0.06851,-0.01587 -0.23596,-0.45017 -0.31735,-0.61072c-0.01139,0.00103 -0.00719,0.00103 -0.01857,0c-0.03734,0.1752 -0.10258,0.39454 -0.21347,0.53511c-0.01577,0.01913 -0.08541,0.09203 -0.10389,0.07551c-0.06683,-0.01549 -0.24035,-0.45895 -0.31735,-0.61072c-0.01139,0.00103 -0.00719,0.00103 -0.01857,0c-0.03734,0.1752 -0.10258,0.39454 -0.21347,0.53511c-0.01577,0.01913 -0.08541,0.09203 -0.10389,0.07551c-0.06683,-0.01549 -0.24035,-0.45895 -0.31735,-0.61072c-0.01139,0.00103 -0.00719,0.00103 -0.01857,0c-0.03519,0.16493 -0.13347,0.50011 -0.27246,0.59308c-0.01923,0.01484 -0.04116,0.021 -0.04499,0.01764c-0.06851,-0.01587 -0.23596,-0.45017 -0.31735,-0.61072c-0.01139,0.00103 -0.00719,0.00103 -0.01857,0c-0.03734,0.1752 -0.10258,0.39454 -0.21347,0.53511c-0.01577,0.01913 -0.08541,0.09203 -0.10389,0.07551c-0.06683,-0.01549 -0.24035,-0.45895 -0.31735,-0.61072l-0.01857,0.00168c-0.1639,0.59485 0.46296,1.17766 0.63975,0.32781c0.07635,0.4667 0.51523,0.66383 0.65337,0c0.07476,0.4569 0.51327,0.67344 0.65337,0c0.07486,0.45746 0.51346,0.67279 0.65337,0c0.08111,0.496 0.51897,0.64609 0.65337,0c0.07178,0.43851 0.51038,0.68726 0.65337,0c0.07579,0.46306 0.51439,0.66822 0.65337,0c0.06487,0.3965 0.45204,0.68996 0.63536,0.07766zM262.09156,147.60435c0.07747,0.47332 0.51682,0.65636 0.65337,0c0.0742,0.45363 0.51383,0.67064 0.65337,0c0.0784,0.4793 0.51794,0.65085 0.65337,0c0.0742,0.45363 0.51383,0.67064 0.65337,0c0.07234,0.44205 0.51094,0.68474 0.65337,0c0.0742,0.45353 0.51383,0.67064 0.65337,0c0.0742,0.45363 0.51383,0.67064 0.65337,0c0.07766,0.47454 0.51645,0.65813 0.65337,0c0.06496,0.39678 0.45195,0.69034 0.63592,0.0771c0.03538,-0.13441 0.05134,-0.27022 0.04966,-0.40491l-0.01857,-0.00177c-0.03734,0.1751 -0.10258,0.39445 -0.21347,0.53511c-0.01587,0.01923 -0.0855,0.09203 -0.10389,0.07551c-0.06851,-0.01577 -0.23587,-0.44999 -0.31735,-0.61072c-0.01139,0.00103 -0.00719,0.00103 -0.01857,0c-0.03734,0.1751 -0.10258,0.39445 -0.21347,0.53511c-0.01587,0.01923 -0.0855,0.09203 -0.10389,0.07551c-0.06926,-0.01596 -0.23092,-0.44019 -0.31735,-0.61072c-0.01139,0.00103 -0.00719,0.00103 -0.01857,0c-0.03734,0.1751 -0.10258,0.39445 -0.21347,0.53511c-0.01587,0.01923 -0.0855,0.09203 -0.10389,0.07551c-0.06851,-0.01577 -0.23587,-0.44999 -0.31735,-0.61072c-0.01139,0.00103 -0.00719,0.00103 -0.01857,0c-0.03734,0.1751 -0.10258,0.39445 -0.21347,0.53511c-0.01587,0.01923 -0.0855,0.09203 -0.10389,0.07551c-0.06851,-0.01577 -0.23587,-0.44999 -0.31735,-0.61072c-0.01139,0.00103 -0.00719,0.00103 -0.01857,0c-0.03724,0.1751 -0.10258,0.39445 -0.21347,0.53511c-0.01587,0.01923 -0.08541,0.09203 -0.10389,0.07551c-0.06851,-0.01577 -0.23587,-0.44999 -0.31735,-0.61072c-0.01139,0.00103 -0.00719,0.00103 -0.01857,0c-0.03724,0.1751 -0.10258,0.39445 -0.21347,0.53511c-0.01587,0.01923 -0.08541,0.09203 -0.10389,0.07551c-0.06851,-0.01577 -0.23587,-0.44999 -0.31735,-0.61072c-0.01139,0.00103 -0.00719,0.00103 -0.01857,0c-0.03724,0.1751 -0.10258,0.39445 -0.21347,0.53511c-0.01587,0.01923 -0.08541,0.09203 -0.10389,0.07551c-0.06851,-0.01577 -0.23587,-0.44999 -0.31735,-0.61072c-0.01139,0.00103 -0.00719,0.00103 -0.01857,0c-0.03603,0.16885 -0.13376,0.5003 -0.27246,0.59308c-0.01923,0.01475 -0.04116,0.02091 -0.04499,0.01755c-0.06851,-0.01577 -0.23587,-0.44999 -0.31735,-0.61072c-0.01139,0.00103 -0.00719,0.00103 -0.01857,0c-0.03724,0.1751 -0.10258,0.39445 -0.21347,0.53511c-0.01587,0.01923 -0.08541,0.09203 -0.10389,0.07551c-0.06851,-0.01577 -0.23587,-0.44999 -0.31735,-0.61072c-0.01139,0.00103 -0.00719,0.00103 -0.01857,0c-0.03724,0.1751 -0.10258,0.39445 -0.21347,0.53511c-0.01587,0.01923 -0.08541,0.09203 -0.10389,0.07551c-0.06851,-0.01577 -0.23587,-0.44999 -0.31735,-0.61072l-0.01857,0.00177c-0.16502,0.59896 0.46427,1.1715 0.63891,0.32874z" fill="#fa9228" stroke="#fa9228"/><path d="M29.07744,168.48466l-5.04031,16.3014h1.6801v-0.79376h6.72042v0.79376h1.6801zM28.41595,177.50673h1.3229v1.3229h-1.3229z" fill="none" stroke="#9926ff"/><path d="M68.57823,179.68518c0.03538,0.13441 0.05134,0.27012 0.04966,0.40491l-0.01857,0.00168c-0.03603,-0.16885 -0.13366,-0.5003 -0.27246,-0.59308c-0.01923,-0.01475 -0.04116,-0.021 -0.04499,-0.01764c-0.06692,0.0154 -0.24044,0.45886 -0.31735,0.61072c-0.01139,-0.00103 -0.00719,-0.00103 -0.01857,0c-0.03734,-0.1752 -0.10267,-0.39464 -0.21347,-0.53511c-0.01577,-0.01923 -0.08541,-0.09203 -0.10389,-0.07551c-0.06692,0.0154 -0.24044,0.45886 -0.31735,0.61072c-0.01139,-0.00103 -0.00719,-0.00103 -0.01857,0c-0.03734,-0.1752 -0.10267,-0.39464 -0.21347,-0.53511c-0.01577,-0.01923 -0.08541,-0.09203 -0.10389,-0.07551c-0.06692,0.0154 -0.24044,0.45886 -0.31735,0.61072l-0.01857,-0.00168c-0.164,-0.59532 0.46352,-1.17486 0.63975,-0.32781c0.07626,-0.46614 0.51477,-0.66644 0.65337,0c0.06571,-0.40248 0.45307,-0.68623 0.63573,-0.07728zM67.73472,180.89494c-0.07047,0.08979 -0.10155,0.1849 -0.11901,0.2915c-0.17548,-0.84369 -0.80477,-0.27124 -0.63975,0.32781l0.01857,0.00168c0.08139,-0.16054 0.24884,-0.59485 0.31735,-0.61072c0.00383,-0.00336 0.02576,0.0028 0.04499,0.01764c0.1387,0.09278 0.23643,0.42423 0.27246,0.59308c0.01139,-0.00103 0.00719,-0.00103 0.01857,0c0.08139,-0.16054 0.24884,-0.59485 0.31735,-0.61072c0.01848,-0.01652 0.08802,0.05628 0.10389,0.07551c0.11089,0.14057 0.17613,0.35992 0.21347,0.53511l0.01857,-0.00168c0.00616,-0.50076 -0.24222,-1.0104 -0.56648,-0.61921zM67.30256,182.80438l0.01857,0.00177c0.08149,-0.16073 0.24884,-0.59494 0.31735,-0.61072c0.01848,-0.01652 0.08802,0.05628 0.10389,0.07551c0.11089,0.14066 0.17622,0.36001 0.21347,0.53511l0.01857,-0.00177c0.00168,-0.13469 -0.01428,-0.2705 -0.04966,-0.40491c-0.22551,-0.75203 -0.77387,-0.1457 -0.6222,0.405zM68.26909,178.33811c-0.13758,-0.6614 -0.57674,-0.4681 -0.65337,0c-0.13973,-0.67186 -0.57833,-0.45839 -0.65337,0c-0.17529,-0.84257 -0.80505,-0.27218 -0.63975,0.32781l0.01857,0.00168c0.08149,-0.16073 0.24884,-0.59494 0.31735,-0.61072c0.01848,-0.01652 0.08802,0.05628 0.10389,0.07551c0.11089,0.14057 0.17613,0.36001 0.21347,0.53511c0.01139,-0.00103 0.00719,-0.00103 0.01857,0c0.07672,-0.1513 0.25062,-0.59532 0.31735,-0.61072c0.01848,-0.01652 0.08802,0.05628 0.10389,0.07551c0.11089,0.14057 0.17613,0.36001 0.21347,0.53511c0.01139,-0.00103 0.00719,-0.00103 0.01857,0c0.08149,-0.16073 0.24884,-0.59494 0.31735,-0.61072c0.01848,-0.01652 0.08802,0.05628 0.10389,0.07551c0.11089,0.14057 0.17613,0.36001 0.21347,0.53511c0.01139,-0.00103 0.00719,-0.00103 0.01857,0c0.08149,-0.16073 0.24884,-0.59494 0.31735,-0.61072c0.00383,-0.00336 0.02576,0.0028 0.04499,0.01755c0.13898,0.09297 0.23661,0.42497 0.27246,0.59308l0.01857,-0.00168c0.00168,-0.13469 -0.01428,-0.2705 -0.04966,-0.40491c-0.18164,-0.60586 -0.57012,-0.32342 -0.63564,0.07747zM69.07834,176.55383c-0.20273,-0.18705 -0.43571,0.0799 -0.48256,0.36636c-0.13833,-0.66485 -0.5773,-0.4652 -0.65337,0c-0.13954,-0.67064 -0.57917,-0.45363 -0.65337,0c-0.13954,-0.67064 -0.57917,-0.45363 -0.65337,0c-0.17548,-0.84369 -0.80477,-0.27124 -0.63975,0.32781l0.01857,0.00177c0.08149,-0.16073 0.24884,-0.59494 0.31735,-0.61072c0.01848,-0.01652 0.08802,0.05628 0.10389,0.07551c0.11089,0.14066 0.17622,0.36001 0.21347,0.53511c0.01139,-0.00103 0.00719,-0.00103 0.01857,0c0.08149,-0.16073 0.24884,-0.59494 0.31735,-0.61072c0.00383,-0.00336 0.02576,0.0028 0.04499,0.01755c0.1387,0.09278 0.23643,0.42423 0.27246,0.59308c0.01139,-0.00103 0.00719,-0.00103 0.01857,0c0.08149,-0.16073 0.24884,-0.59494 0.31735,-0.61072c0.01848,-0.01652 0.08802,0.05628 0.10389,0.07551c0.11089,0.14066 0.17622,0.36001 0.21347,0.53511c0.01139,-0.00103 0.00719,-0.00103 0.01857,0c0.08149,-0.16073 0.24884,-0.59494 0.31735,-0.61072c0.00383,-0.00336 0.02576,0.0028 0.04499,0.01755c0.1387,0.09278 0.23643,0.42423 0.27246,0.59308c0.01139,-0.00103 0.00719,-0.00103 0.01857,0c0.08149,-0.16073 0.24884,-0.59494 0.31735,-0.61072c0.01839,-0.01652 0.08802,0.05628 0.10389,0.07551c0.11089,0.14066 0.17622,0.36001 0.21347,0.53511l0.01857,-0.00177c0.00289,-0.21589 -0.04592,-0.54575 -0.20273,-0.6937zM69.24915,175.34509c-0.136,-0.65356 -0.57553,-0.47556 -0.65337,0c-0.13945,-0.67036 -0.57842,-0.45783 -0.65337,0c-0.13814,-0.66401 -0.57749,-0.46399 -0.65337,0c-0.13609,-0.65412 -0.57562,-0.475 -0.65337,0c-0.13814,-0.6642 -0.57674,-0.46819 -0.65337,0c-0.17781,-0.85499 -0.80262,-0.26331 -0.63975,0.32781l0.01857,0.00177c0.08643,-0.17053 0.2481,-0.59476 0.31735,-0.61072c0.00383,-0.00336 0.02576,0.0028 0.04499,0.01755c0.13898,0.09297 0.23727,0.42815 0.27246,0.59308c0.01139,-0.00103 0.00719,-0.00103 0.01857,0c0.07672,-0.15121 0.25062,-0.59532 0.31735,-0.61072c0.01848,-0.01652 0.08802,0.05628 0.10389,0.07551c0.11089,0.14066 0.17622,0.36001 0.21347,0.53511c0.01139,-0.00103 0.00719,-0.00103 0.01857,0c0.08149,-0.16073 0.24884,-0.59494 0.31735,-0.61072c0.01848,-0.01652 0.08802,0.05628 0.10389,0.07551c0.11089,0.14066 0.17622,0.36001 0.21347,0.53511c0.01139,-0.00103 0.00719,-0.00103 0.01857,0c0.08643,-0.17053 0.2481,-0.59476 0.31735,-0.61072c0.01848,-0.01652 0.08802,0.05628 0.10389,0.07551c0.11089,0.14066 0.17622,0.36001 0.21347,0.53511c0.01139,-0.00103 0.00719,-0.00103 0.01857,0c0.08149,-0.16073 0.24884,-0.59494 0.31735,-0.61072c0.01848,-0.01652 0.08802,0.05628 0.10389,0.07551c0.11089,0.14066 0.17622,0.36001 0.21347,0.53511c0.01139,-0.00103 0.00719,-0.00103 0.01857,0c0.08149,-0.16073 0.24884,-0.59494 0.31735,-0.61072c0.01839,-0.01652 0.08802,0.05628 0.10389,0.07551c0.11089,0.14066 0.17622,0.36001 0.21347,0.53511c0.01139,-0.00103 0.00719,-0.00103 0.01857,0c0.08149,-0.16073 0.24884,-0.59494 0.31735,-0.61072c0.00383,-0.00336 0.02576,0.0028 0.04499,0.01755c0.1387,0.09278 0.23643,0.42423 0.27246,0.59308l0.01857,-0.00177c0.00168,-0.13469 -0.01428,-0.2705 -0.04966,-0.40491c-0.18341,-0.61221 -0.57058,-0.31875 -0.63545,0.07775zM69.57584,173.45535c-0.13898,-0.66822 -0.57758,-0.46306 -0.65337,0c-0.143,-0.68726 -0.5816,-0.43851 -0.65337,0c-0.13441,-0.64609 -0.57226,-0.496 -0.65337,0c-0.13992,-0.67279 -0.57852,-0.45746 -0.65337,0c-0.1401,-0.67344 -0.57861,-0.4569 -0.65337,0c-0.13814,-0.66383 -0.57702,-0.4667 -0.65337,0c-0.17678,-0.84985 -0.80365,-0.26704 -0.63975,0.32781l0.01857,0.00168c0.077,-0.15177 0.25052,-0.59522 0.31735,-0.61072c0.01848,-0.01652 0.08811,0.05638 0.10389,0.07551c0.11089,0.14057 0.17613,0.35992 0.21347,0.53511c0.01139,-0.00103 0.00719,-0.00103 0.01857,0c0.08139,-0.16054 0.24884,-0.59485 0.31735,-0.61072c0.00383,-0.00336 0.02576,0.0028 0.04499,0.01764c0.13898,0.09297 0.23727,0.42815 0.27246,0.59308c0.01139,-0.00103 0.00719,-0.00103 0.01857,0c0.077,-0.15177 0.25052,-0.59522 0.31735,-0.61072c0.01848,-0.01652 0.08811,0.05638 0.10389,0.07551c0.11089,0.14057 0.17613,0.35992 0.21347,0.53511c0.01139,-0.00103 0.00719,-0.00103 0.01857,0c0.077,-0.15177 0.25052,-0.59522 0.31735,-0.61072c0.01848,-0.01652 0.08811,0.05638 0.10389,0.07551c0.11089,0.14057 0.17613,0.35992 0.21347,0.53511c0.01139,-0.00103 0.00719,-0.00103 0.01857,0c0.08139,-0.16054 0.24884,-0.59485 0.31735,-0.61072c0.01848,-0.01652 0.08811,0.05638 0.10389,0.07551c0.11089,0.14057 0.17613,0.35992 0.21347,0.53511c0.01139,-0.00103 0.00719,-0.00103 0.01857,0c0.08139,-0.16054 0.24884,-0.59485 0.31735,-0.61072c0.00383,-0.00336 0.02576,0.0028 0.04499,0.01764c0.13898,0.09297 0.23727,0.42815 0.27246,0.59308c0.01139,-0.00103 0.00719,-0.00103 0.01857,0c0.077,-0.15177 0.25052,-0.59522 0.31735,-0.61072c0.01848,-0.01652 0.08811,0.05638 0.10389,0.07551c0.11089,0.14057 0.17613,0.36001 0.21347,0.53511c0.01139,-0.00103 0.00719,-0.00103 0.01857,0c0.08139,-0.16054 0.24884,-0.59485 0.31735,-0.61072c0.01848,-0.01652 0.08811,0.05638 0.10389,0.07551c0.11089,0.14057 0.17613,0.36001 0.21347,0.53511l0.01857,-0.00168c0.00168,-0.13469 -0.01428,-0.2705 -0.04966,-0.40491c-0.18332,-0.61221 -0.57049,-0.31885 -0.63536,0.07766zM64.36238,171.63598l0.01857,0.00177c0.08149,-0.16073 0.24884,-0.59494 0.31735,-0.61072c0.01848,-0.01652 0.08802,0.05628 0.10389,0.07551c0.11089,0.14066 0.17622,0.36001 0.21347,0.53511c0.01139,-0.00103 0.00719,-0.00103 0.01857,0c0.08149,-0.16073 0.24884,-0.59494 0.31735,-0.61072c0.01848,-0.01652 0.08802,0.05628 0.10389,0.07551c0.11089,0.14066 0.17622,0.36001 0.21347,0.53511c0.01139,-0.00103 0.00719,-0.00103 0.01857,0c0.08149,-0.16073 0.24884,-0.59494 0.31735,-0.61072c0.00383,-0.00336 0.02576,0.0028 0.04499,0.01755c0.1387,0.09278 0.23643,0.42423 0.27246,0.59308c0.01139,-0.00103 0.00719,-0.00103 0.01857,0c0.08149,-0.16073 0.24884,-0.59494 0.31735,-0.61072c0.01848,-0.01652 0.08802,0.05628 0.10389,0.07551c0.11089,0.14066 0.17622,0.36001 0.21347,0.53511c0.01139,-0.00103 0.00719,-0.00103 0.01857,0c0.08149,-0.16073 0.24884,-0.59494 0.31735,-0.61072c0.01848,-0.01652 0.08802,0.05628 0.10389,0.07551c0.11089,0.14066 0.17622,0.36001 0.21347,0.53511c0.01139,-0.00103 0.00719,-0.00103 0.01857,0c0.08149,-0.16073 0.24884,-0.59494 0.31735,-0.61072c0.01848,-0.01652 0.08802,0.05628 0.10389,0.07551c0.11089,0.14066 0.17622,0.36001 0.21347,0.53511c0.01139,-0.00103 0.00719,-0.00103 0.01857,0c0.08149,-0.16073 0.24884,-0.59494 0.31735,-0.61072c0.01839,-0.01652 0.08802,0.05628 0.10389,0.07551c0.11089,0.14066 0.17613,0.36001 0.21347,0.53511c0.01139,-0.00103 0.00719,-0.00103 0.01857,0c0.08149,-0.16073 0.24884,-0.59494 0.31735,-0.61072c0.01839,-0.01652 0.08802,0.05628 0.10389,0.07551c0.11089,0.14066 0.17613,0.36001 0.21347,0.53511c0.01139,-0.00103 0.00719,-0.00103 0.01857,0c0.08643,-0.17053 0.2481,-0.59476 0.31735,-0.61072c0.01839,-0.01652 0.08802,0.05628 0.10389,0.07551c0.11089,0.14066 0.17613,0.36001 0.21347,0.53511c0.01139,-0.00103 0.00719,-0.00103 0.01857,0c0.08149,-0.16073 0.24884,-0.59494 0.31735,-0.61072c0.01839,-0.01652 0.08802,0.05628 0.10389,0.07551c0.11089,0.14066 0.17613,0.36001 0.21347,0.53511l0.01857,-0.00177c0.00168,-0.13469 -0.01428,-0.2705 -0.04966,-0.40491c-0.18397,-0.61324 -0.57096,-0.31969 -0.63592,0.0771c-0.13693,-0.65813 -0.57572,-0.47454 -0.65337,0c-0.13954,-0.67064 -0.57917,-0.45363 -0.65337,0c-0.13954,-0.67064 -0.57917,-0.45353 -0.65337,0c-0.14244,-0.68474 -0.58104,-0.44205 -0.65337,0c-0.13954,-0.67064 -0.57917,-0.45363 -0.65337,0c-0.13544,-0.65085 -0.57497,-0.4793 -0.65337,0c-0.13954,-0.67064 -0.57917,-0.45363 -0.65337,0c-0.13656,-0.65636 -0.5759,-0.47332 -0.65337,0c-0.17464,-0.84267 -0.80393,-0.27022 -0.63891,0.32874z" fill="#fa9228" stroke="#fa9228"/><path d="M94.48673,168.48466h-1.6801v0.79376h-6.72042v-0.79376h-1.6801l5.04031,16.3014zM88.78492,174.4411h1.3229v1.3229h-1.3229z" fill="none" stroke="#9926ff"/><path d="M114.12903,173.50827c-0.13861,0.66644 -0.57712,0.46614 -0.65337,0c-0.17622,0.84705 -0.80374,0.26751 -0.63975,-0.32781l0.01857,-0.00168c0.07691,0.15186 0.25043,0.59532 0.31735,0.61072c0.01848,0.01652 0.08811,-0.05628 0.10389,-0.07551c0.11079,-0.14048 0.17613,-0.35992 0.21347,-0.53511c0.01139,0.00103 0.00719,0.00103 0.01857,0c0.07691,0.15186 0.25043,0.59532 0.31735,0.61072c0.01848,0.01652 0.08811,-0.05628 0.10389,-0.07551c0.11079,-0.14048 0.17613,-0.35992 0.21347,-0.53511c0.01139,0.00103 0.00719,0.00103 0.01857,0c0.07691,0.15186 0.25043,0.59532 0.31735,0.61072c0.00383,0.00336 0.02576,-0.00289 0.04499,-0.01764c0.1388,-0.09278 0.23643,-0.42423 0.27246,-0.59308l0.01857,0.00168c0.00168,0.13478 -0.01428,0.2705 -0.04966,0.40491c-0.18266,0.60894 -0.57002,0.32519 -0.63573,-0.07728zM114.48774,171.75657l-0.01857,-0.00168c-0.03734,0.1752 -0.10258,0.39454 -0.21347,0.53511c-0.01587,0.01923 -0.08541,0.09203 -0.10389,0.07551c-0.06851,-0.01587 -0.23596,-0.45017 -0.31735,-0.61072c-0.01139,0.00103 -0.00719,0.00103 -0.01857,0c-0.03603,0.16885 -0.13376,0.5003 -0.27246,0.59308c-0.01923,0.01484 -0.04116,0.021 -0.04499,0.01764c-0.06851,-0.01587 -0.23596,-0.45017 -0.31735,-0.61072l-0.01857,0.00168c-0.16502,0.59905 0.46427,1.1715 0.63975,0.32781c0.01745,0.10659 0.04854,0.20171 0.11901,0.2915c0.32426,0.39118 0.57264,-0.11845 0.56648,-0.61921zM114.1113,170.87135c0.03538,-0.13441 0.05134,-0.27022 0.04966,-0.40491l-0.01857,-0.00177c-0.03724,0.1751 -0.10258,0.39445 -0.21347,0.53511c-0.01587,0.01923 -0.08541,0.09203 -0.10389,0.07551c-0.06851,-0.01577 -0.23587,-0.44999 -0.31735,-0.61072l-0.01857,0.00177c-0.15168,0.5507 0.39669,1.15703 0.6222,0.405zM115.09127,175.01c0.03538,-0.13441 0.05134,-0.27022 0.04966,-0.40491l-0.01857,-0.00168c-0.03584,0.1681 -0.13347,0.50011 -0.27246,0.59308c-0.01923,0.01475 -0.04116,0.02091 -0.04499,0.01755c-0.06851,-0.01577 -0.23587,-0.44999 -0.31735,-0.61072c-0.01139,0.00103 -0.00719,0.00103 -0.01857,0c-0.03734,0.1751 -0.10258,0.39454 -0.21347,0.53511c-0.01587,0.01923 -0.08541,0.09203 -0.10389,0.07551c-0.06851,-0.01577 -0.23587,-0.44999 -0.31735,-0.61072c-0.01139,0.00103 -0.00719,0.00103 -0.01857,0c-0.03734,0.1751 -0.10258,0.39454 -0.21347,0.53511c-0.01587,0.01923 -0.08541,0.09203 -0.10389,0.07551c-0.06674,-0.0154 -0.24063,-0.45942 -0.31735,-0.61072c-0.01139,0.00103 -0.00719,0.00103 -0.01857,0c-0.03734,0.1751 -0.10258,0.39454 -0.21347,0.53511c-0.01587,0.01923 -0.08541,0.09203 -0.10389,0.07551c-0.06851,-0.01577 -0.23587,-0.44999 -0.31735,-0.61072l-0.01857,0.00168c-0.1653,0.59998 0.46446,1.17038 0.63975,0.32781c0.07504,0.45839 0.51365,0.67186 0.65337,0c0.07663,0.4681 0.51579,0.6614 0.65337,0c0.06552,0.40099 0.454,0.68343 0.63564,0.07747zM115.46761,176.02311l-0.01857,-0.00177c-0.03724,0.1751 -0.10258,0.39445 -0.21347,0.53511c-0.01587,0.01923 -0.0855,0.09203 -0.10389,0.07551c-0.06851,-0.01577 -0.23587,-0.44999 -0.31735,-0.61072c-0.01139,0.00103 -0.00719,0.00103 -0.01857,0c-0.03603,0.16885 -0.13376,0.5003 -0.27246,0.59308c-0.01923,0.01475 -0.04116,0.02091 -0.04499,0.01755c-0.06851,-0.01577 -0.23587,-0.44999 -0.31735,-0.61072c-0.01139,0.00103 -0.00719,0.00103 -0.01857,0c-0.03724,0.1751 -0.10258,0.39445 -0.21347,0.53511c-0.01587,0.01923 -0.08541,0.09203 -0.10389,0.07551c-0.06851,-0.01577 -0.23587,-0.44999 -0.31735,-0.61072c-0.01139,0.00103 -0.00719,0.00103 -0.01857,0c-0.03603,0.16885 -0.13376,0.5003 -0.27246,0.59308c-0.01923,0.01475 -0.04116,0.02091 -0.04499,0.01755c-0.06851,-0.01577 -0.23587,-0.44999 -0.31735,-0.61072c-0.01139,0.00103 -0.00719,0.00103 -0.01857,0c-0.03724,0.1751 -0.10258,0.39445 -0.21347,0.53511c-0.01587,0.01923 -0.08541,0.09203 -0.10389,0.07551c-0.06851,-0.01577 -0.23587,-0.44999 -0.31735,-0.61072l-0.01857,0.00177c-0.16502,0.59905 0.46427,1.1715 0.63975,0.32781c0.0742,0.45363 0.51383,0.67064 0.65337,0c0.0742,0.45363 0.51383,0.67064 0.65337,0c0.07607,0.4652 0.51505,0.66485 0.65337,0c0.04686,0.28646 0.27983,0.55341 0.48256,0.36636c0.15681,-0.14785 0.20563,-0.47771 0.20273,-0.6937zM116.07114,178.0033c0.03538,-0.13441 0.05134,-0.27022 0.04966,-0.40491l-0.01857,-0.00177c-0.03603,0.16885 -0.13376,0.5003 -0.27246,0.59308c-0.01923,0.01475 -0.04116,0.02091 -0.04499,0.01755c-0.06851,-0.01577 -0.23587,-0.44999 -0.31735,-0.61072c-0.01139,0.00103 -0.00719,0.00103 -0.01857,0c-0.03724,0.1751 -0.10258,0.39445 -0.21347,0.53511c-0.01587,0.01923 -0.0855,0.09203 -0.10389,0.07551c-0.06851,-0.01577 -0.23587,-0.44999 -0.31735,-0.61072c-0.01139,0.00103 -0.00719,0.00103 -0.01857,0c-0.03724,0.1751 -0.10258,0.39445 -0.21347,0.53511c-0.01587,0.01923 -0.08541,0.09203 -0.10389,0.07551c-0.06851,-0.01577 -0.23587,-0.44999 -0.31735,-0.61072c-0.01139,0.00103 -0.00719,0.00103 -0.01857,0c-0.03724,0.1751 -0.10258,0.39445 -0.21347,0.53511c-0.01587,0.01923 -0.08541,0.09203 -0.10389,0.07551c-0.06926,-0.01596 -0.23092,-0.44019 -0.31735,-0.61072c-0.01139,0.00103 -0.00719,0.00103 -0.01857,0c-0.03724,0.1751 -0.10258,0.39445 -0.21347,0.53511c-0.01587,0.01923 -0.08541,0.09203 -0.10389,0.07551c-0.06851,-0.01577 -0.23587,-0.44999 -0.31735,-0.61072c-0.01139,0.00103 -0.00719,0.00103 -0.01857,0c-0.03724,0.1751 -0.10258,0.39445 -0.21347,0.53511c-0.01587,0.01923 -0.08541,0.09203 -0.10389,0.07551c-0.06674,-0.0154 -0.24063,-0.45951 -0.31735,-0.61072c-0.01139,0.00103 -0.00719,0.00103 -0.01857,0c-0.03519,0.16493 -0.13347,0.50011 -0.27246,0.59308c-0.01923,0.01475 -0.04116,0.02091 -0.04499,0.01755c-0.06926,-0.01596 -0.23092,-0.44019 -0.31735,-0.61072l-0.01857,0.00177c-0.16288,0.59112 0.46194,1.18279 0.63975,0.32781c0.07663,0.46819 0.51523,0.6642 0.65337,0c0.07775,0.475 0.51729,0.65412 0.65337,0c0.07588,0.46399 0.51523,0.66401 0.65337,0c0.07495,0.45783 0.51393,0.67036 0.65337,0c0.07784,0.47556 0.51738,0.65356 0.65337,0c0.06487,0.3966 0.45204,0.69006 0.63545,0.07775zM116.39774,179.89295c0.03538,-0.13441 0.05134,-0.27022 0.04966,-0.40491l-0.01857,-0.00168c-0.03734,0.1751 -0.10258,0.39454 -0.21347,0.53511c-0.01577,0.01913 -0.08541,0.09203 -0.10389,0.07551c-0.06851,-0.01587 -0.23596,-0.45017 -0.31735,-0.61072c-0.01139,0.00103 -0.00719,0.00103 -0.01857,0c-0.03734,0.1751 -0.10258,0.39454 -0.21347,0.53511c-0.01577,0.01913 -0.08541,0.09203 -0.10389,0.07551c-0.06683,-0.01549 -0.24035,-0.45895 -0.31735,-0.61072c-0.01139,0.00103 -0.00719,0.00103 -0.01857,0c-0.03519,0.16493 -0.13347,0.50011 -0.27246,0.59308c-0.01923,0.01484 -0.04116,0.021 -0.04499,0.01764c-0.06851,-0.01587 -0.23596,-0.45017 -0.31735,-0.61072c-0.01139,0.00103 -0.00719,0.00103 -0.01857,0c-0.03734,0.1752 -0.10258,0.39454 -0.21347,0.53511c-0.01577,0.01913 -0.08541,0.09203 -0.10389,0.07551c-0.06851,-0.01587 -0.23596,-0.45017 -0.31735,-0.61072c-0.01139,0.00103 -0.00719,0.00103 -0.01857,0c-0.03734,0.1752 -0.10258,0.39454 -0.21347,0.53511c-0.01577,0.01913 -0.08541,0.09203 -0.10389,0.07551c-0.06683,-0.01549 -0.24035,-0.45895 -0.31735,-0.61072c-0.01139,0.00103 -0.00719,0.00103 -0.01857,0c-0.03734,0.1752 -0.10258,0.39454 -0.21347,0.53511c-0.01577,0.01913 -0.08541,0.09203 -0.10389,0.07551c-0.06683,-0.01549 -0.24035,-0.45895 -0.31735,-0.61072c-0.01139,0.00103 -0.00719,0.00103 -0.01857,0c-0.03519,0.16493 -0.13347,0.50011 -0.27246,0.59308c-0.01923,0.01484 -0.04116,0.021 -0.04499,0.01764c-0.06851,-0.01587 -0.23596,-0.45017 -0.31735,-0.61072c-0.01139,0.00103 -0.00719,0.00103 -0.01857,0c-0.03734,0.1752 -0.10258,0.39454 -0.21347,0.53511c-0.01577,0.01913 -0.08541,0.09203 -0.10389,0.07551c-0.06683,-0.01549 -0.24035,-0.45895 -0.31735,-0.61072l-0.01857,0.00168c-0.1639,0.59485 0.46296,1.17766 0.63975,0.32781c0.07635,0.4667 0.51523,0.66383 0.65337,0c0.07476,0.4569 0.51327,0.67344 0.65337,0c0.07486,0.45746 0.51346,0.67279 0.65337,0c0.08111,0.496 0.51897,0.64609 0.65337,0c0.07178,0.43851 0.51038,0.68726 0.65337,0c0.07579,0.46306 0.51439,0.66822 0.65337,0c0.06487,0.3966 0.45204,0.68996 0.63536,0.07766zM111.18782,181.9634c0.07747,0.47332 0.51682,0.65636 0.65337,0c0.0742,0.45363 0.51383,0.67064 0.65337,0c0.0784,0.4793 0.51794,0.65085 0.65337,0c0.0742,0.45363 0.51383,0.67064 0.65337,0c0.07234,0.44205 0.51094,0.68474 0.65337,0c0.0742,0.45353 0.51383,0.67064 0.65337,0c0.0742,0.45363 0.51383,0.67064 0.65337,0c0.07766,0.47454 0.51645,0.65813 0.65337,0c0.06496,0.39678 0.45195,0.69034 0.63592,0.0771c0.03538,-0.13441 0.05134,-0.27022 0.04966,-0.40491l-0.01857,-0.00177c-0.03734,0.1751 -0.10258,0.39445 -0.21347,0.53511c-0.01587,0.01923 -0.0855,0.09203 -0.10389,0.07551c-0.06851,-0.01577 -0.23587,-0.44999 -0.31735,-0.61072c-0.01139,0.00103 -0.00719,0.00103 -0.01857,0c-0.03734,0.1751 -0.10258,0.39445 -0.21347,0.53511c-0.01587,0.01923 -0.0855,0.09203 -0.10389,0.07551c-0.06926,-0.01596 -0.23092,-0.44019 -0.31735,-0.61072c-0.01139,0.00103 -0.00719,0.00103 -0.01857,0c-0.03734,0.1751 -0.10258,0.39445 -0.21347,0.53511c-0.01587,0.01923 -0.0855,0.09203 -0.10389,0.07551c-0.06851,-0.01577 -0.23587,-0.44999 -0.31735,-0.61072c-0.01139,0.00103 -0.00719,0.00103 -0.01857,0c-0.03734,0.1751 -0.10258,0.39445 -0.21347,0.53511c-0.01587,0.01923 -0.0855,0.09203 -0.10389,0.07551c-0.06851,-0.01577 -0.23587,-0.44999 -0.31735,-0.61072c-0.01139,0.00103 -0.00719,0.00103 -0.01857,0c-0.03724,0.1751 -0.10258,0.39445 -0.21347,0.53511c-0.01587,0.01923 -0.08541,0.09203 -0.10389,0.07551c-0.06851,-0.01577 -0.23587,-0.44999 -0.31735,-0.61072c-0.01139,0.00103 -0.00719,0.00103 -0.01857,0c-0.03724,0.1751 -0.10258,0.39445 -0.21347,0.53511c-0.01587,0.01923 -0.08541,0.09203 -0.10389,0.07551c-0.06851,-0.01577 -0.23587,-0.44999 -0.31735,-0.61072c-0.01139,0.00103 -0.00719,0.00103 -0.01857,0c-0.03724,0.1751 -0.10258,0.39445 -0.21347,0.53511c-0.01587,0.01923 -0.08541,0.09203 -0.10389,0.07551c-0.06851,-0.01577 -0.23587,-0.44999 -0.31735,-0.61072c-0.01139,0.00103 -0.00719,0.00103 -0.01857,0c-0.03603,0.16885 -0.13376,0.5003 -0.27246,0.59308c-0.01923,0.01475 -0.04116,0.02091 -0.04499,0.01755c-0.06851,-0.01577 -0.23587,-0.44999 -0.31735,-0.61072c-0.01139,0.00103 -0.00719,0.00103 -0.01857,0c-0.03724,0.1751 -0.10258,0.39445 -0.21347,0.53511c-0.01587,0.01923 -0.08541,0.09203 -0.10389,0.07551c-0.06851,-0.01577 -0.23587,-0.44999 -0.31735,-0.61072c-0.01139,0.00103 -0.00719,0.00103 -0.01857,0c-0.03724,0.1751 -0.10258,0.39445 -0.21347,0.53511c-0.01587,0.01923 -0.08541,0.09203 -0.10389,0.07551c-0.06851,-0.01577 -0.23587,-0.44999 -0.31735,-0.61072l-0.01857,0.00177c-0.16502,0.59905 0.46427,1.1715 0.63891,0.32874z" fill="#fa9228" stroke="#fa9228"/><path d="M174.77822,168.48466l-5.04031,16.3014h1.6801v-0.79376h6.72042v0.79376h1.6801zM174.11672,177.50673h1.3229v1.3229h-1.3229z" fill="none" stroke="#9926ff"/><path d="M265.66851,179.68518c0.03538,0.13441 0.05134,0.27012 0.04966,0.40491l-0.01857,0.00168c-0.03603,-0.16885 -0.13366,-0.5003 -0.27246,-0.59308c-0.01923,-0.01475 -0.04116,-0.021 -0.04499,-0.01764c-0.06692,0.0154 -0.24044,0.45886 -0.31735,0.61072c-0.01139,-0.00103 -0.00719,-0.00103 -0.01857,0c-0.03734,-0.1752 -0.10267,-0.39464 -0.21347,-0.53511c-0.01577,-0.01923 -0.08541,-0.09203 -0.10389,-0.07551c-0.06692,0.0154 -0.24044,0.45886 -0.31735,0.61072c-0.01139,-0.00103 -0.00719,-0.00103 -0.01857,0c-0.03734,-0.1752 -0.10267,-0.39464 -0.21347,-0.53511c-0.01577,-0.01923 -0.08541,-0.09203 -0.10389,-0.07551c-0.06692,0.0154 -0.24044,0.45886 -0.31735,0.61072l-0.01857,-0.00168c-0.164,-0.59532 0.46352,-1.17486 0.63975,-0.32781c0.07626,-0.46614 0.51477,-0.66644 0.65337,0c0.06571,-0.40248 0.45307,-0.68623 0.63573,-0.07728zM264.825,180.89494c-0.07047,0.08979 -0.10155,0.1849 -0.11901,0.2915c-0.17548,-0.84369 -0.80477,-0.27124 -0.63975,0.32781l0.01857,0.00168c0.08139,-0.16054 0.24884,-0.59485 0.31735,-0.61072c0.00383,-0.00336 0.02576,0.0028 0.04499,0.01764c0.1387,0.09278 0.23643,0.42423 0.27246,0.59308c0.01139,-0.00103 0.00719,-0.00103 0.01857,0c0.08139,-0.16054 0.24884,-0.59485 0.31735,-0.61072c0.01848,-0.01652 0.08802,0.05628 0.10389,0.07551c0.11089,0.14057 0.17613,0.35992 0.21347,0.53511l0.01857,-0.00168c0.00616,-0.50076 -0.24222,-1.0104 -0.56648,-0.61921zM264.39284,182.80438l0.01857,0.00177c0.08149,-0.16073 0.24884,-0.59494 0.31735,-0.61072c0.01848,-0.01652 0.08802,0.05628 0.10389,0.07551c0.11089,0.14066 0.17622,0.36001 0.21347,0.53511l0.01857,-0.00177c0.00168,-0.13469 -0.01428,-0.2705 -0.04966,-0.40491c-0.22551,-0.75203 -0.77387,-0.1457 -0.6222,0.405zM265.35937,178.33811c-0.13758,-0.6614 -0.57674,-0.4681 -0.65337,0c-0.13973,-0.67186 -0.57833,-0.45839 -0.65337,0c-0.17529,-0.84257 -0.80505,-0.27218 -0.63975,0.32781l0.01857,0.00168c0.08149,-0.16073 0.24884,-0.59494 0.31735,-0.61072c0.01848,-0.01652 0.08802,0.05628 0.10389,0.07551c0.11089,0.14057 0.17613,0.36001 0.21347,0.53511c0.01139,-0.00103 0.00719,-0.00103 0.01857,0c0.07672,-0.1513 0.25062,-0.59532 0.31735,-0.61072c0.01848,-0.01652 0.08802,0.05628 0.10389,0.07551c0.11089,0.14057 0.17613,0.36001 0.21347,0.53511c0.01139,-0.00103 0.00719,-0.00103 0.01857,0c0.08149,-0.16073 0.24884,-0.59494 0.31735,-0.61072c0.01848,-0.01652 0.08802,0.05628 0.10389,0.07551c0.11089,0.14057 0.17613,0.36001 0.21347,0.53511c0.01139,-0.00103 0.00719,-0.00103 0.01857,0c0.08149,-0.16073 0.24884,-0.59494 0.31735,-0.61072c0.00383,-0.00336 0.02576,0.0028 0.04499,0.01755c0.13898,0.09297 0.23661,0.42497 0.27246,0.59308l0.01857,-0.00168c0.00168,-0.13469 -0.01428,-0.2705 -0.04966,-0.40491c-0.18164,-0.60586 -0.57012,-0.32342 -0.63564,0.07747zM266.16862,176.55383c-0.20273,-0.18705 -0.43571,0.0799 -0.48256,0.36636c-0.13833,-0.66485 -0.5773,-0.4652 -0.65337,0c-0.13954,-0.67064 -0.57917,-0.45363 -0.65337,0c-0.13954,-0.67064 -0.57917,-0.45363 -0.65337,0c-0.17548,-0.84369 -0.80477,-0.27124 -0.63975,0.32781l0.01857,0.00177c0.08149,-0.16073 0.24884,-0.59494 0.31735,-0.61072c0.01848,-0.01652 0.08802,0.05628 0.10389,0.07551c0.11089,0.14066 0.17622,0.36001 0.21347,0.53511c0.01139,-0.00103 0.00719,-0.00103 0.01857,0c0.08149,-0.16073 0.24884,-0.59494 0.31735,-0.61072c0.00383,-0.00336 0.02576,0.0028 0.04499,0.01755c0.1387,0.09278 0.23643,0.42423 0.27246,0.59308c0.01139,-0.00103 0.00719,-0.00103 0.01857,0c0.08149,-0.16073 0.24884,-0.59494 0.31735,-0.61072c0.01848,-0.01652 0.08802,0.05628 0.10389,0.07551c0.11089,0.14066 0.17622,0.36001 0.21347,0.53511c0.01139,-0.00103 0.00719,-0.00103 0.01857,0c0.08149,-0.16073 0.24884,-0.59494 0.31735,-0.61072c0.00383,-0.00336 0.02576,0.0028 0.04499,0.01755c0.1387,0.09278 0.23643,0.42423 0.27246,0.59308c0.01139,-0.00103 0.00719,-0.00103 0.01857,0c0.08149,-0.16073 0.24884,-0.59494 0.31735,-0.61072c0.01839,-0.01652 0.08802,0.05628 0.10389,0.07551c0.11089,0.14066 0.17622,0.36001 0.21347,0.53511l0.01857,-0.00177c0.00289,-0.21589 -0.04592,-0.54575 -0.20273,-0.6937zM266.33943,175.34509c-0.136,-0.65356 -0.57553,-0.47556 -0.65337,0c-0.13945,-0.67036 -0.57842,-0.45783 -0.65337,0c-0.13814,-0.66401 -0.57749,-0.46399 -0.65337,0c-0.13609,-0.65412 -0.57562,-0.475 -0.65337,0c-0.13814,-0.6642 -0.57674,-0.46819 -0.65337,0c-0.17781,-0.85499 -0.80262,-0.26331 -0.63975,0.32781l0.01857,0.00177c0.08643,-0.17053 0.2481,-0.59476 0.31735,-0.61072c0.00383,-0.00336 0.02576,0.0028 0.04499,0.01755c0.13898,0.09297 0.23727,0.42815 0.27246,0.59308c0.01139,-0.00103 0.00719,-0.00103 0.01857,0c0.07672,-0.15121 0.25062,-0.59532 0.31735,-0.61072c0.01848,-0.01652 0.08802,0.05628 0.10389,0.07551c0.11089,0.14066 0.17622,0.36001 0.21347,0.53511c0.01139,-0.00103 0.00719,-0.00103 0.01857,0c0.08149,-0.16073 0.24884,-0.59494 0.31735,-0.61072c0.01848,-0.01652 0.08802,0.05628 0.10389,0.07551c0.11089,0.14066 0.17622,0.36001 0.21347,0.53511c0.01139,-0.00103 0.00719,-0.00103 0.01857,0c0.08643,-0.17053 0.2481,-0.59476 0.31735,-0.61072c0.01848,-0.01652 0.08802,0.05628 0.10389,0.07551c0.11089,0.14066 0.17622,0.36001 0.21347,0.53511c0.01139,-0.00103 0.00719,-0.00103 0.01857,0c0.08149,-0.16073 0.24884,-0.59494 0.31735,-0.61072c0.01848,-0.01652 0.08802,0.05628 0.10389,0.07551c0.11089,0.14066 0.17622,0.36001 0.21347,0.53511c0.01139,-0.00103 0.00719,-0.00103 0.01857,0c0.08149,-0.16073 0.24884,-0.59494 0.31735,-0.61072c0.01839,-0.01652 0.08802,0.05628 0.10389,0.07551c0.11089,0.14066 0.17622,0.36001 0.21347,0.53511c0.01139,-0.00103 0.00719,-0.00103 0.01857,0c0.08149,-0.16073 0.24884,-0.59494 0.31735,-0.61072c0.00383,-0.00336 0.02576,0.0028 0.04499,0.01755c0.1387,0.09278 0.23643,0.42423 0.27246,0.59308l0.01857,-0.00177c0.00168,-0.13469 -0.01428,-0.2705 -0.04966,-0.40491c-0.18341,-0.61221 -0.57058,-0.31875 -0.63545,0.07775zM266.66611,173.45535c-0.13898,-0.66822 -0.57758,-0.46306 -0.65337,0c-0.143,-0.68726 -0.5816,-0.43851 -0.65337,0c-0.13441,-0.64609 -0.57226,-0.496 -0.65337,0c-0.13992,-0.67279 -0.57852,-0.45746 -0.65337,0c-0.1401,-0.67344 -0.57861,-0.4569 -0.65337,0c-0.13814,-0.66383 -0.57702,-0.4667 -0.65337,0c-0.17678,-0.84985 -0.80365,-0.26704 -0.63975,0.32781l0.01857,0.00168c0.077,-0.15177 0.25052,-0.59522 0.31735,-0.61072c0.01848,-0.01652 0.08811,0.05638 0.10389,0.07551c0.11089,0.14057 0.17613,0.35992 0.21347,0.53511c0.01139,-0.00103 0.00719,-0.00103 0.01857,0c0.08139,-0.16054 0.24884,-0.59485 0.31735,-0.61072c0.00383,-0.00336 0.02576,0.0028 0.04499,0.01764c0.13898,0.09297 0.23727,0.42815 0.27246,0.59308c0.01139,-0.00103 0.00719,-0.00103 0.01857,0c0.077,-0.15177 0.25052,-0.59522 0.31735,-0.61072c0.01848,-0.01652 0.08811,0.05638 0.10389,0.07551c0.11089,0.14057 0.17613,0.35992 0.21347,0.53511c0.01139,-0.00103 0.00719,-0.00103 0.01857,0c0.077,-0.15177 0.25052,-0.59522 0.31735,-0.61072c0.01848,-0.01652 0.08811,0.05638 0.10389,0.07551c0.11089,0.14057 0.17613,0.35992 0.21347,0.53511c0.01139,-0.00103 0.00719,-0.00103 0.01857,0c0.08139,-0.16054 0.24884,-0.59485 0.31735,-0.61072c0.01848,-0.01652 0.08811,0.05638 0.10389,0.07551c0.11089,0.14057 0.17613,0.35992 0.21347,0.53511c0.01139,-0.00103 0.00719,-0.00103 0.01857,0c0.08139,-0.16054 0.24884,-0.59485 0.31735,-0.61072c0.00383,-0.00336 0.02576,0.0028 0.04499,0.01764c0.13898,0.09297 0.23727,0.42815 0.27246,0.59308c0.01139,-0.00103 0.00719,-0.00103 0.01857,0c0.077,-0.15177 0.25052,-0.59522 0.31735,-0.61072c0.01848,-0.01652 0.08811,0.05638 0.10389,0.07551c0.11089,0.14057 0.17613,0.36001 0.21347,0.53511c0.01139,-0.00103 0.00719,-0.00103 0.01857,0c0.08139,-0.16054 0.24884,-0.59485 0.31735,-0.61072c0.01848,-0.01652 0.08811,0.05638 0.10389,0.07551c0.11089,0.14057 0.17613,0.36001 0.21347,0.53511l0.01857,-0.00168c0.00168,-0.13469 -0.01428,-0.2705 -0.04966,-0.40491c-0.18332,-0.61221 -0.57049,-0.31885 -0.63536,0.07766zM261.45266,171.63598l0.01857,0.00177c0.08149,-0.16073 0.24884,-0.59494 0.31735,-0.61072c0.01848,-0.01652 0.08802,0.05628 0.10389,0.07551c0.11089,0.14066 0.17622,0.36001 0.21347,0.53511c0.01139,-0.00103 0.00719,-0.00103 0.01857,0c0.08149,-0.16073 0.24884,-0.59494 0.31735,-0.61072c0.01848,-0.01652 0.08802,0.05628 0.10389,0.07551c0.11089,0.14066 0.17622,0.36001 0.21347,0.53511c0.01139,-0.00103 0.00719,-0.00103 0.01857,0c0.08149,-0.16073 0.24884,-0.59494 0.31735,-0.61072c0.00383,-0.00336 0.02576,0.0028 0.04499,0.01755c0.1387,0.09278 0.23643,0.42423 0.27246,0.59308c0.01139,-0.00103 0.00719,-0.00103 0.01857,0c0.08149,-0.16073 0.24884,-0.59494 0.31735,-0.61072c0.01848,-0.01652 0.08802,0.05628 0.10389,0.07551c0.11089,0.14066 0.17622,0.36001 0.21347,0.53511c0.01139,-0.00103 0.00719,-0.00103 0.01857,0c0.08149,-0.16073 0.24884,-0.59494 0.31735,-0.61072c0.01848,-0.01652 0.08802,0.05628 0.10389,0.07551c0.11089,0.14066 0.17622,0.36001 0.21347,0.53511c0.01139,-0.00103 0.00719,-0.00103 0.01857,0c0.08149,-0.16073 0.24884,-0.59494 0.31735,-0.61072c0.01848,-0.01652 0.08802,0.05628 0.10389,0.07551c0.11089,0.14066 0.17622,0.36001 0.21347,0.53511c0.01139,-0.00103 0.00719,-0.00103 0.01857,0c0.08149,-0.16073 0.24884,-0.59494 0.31735,-0.61072c0.01839,-0.01652 0.08802,0.05628 0.10389,0.07551c0.11089,0.14066 0.17613,0.36001 0.21347,0.53511c0.01139,-0.00103 0.00719,-0.00103 0.01857,0c0.08149,-0.16073 0.24884,-0.59494 0.31735,-0.61072c0.01839,-0.01652 0.08802,0.05628 0.10389,0.07551c0.11089,0.14066 0.17613,0.36001 0.21347,0.53511c0.01139,-0.00103 0.00719,-0.00103 0.01857,0c0.08643,-0.17053 0.2481,-0.59476 0.31735,-0.61072c0.01839,-0.01652 0.08802,0.05628 0.10389,0.07551c0.11089,0.14066 0.17613,0.36001 0.21347,0.53511c0.01139,-0.00103 0.00719,-0.00103 0.01857,0c0.08149,-0.16073 0.24884,-0.59494 0.31735,-0.61072c0.01839,-0.01652 0.08802,0.05628 0.10389,0.07551c0.11089,0.14066 0.17613,0.36001 0.21347,0.53511l0.01857,-0.00177c0.00168,-0.13469 -0.01428,-0.2705 -0.04966,-0.40491c-0.18397,-0.61324 -0.57096,-0.31969 -0.63592,0.0771c-0.13693,-0.65813 -0.57572,-0.47454 -0.65337,0c-0.13954,-0.67064 -0.57917,-0.45363 -0.65337,0c-0.13954,-0.67064 -0.57917,-0.45353 -0.65337,0c-0.14244,-0.68474 -0.58104,-0.44205 -0.65337,0c-0.13954,-0.67064 -0.57917,-0.45363 -0.65337,0c-0.13544,-0.65085 -0.57497,-0.4793 -0.65337,0c-0.13954,-0.67064 -0.57917,-0.45363 -0.65337,0c-0.13656,-0.65636 -0.5759,-0.47332 -0.65337,0c-0.17464,-0.84267 -0.80393,-0.27022 -0.63891,0.32874z" fill="#fa9228" stroke="#fa9228"/><path d="M34.11775,188.20748h-1.6801v0.79376h-6.72042v-0.79376h-1.6801l5.04031,16.3014zM28.41595,194.16391h1.3229v1.3229h-1.3229z" fill="none" stroke="#9926ff"/><path d="M67.55645,188.20748l-5.04031,16.3014h1.6801v-0.79376h6.72042v0.79376h1.6801zM66.89495,197.22954h1.3229v1.3229h-1.3229z" fill="#f9932b" stroke="#fa9228"/><path d="M94.48673,188.20748h-1.6801v0.79376h-6.72042v-0.79376h-1.6801l5.04031,16.3014zM88.78492,194.16391h1.3229v1.3229h-1.3229z" fill="#f9932b" stroke="#fa9228"/><path d="M113.74298,188.20748l-5.04031,16.3014h1.6801v-0.79376h6.72042v0.79376h1.6801zM113.08149,197.22954h1.3229v1.3229h-1.3229z" fill="#f9932b" stroke="#fa9228"/><path d="M179.81853,188.20748h-1.6801v0.79376h-6.72042v-0.79376h-1.6801l5.04031,16.3014zM174.11672,194.16391h1.3229v1.3229h-1.3229z" fill="#f9932b" stroke="#fa9228"/><path d="M271.47971,189.92226v-1.50976h-1.16711v-1.50976c-0.56517,0 -12.24423,0 -12.83283,0v1.50976h1.07377v1.50976h-1.07377v1.50976h1.07377v1.50976h-1.07377v1.50976h1.07377v1.50976h-1.07377v1.50976h1.07377v1.50976h-1.07377v1.50976h1.07377v1.50976h-1.07377v1.50976h1.07377v1.50976h0.80953v0.79376h0.79376v-0.79376h8.64582v0.79376h0.79376v-0.79376c2.21727,0 -0.51365,0 1.8833,0v-1.50976h-1.16711v-1.50976h1.16711v-1.50976h-1.16711v-1.50976h1.16711v-1.50976h-1.16711v-1.50976h1.16711v-1.50976h-1.16711v-1.50976h1.16711v-1.50976h-1.16711v-1.50976zM261.81677,203.47762h-2.10302v-3.4781h2.10302zM261.81677,199.62617h-2.10302v-3.4781h2.10302zM261.81677,195.77471h-2.10302v-3.4781h2.10302zM261.81677,191.92335h-2.10302v-3.4781h2.10302zM264.29315,203.47762h-2.10293v-3.4781h2.10293zM264.29315,199.62617h-2.10293v-3.4781h2.10293zM264.29315,195.77471h-2.10293v-3.4781h2.10293zM264.29315,191.92335h-2.10293v-3.4781h2.10293zM266.76944,203.47762h-2.10293v-3.4781h2.10293zM266.76944,199.62617h-2.10293v-3.4781h2.10293zM266.76944,195.77471h-2.10293v-3.4781h2.10293zM266.76944,191.92335h-2.10293v-3.4781h2.10293zM269.24573,203.47762h-2.10293v-3.4781h2.10293zM269.24573,199.62617h-2.10293v-3.4781h2.10293zM269.24573,195.77471h-2.10293v-3.4781h2.10293zM269.24573,191.92335h-2.10293v-3.4781h2.10293z" fill="none" stroke="#9926ff"/><path d="M35.91043,252.89472v-1.50976h-1.16711v-1.50976c-0.56517,0 -12.24423,0 -12.83283,0v1.50976h1.07377v1.50976h-1.07377v1.50976h1.07377v1.50976h-1.07377v1.50976h1.07377v1.50976h-1.07377v1.50976h1.07377v1.50976h-1.07377v1.50976h1.07377v1.50976h-1.07377v1.50976h1.07377v1.50976h0.80953v0.79376h0.79376v-0.79376h8.64582v0.79376h0.79376v-0.79376c2.21727,0 -0.51365,0 1.8833,0v-1.50976h-1.16711v-1.50976h1.16711v-1.50976h-1.16711v-1.50976h1.16711v-1.50976h-1.16711v-1.50976h1.16711v-1.50976h-1.16711v-1.50976h1.16711v-1.50976h-1.16711v-1.50976zM26.24749,266.45009h-2.10302v-3.4781h2.10302zM26.24749,262.59863h-2.10302v-3.4781h2.10302zM26.24749,258.74718h-2.10302v-3.4781h2.10302zM26.24749,254.89582h-2.10302v-3.4781h2.10302zM28.72387,266.45009h-2.10293v-3.4781h2.10293zM28.72387,262.59863h-2.10293v-3.4781h2.10293zM28.72387,258.74718h-2.10293v-3.4781h2.10293zM28.72387,254.89582h-2.10293v-3.4781h2.10293zM31.20016,266.45009h-2.10293v-3.4781h2.10293zM31.20016,262.59863h-2.10293v-3.4781h2.10293zM31.20016,258.74718h-2.10293v-3.4781h2.10293zM31.20016,254.89582h-2.10293v-3.4781h2.10293zM33.67645,266.45009h-2.10293v-3.4781h2.10293zM33.67645,262.59863h-2.10293v-3.4781h2.10293zM33.67645,258.74718h-2.10293v-3.4781h2.10293zM33.67645,254.89582h-2.10293v-3.4781h2.10293z" fill="none" stroke="#9926ff"/><path d="M74.38943,252.89472v-1.50976h-1.16711v-1.50976c-0.56517,0 -12.24423,0 -12.83283,0v1.50976h1.07377v1.50976h-1.07377v1.50976h1.07377v1.50976h-1.07377v1.50976h1.07377v1.50976h-1.07377v1.50976h1.07377v1.50976h-1.07377v1.50976h1.07377v1.50976h-1.07377v1.50976h1.07377v1.50976h0.80953v0.79376h0.79376v-0.79376h8.64582v0.79376h0.79376v-0.79376c2.21727,0 -0.51365,0 1.8833,0v-1.50976h-1.16711v-1.50976h1.16711v-1.50976h-1.16711v-1.50976h1.16711v-1.50976h-1.16711v-1.50976h1.16711v-1.50976h-1.16711v-1.50976h1.16711v-1.50976h-1.16711v-1.50976zM64.7265,266.45009h-2.10302v-3.4781h2.10302zM64.7265,262.59863h-2.10302v-3.4781h2.10302zM64.7265,258.74718h-2.10302v-3.4781h2.10302zM64.7265,254.89582h-2.10302v-3.4781h2.10302zM67.20288,266.45009h-2.10293v-3.4781h2.10293zM67.20288,262.59863h-2.10293v-3.4781h2.10293zM67.20288,258.74718h-2.10293v-3.4781h2.10293zM67.20288,254.89582h-2.10293v-3.4781h2.10293zM69.67917,266.45009h-2.10293v-3.4781h2.10293zM69.67917,262.59863h-2.10293v-3.4781h2.10293zM69.67917,258.74718h-2.10293v-3.4781h2.10293zM69.67917,254.89582h-2.10293v-3.4781h2.10293zM72.15545,266.45009h-2.10293v-3.4781h2.10293zM72.15545,262.59863h-2.10293v-3.4781h2.10293zM72.15545,258.74718h-2.10293v-3.4781h2.10293zM72.15545,254.89582h-2.10293v-3.4781h2.10293z" fill="none" stroke="#9926ff"/><path d="M96.2794,252.89472v-1.50976h-1.16711v-1.50976c-0.56517,0 -12.24423,0 -12.83283,0v1.50976h1.07377v1.50976h-1.07377v1.50976h1.07377v1.50976h-1.07377v1.50976h1.07377v1.50976h-1.07377v1.50976h1.07377v1.50976h-1.07377v1.50976h1.07377v1.50976h-1.07377v1.50976h1.07377v1.50976h0.80953v0.79376h0.79376v-0.79376h8.64582v0.79376h0.79376v-0.79376c2.21727,0 -0.51365,0 1.8833,0v-1.50976h-1.16711v-1.50976h1.16711v-1.50976h-1.16711v-1.50976h1.16711v-1.50976h-1.16711v-1.50976h1.16711v-1.50976h-1.16711v-1.50976h1.16711v-1.50976h-1.16711v-1.50976zM86.61646,266.45009h-2.10302v-3.4781h2.10302zM86.61646,262.59863h-2.10302v-3.4781h2.10302zM86.61646,258.74718h-2.10302v-3.4781h2.10302zM86.61646,254.89582h-2.10302v-3.4781h2.10302zM89.09284,266.45009h-2.10293v-3.4781h2.10293zM89.09284,262.59863h-2.10293v-3.4781h2.10293zM89.09284,258.74718h-2.10293v-3.4781h2.10293zM89.09284,254.89582h-2.10293v-3.4781h2.10293zM91.56913,266.45009h-2.10293v-3.4781h2.10293zM91.56913,262.59863h-2.10293v-3.4781h2.10293zM91.56913,258.74718h-2.10293v-3.4781h2.10293zM91.56913,254.89582h-2.10293v-3.4781h2.10293zM94.04542,266.45009h-2.10293v-3.4781h2.10293zM94.04542,262.59863h-2.10293v-3.4781h2.10293zM94.04542,258.74718h-2.10293v-3.4781h2.10293zM94.04542,254.89582h-2.10293v-3.4781h2.10293z" fill="none" stroke="#9926ff"/><path d="M120.57597,252.89472v-1.50976h-1.16711v-1.50976c-0.56517,0 -12.24423,0 -12.83283,0v1.50976h1.07377v1.50976h-1.07377v1.50976h1.07377v1.50976h-1.07377v1.50976h1.07377v1.50976h-1.07377v1.50976h1.07377v1.50976h-1.07377v1.50976h1.07377v1.50976h-1.07377v1.50976h1.07377v1.50976h0.80953v0.79376h0.79376v-0.79376h8.64582v0.79376h0.79376v-0.79376c2.21727,0 -0.51365,0 1.8833,0v-1.50976h-1.16711v-1.50976h1.16711v-1.50976h-1.16711v-1.50976h1.16711v-1.50976h-1.16711v-1.50976h1.16711v-1.50976h-1.16711v-1.50976h1.16711v-1.50976h-1.16711v-1.50976zM110.91303,266.45009h-2.10302v-3.4781h2.10302zM110.91303,262.59863h-2.10302v-3.4781h2.10302zM110.91303,258.74718h-2.10302v-3.4781h2.10302zM110.91303,254.89582h-2.10302v-3.4781h2.10302zM113.38941,266.45009h-2.10293v-3.4781h2.10293zM113.38941,262.59863h-2.10293v-3.4781h2.10293zM113.38941,258.74718h-2.10293v-3.4781h2.10293zM113.38941,254.89582h-2.10293v-3.4781h2.10293zM115.8657,266.45009h-2.10293v-3.4781h2.10293zM115.8657,262.59863h-2.10293v-3.4781h2.10293zM115.8657,258.74718h-2.10293v-3.4781h2.10293zM115.8657,254.89582h-2.10293v-3.4781h2.10293zM118.34199,266.45009h-2.10293v-3.4781h2.10293zM118.34199,262.59863h-2.10293v-3.4781h2.10293zM118.34199,258.74718h-2.10293v-3.4781h2.10293zM118.34199,254.89582h-2.10293v-3.4781h2.10293z" fill="none" stroke="#9926ff"/><g id="group_g-2cd0b704-6141-49fb-81de-04417ef558cb"><path d="M128.19699,310.58894c10.67731,-0.47821 16.01597,-0.71731 16.01597,-0.71731c-0.01624,0.27946 -0.01204,0.44728 0.09997,0.56414c0.28272,0.29523 1.11354,0.12573 1.26008,-0.27423c0.12974,-0.35413 -0.36841,-0.89652 -0.65141,-1.17169v-4.86334c0.28328,-0.27535 0.78116,-0.81765 0.65141,-1.17169c-0.14654,-0.39996 -0.97735,-0.56937 -1.26008,-0.27423c-0.11191,0.11686 -0.11621,0.28468 -0.09997,0.56405c0,0 -5.33866,-0.23907 -16.01597,-0.71722zM128.9437,303.30848l15.23118,0.68212v5.13524l-15.23118,0.68222z" fill="#f9932b" stroke="#fa9228"/><path d="M203.85369,216.13377l16.01597,-0.71731c-0.01624,0.27946 -0.01204,0.44728 0.09997,0.56414c0.28272,0.29523 1.11354,0.12573 1.26008,-0.27423c0.12974,-0.35413 -0.36841,-0.89652 -0.65141,-1.17169v-4.86334c0.28328,-0.27535 0.78116,-0.81765 0.65141,-1.17169c-0.14654,-0.39996 -0.97735,-0.56937 -1.26008,-0.27423c-0.11191,0.11686 -0.11621,0.28468 -0.09997,0.56405l-16.01597,-0.71722zM204.60041,208.85332l15.23118,0.68212v5.13524l-15.23118,0.68222z" fill="none" stroke="#9926ff"/></g></g></g></g></g></svg>