<svg version="1.1" xmlns="http://www.w3.org/2000/svg" xmlns:xlink="http://www.w3.org/1999/xlink" width="300" height="150" viewBox="0,0,300,150"><defs><clipPath id="clip-1"><rect x="0" y="0" width="838.93" height="1407.44" fill="none" fill-rule="nonzero" stroke="none"/></clipPath></defs><g fill="none" fill-rule="none" stroke="none" stroke-width="1" stroke-linecap="butt" stroke-linejoin="miter" stroke-miterlimit="10" stroke-dasharray="" stroke-dashoffset="0" font-family="none" font-weight="none" font-size="none" text-anchor="none" style="mix-blend-mode: normal"><g clip-path="url(#clip-1)"><g id="layer_undefined"><g id="2309f0aa-9504-4e7d-b135-a851ad67aabd" fill="#f9932b" fill-rule="nonzero" stroke="#fa9228"><path d="M415.526,843.58046l0.77651,-2.0196h0.28772l0.8265,2.0196h-0.30438l-0.23551,-0.6121h-0.84539l-0.22107,0.6121zM416.10922,842.75063h0.68431l-0.20996,-0.55878c-0.06443,-0.17034 -0.1122,-0.30994 -0.1433,-0.41881c-0.02592,0.1296 -0.06221,0.2581 -0.10887,0.38548z"/><path d="M419.47483,843.58046v-2.0196h0.24884v2.0196z"/><path d="M421.27637,843.35828l0.03555,0.21996c-0.06962,0.01407 -0.1322,0.02111 -0.18774,0.02111c-0.08961,0 -0.15923,-0.01407 -0.20885,-0.04221c-0.04962,-0.02888 -0.08443,-0.06628 -0.10442,-0.1122c-0.02074,-0.04666 -0.0311,-0.14442 -0.0311,-0.29327v-0.84094h-0.18107v-0.19329h0.18107v-0.36215l0.24662,-0.14886v0.51101h0.24995v0.19329h-0.24995v0.85538c0,0.07036 0.00444,0.11553 0.01333,0.13553c0.00889,0.02074 0.02333,0.03703 0.04332,0.04888c0.01926,0.01185 0.0474,0.01777 0.08443,0.01777c0.0274,0 0.06369,-0.00333 0.10887,-0.01z"/><path d="M423.30432,843.10945l0.25662,0.0311c-0.04073,0.15034 -0.11553,0.26661 -0.2244,0.34882c-0.10961,0.08295 -0.24921,0.12442 -0.41881,0.12442c-0.21403,0 -0.384,-0.06591 -0.5099,-0.19774c-0.12516,-0.13183 -0.18774,-0.3166 -0.18774,-0.55433c0,-0.24662 0.06332,-0.43769 0.18996,-0.57322c0.12664,-0.13627 0.29105,-0.2044 0.49323,-0.2044c0.19552,0 0.35548,0.06665 0.4799,0.19996c0.12368,0.13331 0.18552,0.32068 0.18552,0.56211c0,0.01481 -0.00037,0.03666 -0.00111,0.06554h-1.09089c0.00889,0.16145 0.05406,0.28476 0.13553,0.36993c0.08221,0.08517 0.18441,0.12775 0.30661,0.12775c0.09109,0 0.16848,-0.0237 0.23218,-0.0711c0.06443,-0.04814 0.11553,-0.12442 0.1533,-0.22884zM422.49004,842.70841h0.81761c-0.01111,-0.12294 -0.04258,-0.21514 -0.09443,-0.27661c-0.0785,-0.09554 -0.1807,-0.1433 -0.30661,-0.1433c-0.11405,0 -0.20996,0.03814 -0.28772,0.11442c-0.07776,0.07628 -0.12072,0.17811 -0.12886,0.30549z"/><path d="M425.43893,843.58046v-1.46304h0.22329v0.22218c0.05703,-0.10442 0.10961,-0.17293 0.15775,-0.20551c0.04814,-0.03333 0.10109,-0.04999 0.15886,-0.04999c0.08369,0 0.16886,0.02666 0.2555,0.07998l-0.08554,0.22995c-0.06073,-0.03555 -0.12146,-0.05332 -0.18219,-0.05332c-0.05406,0 -0.10294,0.01629 -0.14664,0.04888c-0.04295,0.03259 -0.07369,0.07776 -0.0922,0.13553c-0.0274,0.08813 -0.0411,0.18441 -0.0411,0.28883v0.76651z"/><path d="M427.32063,843.58046v-1.46304h0.22329v0.20774c0.10739,-0.16071 0.26291,-0.24106 0.46657,-0.24106c0.08813,0 0.16886,0.01592 0.24217,0.04777c0.07406,0.03185 0.1296,0.07332 0.16663,0.12442c0.03703,0.05184 0.06258,0.11294 0.07665,0.1833c0.00963,0.04592 0.01444,0.12627 0.01444,0.24106v0.89982h-0.24773v-0.88982c0,-0.10146 -0.01,-0.177 -0.02999,-0.22662c-0.01926,-0.05036 -0.05332,-0.09035 -0.1022,-0.11998c-0.04888,-0.02962 -0.10665,-0.04444 -0.1733,-0.04444c-0.10516,0 -0.19626,0.03333 -0.27328,0.09998c-0.07628,0.06739 -0.11442,0.19478 -0.11442,0.38215v0.79873z"/><path d="M431.41485,843.4005c-0.09183,0.07776 -0.18033,0.13257 -0.2655,0.16441c-0.08517,0.03259 -0.17626,0.04888 -0.27328,0.04888c-0.16071,0 -0.28439,-0.03925 -0.37104,-0.11775c-0.08591,-0.0785 -0.12886,-0.17885 -0.12886,-0.30105c0,-0.07184 0.01629,-0.13738 0.04888,-0.19663c0.03259,-0.05925 0.07517,-0.10665 0.12775,-0.14219c0.05258,-0.03629 0.1122,-0.06369 0.17885,-0.08221c0.04814,-0.01259 0.12146,-0.02481 0.21996,-0.03666c0.2007,-0.0237 0.34808,-0.05221 0.44213,-0.08554c0.00148,-0.03407 0.00222,-0.05554 0.00222,-0.06443c0,-0.10146 -0.0237,-0.17256 -0.0711,-0.21329c-0.06295,-0.05629 -0.15701,-0.08443 -0.28217,-0.08443c-0.11627,0 -0.20218,0.02037 -0.25773,0.0611c-0.05629,0.04073 -0.09739,0.11294 -0.12331,0.21662l-0.24328,-0.03222c0.02222,-0.10368 0.05851,-0.18774 0.10887,-0.25217c0.05036,-0.06369 0.12331,-0.11257 0.21885,-0.14664c0.09554,-0.03481 0.20626,-0.05221 0.33216,-0.05221c0.12516,0 0.22662,0.01481 0.30438,0.04444c0.0785,0.02888 0.1359,0.06591 0.17219,0.11109c0.03703,0.04444 0.06295,0.10072 0.07776,0.16886c0.00815,0.04221 0.01222,0.11812 0.01222,0.22773v0.33104c0,0.23032 0.00518,0.37622 0.01555,0.43769c0.01111,0.06073 0.03222,0.11924 0.06332,0.17552h-0.25884c-0.02592,-0.0511 -0.04258,-0.11109 -0.04999,-0.17996zM431.39374,842.84616c-0.08961,0.03703 -0.2244,0.06813 -0.40436,0.09331c-0.1022,0.01481 -0.17441,0.03148 -0.21662,0.04999c-0.04221,0.01851 -0.0748,0.04518 -0.09776,0.07998c-0.02296,0.03555 -0.03444,0.07517 -0.03444,0.11887c0,0.06591 0.02481,0.12072 0.07443,0.16441c0.05036,0.04444 0.12368,0.06665 0.21996,0.06665c0.09554,0 0.1807,-0.02111 0.2555,-0.06332c0.07406,-0.04147 0.12849,-0.0985 0.1633,-0.17108c0.02666,-0.05629 0.03999,-0.13886 0.03999,-0.24773z"/><path d="M434.14045,843.35828l0.03555,0.21996c-0.06962,0.01407 -0.1322,0.02111 -0.18774,0.02111c-0.08961,0 -0.15923,-0.01407 -0.20885,-0.04221c-0.04962,-0.02888 -0.08443,-0.06628 -0.10442,-0.1122c-0.02074,-0.04666 -0.0311,-0.14442 -0.0311,-0.29327v-0.84094h-0.18107v-0.19329h0.18107v-0.36215l0.24662,-0.14886v0.51101h0.24995v0.19329h-0.24995v0.85538c0,0.07036 0.00444,0.11553 0.01333,0.13553c0.00889,0.02074 0.02333,0.03703 0.04332,0.04888c0.01926,0.01185 0.0474,0.01777 0.08443,0.01777c0.0274,0 0.06369,-0.00333 0.10887,-0.01z"/><path d="M436.1684,843.10945l0.25662,0.0311c-0.04073,0.15034 -0.11553,0.26661 -0.2244,0.34882c-0.10961,0.08295 -0.24921,0.12442 -0.41881,0.12442c-0.21403,0 -0.384,-0.06591 -0.5099,-0.19774c-0.12516,-0.13183 -0.18774,-0.3166 -0.18774,-0.55433c0,-0.24662 0.06332,-0.43769 0.18996,-0.57322c0.12664,-0.13627 0.29105,-0.2044 0.49323,-0.2044c0.19552,0 0.35548,0.06665 0.4799,0.19996c0.12368,0.13331 0.18552,0.32068 0.18552,0.56211c0,0.01481 -0.00037,0.03666 -0.00111,0.06554h-1.09089c0.00889,0.16145 0.05406,0.28476 0.13553,0.36993c0.08221,0.08517 0.18441,0.12775 0.30661,0.12775c0.09109,0 0.16848,-0.0237 0.23218,-0.0711c0.06443,-0.04814 0.11553,-0.12442 0.1533,-0.22884zM435.35412,842.70841h0.81761c-0.01111,-0.12294 -0.04258,-0.21514 -0.09443,-0.27661c-0.0785,-0.09554 -0.1807,-0.1433 -0.30661,-0.1433c-0.11405,0 -0.20996,0.03814 -0.28772,0.11442c-0.07776,0.07628 -0.12072,0.17811 -0.12886,0.30549z"/><path d="M439.39453,844.14146v-2.02404h0.22662v0.18996c0.05332,-0.07406 0.11331,-0.12997 0.17996,-0.16774c0.06739,-0.03703 0.14886,-0.05554 0.2444,-0.05554c0.12442,0 0.2344,0.03222 0.32993,0.09665c0.09554,0.06443 0.16774,0.15515 0.21662,0.27217c0.04888,0.11701 0.07332,0.24551 0.07332,0.38548c0,0.1496 -0.02703,0.28439 -0.08109,0.40436c-0.05332,0.11924 -0.13108,0.21107 -0.23329,0.2755c-0.10294,0.06369 -0.2107,0.09554 -0.32327,0.09554c-0.08295,0 -0.15738,-0.0174 -0.22329,-0.05221c-0.06517,-0.03481 -0.11887,-0.07887 -0.16108,-0.1322v0.71208zM439.62004,842.85727c0,0.18811 0.03814,0.32734 0.11442,0.41769c0.07554,0.08961 0.16774,0.13442 0.27661,0.13442c0.11035,0 0.20477,-0.04666 0.28328,-0.13997c0.0785,-0.09331 0.11775,-0.23773 0.11775,-0.43325c0,-0.18589 -0.03851,-0.32549 -0.11553,-0.41881c-0.07628,-0.09257 -0.16774,-0.13886 -0.27439,-0.13886c-0.1059,0 -0.19959,0.04925 -0.28105,0.14775c-0.08072,0.09924 -0.12109,0.24291 -0.12109,0.43102z"/><path d="M443.48874,843.4005c-0.09183,0.07776 -0.18033,0.13257 -0.2655,0.16441c-0.08517,0.03259 -0.17626,0.04888 -0.27328,0.04888c-0.16071,0 -0.28439,-0.03925 -0.37104,-0.11775c-0.08591,-0.0785 -0.12886,-0.17885 -0.12886,-0.30105c0,-0.07184 0.01629,-0.13738 0.04888,-0.19663c0.03259,-0.05925 0.07517,-0.10665 0.12775,-0.14219c0.05258,-0.03629 0.1122,-0.06369 0.17885,-0.08221c0.04814,-0.01259 0.12146,-0.02481 0.21996,-0.03666c0.2007,-0.0237 0.34808,-0.05221 0.44213,-0.08554c0.00148,-0.03407 0.00222,-0.05554 0.00222,-0.06443c0,-0.10146 -0.0237,-0.17256 -0.0711,-0.21329c-0.06295,-0.05629 -0.15701,-0.08443 -0.28217,-0.08443c-0.11627,0 -0.20218,0.02037 -0.25773,0.0611c-0.05629,0.04073 -0.09739,0.11294 -0.12331,0.21662l-0.24328,-0.03222c0.02222,-0.10368 0.05851,-0.18774 0.10887,-0.25217c0.05036,-0.06369 0.12331,-0.11257 0.21885,-0.14664c0.09554,-0.03481 0.20626,-0.05221 0.33216,-0.05221c0.12516,0 0.22662,0.01481 0.30438,0.04444c0.0785,0.02888 0.1359,0.06591 0.17219,0.11109c0.03703,0.04444 0.06295,0.10072 0.07776,0.16886c0.00815,0.04221 0.01222,0.11812 0.01222,0.22773v0.33104c0,0.23032 0.00518,0.37622 0.01555,0.43769c0.01111,0.06073 0.03222,0.11924 0.06332,0.17552h-0.25884c-0.02592,-0.0511 -0.04258,-0.11109 -0.04999,-0.17996zM443.46764,842.84616c-0.08961,0.03703 -0.2244,0.06813 -0.40436,0.09331c-0.1022,0.01481 -0.17441,0.03148 -0.21662,0.04999c-0.04221,0.01851 -0.0748,0.04518 -0.09776,0.07998c-0.02296,0.03555 -0.03444,0.07517 -0.03444,0.11887c0,0.06591 0.02481,0.12072 0.07443,0.16441c0.05036,0.04444 0.12368,0.06665 0.21996,0.06665c0.09554,0 0.1807,-0.02111 0.2555,-0.06332c0.07406,-0.04147 0.12849,-0.0985 0.1633,-0.17108c0.02666,-0.05629 0.03999,-0.13886 0.03999,-0.24773z"/><path d="M446.21434,843.35828l0.03555,0.21996c-0.06962,0.01407 -0.1322,0.02111 -0.18774,0.02111c-0.08961,0 -0.15923,-0.01407 -0.20885,-0.04221c-0.04962,-0.02888 -0.08443,-0.06628 -0.10442,-0.1122c-0.02074,-0.04666 -0.0311,-0.14442 -0.0311,-0.29327v-0.84094h-0.18107v-0.19329h0.18107v-0.36215l0.24662,-0.14886v0.51101h0.24995v0.19329h-0.24995v0.85538c0,0.07036 0.00444,0.11553 0.01333,0.13553c0.00889,0.02074 0.02333,0.03703 0.04332,0.04888c0.01926,0.01185 0.0474,0.01777 0.08443,0.01777c0.0274,0 0.06369,-0.00333 0.10887,-0.01z"/><path d="M447.78239,843.35828l0.03555,0.21996c-0.06962,0.01407 -0.1322,0.02111 -0.18774,0.02111c-0.08961,0 -0.15923,-0.01407 -0.20885,-0.04221c-0.04962,-0.02888 -0.08443,-0.06628 -0.10442,-0.1122c-0.02074,-0.04666 -0.0311,-0.14442 -0.0311,-0.29327v-0.84094h-0.18107v-0.19329h0.18107v-0.36215l0.24662,-0.14886v0.51101h0.24995v0.19329h-0.24995v0.85538c0,0.07036 0.00444,0.11553 0.01333,0.13553c0.00889,0.02074 0.02333,0.03703 0.04332,0.04888c0.01926,0.01185 0.0474,0.01777 0.08443,0.01777c0.0274,0 0.06369,-0.00333 0.10887,-0.01z"/><path d="M449.81034,843.10945l0.25662,0.0311c-0.04073,0.15034 -0.11553,0.26661 -0.2244,0.34882c-0.10961,0.08295 -0.24921,0.12442 -0.41881,0.12442c-0.21403,0 -0.384,-0.06591 -0.5099,-0.19774c-0.12516,-0.13183 -0.18774,-0.3166 -0.18774,-0.55433c0,-0.24662 0.06332,-0.43769 0.18996,-0.57322c0.12664,-0.13627 0.29105,-0.2044 0.49323,-0.2044c0.19552,0 0.35548,0.06665 0.4799,0.19996c0.12368,0.13331 0.18552,0.32068 0.18552,0.56211c0,0.01481 -0.00037,0.03666 -0.00111,0.06554h-1.09089c0.00889,0.16145 0.05406,0.28476 0.13553,0.36993c0.08221,0.08517 0.18441,0.12775 0.30661,0.12775c0.09109,0 0.16848,-0.0237 0.23218,-0.0711c0.06443,-0.04814 0.11553,-0.12442 0.1533,-0.22884zM448.99606,842.70841h0.81761c-0.01111,-0.12294 -0.04258,-0.21514 -0.09443,-0.27661c-0.0785,-0.09554 -0.1807,-0.1433 -0.30661,-0.1433c-0.11405,0 -0.20996,0.03814 -0.28772,0.11442c-0.07776,0.07628 -0.12072,0.17811 -0.12886,0.30549z"/><path d="M451.94498,843.58046v-1.46304h0.22329v0.22218c0.05703,-0.10442 0.10961,-0.17293 0.15775,-0.20551c0.04814,-0.03333 0.10109,-0.04999 0.15886,-0.04999c0.08369,0 0.16886,0.02666 0.2555,0.07998l-0.08554,0.22995c-0.06073,-0.03555 -0.12146,-0.05332 -0.18219,-0.05332c-0.05406,0 -0.10294,0.01629 -0.14664,0.04888c-0.04295,0.03259 -0.07369,0.07776 -0.0922,0.13553c-0.0274,0.08813 -0.0411,0.18441 -0.0411,0.28883v0.76651z"/><path d="M453.82665,843.58046v-1.46304h0.22329v0.20774c0.10739,-0.16071 0.26291,-0.24106 0.46657,-0.24106c0.08813,0 0.16886,0.01592 0.24217,0.04777c0.07406,0.03185 0.1296,0.07332 0.16663,0.12442c0.03703,0.05184 0.06258,0.11294 0.07665,0.1833c0.00963,0.04592 0.01444,0.12627 0.01444,0.24106v0.89982h-0.24773v-0.88982c0,-0.10146 -0.01,-0.177 -0.02999,-0.22662c-0.01926,-0.05036 -0.05332,-0.09035 -0.1022,-0.11998c-0.04888,-0.02962 -0.10665,-0.04444 -0.1733,-0.04444c-0.10516,0 -0.19626,0.03333 -0.27328,0.09998c-0.07628,0.06739 -0.11442,0.19478 -0.11442,0.38215v0.79873z"/></g><path d="M543.76876,638.14248l-32.11115,-55.61821c-2.69927,-4.67531 -7.68751,-7.55521 -13.08606,-7.55521h-64.2223c-5.39855,0 -10.38678,2.87991 -13.08606,7.55521l-32.11115,55.61821c-2.69927,4.67531 -2.69927,10.43512 0,15.11042l32.11115,55.61821c2.69927,4.67495 7.68751,7.55521 13.08606,7.55521h64.2223c5.39855,0 10.38678,-2.87991 13.08606,-7.55521l32.11115,-55.61821c2.69927,-4.67531 2.69927,-10.43512 0,-15.11042zM453.75961,598.70085h25.4016v3.00021h-25.4016v-3.00021zM432.11003,611.19985l2.59837,1.50011l-12.7008,21.99849l-2.59837,-1.50011zM432.11003,680.19554l-12.7008,-21.99849l2.59837,-1.50011l12.7008,21.99849zM479.16121,692.69489h-25.4016v-3.00021h25.4016zM466.46041,682.70888c-20.44053,0 -37.01119,-16.57031 -37.01119,-37.01119c0,-20.44088 16.57031,-37.01119 37.01119,-37.01119c20.44088,0 37.01119,16.57031 37.01119,37.01119c0,20.44088 -16.57066,37.01119 -37.01119,37.01119zM500.81078,680.19554l-2.59837,-1.50011l12.7008,-21.99849l2.59837,1.50011zM510.91321,634.69845l-12.7008,-21.99849l2.59837,-1.50011l12.7008,21.99849z" id="4436a6e5-ddff-45a9-9b2c-ad0827bb2f2c" fill="none" fill-rule="nonzero" stroke="#9926ff"/><g id="4102312a-fb96-45cd-a44c-e1f856319914" fill="#f9932b" fill-rule="nonzero" stroke="#fa9228"><path d="M146.99924,843.75272l0.77651,-2.0196h0.28772l0.8265,2.0196h-0.30438l-0.23551,-0.6121h-0.84539l-0.22107,0.6121zM147.58246,842.92289h0.68431l-0.20996,-0.55878c-0.06443,-0.17034 -0.1122,-0.30994 -0.1433,-0.41881c-0.02592,0.1296 -0.06221,0.2581 -0.10887,0.38548z"/><path d="M150.94807,843.75272v-2.0196h0.24884v2.0196z"/><path d="M152.74965,843.53054l0.03555,0.21996c-0.06962,0.01407 -0.1322,0.02111 -0.18774,0.02111c-0.08961,0 -0.15923,-0.01407 -0.20885,-0.04221c-0.04962,-0.02888 -0.08443,-0.06628 -0.10442,-0.1122c-0.02074,-0.04666 -0.0311,-0.14442 -0.0311,-0.29327v-0.84094h-0.18107v-0.19329h0.18107v-0.36215l0.24662,-0.14886v0.51101h0.24995v0.19329h-0.24995v0.85538c0,0.07036 0.00444,0.11553 0.01333,0.13553c0.00889,0.02074 0.02333,0.03703 0.04332,0.04888c0.01926,0.01185 0.0474,0.01777 0.08443,0.01777c0.0274,0 0.06369,-0.00333 0.10887,-0.01z"/><path d="M154.7776,843.28171l0.25662,0.0311c-0.04073,0.15034 -0.11553,0.26661 -0.2244,0.34882c-0.10961,0.08295 -0.24921,0.12442 -0.41881,0.12442c-0.21403,0 -0.384,-0.06591 -0.5099,-0.19774c-0.12516,-0.13183 -0.18774,-0.3166 -0.18774,-0.55433c0,-0.24662 0.06332,-0.43769 0.18996,-0.57322c0.12664,-0.13627 0.29105,-0.2044 0.49323,-0.2044c0.19552,0 0.35548,0.06665 0.4799,0.19996c0.12368,0.13331 0.18552,0.32068 0.18552,0.56211c0,0.01481 -0.00037,0.03666 -0.00111,0.06554h-1.09089c0.00889,0.16145 0.05406,0.28476 0.13553,0.36993c0.08221,0.08517 0.18441,0.12775 0.30661,0.12775c0.09109,0 0.16848,-0.0237 0.23218,-0.0711c0.06443,-0.04814 0.11553,-0.12442 0.1533,-0.22884zM153.96332,842.88067h0.81761c-0.01111,-0.12294 -0.04258,-0.21514 -0.09443,-0.27661c-0.0785,-0.09554 -0.1807,-0.1433 -0.30661,-0.1433c-0.11405,0 -0.20996,0.03814 -0.28772,0.11442c-0.07776,0.07628 -0.12072,0.17811 -0.12886,0.30549z"/><path d="M156.91221,843.75272v-1.46304h0.22329v0.22218c0.05703,-0.10442 0.10961,-0.17293 0.15775,-0.20551c0.04814,-0.03333 0.10109,-0.04999 0.15886,-0.04999c0.08369,0 0.16886,0.02666 0.2555,0.07998l-0.08554,0.22995c-0.06073,-0.03555 -0.12146,-0.05332 -0.18219,-0.05332c-0.05406,0 -0.10294,0.01629 -0.14664,0.04888c-0.04295,0.03259 -0.07369,0.07776 -0.0922,0.13553c-0.0274,0.08813 -0.0411,0.18441 -0.0411,0.28883v0.76651z"/><path d="M158.79387,843.75272v-1.46304h0.22329v0.20774c0.10739,-0.16071 0.26291,-0.24106 0.46657,-0.24106c0.08813,0 0.16886,0.01592 0.24217,0.04777c0.07406,0.03185 0.1296,0.07332 0.16663,0.12442c0.03703,0.05184 0.06258,0.11294 0.07665,0.1833c0.00963,0.04592 0.01444,0.12627 0.01444,0.24106v0.89982h-0.24773v-0.88982c0,-0.10146 -0.01,-0.177 -0.02999,-0.22662c-0.01926,-0.05036 -0.05332,-0.09035 -0.1022,-0.11998c-0.04888,-0.02962 -0.10665,-0.04444 -0.1733,-0.04444c-0.10516,0 -0.19626,0.03333 -0.27328,0.09998c-0.07628,0.06739 -0.11442,0.19478 -0.11442,0.38215v0.79873z"/><path d="M162.88813,843.57276c-0.09183,0.07776 -0.18033,0.13257 -0.2655,0.16441c-0.08517,0.03259 -0.17626,0.04888 -0.27328,0.04888c-0.16071,0 -0.28439,-0.03925 -0.37104,-0.11775c-0.08591,-0.0785 -0.12886,-0.17885 -0.12886,-0.30105c0,-0.07184 0.01629,-0.13738 0.04888,-0.19663c0.03259,-0.05925 0.07517,-0.10665 0.12775,-0.14219c0.05258,-0.03629 0.1122,-0.06369 0.17885,-0.08221c0.04814,-0.01259 0.12146,-0.02481 0.21996,-0.03666c0.2007,-0.0237 0.34808,-0.05221 0.44213,-0.08554c0.00148,-0.03407 0.00222,-0.05554 0.00222,-0.06443c0,-0.10146 -0.0237,-0.17256 -0.0711,-0.21329c-0.06295,-0.05629 -0.15701,-0.08443 -0.28217,-0.08443c-0.11627,0 -0.20218,0.02037 -0.25773,0.0611c-0.05629,0.04073 -0.09739,0.11294 -0.12331,0.21662l-0.24328,-0.03222c0.02222,-0.10368 0.05851,-0.18774 0.10887,-0.25217c0.05036,-0.06369 0.12331,-0.11257 0.21885,-0.14664c0.09554,-0.03481 0.20626,-0.05221 0.33216,-0.05221c0.12516,0 0.22662,0.01481 0.30438,0.04444c0.0785,0.02888 0.1359,0.06591 0.17219,0.11109c0.03703,0.04444 0.06295,0.10072 0.07776,0.16886c0.00815,0.04221 0.01222,0.11812 0.01222,0.22773v0.33104c0,0.23032 0.00518,0.37622 0.01555,0.43769c0.01111,0.06073 0.03222,0.11924 0.06332,0.17552h-0.25884c-0.02592,-0.0511 -0.04258,-0.11109 -0.04999,-0.17996zM162.86702,843.01842c-0.08961,0.03703 -0.2244,0.06813 -0.40436,0.09331c-0.1022,0.01481 -0.17441,0.03148 -0.21662,0.04999c-0.04221,0.01851 -0.0748,0.04518 -0.09776,0.07998c-0.02296,0.03555 -0.03444,0.07517 -0.03444,0.11887c0,0.06591 0.02481,0.12072 0.07443,0.16441c0.05036,0.04444 0.12368,0.06665 0.21996,0.06665c0.09554,0 0.1807,-0.02111 0.2555,-0.06332c0.07406,-0.04147 0.12849,-0.0985 0.1633,-0.17108c0.02666,-0.05629 0.03999,-0.13886 0.03999,-0.24773z"/><path d="M165.61373,843.53054l0.03555,0.21996c-0.06962,0.01407 -0.1322,0.02111 -0.18774,0.02111c-0.08961,0 -0.15923,-0.01407 -0.20885,-0.04221c-0.04962,-0.02888 -0.08443,-0.06628 -0.10442,-0.1122c-0.02074,-0.04666 -0.0311,-0.14442 -0.0311,-0.29327v-0.84094h-0.18107v-0.19329h0.18107v-0.36215l0.24662,-0.14886v0.51101h0.24995v0.19329h-0.24995v0.85538c0,0.07036 0.00444,0.11553 0.01333,0.13553c0.00889,0.02074 0.02333,0.03703 0.04332,0.04888c0.01926,0.01185 0.0474,0.01777 0.08443,0.01777c0.0274,0 0.06369,-0.00333 0.10887,-0.01z"/><path d="M167.64168,843.28171l0.25662,0.0311c-0.04073,0.15034 -0.11553,0.26661 -0.2244,0.34882c-0.10961,0.08295 -0.24921,0.12442 -0.41881,0.12442c-0.21403,0 -0.384,-0.06591 -0.5099,-0.19774c-0.12516,-0.13183 -0.18774,-0.3166 -0.18774,-0.55433c0,-0.24662 0.06332,-0.43769 0.18996,-0.57322c0.12664,-0.13627 0.29105,-0.2044 0.49323,-0.2044c0.19552,0 0.35548,0.06665 0.4799,0.19996c0.12368,0.13331 0.18552,0.32068 0.18552,0.56211c0,0.01481 -0.00037,0.03666 -0.00111,0.06554h-1.09089c0.00889,0.16145 0.05406,0.28476 0.13553,0.36993c0.08221,0.08517 0.18441,0.12775 0.30661,0.12775c0.09109,0 0.16848,-0.0237 0.23218,-0.0711c0.06443,-0.04814 0.11553,-0.12442 0.1533,-0.22884zM166.8274,842.88067h0.81761c-0.01111,-0.12294 -0.04258,-0.21514 -0.09443,-0.27661c-0.0785,-0.09554 -0.1807,-0.1433 -0.30661,-0.1433c-0.11405,0 -0.20996,0.03814 -0.28772,0.11442c-0.07776,0.07628 -0.12072,0.17811 -0.12886,0.30549z"/><path d="M170.86777,844.31372v-2.02404h0.22662v0.18996c0.05332,-0.07406 0.11331,-0.12997 0.17996,-0.16774c0.06739,-0.03703 0.14886,-0.05554 0.2444,-0.05554c0.12442,0 0.2344,0.03222 0.32993,0.09665c0.09554,0.06443 0.16774,0.15515 0.21662,0.27217c0.04888,0.11701 0.07332,0.24551 0.07332,0.38548c0,0.1496 -0.02703,0.28439 -0.08109,0.40436c-0.05332,0.11924 -0.13108,0.21107 -0.23329,0.2755c-0.10294,0.06369 -0.2107,0.09554 -0.32327,0.09554c-0.08295,0 -0.15738,-0.0174 -0.22329,-0.05221c-0.06517,-0.03481 -0.11887,-0.07887 -0.16108,-0.1322v0.71208zM171.09328,843.02953c0,0.18811 0.03814,0.32734 0.11442,0.41769c0.07554,0.08961 0.16774,0.13442 0.27661,0.13442c0.11035,0 0.20477,-0.04666 0.28328,-0.13997c0.0785,-0.09331 0.11775,-0.23773 0.11775,-0.43325c0,-0.18589 -0.03851,-0.32549 -0.11553,-0.41881c-0.07628,-0.09257 -0.16774,-0.13886 -0.27439,-0.13886c-0.1059,0 -0.19959,0.04925 -0.28105,0.14775c-0.08072,0.09924 -0.12109,0.24291 -0.12109,0.43102z"/><path d="M174.96202,843.57276c-0.09183,0.07776 -0.18033,0.13257 -0.2655,0.16441c-0.08517,0.03259 -0.17626,0.04888 -0.27328,0.04888c-0.16071,0 -0.28439,-0.03925 -0.37104,-0.11775c-0.08591,-0.0785 -0.12886,-0.17885 -0.12886,-0.30105c0,-0.07184 0.01629,-0.13738 0.04888,-0.19663c0.03259,-0.05925 0.07517,-0.10665 0.12775,-0.14219c0.05258,-0.03629 0.1122,-0.06369 0.17885,-0.08221c0.04814,-0.01259 0.12146,-0.02481 0.21996,-0.03666c0.2007,-0.0237 0.34808,-0.05221 0.44213,-0.08554c0.00148,-0.03407 0.00222,-0.05554 0.00222,-0.06443c0,-0.10146 -0.0237,-0.17256 -0.0711,-0.21329c-0.06295,-0.05629 -0.15701,-0.08443 -0.28217,-0.08443c-0.11627,0 -0.20218,0.02037 -0.25773,0.0611c-0.05629,0.04073 -0.09739,0.11294 -0.12331,0.21662l-0.24328,-0.03222c0.02222,-0.10368 0.05851,-0.18774 0.10887,-0.25217c0.05036,-0.06369 0.12331,-0.11257 0.21885,-0.14664c0.09554,-0.03481 0.20626,-0.05221 0.33216,-0.05221c0.12516,0 0.22662,0.01481 0.30438,0.04444c0.0785,0.02888 0.1359,0.06591 0.17219,0.11109c0.03703,0.04444 0.06295,0.10072 0.07776,0.16886c0.00815,0.04221 0.01222,0.11812 0.01222,0.22773v0.33104c0,0.23032 0.00518,0.37622 0.01555,0.43769c0.01111,0.06073 0.03222,0.11924 0.06332,0.17552h-0.25884c-0.02592,-0.0511 -0.04258,-0.11109 -0.04999,-0.17996zM174.94091,843.01842c-0.08961,0.03703 -0.2244,0.06813 -0.40436,0.09331c-0.1022,0.01481 -0.17441,0.03148 -0.21662,0.04999c-0.04221,0.01851 -0.0748,0.04518 -0.09776,0.07998c-0.02296,0.03555 -0.03444,0.07517 -0.03444,0.11887c0,0.06591 0.02481,0.12072 0.07443,0.16441c0.05036,0.04444 0.12368,0.06665 0.21996,0.06665c0.09554,0 0.1807,-0.02111 0.2555,-0.06332c0.07406,-0.04147 0.12849,-0.0985 0.1633,-0.17108c0.02666,-0.05629 0.03999,-0.13886 0.03999,-0.24773z"/><path d="M177.68762,843.53054l0.03555,0.21996c-0.06962,0.01407 -0.1322,0.02111 -0.18774,0.02111c-0.08961,0 -0.15923,-0.01407 -0.20885,-0.04221c-0.04962,-0.02888 -0.08443,-0.06628 -0.10442,-0.1122c-0.02074,-0.04666 -0.0311,-0.14442 -0.0311,-0.29327v-0.84094h-0.18107v-0.19329h0.18107v-0.36215l0.24662,-0.14886v0.51101h0.24995v0.19329h-0.24995v0.85538c0,0.07036 0.00444,0.11553 0.01333,0.13553c0.00889,0.02074 0.02333,0.03703 0.04332,0.04888c0.01926,0.01185 0.0474,0.01777 0.08443,0.01777c0.0274,0 0.06369,-0.00333 0.10887,-0.01z"/><path d="M179.25566,843.53054l0.03555,0.21996c-0.06962,0.01407 -0.1322,0.02111 -0.18774,0.02111c-0.08961,0 -0.15923,-0.01407 -0.20885,-0.04221c-0.04962,-0.02888 -0.08443,-0.06628 -0.10442,-0.1122c-0.02074,-0.04666 -0.0311,-0.14442 -0.0311,-0.29327v-0.84094h-0.18107v-0.19329h0.18107v-0.36215l0.24662,-0.14886v0.51101h0.24995v0.19329h-0.24995v0.85538c0,0.07036 0.00444,0.11553 0.01333,0.13553c0.00889,0.02074 0.02333,0.03703 0.04332,0.04888c0.01926,0.01185 0.0474,0.01777 0.08443,0.01777c0.0274,0 0.06369,-0.00333 0.10887,-0.01z"/><path d="M181.28361,843.28171l0.25662,0.0311c-0.04073,0.15034 -0.11553,0.26661 -0.2244,0.34882c-0.10961,0.08295 -0.24921,0.12442 -0.41881,0.12442c-0.21403,0 -0.384,-0.06591 -0.5099,-0.19774c-0.12516,-0.13183 -0.18774,-0.3166 -0.18774,-0.55433c0,-0.24662 0.06332,-0.43769 0.18996,-0.57322c0.12664,-0.13627 0.29105,-0.2044 0.49323,-0.2044c0.19552,0 0.35548,0.06665 0.4799,0.19996c0.12368,0.13331 0.18552,0.32068 0.18552,0.56211c0,0.01481 -0.00037,0.03666 -0.00111,0.06554h-1.09089c0.00889,0.16145 0.05406,0.28476 0.13553,0.36993c0.08221,0.08517 0.18441,0.12775 0.30661,0.12775c0.09109,0 0.16848,-0.0237 0.23218,-0.0711c0.06443,-0.04814 0.11553,-0.12442 0.1533,-0.22884zM180.46933,842.88067h0.81761c-0.01111,-0.12294 -0.04258,-0.21514 -0.09443,-0.27661c-0.0785,-0.09554 -0.1807,-0.1433 -0.30661,-0.1433c-0.11405,0 -0.20996,0.03814 -0.28772,0.11442c-0.07776,0.07628 -0.12072,0.17811 -0.12886,0.30549z"/><path d="M183.41822,843.75272v-1.46304h0.22329v0.22218c0.05703,-0.10442 0.10961,-0.17293 0.15775,-0.20551c0.04814,-0.03333 0.10109,-0.04999 0.15886,-0.04999c0.08369,0 0.16886,0.02666 0.2555,0.07998l-0.08554,0.22995c-0.06073,-0.03555 -0.12146,-0.05332 -0.18219,-0.05332c-0.05406,0 -0.10294,0.01629 -0.14664,0.04888c-0.04295,0.03259 -0.07369,0.07776 -0.0922,0.13553c-0.0274,0.08813 -0.0411,0.18441 -0.0411,0.28883v0.76651z"/><path d="M185.29992,843.75272v-1.46304h0.22329v0.20774c0.10739,-0.16071 0.26291,-0.24106 0.46657,-0.24106c0.08813,0 0.16886,0.01592 0.24217,0.04777c0.07406,0.03185 0.1296,0.07332 0.16663,0.12442c0.03703,0.05184 0.06258,0.11294 0.07665,0.1833c0.00963,0.04592 0.01444,0.12627 0.01444,0.24106v0.89982h-0.24773v-0.88982c0,-0.10146 -0.01,-0.177 -0.02999,-0.22662c-0.01926,-0.05036 -0.05332,-0.09035 -0.1022,-0.11998c-0.04888,-0.02962 -0.10665,-0.04444 -0.1733,-0.04444c-0.10516,0 -0.19626,0.03333 -0.27328,0.09998c-0.07628,0.06739 -0.11442,0.19478 -0.11442,0.38215v0.79873z"/><path d="M190.00238,844.34705c-0.13701,-0.1733 -0.25254,-0.37548 -0.3466,-0.60655c-0.0948,-0.23181 -0.14219,-0.47176 -0.14219,-0.71986c0,-0.21847 0.03518,-0.42769 0.10553,-0.62765c0.08295,-0.23255 0.2107,-0.46398 0.38326,-0.69431h0.17774c-0.11109,0.19107 -0.18441,0.32734 -0.21996,0.40881c-0.05629,0.12664 -0.10035,0.25884 -0.1322,0.39659c-0.03999,0.17182 -0.05999,0.34475 -0.05999,0.51879c0,0.44139 0.13738,0.88279 0.41214,1.32418z"/><path d="M192.62612,842.22747l-0.24662,0.01889c-0.02222,-0.09702 -0.05369,-0.16774 -0.09443,-0.21218c-0.06665,-0.07036 -0.14923,-0.10553 -0.24773,-0.10553c-0.0785,0 -0.14775,0.02185 -0.20774,0.06554c-0.07776,0.05703 -0.13923,0.14034 -0.18441,0.24995c-0.04518,0.10961 -0.0685,0.26513 -0.06999,0.46657c0.05925,-0.09035 0.1322,-0.15775 0.21885,-0.20218c0.08591,-0.04369 0.17626,-0.06554 0.27106,-0.06554c0.16515,0 0.30586,0.06073 0.42214,0.18219c0.11627,0.12146 0.17441,0.27883 0.17441,0.47213c0,0.12664 -0.0274,0.2444 -0.08221,0.35326c-0.0548,0.10887 -0.12997,0.19218 -0.22551,0.24995c-0.09554,0.05777 -0.20366,0.08665 -0.32438,0.08665c-0.20663,0 -0.37511,-0.07591 -0.50545,-0.22773c-0.13108,-0.15256 -0.19663,-0.40325 -0.19663,-0.75207c0,-0.39029 0.07221,-0.67394 0.21662,-0.85094c0.1259,-0.15478 0.2955,-0.23218 0.50879,-0.23218c0.15849,0 0.28846,0.04481 0.38992,0.13442c0.1022,0.08887 0.1633,0.21181 0.1833,0.36882zM191.61299,843.09841c0,0.08517 0.01814,0.167 0.05443,0.24551c0.03629,0.07776 0.08702,0.13701 0.15219,0.17774c0.06517,0.04073 0.13368,0.0611 0.20551,0.0611c0.10442,0 0.19441,-0.04221 0.26995,-0.12664c0.07554,-0.08443 0.11331,-0.19922 0.11331,-0.34438c0,-0.13923 -0.0374,-0.24921 -0.1122,-0.32993c-0.07406,-0.07998 -0.16774,-0.11998 -0.28105,-0.11998c-0.11183,0 -0.20663,0.03999 -0.28439,0.11998c-0.0785,0.08072 -0.11775,0.18626 -0.11775,0.3166z"/><path d="M195.63562,843.75272v-1.46304h0.22329v0.20774c0.10739,-0.16071 0.26291,-0.24106 0.46657,-0.24106c0.08813,0 0.16886,0.01592 0.24217,0.04777c0.07406,0.03185 0.1296,0.07332 0.16663,0.12442c0.03703,0.05184 0.06258,0.11294 0.07665,0.1833c0.00963,0.04592 0.01444,0.12627 0.01444,0.24106v0.89982h-0.24773v-0.88982c0,-0.10146 -0.01,-0.177 -0.02999,-0.22662c-0.01926,-0.05036 -0.05332,-0.09035 -0.1022,-0.11998c-0.04888,-0.02962 -0.10665,-0.04444 -0.1733,-0.04444c-0.10516,0 -0.19626,0.03333 -0.27328,0.09998c-0.07628,0.06739 -0.11442,0.19478 -0.11442,0.38215v0.79873z"/><path d="M199.7765,843.28171l0.25662,0.0311c-0.04073,0.15034 -0.11553,0.26661 -0.2244,0.34882c-0.10961,0.08295 -0.24921,0.12442 -0.41881,0.12442c-0.21403,0 -0.384,-0.06591 -0.5099,-0.19774c-0.12516,-0.13183 -0.18774,-0.3166 -0.18774,-0.55433c0,-0.24662 0.06332,-0.43769 0.18996,-0.57322c0.12664,-0.13627 0.29105,-0.2044 0.49323,-0.2044c0.19552,0 0.35548,0.06665 0.4799,0.19996c0.12368,0.13331 0.18552,0.32068 0.18552,0.56211c0,0.01481 -0.00037,0.03666 -0.00111,0.06554h-1.09089c0.00889,0.16145 0.05406,0.28476 0.13553,0.36993c0.08221,0.08517 0.18441,0.12775 0.30661,0.12775c0.09109,0 0.16848,-0.0237 0.23218,-0.0711c0.06443,-0.04814 0.11553,-0.12442 0.1533,-0.22884zM198.96222,842.88067h0.81761c-0.01111,-0.12294 -0.04258,-0.21514 -0.09443,-0.27661c-0.0785,-0.09554 -0.1807,-0.1433 -0.30661,-0.1433c-0.11405,0 -0.20996,0.03814 -0.28772,0.11442c-0.07776,0.07628 -0.12072,0.17811 -0.12886,0.30549z"/><path d="M202.91535,843.28171l0.25662,0.0311c-0.04073,0.15034 -0.11553,0.26661 -0.2244,0.34882c-0.10961,0.08295 -0.24921,0.12442 -0.41881,0.12442c-0.21403,0 -0.384,-0.06591 -0.5099,-0.19774c-0.12516,-0.13183 -0.18774,-0.3166 -0.18774,-0.55433c0,-0.24662 0.06332,-0.43769 0.18996,-0.57322c0.12664,-0.13627 0.29105,-0.2044 0.49323,-0.2044c0.19552,0 0.35548,0.06665 0.4799,0.19996c0.12368,0.13331 0.18552,0.32068 0.18552,0.56211c0,0.01481 -0.00037,0.03666 -0.00111,0.06554h-1.09089c0.00889,0.16145 0.05406,0.28476 0.13553,0.36993c0.08221,0.08517 0.18441,0.12775 0.30661,0.12775c0.09109,0 0.16848,-0.0237 0.23218,-0.0711c0.06443,-0.04814 0.11553,-0.12442 0.1533,-0.22884zM202.10107,842.88067h0.81761c-0.01111,-0.12294 -0.04258,-0.21514 -0.09443,-0.27661c-0.0785,-0.09554 -0.1807,-0.1433 -0.30661,-0.1433c-0.11405,0 -0.20996,0.03814 -0.28772,0.11442c-0.07776,0.07628 -0.12072,0.17811 -0.12886,0.30549z"/><path d="M206.00199,843.75272v-0.18441c-0.09257,0.14516 -0.22884,0.21773 -0.40881,0.21773c-0.11701,0 -0.2244,-0.03222 -0.32216,-0.09665c-0.09776,-0.06443 -0.17367,-0.15441 -0.22773,-0.26995c-0.05332,-0.11479 -0.07998,-0.24699 -0.07998,-0.39659c0,-0.14664 0.02444,-0.2792 0.07332,-0.3977c0.04814,-0.11924 0.12109,-0.21033 0.21885,-0.27328c0.09702,-0.06369 0.20588,-0.09554 0.3266,-0.09554c0.08813,0 0.16663,0.01851 0.23551,0.05554c0.06888,0.03777 0.12479,0.08628 0.16774,0.14553v-0.7243h0.24662v2.0196zM205.2177,843.02287c0,0.18737 0.03962,0.32734 0.11887,0.41992c0.07924,0.09257 0.17256,0.13886 0.27994,0.13886c0.10813,0 0.19996,-0.04407 0.2755,-0.1322c0.07628,-0.08887 0.11442,-0.2244 0.11442,-0.40659c0,-0.19996 -0.03888,-0.34697 -0.11664,-0.44102c-0.07702,-0.09331 -0.17182,-0.13997 -0.28439,-0.13997c-0.11035,0 -0.20255,0.04481 -0.27661,0.13442c-0.07406,0.09035 -0.11109,0.23255 -0.11109,0.42658z"/><path d="M209.19306,843.28171l0.25662,0.0311c-0.04073,0.15034 -0.11553,0.26661 -0.2244,0.34882c-0.10961,0.08295 -0.24921,0.12442 -0.41881,0.12442c-0.21403,0 -0.384,-0.06591 -0.5099,-0.19774c-0.12516,-0.13183 -0.18774,-0.3166 -0.18774,-0.55433c0,-0.24662 0.06332,-0.43769 0.18996,-0.57322c0.12664,-0.13627 0.29105,-0.2044 0.49323,-0.2044c0.19552,0 0.35548,0.06665 0.4799,0.19996c0.12368,0.13331 0.18552,0.32068 0.18552,0.56211c0,0.01481 -0.00037,0.03666 -0.00111,0.06554h-1.09089c0.00889,0.16145 0.05406,0.28476 0.13553,0.36993c0.08221,0.08517 0.18441,0.12775 0.30661,0.12775c0.09109,0 0.16848,-0.0237 0.23218,-0.0711c0.06443,-0.04814 0.11553,-0.12442 0.1533,-0.22884zM208.37877,842.88067h0.81761c-0.01111,-0.12294 -0.04258,-0.21514 -0.09443,-0.27661c-0.0785,-0.09554 -0.1807,-0.1433 -0.30661,-0.1433c-0.11405,0 -0.20996,0.03814 -0.28772,0.11442c-0.07776,0.07628 -0.12072,0.17811 -0.12886,0.30549z"/><path d="M212.2797,843.75272v-0.18441c-0.09257,0.14516 -0.22884,0.21773 -0.40881,0.21773c-0.11701,0 -0.2244,-0.03222 -0.32216,-0.09665c-0.09776,-0.06443 -0.17367,-0.15441 -0.22773,-0.26995c-0.05332,-0.11479 -0.07998,-0.24699 -0.07998,-0.39659c0,-0.14664 0.02444,-0.2792 0.07332,-0.3977c0.04814,-0.11924 0.12109,-0.21033 0.21885,-0.27328c0.09702,-0.06369 0.20588,-0.09554 0.3266,-0.09554c0.08813,0 0.16663,0.01851 0.23551,0.05554c0.06888,0.03777 0.12479,0.08628 0.16774,0.14553v-0.7243h0.24662v2.0196zM211.49541,843.02287c0,0.18737 0.03962,0.32734 0.11887,0.41992c0.07924,0.09257 0.17256,0.13886 0.27994,0.13886c0.10813,0 0.19996,-0.04407 0.2755,-0.1322c0.07628,-0.08887 0.11442,-0.2244 0.11442,-0.40659c0,-0.19996 -0.03888,-0.34697 -0.11664,-0.44102c-0.07702,-0.09331 -0.17182,-0.13997 -0.28439,-0.13997c-0.11035,0 -0.20255,0.04481 -0.27661,0.13442c-0.07406,0.09035 -0.11109,0.23255 -0.11109,0.42658z"/><path d="M214.63207,844.34705h-0.17774c0.27476,-0.44139 0.41214,-0.88279 0.41214,-1.32418c0,-0.17256 -0.02,-0.34401 -0.05999,-0.51434c-0.0311,-0.13775 -0.0748,-0.26995 -0.13108,-0.39659c-0.03555,-0.08295 -0.10924,-0.2207 -0.22107,-0.41325h0.17774c0.17256,0.23032 0.30031,0.46176 0.38326,0.69431c0.07036,0.19996 0.10553,0.40918 0.10553,0.62765c0,0.2481 -0.0474,0.48805 -0.14219,0.71986c-0.09554,0.23106 -0.21107,0.43325 -0.3466,0.60655z"/></g><path d="M755.56868,152.83228v3.00021h3.00021v4.18315h10.34586v3.00021h3.00021v-3.00021h6.00042v3.00021h3.00021v-3.00021h3.89244v-2.69222c0,-0.80509 -0.46922,-1.53856 -1.19987,-1.87654c-6.8295,-3.15897 -9.77538,-0.75005 -13.40711,-2.89049c-5.88541,-3.46908 -6.63617,-14.09507 -7.52028,-15.90775h-4.11188v7.18336h-3.00021v3.00021h3.00021v6.00007h-3.00021z" id="8baf92fa-8660-4e72-a91b-6bf96c50ede8" fill="none" fill-rule="nonzero" stroke="#9926ff"/><path d="M789.70843,144.23228v3.00021h3.00021v4.18315h10.34586v3.00021h3.00021v-3.00021h6.00042v3.00021h3.00021v-3.00021h3.89244v-2.69222c0,-0.80509 -0.46922,-1.53856 -1.19987,-1.87654c-6.8295,-3.15897 -9.77538,-0.75005 -13.40711,-2.89049c-5.88541,-3.46908 -6.63617,-14.09507 -7.52028,-15.90775h-4.11188v7.18336h-3.00021v3.00021h3.00021v6.00007h-3.00021z" id="b7b7bbf4-8ee7-4cb4-9655-6e78e3d0edcc" fill="none" fill-rule="nonzero" stroke="#9926ff"/><path d="M818.94779,125.04843v-3.00021h-3.00021v-4.18315h-10.34586v-3.00021h-3.00021v3.00021h-6.00042v-3.00021h-3.00021v3.00021h-3.89244v2.69222c0,0.80509 0.46922,1.53856 1.19987,1.87654c6.8295,3.15897 9.77538,0.75005 13.40711,2.89049c5.88541,3.46908 6.63617,14.09507 7.52028,15.90775h4.11188v-7.18336h3.00021v-3.00021h-3.00021v-6.00007z" id="2f8d2984-2287-480c-b2c1-89432c1558cf" fill="none" fill-rule="nonzero" stroke="#9926ff"/><path d="M784.80804,133.64843v-3.00021h-3.00021v-4.18315h-10.34586v-3.00021h-3.00021v3.00021h-6.00042v-3.00021h-3.00021v3.00021h-3.89244v2.69222c0,0.80509 0.46922,1.53856 1.19987,1.87654c6.8295,3.15897 9.77538,0.75005 13.40711,2.89049c5.88541,3.46908 6.63617,14.09507 7.52028,15.90775h4.11188v-7.18336h3.00021v-3.00021h-3.00021v-6.00007z" id="1c17941c-86f0-4037-ad07-116bb8eb1b14" fill="none" fill-rule="nonzero" stroke="#9926ff"/><path d="M752.93148,104.80591v3.00021h3.00021v4.18315h10.34586v3.00021h3.00021v-3.00021h6.00042v3.00021h3.00021v-3.00021h3.89244v-2.69222c0,-0.80509 -0.46922,-1.53856 -1.19987,-1.87654c-6.8295,-3.15897 -9.77538,-0.75005 -13.40711,-2.89049c-5.88541,-3.46908 -6.63617,-14.09507 -7.52028,-15.90775h-4.11188v7.18336h-3.00021v3.00021h3.00021v6.00007l-3.00021,0z" id="236bd1e0-1c41-407f-9f36-ce0ed13d40fc" fill="none" fill-rule="nonzero" stroke="#9926ff"/><path d="M787.07123,96.20591v3.00021h3.00021v4.18315h10.34586v3.00021h3.00021v-3.00021h6.00042v3.00021h3.00021v-3.00021h3.89244v-2.69222c0,-0.80509 -0.46922,-1.53856 -1.19987,-1.87654c-6.8295,-3.15897 -9.77538,-0.75005 -13.40711,-2.89049c-5.88541,-3.46908 -6.63617,-14.09507 -7.52028,-15.90775h-4.11188v7.18336h-3.00021v3.00021h3.00021v6.00007l-3.00021,0z" id="beda5b30-d4c1-494e-b85f-608d9f2fd1b7" fill="none" fill-rule="nonzero" stroke="#9926ff"/><path d="M816.31059,77.02241v-3.00021h-3.00021v-4.18315h-10.34586v-3.00021h-3.00021v3.00021h-6.00042v-3.00021h-3.00021v3.00021h-3.89244v2.69222c0,0.80509 0.46922,1.53856 1.19987,1.87654c6.8295,3.15897 9.77538,0.75005 13.40711,2.89049c5.88541,3.46908 6.63617,14.09507 7.52028,15.90775h4.11188v-7.18336h3.00021v-3.00021h-3.00021v-6.00007l3.00021,0z" id="8219825b-908d-4216-b59a-6447c90ec59a" fill="none" fill-rule="nonzero" stroke="#9926ff"/><path d="M782.17084,85.62241v-3.00021h-3.00021v-4.18315h-10.34586v-3.00021h-3.00021v3.00021h-6.00042v-3.00021h-3.00021v3.00021h-3.89244v2.69222c0,0.80509 0.46922,1.53856 1.19987,1.87654c6.8295,3.15897 9.77538,0.75005 13.40711,2.89049c5.88541,3.46908 6.63617,14.09507 7.52028,15.90775h4.11188v-7.18336h3.00021v-3.00021h-3.00021v-6.00007l3.00021,0z" id="be310a79-b7a9-4495-9d20-89e57965ec09" fill="none" fill-rule="nonzero" stroke="#9926ff"/><path d="M753.88538,57.96814v3.00021h3.00021v4.18315h10.34586v3.00021h3.00021v-3.00021h6.00042v3.00021h3.00021v-3.00021h3.89244v-2.69222c0,-0.80509 -0.46922,-1.53856 -1.19987,-1.87654c-6.8295,-3.15897 -9.77538,-0.75005 -13.40711,-2.89049c-5.88541,-3.46908 -6.63617,-14.09507 -7.52028,-15.90775h-4.11188v7.18336h-3.00021v3.00021h3.00021v6.00007z" id="6f2399e5-6060-443f-8212-6a354251a9be" fill="none" fill-rule="nonzero" stroke="#9926ff"/><path d="M788.02513,49.36814v3.00021h3.00021v4.18315h10.34586v3.00021h3.00021v-3.00021h6.00042v3.00021h3.00021v-3.00021h3.89244v-2.69222c0,-0.80509 -0.46922,-1.53856 -1.19987,-1.87654c-6.8295,-3.15897 -9.77538,-0.75005 -13.40711,-2.89049c-5.88541,-3.46908 -6.63617,-14.09507 -7.52028,-15.90775h-4.11188v7.18336h-3.00021v3.00021h3.00021v6.00007z" id="a55ade1d-13de-4f06-80f9-5169742d9cd0" fill="none" fill-rule="nonzero" stroke="#9926ff"/><path d="M817.26448,30.18464v-3.00021h-3.00021v-4.18315h-10.34586v-3.00021h-3.00021v3.00021h-6.00042v-3.00021h-3.00021v3.00021h-3.89244v2.69222c0,0.80509 0.46922,1.53856 1.19987,1.87654c6.8295,3.15897 9.77538,0.75005 13.40711,2.89049c5.88541,3.46908 6.63617,14.09507 7.52028,15.90775h4.11188v-7.18336h3.00021v-3.00021h-3.00021v-6.00007z" id="c1264c13-32e3-4668-b6d5-db936c8bfbb9" fill="none" fill-rule="nonzero" stroke="#9926ff"/><path d="M783.12473,38.78464v-3.00021h-3.00021v-4.18315h-10.34586v-3.00021h-3.00021v3.00021h-6.00042v-3.00021h-3.00021v3.00021h-3.89244v2.69222c0,0.80509 0.46922,1.53856 1.19987,1.87654c6.8295,3.15897 9.77538,0.75005 13.40711,2.89049c5.88541,3.46908 6.63617,14.09507 7.52028,15.90775h4.11188v-7.18336h3.00021v-3.00021h-3.00021v-6.00007z" id="7c465aee-c720-4323-b8e5-ade2c484f8b8" fill="none" fill-rule="nonzero" stroke="#9926ff"/><g id="g-b737f668-b02a-4f83-a93b-ada6a55cecc5" fill="#000000" fill-rule="nonzero" stroke="none" font-family="Inter, ui-sans-serif, system-ui, sans-serif" font-weight="400" font-size="16" text-anchor="start"/><g id="g-471a8570-6b29-4c02-8db4-7e419a03743c" fill="#000000" fill-rule="nonzero" stroke="none" font-family="Inter, ui-sans-serif, system-ui, sans-serif" font-weight="400" font-size="16" text-anchor="start"/><g id="g-05d5a7f1-39ea-407e-9e60-aa6d9999ee48"><path d="M424.9113,1098.8278h-0.5862l-0.8006,1.3868zM423.2639,1100.666l-0.6382,1.1053l3.1728,3.1728l-1.7332,1.7335l-2.7085,-2.7085l-0.638,1.1051l0.7064,0.7064l-2.6367,2.637l-2.5657,4.4439l0.8291,0.829l-1.7332,1.7336l-0.3648,-0.3648l-1.9328,3.3477l4.0308,4.0305l-1.7336,1.7331l-3.566,-3.5661l-0.6382,1.1054l1.564,1.5644l-1.791,1.791h5.2802l2.3925,-2.3921h-1.1258v-3.0001h2.1339l-0.7728,-0.7728l1.7335,-1.7327l5.2699,5.2699l-1.7332,1.7331l-3.6313,-3.6314v1.7437l0.991,0.9915l-1.7906,1.7909h5.2794l3.5246,-3.5245l1.7331,1.7336l-1.7914,1.7909h5.2802l1.7565,-1.756l1.7681,-1.7686l1.7331,1.7336l-1.791,1.791h5.2802l3.525,-3.5245l1.7327,1.7336l-1.7906,1.7909h5.2794l3.5246,-3.5245l1.7331,1.7336l-1.7914,1.7909h5.2802l1.7565,-1.756l1.7681,-1.7686l1.7331,1.7336l-1.7909,1.791h5.2801l3.525,-3.5245l0.1481,0.1482v-1.7434l-1.0453,-1.0453l1.7336,-1.7327l5.2698,5.2699l-1.7332,1.7331l-1.4974,-1.4974h-1.7438l0.6009,0.6012l-1.7905,1.7909h5.2793l3.5246,-3.5245l1.4776,1.478l-3.0146,-5.2214l-1.9999,1.9999l-1.7327,-1.7331l2.4639,-2.4643l-0.6381,-1.1052l-0.9293,0.9295l-5.2702,-5.2703l1.7336,-1.7327l2.2695,2.2694l-2.2997,-3.9832l-4.3431,4.3435l-1.7336,-1.7331l4.808,-4.808l-1.9327,-3.3474l-1.1419,1.1418l-1.7332,-1.7336l1.6061,-1.6061l-0.0788,-0.1367h-5.0646l-1.7078,1.7078l-1.769,1.7686l-1.7327,-1.7336l1.7427,-1.7428h-5.2802l-3.4763,3.4764l-1.7328,-1.7336l1.7428,-1.7428h-5.2794l-3.4767,3.4764l-1.7332,-1.7336l1.7428,-1.7428h-5.2802l-1.7077,1.7078l-1.769,1.7686l-1.7327,-1.7336l1.7427,-1.7428h-5.2802l-3.4764,3.4764zM482.5828,1123.3428l-1.7229,1.7225h2.7174zM434.5455,1104.9441l-5.2707,-5.2699l-1.7327,1.7332l5.2698,5.2702zM443.2918,1104.9441l-5.2703,-5.2699l-1.7336,1.7332l5.2707,5.2702zM452.0384,1104.9441l-5.2699,-5.2699l-1.7335,1.7332l5.2702,5.2702zM460.7854,1104.9441l-5.2707,-5.2699l-1.7327,1.7332l5.2698,5.2702zM469.5317,1104.9441l-5.2703,-5.2699l-1.7336,1.7332l5.2707,5.2702zM438.918,1105.7808l-1.7331,-1.7336l-1.7681,1.769v3.3569h-0.0001v-3.3567l-3.5017,3.5012l1.7027,1.7031v1.1524h3v-1.6896l4.9409,4.9406l1.7332,-1.7336l-5.2703,-5.2694l-1.4038,1.4031v-0.6511h-1.0915zM465.1579,1105.7808l-1.7331,-1.7336l-1.7681,1.769v3.4663zM430.1714,1105.7806l-1.7331,-1.7331l-5.2699,5.2703l1.7332,1.7331zM447.6651,1105.7806l-1.7331,-1.7331l-5.2703,5.2703l1.7336,1.7331zM456.4113,1105.7806l-1.7331,-1.7331l-5.2698,5.2703l1.7331,1.7331zM461.6566,1109.2826v-3.4662l-3.3571,3.3567h-2.0326l-0.752,-0.7519l-1.7327,1.7327l5.2694,5.2703l1.734,-1.7336l-1.6491,-1.6486v-1.7425l0.7515,0.7517zM469.5317,1113.6905l-5.2703,-5.2694l-1.7336,1.7327l5.2707,5.2703zM425.7985,1113.6906l-5.2699,-5.2694l-1.7335,1.7327l5.2702,5.2703zM434.5457,1113.6906l-5.2707,-5.2694l-1.7327,1.7327l5.2694,5.2703zM452.0384,1113.6906l-5.2699,-5.2694l-1.7335,1.7327l5.2702,5.2703zM421.4255,1114.5271l-1.7336,-1.7332l-5.2698,5.2703l1.7331,1.7331zM430.1717,1114.5271l-1.7336,-1.7332l-5.2693,5.2703l1.7327,1.7331zM447.6654,1114.5271l-1.7336,-1.7332l-5.2698,5.2703l1.7332,1.7331zM456.4116,1114.5271l-1.7335,-1.7332l-5.2694,5.2703l1.7327,1.7331zM473.9053,1114.5271l-1.7335,-1.7332l-5.2699,5.2703l1.7332,1.7331zM438.918,1114.5273l-1.7331,-1.7332l-1.7681,1.7686v3.4663zM465.1579,1114.5273l-1.7331,-1.7332l-1.7681,1.7686v3.4663zM435.4167,1118.0292v-3.4663l-3.5017,3.5013l1.7027,1.7027v1.4062h3v-1.9431l4.9405,4.9406l1.7336,-1.7331l-5.2703,-5.2699l-1.4038,1.4032v-0.3977h-1.345zM461.6566,1118.0292v-3.4663l-3.5017,3.5013l0.1089,0.1089h-1.7434l-1.0057,-1.0055l-1.7327,1.7327l5.2698,5.2703l1.7336,-1.7331l-1.6489,-1.6486v-1.7431l0.7515,0.7515zM434.5455,1122.4375l-5.2707,-5.2699l-1.7327,1.7327l5.2698,5.2703zM452.0384,1122.4375l-5.2699,-5.2699l-1.7335,1.7327l5.2702,5.2703zM469.5317,1122.4375l-5.2702,-5.2699l-1.7336,1.7327l5.2702,5.2703z" id="0b99dd16-2981-46d7-8c9d-21c66ca939b8" fill="#f9932b" fill-rule="evenodd" stroke="#fa9228"/><path d="M35.14763,685.45028h44.10429l15.14828,-26.2375h-74.40051zM83.14271,661.60496h3.00002v3.00002h-3.00002zM66.95902,663.10497h3.00002v3.00002h-3.00002zM66.95902,672.10504h3.00002v3.00002h-3.00002zM44.44015,663.10497h3.00002v3.00002h-3.00002zM44.44015,672.10504h3.00002v3.00002h-3.00002zM31.25649,661.60496v3.00002h-3.00002v-3.00002z" id="aa7c7608-9eb9-4e97-9951-3685f6c6132b" fill="none" fill-rule="nonzero" stroke="#9926ff"/></g><g id="g-cf2deebf-f2ea-41fe-900c-ba691984d6ef"><path d="M424.9113,1151.3028h-0.5862l-0.8006,1.3868zM423.2639,1153.141l-0.6382,1.1053l3.1728,3.1728l-1.7332,1.7335l-2.7085,-2.7085l-0.638,1.1051l0.7064,0.7064l-2.6367,2.637l-2.5657,4.4439l0.8291,0.829l-1.7332,1.7336l-0.3648,-0.3648l-1.9328,3.3477l4.0308,4.0305l-1.7336,1.7331l-3.566,-3.5661l-0.6382,1.1054l1.564,1.5644l-1.791,1.791h5.2802l2.3925,-2.3921h-1.1258v-3.0001h2.1339l-0.7728,-0.7728l1.7335,-1.7327l5.2699,5.2699l-1.7332,1.7331l-3.6313,-3.6314v1.7437l0.991,0.9915l-1.7906,1.7909h5.2794l3.5246,-3.5245l1.7331,1.7336l-1.7914,1.7909h5.2802l1.7565,-1.756l1.7681,-1.7686l1.7331,1.7336l-1.791,1.791h5.2802l3.525,-3.5245l1.7327,1.7336l-1.7906,1.7909h5.2794l3.5246,-3.5245l1.7331,1.7336l-1.7914,1.7909h5.2802l1.7565,-1.756l1.7681,-1.7686l1.7331,1.7336l-1.7909,1.791h5.2801l3.525,-3.5245l0.1481,0.1482v-1.7434l-1.0453,-1.0453l1.7336,-1.7327l5.2698,5.2699l-1.7332,1.7331l-1.4974,-1.4974h-1.7438l0.6009,0.6012l-1.7905,1.7909h5.2793l3.5246,-3.5245l1.4776,1.478l-3.0146,-5.2214l-1.9999,1.9999l-1.7327,-1.7331l2.4639,-2.4643l-0.6381,-1.1052l-0.9293,0.9295l-5.2702,-5.2703l1.7336,-1.7327l2.2695,2.2694l-2.2997,-3.9832l-4.3431,4.3435l-1.7336,-1.7331l4.808,-4.808l-1.9327,-3.3474l-1.1419,1.1418l-1.7332,-1.7336l1.6061,-1.6061l-0.0788,-0.1367h-5.0646l-1.7078,1.7078l-1.769,1.7686l-1.7327,-1.7336l1.7427,-1.7428h-5.2802l-3.4763,3.4764l-1.7328,-1.7336l1.7428,-1.7428h-5.2794l-3.4767,3.4764l-1.7332,-1.7336l1.7428,-1.7428h-5.2802l-1.7077,1.7078l-1.769,1.7686l-1.7327,-1.7336l1.7427,-1.7428h-5.2802l-3.4764,3.4764zM482.5828,1175.8178l-1.7229,1.7225h2.7174zM434.5455,1157.4191l-5.2707,-5.2699l-1.7327,1.7332l5.2698,5.2702zM443.2918,1157.4191l-5.2703,-5.2699l-1.7336,1.7332l5.2707,5.2702zM452.0384,1157.4191l-5.2699,-5.2699l-1.7335,1.7332l5.2702,5.2702zM460.7854,1157.4191l-5.2707,-5.2699l-1.7327,1.7332l5.2698,5.2702zM469.5317,1157.4191l-5.2703,-5.2699l-1.7336,1.7332l5.2707,5.2702zM438.918,1158.2558l-1.7331,-1.7336l-1.7681,1.769v3.3569h-0.0001v-3.3567l-3.5017,3.5012l1.7027,1.7031v1.1524h3v-1.6896l4.9409,4.9406l1.7332,-1.7336l-5.2703,-5.2694l-1.4038,1.4031v-0.6511h-1.0915zM465.1579,1158.2558l-1.7331,-1.7336l-1.7681,1.769v3.4663zM430.1714,1158.2556l-1.7331,-1.7331l-5.2699,5.2703l1.7332,1.7331zM447.6651,1158.2556l-1.7331,-1.7331l-5.2703,5.2703l1.7336,1.7331zM456.4113,1158.2556l-1.7331,-1.7331l-5.2698,5.2703l1.7331,1.7331zM461.6566,1161.7576v-3.4662l-3.3571,3.3567h-2.0326l-0.752,-0.7519l-1.7327,1.7327l5.2694,5.2703l1.734,-1.7336l-1.6491,-1.6486v-1.7425l0.7515,0.7517zM469.5317,1166.1655l-5.2703,-5.2694l-1.7336,1.7327l5.2707,5.2703zM425.7985,1166.1656l-5.2699,-5.2694l-1.7335,1.7327l5.2702,5.2703zM434.5457,1166.1656l-5.2707,-5.2694l-1.7327,1.7327l5.2694,5.2703zM452.0384,1166.1656l-5.2699,-5.2694l-1.7335,1.7327l5.2702,5.2703zM421.4255,1167.0021l-1.7336,-1.7332l-5.2698,5.2703l1.7331,1.7331zM430.1717,1167.0021l-1.7336,-1.7332l-5.2693,5.2703l1.7327,1.7331zM447.6654,1167.0021l-1.7336,-1.7332l-5.2698,5.2703l1.7332,1.7331zM456.4116,1167.0021l-1.7335,-1.7332l-5.2694,5.2703l1.7327,1.7331zM473.9053,1167.0021l-1.7335,-1.7332l-5.2699,5.2703l1.7332,1.7331zM438.918,1167.0023l-1.7331,-1.7332l-1.7681,1.7686v3.4663zM465.1579,1167.0023l-1.7331,-1.7332l-1.7681,1.7686v3.4663zM435.4167,1170.5042v-3.4663l-3.5017,3.5013l1.7027,1.7027v1.4062h3v-1.9431l4.9405,4.9406l1.7336,-1.7331l-5.2703,-5.2699l-1.4038,1.4032v-0.3977h-1.345zM461.6566,1170.5042v-3.4663l-3.5017,3.5013l0.1089,0.1089h-1.7434l-1.0057,-1.0055l-1.7327,1.7327l5.2698,5.2703l1.7336,-1.7331l-1.6489,-1.6486v-1.7431l0.7515,0.7515zM434.5455,1174.9125l-5.2707,-5.2699l-1.7327,1.7327l5.2698,5.2703zM452.0384,1174.9125l-5.2699,-5.2699l-1.7335,1.7327l5.2702,5.2703zM469.5317,1174.9125l-5.2702,-5.2699l-1.7336,1.7327l5.2702,5.2703z" id="36a14fbf-efc1-47f6-801b-471a9a171bdd" fill="#f9932b" fill-rule="evenodd" stroke="#fa9228"/><path d="M35.14763,737.92538h44.10429l15.14828,-26.2375h-74.40051zM83.14271,714.08006h3.00002v3.00002h-3.00002zM66.95902,715.58007h3.00002v3.00002h-3.00002zM66.95902,724.58014h3.00002v3.00002h-3.00002zM44.44015,715.58007h3.00002v3.00002h-3.00002zM44.44015,724.58014h3.00002v3.00002h-3.00002zM31.25649,714.08006v3.00002h-3.00002v-3.00002z" id="4a0e1ae0-3ff0-4637-a814-651d575ac2ba" fill="none" fill-rule="nonzero" stroke="#9926ff"/></g><g id="g-af870585-a479-48f2-b0a1-449bad507a3f" fill="#000000" fill-rule="nonzero" stroke="none" font-family="Inter, ui-sans-serif, system-ui, sans-serif" font-weight="400" font-size="16" text-anchor="start"/><g id="g-ec184c8a-6f45-4e20-a3ed-cba50bd2fa6a" fill="#000000" fill-rule="nonzero" stroke="none" font-family="Inter, ui-sans-serif, system-ui, sans-serif" font-weight="400" font-size="16" text-anchor="start"/><g id="g-62d88c1b-909d-4baa-8983-a967baeee337"><path d="M424.9106,1203.7778h-0.5862l-0.8006,1.3868zM423.2632,1205.616l-0.6382,1.1053l3.1728,3.1728l-1.7332,1.7335l-2.7085,-2.7085l-0.638,1.1051l0.7064,0.7064l-2.6367,2.637l-2.5657,4.4439l0.8291,0.829l-1.7332,1.7336l-0.3648,-0.3648l-1.9328,3.3477l4.0308,4.0305l-1.7336,1.7331l-3.566,-3.5661l-0.6382,1.1054l1.564,1.5644l-1.791,1.791h5.2802l2.3925,-2.3921h-1.1258v-3.0001h2.1339l-0.7728,-0.7728l1.7335,-1.7327l5.2699,5.2699l-1.7332,1.7331l-3.6313,-3.6314v1.7437l0.991,0.9915l-1.7906,1.7909h5.2794l3.5246,-3.5245l1.7331,1.7336l-1.7914,1.7909h5.2802l1.7565,-1.756l1.7681,-1.7686l1.7331,1.7336l-1.791,1.791h5.2802l3.525,-3.5245l1.7327,1.7336l-1.7906,1.7909h5.2794l3.5246,-3.5245l1.7331,1.7336l-1.7914,1.7909h5.2802l1.7565,-1.756l1.7681,-1.7686l1.7331,1.7336l-1.7909,1.791h5.2801l3.525,-3.5245l0.1481,0.1482v-1.7434l-1.0453,-1.0453l1.7336,-1.7327l5.2698,5.2699l-1.7332,1.7331l-1.4974,-1.4974h-1.7438l0.6009,0.6012l-1.7905,1.7909h5.2793l3.5246,-3.5245l1.4776,1.478l-3.0146,-5.2214l-1.9999,1.9999l-1.7327,-1.7331l2.4639,-2.4643l-0.6381,-1.1052l-0.9293,0.9295l-5.2702,-5.2703l1.7336,-1.7327l2.2695,2.2694l-2.2997,-3.9832l-4.3431,4.3435l-1.7336,-1.7331l4.808,-4.808l-1.9327,-3.3474l-1.1419,1.1418l-1.7332,-1.7336l1.6061,-1.6061l-0.0788,-0.1367h-5.0646l-1.7078,1.7078l-1.769,1.7686l-1.7327,-1.7336l1.7427,-1.7428h-5.2802l-3.4763,3.4764l-1.7328,-1.7336l1.7428,-1.7428h-5.2794l-3.4767,3.4764l-1.7332,-1.7336l1.7428,-1.7428h-5.2802l-1.7077,1.7078l-1.769,1.7686l-1.7327,-1.7336l1.7427,-1.7428h-5.2802l-3.4764,3.4764zM482.5821,1228.2928l-1.7229,1.7225h2.7174zM434.5448,1209.8941l-5.2707,-5.2699l-1.7327,1.7332l5.2698,5.2702zM443.2911,1209.8941l-5.2703,-5.2699l-1.7336,1.7332l5.2707,5.2702zM452.0377,1209.8941l-5.2699,-5.2699l-1.7335,1.7332l5.2702,5.2702zM460.7847,1209.8941l-5.2707,-5.2699l-1.7327,1.7332l5.2698,5.2702zM469.531,1209.8941l-5.2703,-5.2699l-1.7336,1.7332l5.2707,5.2702zM438.9173,1210.7308l-1.7331,-1.7336l-1.7681,1.769v3.3569h-0.0001v-3.3567l-3.5017,3.5012l1.7027,1.7031v1.1524h3v-1.6896l4.9409,4.9406l1.7332,-1.7336l-5.2703,-5.2694l-1.4038,1.4031v-0.6511h-1.0915zM465.1572,1210.7308l-1.7331,-1.7336l-1.7681,1.769v3.4663zM430.1707,1210.7306l-1.7331,-1.7331l-5.2699,5.2703l1.7332,1.7331zM447.6644,1210.7306l-1.7331,-1.7331l-5.2703,5.2703l1.7336,1.7331zM456.4106,1210.7306l-1.7331,-1.7331l-5.2698,5.2703l1.7331,1.7331zM461.6559,1214.2326v-3.4662l-3.3571,3.3567h-2.0326l-0.752,-0.7519l-1.7327,1.7327l5.2694,5.2703l1.734,-1.7336l-1.6491,-1.6486v-1.7425l0.7515,0.7517zM469.531,1218.6405l-5.2703,-5.2694l-1.7336,1.7327l5.2707,5.2703zM425.7978,1218.6406l-5.2699,-5.2694l-1.7335,1.7327l5.2702,5.2703zM434.545,1218.6406l-5.2707,-5.2694l-1.7327,1.7327l5.2694,5.2703zM452.0377,1218.6406l-5.2699,-5.2694l-1.7335,1.7327l5.2702,5.2703zM421.4248,1219.4771l-1.7336,-1.7332l-5.2698,5.2703l1.7331,1.7331zM430.171,1219.4771l-1.7336,-1.7332l-5.2693,5.2703l1.7327,1.7331zM447.6647,1219.4771l-1.7336,-1.7332l-5.2698,5.2703l1.7332,1.7331zM456.4109,1219.4771l-1.7335,-1.7332l-5.2694,5.2703l1.7327,1.7331zM473.9046,1219.4771l-1.7335,-1.7332l-5.2699,5.2703l1.7332,1.7331zM438.9173,1219.4773l-1.7331,-1.7332l-1.7681,1.7686v3.4663zM465.1572,1219.4773l-1.7331,-1.7332l-1.7681,1.7686v3.4663zM435.416,1222.9792v-3.4663l-3.5017,3.5013l1.7027,1.7027v1.4062h3v-1.9431l4.9405,4.9406l1.7336,-1.7331l-5.2703,-5.2699l-1.4038,1.4032v-0.3977h-1.345zM461.6559,1222.9792v-3.4663l-3.5017,3.5013l0.1089,0.1089h-1.7434l-1.0057,-1.0055l-1.7327,1.7327l5.2698,5.2703l1.7336,-1.7331l-1.6489,-1.6486v-1.7431l0.7515,0.7515zM434.5448,1227.3875l-5.2707,-5.2699l-1.7327,1.7327l5.2698,5.2703zM452.0377,1227.3875l-5.2699,-5.2699l-1.7335,1.7327l5.2702,5.2703zM469.531,1227.3875l-5.2702,-5.2699l-1.7336,1.7327l5.2702,5.2703z" id="341dcbed-81f0-4fcc-a37e-2c33e6041dfd" fill="#f9932b" fill-rule="evenodd" stroke="#fa9228"/><path d="M35.14693,790.40038h44.10429l15.14828,-26.2375h-74.40051zM83.14201,766.55506h3.00002v3.00002h-3.00002zM66.95832,768.05507h3.00002v3.00002h-3.00002zM66.95832,777.05514h3.00002v3.00002h-3.00002zM44.43945,768.05507h3.00002v3.00002h-3.00002zM44.43945,777.05514h3.00002v3.00002h-3.00002zM31.25579,766.55506v3.00002h-3.00002v-3.00002z" id="3de92691-0f9f-473c-9afd-832f3c903541" fill="none" fill-rule="nonzero" stroke="#9926ff"/></g><g id="g-26be703b-68d2-45c0-989a-7cb299c67396"><path d="M424.9106,1256.2528h-0.5862l-0.8006,1.3868zM423.2632,1258.091l-0.6382,1.1053l3.1728,3.1728l-1.7332,1.7335l-2.7085,-2.7085l-0.638,1.1051l0.7064,0.7064l-2.6367,2.637l-2.5657,4.4439l0.8291,0.829l-1.7332,1.7336l-0.3648,-0.3648l-1.9328,3.3477l4.0308,4.0305l-1.7336,1.7331l-3.566,-3.5661l-0.6382,1.1054l1.564,1.5644l-1.791,1.791h5.2802l2.3925,-2.3921h-1.1258v-3.0001h2.1339l-0.7728,-0.7728l1.7335,-1.7327l5.2699,5.2699l-1.7332,1.7331l-3.6313,-3.6314v1.7437l0.991,0.9915l-1.7906,1.7909h5.2794l3.5246,-3.5245l1.7331,1.7336l-1.7914,1.7909h5.2802l1.7565,-1.756l1.7681,-1.7686l1.7331,1.7336l-1.791,1.791h5.2802l3.525,-3.5245l1.7327,1.7336l-1.7906,1.7909h5.2794l3.5246,-3.5245l1.7331,1.7336l-1.7914,1.7909h5.2802l1.7565,-1.756l1.7681,-1.7686l1.7331,1.7336l-1.7909,1.791h5.2801l3.525,-3.5245l0.1481,0.1482v-1.7434l-1.0453,-1.0453l1.7336,-1.7327l5.2698,5.2699l-1.7332,1.7331l-1.4974,-1.4974h-1.7438l0.6009,0.6012l-1.7905,1.7909h5.2793l3.5246,-3.5245l1.4776,1.478l-3.0146,-5.2214l-1.9999,1.9999l-1.7327,-1.7331l2.4639,-2.4643l-0.6381,-1.1052l-0.9293,0.9295l-5.2702,-5.2703l1.7336,-1.7327l2.2695,2.2694l-2.2997,-3.9832l-4.3431,4.3435l-1.7336,-1.7331l4.808,-4.808l-1.9327,-3.3474l-1.1419,1.1418l-1.7332,-1.7336l1.6061,-1.6061l-0.0788,-0.1367h-5.0646l-1.7078,1.7078l-1.769,1.7686l-1.7327,-1.7336l1.7427,-1.7428h-5.2802l-3.4763,3.4764l-1.7328,-1.7336l1.7428,-1.7428h-5.2794l-3.4767,3.4764l-1.7332,-1.7336l1.7428,-1.7428h-5.2802l-1.7077,1.7078l-1.769,1.7686l-1.7327,-1.7336l1.7427,-1.7428h-5.2802l-3.4764,3.4764zM482.5821,1280.7678l-1.7229,1.7225h2.7174zM434.5448,1262.3691l-5.2707,-5.2699l-1.7327,1.7332l5.2698,5.2702zM443.2911,1262.3691l-5.2703,-5.2699l-1.7336,1.7332l5.2707,5.2702zM452.0377,1262.3691l-5.2699,-5.2699l-1.7335,1.7332l5.2702,5.2702zM460.7847,1262.3691l-5.2707,-5.2699l-1.7327,1.7332l5.2698,5.2702zM469.531,1262.3691l-5.2703,-5.2699l-1.7336,1.7332l5.2707,5.2702zM438.9173,1263.2058l-1.7331,-1.7336l-1.7681,1.769v3.3569h-0.0001v-3.3567l-3.5017,3.5012l1.7027,1.7031v1.1524h3v-1.6896l4.9409,4.9406l1.7332,-1.7336l-5.2703,-5.2694l-1.4038,1.4031v-0.6511h-1.0915zM465.1572,1263.2058l-1.7331,-1.7336l-1.7681,1.769v3.4663zM430.1707,1263.2056l-1.7331,-1.7331l-5.2699,5.2703l1.7332,1.7331zM447.6644,1263.2056l-1.7331,-1.7331l-5.2703,5.2703l1.7336,1.7331zM456.4106,1263.2056l-1.7331,-1.7331l-5.2698,5.2703l1.7331,1.7331zM461.6559,1266.7076v-3.4662l-3.3571,3.3567h-2.0326l-0.752,-0.7519l-1.7327,1.7327l5.2694,5.2703l1.734,-1.7336l-1.6491,-1.6486v-1.7425l0.7515,0.7517zM469.531,1271.1155l-5.2703,-5.2694l-1.7336,1.7327l5.2707,5.2703zM425.7978,1271.1156l-5.2699,-5.2694l-1.7335,1.7327l5.2702,5.2703zM434.545,1271.1156l-5.2707,-5.2694l-1.7327,1.7327l5.2694,5.2703zM452.0377,1271.1156l-5.2699,-5.2694l-1.7335,1.7327l5.2702,5.2703zM421.4248,1271.9521l-1.7336,-1.7332l-5.2698,5.2703l1.7331,1.7331zM430.171,1271.9521l-1.7336,-1.7332l-5.2693,5.2703l1.7327,1.7331zM447.6647,1271.9521l-1.7336,-1.7332l-5.2698,5.2703l1.7332,1.7331zM456.4109,1271.9521l-1.7335,-1.7332l-5.2694,5.2703l1.7327,1.7331zM473.9046,1271.9521l-1.7335,-1.7332l-5.2699,5.2703l1.7332,1.7331zM438.9173,1271.9523l-1.7331,-1.7332l-1.7681,1.7686v3.4663zM465.1572,1271.9523l-1.7331,-1.7332l-1.7681,1.7686v3.4663zM435.416,1275.4542v-3.4663l-3.5017,3.5013l1.7027,1.7027v1.4062h3v-1.9431l4.9405,4.9406l1.7336,-1.7331l-5.2703,-5.2699l-1.4038,1.4032v-0.3977h-1.345zM461.6559,1275.4542v-3.4663l-3.5017,3.5013l0.1089,0.1089h-1.7434l-1.0057,-1.0055l-1.7327,1.7327l5.2698,5.2703l1.7336,-1.7331l-1.6489,-1.6486v-1.7431l0.7515,0.7515zM434.5448,1279.8625l-5.2707,-5.2699l-1.7327,1.7327l5.2698,5.2703zM452.0377,1279.8625l-5.2699,-5.2699l-1.7335,1.7327l5.2702,5.2703zM469.531,1279.8625l-5.2702,-5.2699l-1.7336,1.7327l5.2702,5.2703z" id="597623a6-3746-44eb-872f-379002d8bec5" fill="#f9932b" fill-rule="evenodd" stroke="#fa9228"/><path d="M35.14693,842.87538h44.10429l15.14828,-26.2375h-74.40051zM83.14201,819.03006h3.00002v3.00002h-3.00002zM66.95832,820.53007h3.00002v3.00002h-3.00002zM66.95832,829.53014h3.00002v3.00002h-3.00002zM44.43945,820.53007h3.00002v3.00002h-3.00002zM44.43945,829.53014h3.00002v3.00002h-3.00002zM31.25579,819.03006v3.00002h-3.00002v-3.00002z" id="5cd1aa3d-85be-4eff-b1c9-a1d0e2ecb174" fill="none" fill-rule="nonzero" stroke="#9926ff"/></g><g id="g-7b21a838-a58e-452c-81bf-78e53da338c4"><path d="M424.9113,1308.7279h-0.5862l-0.8006,1.3868zM423.2639,1310.5661l-0.6382,1.1053l3.1728,3.1728l-1.7332,1.7335l-2.7085,-2.7085l-0.638,1.1051l0.7064,0.7064l-2.6367,2.637l-2.5657,4.4439l0.8291,0.829l-1.7332,1.7336l-0.3648,-0.3648l-1.9328,3.3477l4.0308,4.0305l-1.7336,1.7331l-3.566,-3.5661l-0.6382,1.1054l1.564,1.5644l-1.791,1.791h5.2802l2.3925,-2.3921h-1.1258v-3.0001h2.1339l-0.7728,-0.7728l1.7335,-1.7327l5.2699,5.2699l-1.7332,1.7331l-3.6313,-3.6314v1.7437l0.991,0.9915l-1.7906,1.7909h5.2794l3.5246,-3.5245l1.7331,1.7336l-1.7914,1.7909h5.2802l1.7565,-1.756l1.7681,-1.7686l1.7331,1.7336l-1.791,1.791h5.2802l3.525,-3.5245l1.7327,1.7336l-1.7906,1.7909h5.2794l3.5246,-3.5245l1.7331,1.7336l-1.7914,1.7909h5.2802l1.7565,-1.756l1.7681,-1.7686l1.7331,1.7336l-1.7909,1.791h5.2801l3.525,-3.5245l0.1481,0.1482v-1.7434l-1.0453,-1.0453l1.7336,-1.7327l5.2698,5.2699l-1.7332,1.7331l-1.4974,-1.4974h-1.7438l0.6009,0.6012l-1.7905,1.7909h5.2793l3.5246,-3.5245l1.4776,1.478l-3.0146,-5.2214l-1.9999,1.9999l-1.7327,-1.7331l2.4639,-2.4643l-0.6381,-1.1052l-0.9293,0.9295l-5.2702,-5.2703l1.7336,-1.7327l2.2695,2.2694l-2.2997,-3.9832l-4.3431,4.3435l-1.7336,-1.7331l4.808,-4.808l-1.9327,-3.3474l-1.1419,1.1418l-1.7332,-1.7336l1.6061,-1.6061l-0.0788,-0.1367h-5.0646l-1.7078,1.7078l-1.769,1.7686l-1.7327,-1.7336l1.7427,-1.7428h-5.2802l-3.4763,3.4764l-1.7328,-1.7336l1.7428,-1.7428h-5.2794l-3.4767,3.4764l-1.7332,-1.7336l1.7428,-1.7428h-5.2802l-1.7077,1.7078l-1.769,1.7686l-1.7327,-1.7336l1.7427,-1.7428h-5.2802l-3.4764,3.4764zM482.5828,1333.2429l-1.7229,1.7225h2.7174zM434.5455,1314.8442l-5.2707,-5.2699l-1.7327,1.7332l5.2698,5.2702zM443.2918,1314.8442l-5.2703,-5.2699l-1.7336,1.7332l5.2707,5.2702zM452.0384,1314.8442l-5.2699,-5.2699l-1.7335,1.7332l5.2702,5.2702zM460.7854,1314.8442l-5.2707,-5.2699l-1.7327,1.7332l5.2698,5.2702zM469.5317,1314.8442l-5.2703,-5.2699l-1.7336,1.7332l5.2707,5.2702zM438.918,1315.6809l-1.7331,-1.7336l-1.7681,1.769v3.3569h-0.0001v-3.3567l-3.5017,3.5012l1.7027,1.7031v1.1524h3v-1.6896l4.9409,4.9406l1.7332,-1.7336l-5.2703,-5.2694l-1.4038,1.4031v-0.6511h-1.0915zM465.1579,1315.6809l-1.7331,-1.7336l-1.7681,1.769v3.4663zM430.1714,1315.6807l-1.7331,-1.7331l-5.2699,5.2703l1.7332,1.7331zM447.6651,1315.6807l-1.7331,-1.7331l-5.2703,5.2703l1.7336,1.7331zM456.4113,1315.6807l-1.7331,-1.7331l-5.2698,5.2703l1.7331,1.7331zM461.6566,1319.1827v-3.4662l-3.3571,3.3567h-2.0326l-0.752,-0.7519l-1.7327,1.7327l5.2694,5.2703l1.734,-1.7336l-1.6491,-1.6486v-1.7425l0.7515,0.7517zM469.5317,1323.5906l-5.2703,-5.2694l-1.7336,1.7327l5.2707,5.2703zM425.7985,1323.5907l-5.2699,-5.2694l-1.7335,1.7327l5.2702,5.2703zM434.5457,1323.5907l-5.2707,-5.2694l-1.7327,1.7327l5.2694,5.2703zM452.0384,1323.5907l-5.2699,-5.2694l-1.7335,1.7327l5.2702,5.2703zM421.4255,1324.4272l-1.7336,-1.7332l-5.2698,5.2703l1.7331,1.7331zM430.1717,1324.4272l-1.7336,-1.7332l-5.2693,5.2703l1.7327,1.7331zM447.6654,1324.4272l-1.7336,-1.7332l-5.2698,5.2703l1.7332,1.7331zM456.4116,1324.4272l-1.7335,-1.7332l-5.2694,5.2703l1.7327,1.7331zM473.9053,1324.4272l-1.7335,-1.7332l-5.2699,5.2703l1.7332,1.7331zM438.918,1324.4274l-1.7331,-1.7332l-1.7681,1.7686v3.4663zM465.1579,1324.4274l-1.7331,-1.7332l-1.7681,1.7686v3.4663zM435.4167,1327.9293v-3.4663l-3.5017,3.5013l1.7027,1.7027v1.4062h3v-1.9431l4.9405,4.9406l1.7336,-1.7331l-5.2703,-5.2699l-1.4038,1.4032v-0.3977h-1.345zM461.6566,1327.9293v-3.4663l-3.5017,3.5013l0.1089,0.1089h-1.7434l-1.0057,-1.0055l-1.7327,1.7327l5.2698,5.2703l1.7336,-1.7331l-1.6489,-1.6486v-1.7431l0.7515,0.7515zM434.5455,1332.3376l-5.2707,-5.2699l-1.7327,1.7327l5.2698,5.2703zM452.0384,1332.3376l-5.2699,-5.2699l-1.7335,1.7327l5.2702,5.2703zM469.5317,1332.3376l-5.2702,-5.2699l-1.7336,1.7327l5.2702,5.2703z" id="19855a0d-7762-4e3e-88b1-4f3058e07c3e" fill="#f9932b" fill-rule="evenodd" stroke="#fa9228"/><path d="M35.14763,895.35048h44.10429l15.14828,-26.2375h-74.40051zM83.14271,871.50516h3.00002v3.00002h-3.00002zM66.95902,873.00517h3.00002v3.00002h-3.00002zM66.95902,882.00524h3.00002v3.00002h-3.00002zM44.44015,873.00517h3.00002v3.00002h-3.00002zM44.44015,882.00524h3.00002v3.00002h-3.00002zM31.25649,871.50516v3.00002h-3.00002v-3.00002z" id="d646e7cc-b0a7-420a-a352-9fcf50145b81" fill="none" fill-rule="nonzero" stroke="#9926ff"/></g><g id="g-7b346374-6597-4465-ab3e-927569b4ede5"><path d="M424.9113,1361.2029h-0.5862l-0.8006,1.3868zM423.2639,1363.0411l-0.6382,1.1053l3.1728,3.1728l-1.7332,1.7335l-2.7085,-2.7085l-0.638,1.1051l0.7064,0.7064l-2.6367,2.637l-2.5657,4.4439l0.8291,0.829l-1.7332,1.7336l-0.3648,-0.3648l-1.9328,3.3477l4.0308,4.0305l-1.7336,1.7331l-3.566,-3.5661l-0.6382,1.1054l1.564,1.5644l-1.791,1.791h5.2802l2.3925,-2.3921h-1.1258v-3.0001h2.1339l-0.7728,-0.7728l1.7335,-1.7327l5.2699,5.2699l-1.7332,1.7331l-3.6313,-3.6314v1.7437l0.991,0.9915l-1.7906,1.7909h5.2794l3.5246,-3.5245l1.7331,1.7336l-1.7914,1.7909h5.2802l1.7565,-1.756l1.7681,-1.7686l1.7331,1.7336l-1.791,1.791h5.2802l3.525,-3.5245l1.7327,1.7336l-1.7906,1.7909h5.2794l3.5246,-3.5245l1.7331,1.7336l-1.7914,1.7909h5.2802l1.7565,-1.756l1.7681,-1.7686l1.7331,1.7336l-1.7909,1.791h5.2801l3.525,-3.5245l0.1481,0.1482v-1.7434l-1.0453,-1.0453l1.7336,-1.7327l5.2698,5.2699l-1.7332,1.7331l-1.4974,-1.4974h-1.7438l0.6009,0.6012l-1.7905,1.7909h5.2793l3.5246,-3.5245l1.4776,1.478l-3.0146,-5.2214l-1.9999,1.9999l-1.7327,-1.7331l2.4639,-2.4643l-0.6381,-1.1052l-0.9293,0.9295l-5.2702,-5.2703l1.7336,-1.7327l2.2695,2.2694l-2.2997,-3.9832l-4.3431,4.3435l-1.7336,-1.7331l4.808,-4.808l-1.9327,-3.3474l-1.1419,1.1418l-1.7332,-1.7336l1.6061,-1.6061l-0.0788,-0.1367h-5.0646l-1.7078,1.7078l-1.769,1.7686l-1.7327,-1.7336l1.7427,-1.7428h-5.2802l-3.4763,3.4764l-1.7328,-1.7336l1.7428,-1.7428h-5.2794l-3.4767,3.4764l-1.7332,-1.7336l1.7428,-1.7428h-5.2802l-1.7077,1.7078l-1.769,1.7686l-1.7327,-1.7336l1.7427,-1.7428h-5.2802l-3.4764,3.4764zM482.5828,1385.7179l-1.7229,1.7225h2.7174zM434.5455,1367.3192l-5.2707,-5.2699l-1.7327,1.7332l5.2698,5.2702zM443.2918,1367.3192l-5.2703,-5.2699l-1.7336,1.7332l5.2707,5.2702zM452.0384,1367.3192l-5.2699,-5.2699l-1.7335,1.7332l5.2702,5.2702zM460.7854,1367.3192l-5.2707,-5.2699l-1.7327,1.7332l5.2698,5.2702zM469.5317,1367.3192l-5.2703,-5.2699l-1.7336,1.7332l5.2707,5.2702zM438.918,1368.1559l-1.7331,-1.7336l-1.7681,1.769v3.3569h-0.0001v-3.3567l-3.5017,3.5012l1.7027,1.7031v1.1524h3v-1.6896l4.9409,4.9406l1.7332,-1.7336l-5.2703,-5.2694l-1.4038,1.4031v-0.6511h-1.0915zM465.1579,1368.1559l-1.7331,-1.7336l-1.7681,1.769v3.4663zM430.1714,1368.1557l-1.7331,-1.7331l-5.2699,5.2703l1.7332,1.7331zM447.6651,1368.1557l-1.7331,-1.7331l-5.2703,5.2703l1.7336,1.7331zM456.4113,1368.1557l-1.7331,-1.7331l-5.2698,5.2703l1.7331,1.7331zM461.6566,1371.6577v-3.4662l-3.3571,3.3567h-2.0326l-0.752,-0.7519l-1.7327,1.7327l5.2694,5.2703l1.734,-1.7336l-1.6491,-1.6486v-1.7425l0.7515,0.7517zM469.5317,1376.0656l-5.2703,-5.2694l-1.7336,1.7327l5.2707,5.2703zM425.7985,1376.0657l-5.2699,-5.2694l-1.7335,1.7327l5.2702,5.2703zM434.5457,1376.0657l-5.2707,-5.2694l-1.7327,1.7327l5.2694,5.2703zM452.0384,1376.0657l-5.2699,-5.2694l-1.7335,1.7327l5.2702,5.2703zM421.4255,1376.9022l-1.7336,-1.7332l-5.2698,5.2703l1.7331,1.7331zM430.1717,1376.9022l-1.7336,-1.7332l-5.2693,5.2703l1.7327,1.7331zM447.6654,1376.9022l-1.7336,-1.7332l-5.2698,5.2703l1.7332,1.7331zM456.4116,1376.9022l-1.7335,-1.7332l-5.2694,5.2703l1.7327,1.7331zM473.9053,1376.9022l-1.7335,-1.7332l-5.2699,5.2703l1.7332,1.7331zM438.918,1376.9024l-1.7331,-1.7332l-1.7681,1.7686v3.4663zM465.1579,1376.9024l-1.7331,-1.7332l-1.7681,1.7686v3.4663zM435.4167,1380.4043v-3.4663l-3.5017,3.5013l1.7027,1.7027v1.4062h3v-1.9431l4.9405,4.9406l1.7336,-1.7331l-5.2703,-5.2699l-1.4038,1.4032v-0.3977h-1.345zM461.6566,1380.4043v-3.4663l-3.5017,3.5013l0.1089,0.1089h-1.7434l-1.0057,-1.0055l-1.7327,1.7327l5.2698,5.2703l1.7336,-1.7331l-1.6489,-1.6486v-1.7431l0.7515,0.7515zM434.5455,1384.8126l-5.2707,-5.2699l-1.7327,1.7327l5.2698,5.2703zM452.0384,1384.8126l-5.2699,-5.2699l-1.7335,1.7327l5.2702,5.2703zM469.5317,1384.8126l-5.2702,-5.2699l-1.7336,1.7327l5.2702,5.2703z" id="3e930fea-ea3a-4ca3-9adf-d20691a7d18e" fill="#f9932b" fill-rule="evenodd" stroke="#fa9228"/><path d="M35.14763,947.82548h44.10429l15.14828,-26.2375h-74.40051zM83.14271,923.98016h3.00002v3.00002h-3.00002zM66.95902,925.48017h3.00002v3.00002h-3.00002zM66.95902,934.48024h3.00002v3.00002h-3.00002zM44.44015,925.48017h3.00002v3.00002h-3.00002zM44.44015,934.48024h3.00002v3.00002h-3.00002zM31.25649,923.98016v3.00002h-3.00002v-3.00002z" id="a24e2e38-7771-4d90-92e2-b1367092c6f3" fill="none" fill-rule="nonzero" stroke="#9926ff"/></g></g><g id="layer_undefined" fill="#000000" fill-rule="nonzero" stroke="none" font-family="Inter, ui-sans-serif, system-ui, sans-serif" font-weight="400" font-size="16" text-anchor="start"/><g fill="#000000" fill-rule="nonzero" stroke="none"><image x="186.3976" y="739.6051" width="0" height="0" xlink:href="data:," id="40eded84-eae2-479f-adbd-0dc3b0f6964c"/></g></g></g></svg>