<svg version="1.1" xmlns="http://www.w3.org/2000/svg" xmlns:xlink="http://www.w3.org/1999/xlink" width="300" height="150" viewBox="0,0,300,150"><defs><clipPath id="clip-1"><rect x="0" y="0" width="1187.93" height="1127.75" fill="none" stroke="none"/></clipPath></defs><g fill="none" fill-rule="nonzero" stroke="none" stroke-width="1" stroke-linecap="butt" stroke-linejoin="miter" stroke-miterlimit="10" stroke-dasharray="" stroke-dashoffset="0" font-family="none" font-weight="none" font-size="none" text-anchor="none" style="mix-blend-mode: normal"><g clip-path="url(#clip-1)"><g id="layer_undefined"><path d="M609.61085,701.42086l-32.10914,55.61473c-2.6991,4.67501 -7.68703,7.55474 -13.08524,7.55474h-64.21828c-5.39821,0 -10.38613,-2.88008 -13.08524,-7.55474l-32.10914,-55.61473c-2.6991,-4.67501 -2.6991,-10.43446 0,-15.10948l32.10914,-55.61473c2.6991,-4.67501 7.68703,-7.55474 13.08524,-7.55474h43.41611c-0.34051,-0.08987 -0.63562,-0.24246 -0.84852,-0.46477c-0.42333,-0.44168 -0.43921,-1.07597 -0.37783,-2.13219l-60.53281,2.7111l0,-30.46872l60.53281,2.71075c-0.06138,-1.05586 -0.04516,-1.69016 0.37783,-2.13184c1.06856,-1.11548 4.20864,-0.47519 4.7625,1.03646c0.49036,1.33809 -1.39136,3.38773 -2.46204,4.42842l0,18.38114c1.06962,1.03999 2.9524,3.08998 2.46204,4.42842c-0.27592,0.75307 -1.19369,1.28997 -2.17743,1.50123h19.06561c5.39821,0 10.38613,2.87973 13.08524,7.55474l32.10914,55.61473c2.6991,4.67501 2.6991,10.43446 0,15.10948zM519.60733,646.87223v3.00002h25.40001v-3.00002zM485.25911,681.36756l2.59821,1.50001l12.7,-21.99711l-2.59821,-1.50001zM500.55732,726.86179l-12.7,-21.99711l-2.59821,1.50001l12.7,21.99711zM545.00734,737.86035h-25.40001v3.00002h25.40001zM569.3162,693.86612c0,-20.4396 -16.56927,-37.00887 -37.00887,-37.00887c-20.4396,0 -37.00887,16.56927 -37.00887,37.00887c0,20.4396 16.56963,37.00887 37.00887,37.00887c20.43925,0 37.00887,-16.56927 37.00887,-37.00887zM579.35556,706.36469l-2.59821,-1.50001l-12.7,21.99711l2.59821,1.50001zM579.35556,681.36756l-12.7,-21.99711l-2.59821,1.50001l12.7,21.99711zM484.67738,595.73938l0,24.56534l57.56665,-2.57845l0,-19.40878z" id="07ec9394-f5f1-4dd7-80bb-3fdc409b8a3a" fill="none" stroke="#9926ff"/><path d="M543.61431,623.14191h1.73656c-0.59753,0.12832 -1.21939,0.1365 -1.73656,0z" id="07ec9394-f5f1-4dd7-80bb-3fdc409b8a3a" fill="none" stroke="#9926ff"/><path d="M479.83559,677.44942l-2.59821,-1.50001l1.50001,-2.59821l2.59821,1.50001z" id="07ec9394-f5f1-4dd7-80bb-3fdc409b8a3a" fill="none" stroke="#9926ff"/><path d="M478.73809,654.98807l-1.50001,-2.59821l2.59821,-1.50001l1.50001,2.59821z" id="07ec9394-f5f1-4dd7-80bb-3fdc409b8a3a" fill="none" stroke="#9926ff"/><g id="41dd6ef3-3ebe-42ed-877c-9fbf20767baa" fill="#f9932b" stroke="#fa9228"><path d="M494.13423,949.69579c0,-0.32741 0.07556,-0.60889 0.22667,-0.84444c0.15259,-0.23407 0.37037,-0.41333 0.65333,-0.53778c0.28148,-0.12444 0.6163,-0.18667 1.00444,-0.18667c0.38815,0 0.72296,0.06222 1.00444,0.18667c0.28296,0.12444 0.50148,0.3037 0.65556,0.53778c0.15407,0.23556 0.23111,0.51704 0.23111,0.84444c0,0.33185 -0.07704,0.61481 -0.23111,0.84889c-0.15407,0.23556 -0.37259,0.4163 -0.65556,0.54222c-0.28148,0.12593 -0.6163,0.18889 -1.00444,0.18889c-0.38815,0 -0.72296,-0.06296 -1.00444,-0.18889c-0.28296,-0.12593 -0.50074,-0.30667 -0.65333,-0.54222c-0.15111,-0.23407 -0.22667,-0.51704 -0.22667,-0.84889zM494.40534,949.69579c0,0.36148 0.13704,0.63926 0.41111,0.83333c0.27407,0.19407 0.67481,0.29111 1.20222,0.29111c0.52741,0 0.92889,-0.09852 1.20444,-0.29556c0.27704,-0.19556 0.41556,-0.47185 0.41556,-0.82889c0,-0.35407 -0.13852,-0.62815 -0.41556,-0.82222c-0.27556,-0.19259 -0.67704,-0.28889 -1.20444,-0.28889c-0.52741,0 -0.92815,0.09556 -1.20222,0.28667c-0.27407,0.19259 -0.41111,0.46741 -0.41111,0.82444z"/><path d="M493.29201,955.89206h2.82222v0.75778c0,0.30074 -0.07407,0.53778 -0.22222,0.71111c-0.14963,0.17333 -0.37852,0.26 -0.68667,0.26c-0.23704,0 -0.42519,-0.04963 -0.56444,-0.14889c-0.13926,-0.09778 -0.23926,-0.22 -0.3,-0.36667c-0.05926,-0.14667 -0.08889,-0.29704 -0.08889,-0.45111v-0.35556h-0.96zM494.47645,956.29872v0.3c0,0.10815 0.02074,0.20667 0.06222,0.29556c0.04148,0.08889 0.11407,0.15926 0.21778,0.21111c0.1037,0.05333 0.24741,0.08 0.43111,0.08c0.25333,0 0.43259,-0.05185 0.53778,-0.15556c0.10519,-0.1037 0.15778,-0.24741 0.15778,-0.43111v-0.3z"/><path d="M493.29201,960.66726h2.82222v1.62667h-0.24889v-1.22h-1.02667v1.10667l-0.24222,0v-1.10667h-1.05556v1.30444h-0.24889z"/><path d="M493.29201,965.51019h2.82222v0.42889l-2.21333,1.42889l0.12,-0.01778h2.09333v0.29333h-2.82222v-0.34889l2.30889,-1.50667v-0.00667l-0.16889,0.02889h-2.14z"/></g><path d="M613.78207,958.95187l5.70618,0l0,-4.41113h5.70618c0,-2.13607 0,-46.27741 0,-48.50202h-5.70618v4.05836h-5.70618v-4.05836h-5.70618v4.05836h-5.70618v-4.05836h-5.70618v4.05836h-5.70618v-4.05836h-5.70618v4.05836h-5.70618v-4.05836h-5.70618v4.05836h-5.70618v-4.05836h-5.70618v4.05836h-5.70618c0,0 0,39.79546 0,48.8548h5.70618l0,-4.41113h5.70618l0,4.41113h5.70618l0,-4.41113h5.70618l0,4.41113h5.70618l0,-4.41113h5.70618l0,4.41113h5.70618l0,-4.41113h5.70618l0,4.41113h5.70618l0,-4.41113h5.70618zM562.54919,922.43089v-7.94844h13.14556v7.94844zM577.10587,922.43089v-7.94844h13.14556v7.94844zM591.66254,922.43089v-7.94844h13.14556v7.94844zM606.21886,922.43089v-7.94844h13.14556v7.94844zM562.54919,931.79044v-7.94809h13.14556v7.94809zM577.10587,931.79044v-7.94809h13.14556v7.94809zM591.66254,931.79044v-7.94809h13.14556v7.94809zM606.21886,931.79044v-7.94809h13.14556v7.94809zM562.54919,941.14929v-7.94809h13.14556v7.94809zM577.10587,941.14929v-7.94809h13.14556v7.94809zM591.66254,941.14929v-7.94809h13.14556v7.94809zM606.21886,941.14929v-7.94809h13.14556v7.94809zM562.54919,950.50884v-7.94809h13.14556v7.94809zM577.10587,950.50884v-7.94809h13.14556v7.94809zM591.66254,950.50884v-7.94809h13.14556v7.94809zM606.21886,950.50884v-7.94809l13.14556,0v7.94809z" id="5533fc14-91e5-499f-8eb4-494379aa025e" fill="none" stroke="#9926ff"/><path d="M636.61239,589.09583h44.10429l15.14828,-26.2375h-74.40051zM684.60747,565.25051h3.00002v3.00002h-3.00002zM668.42379,566.75053h3.00002v3.00002h-3.00002zM668.42379,575.7506h3.00002v3.00002h-3.00002zM645.90491,566.75053h3.00002v3.00002h-3.00002zM645.90491,575.7506h3.00002v3.00002h-3.00002zM632.72125,565.25051v3.00002h-3.00002v-3.00002z" id="3afd80bc-d150-4544-9a67-d1a6caf26a7b" fill="none" stroke="#9926ff"/><path d="M727.888,622.5112h6.07v25.42h-6.07zM733.958,622.5112h6.07v25.42h-6.07zM740.028,622.5112h6.07v25.42h-6.07z" id="80a5faef-d357-40cf-a07c-f8ed8d78016b" fill="none" stroke="#9926ff"/><path d="M727.888,853.78958h6.07v25.42h-6.07zM733.958,853.78958h6.07v25.42h-6.07zM740.028,853.78958h6.07v25.42h-6.07z" id="68f2b594-6ace-4b80-8be5-6d98c9937403" fill="none" stroke="#9926ff"/><path d="M681.20215,917.74742l3.86976,30.04833l59.15332,-45.12561l-27.95753,-11.67277zM692.57117,939.06608l-2.38522,1.81958l-1.81958,-2.38522l2.38522,-1.81958zM704.52848,928.0577l-2.38522,1.81958l-1.81958,-2.38522l2.38522,-1.81958zM699.06973,920.90205l-2.38522,1.81958l-1.81958,-2.38522l2.38522,-1.81958zM722.43247,914.39949l-2.38522,1.81958l-1.81958,-2.38522l2.38522,-1.81958zM716.97372,907.24384l-2.38522,1.81958l-1.81958,-2.38522l2.38522,-1.81958zM732.00456,905.21068l2.38522,-1.81958l1.81958,2.38522l-2.38522,1.81958z" id="9e0e99dc-365b-47d5-89c3-2cdb3f3f9626" fill="none" stroke="#9926ff"/><ellipse cx="30553.11361" cy="72476.87623" transform="scale(0.01097,0.01115)" rx="30" ry="30" id="a44ab349-5927-489e-ae4d-8b4acd8a1653" fill="none" stroke="#9926ff"/><path d="M366.79409,769.76246h-56.38732l-28.19366,48.92712l28.19366,48.92712h56.38732l28.19401,-48.92712zM363.42365,789.69335l12.7,21.99711l-2.59821,1.50001l-12.7,-21.99711zM313.77756,847.68581l-12.7,-21.99711l2.59821,-1.50001l12.7,21.99711zM303.67542,813.19048l-2.59821,-1.50001l12.7,-21.99711l2.59821,1.50001zM351.30043,854.68527h-25.40001v-3.00002h25.40001zM351.30043,785.69391h-25.40001v-3.00002h25.40001zM363.42365,847.68581l-2.59821,-1.50001l12.7,-21.99711l2.59821,1.50001z" id="cf035623-a32a-4a98-be77-cd57bc2a2531" fill="none" stroke="#9926ff"/><path d="M649.55828,1012.96859l-19.05001,61.6116h6.35v-3.00002h25.40001l0,3.00002h6.35zM647.05815,1047.06775h4.99992v4.99992h-4.99992z" id="524abdf2-45b9-479a-ae92-3f6093a3cd72" fill="none" stroke="#9926ff"/><path d="M623.49435,1012.58193l-6.35,0v3.00002l-25.40001,0v-3.00002h-6.35l19.05001,61.6116zM601.94421,1035.09445h4.99992v4.99992h-4.99992z" id="30621b01-893d-4f01-b526-65e54c896fbb" fill="none" stroke="#9926ff"/><path d="M562.9277,1013.35523l-19.05001,61.6116h6.35v-3.00002h25.40001v3.00002h6.35zM560.42756,1047.45439h4.99992v4.99992h-4.99992z" id="86c6149e-a2e7-4988-ae0b-8394013e2e37" fill="none" stroke="#9926ff"/><path d="M536.86377,1012.96858h-6.35v3.00002h-25.40001v-3.00002h-6.35l19.05001,61.6116zM515.31363,1035.48111h4.99992v4.99992h-4.99992z" id="19d37435-5321-460c-ae28-38cdc2a1c73d" fill="none" stroke="#9926ff"/><path d="M649.55023,1012.95524l-19.05001,61.6116h6.35v-3.00002h25.40001l0,3.00002l6.35,0zM647.05009,1047.0544h4.99992v4.99992h-4.99992z" id="a2ee4db4-5b62-45a1-94a1-2fbc719ec5de" fill="#f9932b" stroke="#fa9228"/><path d="M623.4863,1012.56859h-6.35v3.00002h-25.40001v-3.00002l-6.35,0l19.05001,61.6116zM601.93616,1035.08111h4.99992v4.99992h-4.99992z" id="e19a6415-4717-4dcb-b385-fad9df127384" fill="#f9932b" stroke="#fa9228"/><path d="M562.91965,1013.34188l-19.05001,61.6116h6.35v-3.00002h25.40001v3.00002h6.35zM560.41951,1047.44104h4.99992v4.99992h-4.99992z" id="29214ee8-99e4-4d93-9c85-5a89ad01b7a2" fill="#f9932b" stroke="#fa9228"/><path d="M536.85572,1012.95524h-6.35v3.00002h-25.40001v-3.00002h-6.35l19.05001,61.6116zM515.30557,1035.46776h4.99992v4.99992h-4.99992z" id="17f403e4-b966-4c57-8328-a9d825046545" fill="#f9932b" stroke="#fa9228"/><path d="M824.91429,1003.85476v-5.70618h-4.41113v-5.70618c-2.13607,0 -46.27741,0 -48.50202,0v5.70618h4.05836v5.70618h-4.05836v5.70618h4.05836v5.70618h-4.05836v5.70618h4.05836v5.70618h-4.05836v5.70618h4.05836v5.70618h-4.05836v5.70618h4.05836v5.70618h-4.05836v5.70618h4.05836v5.70618h3.05964v3.00002h3.00002v-3.00002h32.67711v3.00002h3.00002v-3.00002c8.38024,0 -1.94134,0 7.118,0v-5.70618h-4.41113v-5.70618h4.41113v-5.70618h-4.41113v-5.70618h4.41113v-5.70618h-4.41113v-5.70618h4.41113v-5.70618h-4.41113v-5.70618h4.41113v-5.70618h-4.41113v-5.70618zM788.39296,1055.08764h-7.94844v-13.14556h7.94844zM788.39296,1040.53096h-7.94844v-13.14556h7.94844zM788.39296,1025.97429h-7.94844v-13.14556h7.94844zM788.39296,1011.41797h-7.94844v-13.14556h7.94844zM797.75251,1055.08764h-7.94809v-13.14556h7.94809zM797.75251,1040.53096h-7.94809v-13.14556h7.94809zM797.75251,1025.97429h-7.94809v-13.14556h7.94809zM797.75251,1011.41797h-7.94809v-13.14556h7.94809zM807.11171,1055.08764h-7.94809v-13.14556h7.94809zM807.11171,1040.53096h-7.94809v-13.14556h7.94809zM807.11171,1025.97429h-7.94809v-13.14556h7.94809zM807.11171,1011.41797h-7.94809v-13.14556h7.94809zM816.47091,1055.08764h-7.94809v-13.14556h7.94809zM816.47091,1040.53096h-7.94809v-13.14556h7.94809zM816.47091,1025.97429h-7.94809v-13.14556h7.94809zM816.47091,1011.41797h-7.94809v-13.14556h7.94809z" id="65d436b8-3469-49a8-9455-7fa27f90def4" fill="none" stroke="#9926ff"/><path d="M725.08799,1003.85476v-5.70618h-4.41113v-5.70618c-2.13607,0 -46.27741,0 -48.50202,0v5.70618h4.05836v5.70618h-4.05836v5.70618h4.05836v5.70618h-4.05836v5.70618h4.05836v5.70618h-4.05836v5.70618h4.05836v5.70618h-4.05836v5.70618h4.05836v5.70618h-4.05836v5.70618h4.05836v5.70618h3.05964v3.00002h3.00002v-3.00002h32.67711v3.00002h3.00002v-3.00002c8.38024,0 -1.94134,0 7.118,0v-5.70618h-4.41113v-5.70618h4.41113v-5.70618h-4.41113v-5.70618h4.41113v-5.70618h-4.41113v-5.70618h4.41113v-5.70618h-4.41113v-5.70618h4.41113v-5.70618h-4.41113v-5.70618zM688.56665,1055.08764h-7.94844v-13.14556h7.94844zM688.56665,1040.53096h-7.94844v-13.14556h7.94844zM688.56665,1025.97429h-7.94844v-13.14556h7.94844zM688.56665,1011.41797h-7.94844v-13.14556h7.94844zM697.9262,1055.08764h-7.94809v-13.14556h7.94809zM697.9262,1040.53096h-7.94809v-13.14556h7.94809zM697.9262,1025.97429h-7.94809v-13.14556h7.94809zM697.9262,1011.41797h-7.94809v-13.14556h7.94809zM707.2854,1055.08764h-7.94809v-13.14556h7.94809zM707.2854,1040.53096h-7.94809v-13.14556h7.94809zM707.2854,1025.97429h-7.94809v-13.14556h7.94809zM707.2854,1011.41797h-7.94809v-13.14556h7.94809zM716.6446,1055.08764h-7.94809v-13.14556h7.94809zM716.6446,1040.53096h-7.94809v-13.14556h7.94809zM716.6446,1025.97429h-7.94809v-13.14556h7.94809zM716.6446,1011.41797h-7.94809v-13.14556h7.94809z" id="be896c7b-2b3e-4378-825b-1d725b69c465" fill="none" stroke="#9926ff"/><path d="M824.91429,574.14441v-5.70618h-4.41113v-5.70618c-2.13607,0 -46.27741,0 -48.50202,0v5.70618h4.05836v5.70618h-4.05836v5.70618h4.05836v5.70618h-4.05836v5.70618h4.05836v5.70618h-4.05836v5.70618h4.05836v5.70618h-4.05836v5.70618h4.05836v5.70618h-4.05836v5.70618h4.05836v5.70618h3.05964v3.00002h3.00002v-3.00002h32.67711v3.00002h3.00002v-3.00002c8.38024,0 -1.94134,0 7.118,0v-5.70618h-4.41113v-5.70618h4.41113v-5.70618h-4.41113v-5.70618h4.41113v-5.70618h-4.41113v-5.70618h4.41113v-5.70618h-4.41113v-5.70618h4.41113v-5.70618h-4.41113v-5.70618zM788.39296,625.37729h-7.94844v-13.14556h7.94844zM788.39296,610.82061h-7.94844v-13.14556h7.94844zM788.39296,596.26394h-7.94844v-13.14556h7.94844zM788.39296,581.70762h-7.94844v-13.14556h7.94844zM797.75251,625.37729h-7.94809v-13.14556h7.94809zM797.75251,610.82061h-7.94809v-13.14556h7.94809zM797.75251,596.26394h-7.94809v-13.14556h7.94809zM797.75251,581.70762h-7.94809v-13.14556h7.94809zM807.11171,625.37729h-7.94809v-13.14556h7.94809zM807.11171,610.82061h-7.94809v-13.14556h7.94809zM807.11171,596.26394h-7.94809v-13.14556h7.94809zM807.11171,581.70762h-7.94809v-13.14556h7.94809zM816.47091,625.37729h-7.94809v-13.14556h7.94809zM816.47091,610.82061h-7.94809v-13.14556h7.94809zM816.47091,596.26394h-7.94809v-13.14556h7.94809zM816.47091,581.70762h-7.94809v-13.14556h7.94809z" id="96087aae-72c7-43cd-a165-52cf1fc8b7ff" fill="none" stroke="#9926ff"/><path d="M824.9143,717.09284v-5.70618h-4.41113v-5.70618c-2.13607,0 -46.27741,0 -48.50202,0v5.70618h4.05836v5.70618h-4.05836v5.70618h4.05836v5.70618h-4.05836v5.70618h4.05836v5.70618h-4.05836v5.70618h4.05836v5.70618h-4.05836v5.70618h4.05836v5.70618h-4.05836v5.70618h4.05836v5.70618h3.05964v3.00002h3.00002v-3.00002h32.67711v3.00002h3.00002v-3.00002c8.38024,0 -1.94134,0 7.118,0v-5.70618h-4.41113v-5.70618h4.41113v-5.70618h-4.41113v-5.70618h4.41113v-5.70618h-4.41113v-5.70618h4.41113v-5.70618h-4.41113v-5.70618h4.41113v-5.70618h-4.41113v-5.70618zM788.39296,768.32572h-7.94844v-13.14556h7.94844zM788.39296,753.76905h-7.94844v-13.14556h7.94844zM788.39296,739.21237h-7.94844v-13.14556h7.94844zM788.39296,724.65605h-7.94844v-13.14556h7.94844zM797.75251,768.32572h-7.94809v-13.14556h7.94809zM797.75251,753.76905h-7.94809v-13.14556h7.94809zM797.75251,739.21237h-7.94809v-13.14556h7.94809zM797.75251,724.65605h-7.94809v-13.14556h7.94809zM807.11171,768.32572h-7.94809v-13.14556h7.94809zM807.11171,753.76905h-7.94809v-13.14556h7.94809zM807.11171,739.21237h-7.94809v-13.14556h7.94809zM807.11171,724.65605h-7.94809v-13.14556h7.94809zM816.47091,768.32572h-7.94809v-13.14556h7.94809zM816.47091,753.76905h-7.94809v-13.14556h7.94809zM816.47091,739.21237h-7.94809v-13.14556h7.94809zM816.47091,724.65605h-7.94809v-13.14556h7.94809z" id="ea69ab13-b9d5-48e0-ac8f-306676bdd42a" fill="none" stroke="#9926ff"/><path d="M824.91431,860.04128v-5.70618h-4.41113v-5.70618c-2.13607,0 -46.27741,0 -48.50202,0v5.70618h4.05836v5.70618h-4.05836v5.70618h4.05836v5.70618h-4.05836v5.70618h4.05836v5.70618h-4.05836v5.70618h4.05836v5.70618h-4.05836v5.70618h4.05836v5.70618h-4.05836v5.70618h4.05836v5.70618h3.05964v3.00002h3.00002v-3.00002h32.67711v3.00002h3.00002v-3.00002c8.38024,0 -1.94134,0 7.118,0v-5.70618h-4.41113v-5.70618h4.41113v-5.70618h-4.41113v-5.70618h4.41113v-5.70618h-4.41113v-5.70618h4.41113v-5.70618h-4.41113v-5.70618h4.41113v-5.70618h-4.41113v-5.70618zM788.39297,911.27415h-7.94844v-13.14556h7.94844zM788.39297,896.71748h-7.94844v-13.14556h7.94844zM788.39297,882.16081h-7.94844v-13.14556h7.94844zM788.39297,867.60448h-7.94844v-13.14556h7.94844zM797.75252,911.27415h-7.94809v-13.14556h7.94809zM797.75252,896.71748h-7.94809v-13.14556h7.94809zM797.75252,882.16081h-7.94809v-13.14556h7.94809zM797.75252,867.60448h-7.94809v-13.14556h7.94809zM807.11172,911.27415h-7.94809v-13.14556h7.94809zM807.11172,896.71748h-7.94809v-13.14556h7.94809zM807.11172,882.16081h-7.94809v-13.14556h7.94809zM807.11172,867.60448h-7.94809v-13.14556h7.94809zM816.47092,911.27415h-7.94809v-13.14556h7.94809zM816.47092,896.71748h-7.94809v-13.14556h7.94809zM816.47092,882.16081h-7.94809v-13.14556h7.94809zM816.47092,867.60448h-7.94809v-13.14556h7.94809z" id="e58d0529-e07f-46bf-85b2-3c0953ff9755" fill="none" stroke="#9926ff"/><g id="g-41f1181d-4338-4398-ad26-8373d4013e3e" fill="none" stroke="#9926ff"><path d="M447.68023,631.72342l-12.7,-21.99711l2.59821,-1.50001l12.7,21.99711z" id="e8581ec8-e451-4167-b7f9-20b829f6b529"/><path d="M437.57773,700.71407l-2.59821,-1.50001l12.7,-21.99711l2.59821,1.50001z" id="b35d5b51-8409-40bc-9f90-84cc12f1c5c0"/><path d="M444.15916,739.24414l-2.59821,-1.50001l1.50001,-2.59821l2.59821,1.50001z" id="c46e89ce-4a8b-4592-acbc-6abea708125e"/><path d="M444.15916,589.09585l1.50001,2.59821l-2.59821,1.50001l-1.50001,-2.59821z" id="6471b218-e477-427c-a477-cd3d2ead9ba1"/><path d="M426.20735,581.9634h-3.00002v-3.00002h3.00002z" id="15b9fad5-f47f-4693-b698-39390e3e0e9e"/><path d="M426.20735,750.47483h-3.00002v-3.00002h3.00002z" id="47a47609-b172-463a-be99-d46aaad9cd24"/><path d="M390.53021,735.21012h-25.40001v-3.00002h25.40001z" id="878f553a-c4ca-4e7f-90cf-0a2c786a4473"/><path d="M354.85307,750.47483h-3.00002v-3.00002h3.00002z" id="1066de49-74df-4d8b-8266-2d75eefcf555"/><path d="M328.18377,700.71407l-12.7,-21.99711l2.59821,-1.50001l12.7,21.99711z" id="bf690a9d-e12f-430a-9f93-e01367bc8b1d"/><path d="M332.80304,739.24414l-1.50001,-2.59821l2.59821,-1.50001l1.50001,2.59821z" id="6c270417-3383-4aea-ac2f-9e7176ee0306"/><path d="M298.2234,654.98807l-2.59821,-1.50001l1.50001,-2.59821l2.59821,1.50001z" id="52d48133-06ca-44ad-af19-4d9ed4f54dc8"/><path d="M297.12591,677.44942l-1.50001,-2.59821l2.59821,-1.50001l1.50001,2.59821z" id="9740f760-4bb5-49e1-9f20-246e9b1f0bcc"/><path d="M390.53021,597.22738h-9.25454l7.22232,12.5095c2.6991,4.67501 2.6991,10.43446 0,15.10948l-19.52449,33.81764c-2.6991,4.67501 -7.68703,7.55474 -13.08524,7.55474h-39.04899c-5.39821,0 -10.38613,-2.88008 -13.08524,-7.55474l-19.52449,-33.81764c-2.6991,-4.67501 -2.6991,-10.43446 0,-15.10948l19.52449,-33.81764c2.6991,-4.67501 7.68703,-7.55474 13.08524,-7.55474h39.04899c5.39821,0 10.38613,2.87973 13.08524,7.55474l10.57012,18.30812h10.98659z" id="bf349743-f59e-42fe-9825-406212ee6124"/><path d="M332.80304,589.09585l2.59821,1.50001l-1.50001,2.59821l-2.59821,-1.50001z" id="bf349743-f59e-42fe-9825-406212ee6124"/><path d="M318.08197,631.72342l-2.59821,-1.50001l12.7,-21.99711l2.59821,1.50001z" id="bf349743-f59e-42fe-9825-406212ee6124"/><path d="M354.85307,581.9634h-3.00002v-3.00002h3.00002z" id="bf349743-f59e-42fe-9825-406212ee6124"/><path d="M365.1302,597.22738v-3.00002l14.41342,0l1.73205,3.00002z" id="bf349743-f59e-42fe-9825-406212ee6124"/></g><g id="g-2cd0b704-6141-49fb-81de-04417ef558cb" fill="#f9932b" stroke="#fa9228"><path d="M547.6082,623.26947c40.35521,-1.8074 60.53281,-2.7111 60.53281,-2.7111c-0.06138,1.05622 -0.04551,1.69051 0.37783,2.13219c1.06856,1.11584 4.20864,0.47519 4.7625,-1.03646c0.49036,-1.33844 -1.39241,-3.38843 -2.46204,-4.42842l0,-18.38114c1.07068,-1.04069 2.9524,-3.09033 2.46204,-4.42842c-0.55386,-1.51165 -3.69394,-2.15195 -4.7625,-1.03646c-0.42298,0.44168 -0.43921,1.07597 -0.37783,2.13184c0,0 -20.1776,-0.90358 -60.53281,-2.71075zM550.43042,595.75279l57.56665,2.5781l0,19.40878l-57.56665,2.57845l0,-24.56534z" id="e85f37b9-cca2-4a62-9e9d-ca9a973b504d"/></g><g id="g-f67d4fad-a2dd-457c-81da-7f4e742b309c" fill="none" stroke="#9926ff"><ellipse cx="37967.15741" cy="114110.13" transform="scale(0.00865,0.00879)" rx="23.64306" ry="23.64306" id="f3874163-0863-4aaf-9c47-41990f2d4628"/><ellipse cx="26641.6888" cy="82927.038" transform="scale(0.01171,0.01189)" rx="31.99697" ry="31.99697" id="40716d69-b866-4ddd-9cc4-3040f4e0ee33"/><path d="M352.16122,969.7818l-46.62877,-0.00494c-0.02223,0.03845 -23.29745,40.34192 -23.31933,40.37931c0.02223,0.03845 23.28899,40.34686 23.31051,40.3846h46.63159c0.02223,-0.03845 23.29498,-40.33698 23.3165,-40.37437c-0.02223,-0.03881 -23.28863,-40.34721 -23.31051,-40.3846zM349.88121,1046.60201h-42.08323c-0.0194,-0.03422 -21.01674,-36.41127 -21.03685,-36.44584c0.01976,-0.03387 21.02486,-36.40633 21.04497,-36.4409l42.08076,0.00459c0.01976,0.03387 21.01674,36.41056 21.03685,36.44584c-0.0194,0.03351 -21.02239,36.40174 -21.0425,36.43631z" id="7a06ebf7-602d-4fa6-9966-235dd31b1e77"/></g><g id="g-408fae40-46f0-43e4-8598-76dd71935231" fill="#000000" stroke="none" font-family="Inter, ui-sans-serif, system-ui, sans-serif" font-weight="400" font-size="16" text-anchor="start"/></g><g id="layer_undefined" fill="#000000" stroke="none" font-family="Inter, ui-sans-serif, system-ui, sans-serif" font-weight="400" font-size="16" text-anchor="start"/><g fill="#fa9228" stroke="#fa9228"><path d="M371.67689,786.85312l-46.62877,-0.00494c-0.02223,0.03845 -23.29745,40.34192 -23.31933,40.37931c0.02223,0.03845 23.28899,40.34686 23.31051,40.3846h46.63159c0.02223,-0.03845 23.29498,-40.33698 23.3165,-40.37437c-0.02223,-0.03881 -23.28863,-40.34721 -23.31051,-40.3846zM371.62009,867.52355h-46.52964l-23.25971,-40.29641l23.26817,-40.29112l46.52682,0.00494l23.25971,40.29641z" id="e3adf787-0ea9-455c-ab2a-95a359850d2e"/><path d="M644.08814,1042.21498c-0.52388,2.51883 -2.18123,1.76177 -2.46945,0c-0.66604,3.20146 -3.03777,1.01106 -2.41794,-1.23896l0.0702,-0.00635c0.29069,0.57397 0.9465,2.25002 1.19944,2.30823c0.06985,0.06244 0.33302,-0.21273 0.39264,-0.2854c0.41875,-0.53093 0.66569,-1.36031 0.8068,-2.02248c0.04304,0.00388 0.02716,0.00388 0.0702,0c0.29069,0.57397 0.9465,2.25002 1.19944,2.30823c0.06985,0.06244 0.33302,-0.21273 0.39264,-0.2854c0.41875,-0.53093 0.66569,-1.36031 0.8068,-2.02248c0.04304,0.00388 0.02716,0.00388 0.0702,0c0.29069,0.57397 0.9465,2.25002 1.19944,2.30823c0.01446,0.0127 0.09737,-0.01094 0.17004,-0.06668c0.52458,-0.35066 0.89359,-1.60338 1.02976,-2.24155l0.0702,0.00635c0.00635,0.50941 -0.05398,1.02235 -0.18768,1.53035c-0.69039,2.30152 -2.15441,1.22908 -2.40277,-0.2921zM645.44387,1035.5944l-0.0702,-0.00635c-0.14111,0.66216 -0.3877,1.49119 -0.8068,2.02248c-0.05997,0.07267 -0.32279,0.34784 -0.39264,0.2854c-0.25894,-0.05997 -0.89182,-1.70145 -1.19944,-2.30823c-0.04304,0.00388 -0.02716,0.00388 -0.0702,0c-0.13617,0.63818 -0.50553,1.89089 -1.02976,2.24155c-0.07267,0.05609 -0.15558,0.07938 -0.17004,0.06668c-0.25894,-0.05997 -0.89182,-1.70145 -1.19944,-2.30823l-0.0702,0.00635c-0.62371,2.26413 1.75472,4.42772 2.41794,1.23896c0.06597,0.40287 0.18344,0.76235 0.44979,1.10173c1.22555,1.47849 2.16429,-0.44768 2.14101,-2.34033zM644.02111,1032.24865c0.1337,-0.508 0.19403,-1.02129 0.18768,-1.53035l-0.0702,-0.0067c-0.14076,0.66181 -0.3877,1.49084 -0.8068,2.02248c-0.05997,0.07267 -0.32279,0.34784 -0.39264,0.2854c-0.25894,-0.05962 -0.89147,-1.70074 -1.19944,-2.30823l-0.0702,0.0067c-0.57326,2.08139 1.49931,4.37303 2.35162,1.5307zM647.72493,1047.89083c0.1337,-0.508 0.19403,-1.02129 0.18768,-1.53035l-0.0702,-0.00635c-0.13547,0.63535 -0.50447,1.89018 -1.02976,2.24155c-0.07267,0.05574 -0.15558,0.07902 -0.17004,0.06632c-0.25894,-0.05962 -0.89147,-1.70074 -1.19944,-2.30823c-0.04304,0.00388 -0.02716,0.00388 -0.0702,0c-0.14111,0.66181 -0.3877,1.49119 -0.8068,2.02248c-0.05997,0.07267 -0.32279,0.34784 -0.39264,0.2854c-0.25894,-0.05962 -0.89147,-1.70074 -1.19944,-2.30823c-0.04304,0.00388 -0.02716,0.00388 -0.0702,0c-0.14111,0.66181 -0.3877,1.49119 -0.8068,2.02248c-0.05997,0.07267 -0.32279,0.34784 -0.39264,0.2854c-0.25224,-0.05821 -0.90946,-1.73637 -1.19944,-2.30823c-0.04304,0.00388 -0.02716,0.00388 -0.0702,0c-0.14111,0.66181 -0.3877,1.49119 -0.8068,2.02248c-0.05997,0.07267 -0.32279,0.34784 -0.39264,0.2854c-0.25894,-0.05962 -0.89147,-1.70074 -1.19944,-2.30823l-0.0702,0.00635c-0.62477,2.26766 1.75542,4.42348 2.41794,1.23896c0.28363,1.73249 1.94134,2.5393 2.46945,0c0.28963,1.76918 1.94945,2.49978 2.46945,0c0.24765,1.51553 1.71591,2.58304 2.40242,0.29281zM649.14733,1051.71988l-0.0702,-0.0067c-0.14076,0.66181 -0.3877,1.49084 -0.8068,2.02248c-0.05997,0.07267 -0.32314,0.34784 -0.39264,0.2854c-0.25894,-0.05962 -0.89147,-1.70074 -1.19944,-2.30823c-0.04304,0.00388 -0.02716,0.00388 -0.0702,0c-0.13617,0.63818 -0.50553,1.89089 -1.02976,2.24155c-0.07267,0.05574 -0.15558,0.07902 -0.17004,0.06632c-0.25894,-0.05962 -0.89147,-1.70074 -1.19944,-2.30823c-0.04304,0.00388 -0.02716,0.00388 -0.0702,0c-0.14076,0.66181 -0.3877,1.49084 -0.8068,2.02248c-0.05997,0.07267 -0.32279,0.34784 -0.39264,0.2854c-0.25894,-0.05962 -0.89147,-1.70074 -1.19944,-2.30823c-0.04304,0.00388 -0.02716,0.00388 -0.0702,0c-0.13617,0.63818 -0.50553,1.89089 -1.02976,2.24155c-0.07267,0.05574 -0.15558,0.07902 -0.17004,0.06632c-0.25894,-0.05962 -0.89147,-1.70074 -1.19944,-2.30823c-0.04304,0.00388 -0.02716,0.00388 -0.0702,0c-0.14076,0.66181 -0.3877,1.49084 -0.8068,2.02248c-0.05997,0.07267 -0.32279,0.34784 -0.39264,0.2854c-0.25894,-0.05962 -0.89147,-1.70074 -1.19944,-2.30823l-0.0702,0.0067c-0.62371,2.26413 1.75472,4.42772 2.41794,1.23896c0.28046,1.7145 1.94204,2.53471 2.46945,0c0.28046,1.7145 1.94204,2.53471 2.46945,0c0.28751,1.75825 1.94663,2.51284 2.46945,0c0.17709,1.08268 1.05763,2.09162 1.82386,1.38465c0.59267,-0.5588 0.77717,-1.80552 0.76623,-2.62185zM651.42839,1059.20406c0.1337,-0.508 0.19403,-1.02129 0.18768,-1.53035l-0.0702,-0.0067c-0.13617,0.63818 -0.50553,1.89089 -1.02976,2.24155c-0.07267,0.05574 -0.15558,0.07902 -0.17004,0.06632c-0.25894,-0.05962 -0.89147,-1.70074 -1.19944,-2.30823c-0.04304,0.00388 -0.02716,0.00388 -0.0702,0c-0.14076,0.66181 -0.3877,1.49084 -0.8068,2.02248c-0.05997,0.07267 -0.32314,0.34784 -0.39264,0.2854c-0.25894,-0.05962 -0.89147,-1.70074 -1.19944,-2.30823c-0.04304,0.00388 -0.02716,0.00388 -0.0702,0c-0.14076,0.66181 -0.3877,1.49084 -0.8068,2.02248c-0.05997,0.07267 -0.32279,0.34784 -0.39264,0.2854c-0.25894,-0.05962 -0.89147,-1.70074 -1.19944,-2.30823c-0.04304,0.00388 -0.02716,0.00388 -0.0702,0c-0.14076,0.66181 -0.3877,1.49084 -0.8068,2.02248c-0.05997,0.07267 -0.32279,0.34784 -0.39264,0.2854c-0.26176,-0.06033 -0.87277,-1.6637 -1.19944,-2.30823c-0.04304,0.00388 -0.02716,0.00388 -0.0702,0c-0.14076,0.66181 -0.3877,1.49084 -0.8068,2.02248c-0.05997,0.07267 -0.32279,0.34784 -0.39264,0.2854c-0.25894,-0.05962 -0.89147,-1.70074 -1.19944,-2.30823c-0.04304,0.00388 -0.02716,0.00388 -0.0702,0c-0.14076,0.66181 -0.3877,1.49084 -0.8068,2.02248c-0.05997,0.07267 -0.32279,0.34784 -0.39264,0.2854c-0.25224,-0.05821 -0.90946,-1.73673 -1.19944,-2.30823c-0.04304,0.00388 -0.02716,0.00388 -0.0702,0c-0.133,0.62336 -0.50447,1.89018 -1.02976,2.24155c-0.07267,0.05574 -0.15558,0.07902 -0.17004,0.06632c-0.26176,-0.06033 -0.87277,-1.6637 -1.19944,-2.30823l-0.0702,0.0067c-0.6156,2.23414 1.7459,4.4704 2.41794,1.23896c0.28963,1.76953 1.94733,2.51037 2.46945,0c0.29386,1.79529 1.9551,2.47227 2.46945,0c0.28681,1.75366 1.94733,2.50966 2.46945,0c0.28328,1.73038 1.9424,2.53365 2.46945,0c0.29422,1.7974 1.95545,2.47015 2.46945,0c0.24518,1.4986 1.7085,2.60809 2.40171,0.29386zM652.66276,1066.34605c0.1337,-0.508 0.19403,-1.02129 0.18768,-1.53035l-0.0702,-0.00635c-0.14111,0.66181 -0.3877,1.49119 -0.8068,2.02248c-0.05962,0.07232 -0.32279,0.34784 -0.39264,0.2854c-0.25894,-0.05997 -0.89182,-1.70145 -1.19944,-2.30823c-0.04304,0.00388 -0.02716,0.00388 -0.0702,0c-0.14111,0.66181 -0.3877,1.49119 -0.8068,2.02248c-0.05962,0.07232 -0.32279,0.34784 -0.39264,0.2854c-0.25259,-0.05856 -0.9084,-1.73461 -1.19944,-2.30823c-0.04304,0.00388 -0.02716,0.00388 -0.0702,0c-0.133,0.62336 -0.50447,1.89018 -1.02976,2.24155c-0.07267,0.05609 -0.15558,0.07938 -0.17004,0.06668c-0.25894,-0.05997 -0.89182,-1.70145 -1.19944,-2.30823c-0.04304,0.00388 -0.02716,0.00388 -0.0702,0c-0.14111,0.66216 -0.3877,1.49119 -0.8068,2.02248c-0.05962,0.07232 -0.32279,0.34784 -0.39264,0.2854c-0.25894,-0.05997 -0.89182,-1.70145 -1.19944,-2.30823c-0.04304,0.00388 -0.02716,0.00388 -0.0702,0c-0.14111,0.66216 -0.3877,1.49119 -0.8068,2.02248c-0.05962,0.07232 -0.32279,0.34784 -0.39264,0.2854c-0.25259,-0.05856 -0.9084,-1.73461 -1.19944,-2.30823c-0.04304,0.00388 -0.02716,0.00388 -0.0702,0c-0.14111,0.66216 -0.3877,1.49119 -0.8068,2.02248c-0.05962,0.07232 -0.32279,0.34784 -0.39264,0.2854c-0.25259,-0.05856 -0.9084,-1.73461 -1.19944,-2.30823c-0.04304,0.00388 -0.02716,0.00388 -0.0702,0c-0.133,0.62336 -0.50447,1.89018 -1.02976,2.24155c-0.07267,0.05609 -0.15558,0.07938 -0.17004,0.06668c-0.25894,-0.05997 -0.89182,-1.70145 -1.19944,-2.30823c-0.04304,0.00388 -0.02716,0.00388 -0.0702,0c-0.14111,0.66216 -0.3877,1.49119 -0.8068,2.02248c-0.05962,0.07232 -0.32279,0.34784 -0.39264,0.2854c-0.25259,-0.05856 -0.9084,-1.73461 -1.19944,-2.30823l-0.0702,0.00635c-0.61948,2.24825 1.74978,4.451 2.41794,1.23896c0.28857,1.76389 1.94733,2.50896 2.46945,0c0.28258,1.72685 1.93993,2.54529 2.46945,0c0.28293,1.72896 1.94063,2.54282 2.46945,0c0.30656,1.87466 1.96145,2.44193 2.46945,0c0.27129,1.65735 1.92899,2.5975 2.46945,0c0.28646,1.75013 1.94416,2.52554 2.46945,0c0.24518,1.4986 1.7085,2.60773 2.40136,0.29351zM632.97176,1074.17137c0.29281,1.78894 1.95333,2.48073 2.46945,0c0.28046,1.7145 1.94204,2.53471 2.46945,0c0.29633,1.81151 1.95756,2.45992 2.46945,0c0.28046,1.7145 1.94204,2.53471 2.46945,0c0.2734,1.67076 1.93111,2.58798 2.46945,0c0.28046,1.71415 1.94204,2.53471 2.46945,0c0.28046,1.7145 1.94204,2.53471 2.46945,0c0.29351,1.79352 1.95192,2.48744 2.46945,0c0.24553,1.49966 1.70815,2.60915 2.40348,0.29139c0.1337,-0.508 0.19403,-1.02129 0.18768,-1.53035l-0.0702,-0.0067c-0.14111,0.66181 -0.3877,1.49084 -0.8068,2.02248c-0.05997,0.07267 -0.32314,0.34784 -0.39264,0.2854c-0.25894,-0.05962 -0.89147,-1.70074 -1.19944,-2.30823c-0.04304,0.00388 -0.02716,0.00388 -0.0702,0c-0.14111,0.66181 -0.3877,1.49084 -0.8068,2.02248c-0.05997,0.07267 -0.32314,0.34784 -0.39264,0.2854c-0.26176,-0.06033 -0.87277,-1.6637 -1.19944,-2.30823c-0.04304,0.00388 -0.02716,0.00388 -0.0702,0c-0.14111,0.66181 -0.3877,1.49084 -0.8068,2.02248c-0.05997,0.07267 -0.32314,0.34784 -0.39264,0.2854c-0.25894,-0.05962 -0.89147,-1.70074 -1.19944,-2.30823c-0.04304,0.00388 -0.02716,0.00388 -0.0702,0c-0.14111,0.66181 -0.3877,1.49084 -0.8068,2.02248c-0.05997,0.07267 -0.32314,0.34784 -0.39264,0.2854c-0.25894,-0.05962 -0.89147,-1.70074 -1.19944,-2.30823c-0.04304,0.00388 -0.02716,0.00388 -0.0702,0c-0.14076,0.66181 -0.3877,1.49084 -0.8068,2.02248c-0.05997,0.07267 -0.32279,0.34784 -0.39264,0.2854c-0.25894,-0.05962 -0.89147,-1.70074 -1.19944,-2.30823c-0.04304,0.00388 -0.02716,0.00388 -0.0702,0c-0.14076,0.66181 -0.3877,1.49084 -0.8068,2.02248c-0.05997,0.07267 -0.32279,0.34784 -0.39264,0.2854c-0.25894,-0.05962 -0.89147,-1.70074 -1.19944,-2.30823c-0.04304,0.00388 -0.02716,0.00388 -0.0702,0c-0.14076,0.66181 -0.3877,1.49084 -0.8068,2.02248c-0.05997,0.07267 -0.32279,0.34784 -0.39264,0.2854c-0.25894,-0.05962 -0.89147,-1.70074 -1.19944,-2.30823c-0.04304,0.00388 -0.02716,0.00388 -0.0702,0c-0.13617,0.63818 -0.50553,1.89089 -1.02976,2.24155c-0.07267,0.05574 -0.15558,0.07902 -0.17004,0.06632c-0.25894,-0.05962 -0.89147,-1.70074 -1.19944,-2.30823c-0.04304,0.00388 -0.02716,0.00388 -0.0702,0c-0.14076,0.66181 -0.3877,1.49084 -0.8068,2.02248c-0.05997,0.07267 -0.32279,0.34784 -0.39264,0.2854c-0.25894,-0.05962 -0.89147,-1.70074 -1.19944,-2.30823c-0.04304,0.00388 -0.02716,0.00388 -0.0702,0c-0.14076,0.66181 -0.3877,1.49084 -0.8068,2.02248c-0.05997,0.07267 -0.32279,0.34784 -0.39264,0.2854c-0.25894,-0.05962 -0.89147,-1.70074 -1.19944,-2.30823l-0.0702,0.0067c-0.62371,2.26378 1.75472,4.42772 2.41476,1.24248z" id="fc1f9746-b66e-45b4-a901-4bf98c7b553b"/><path d="M601.37738,1060.38511c0.1337,0.508 0.19403,1.02094 0.18768,1.53035l-0.0702,0.00635c-0.13617,-0.63818 -0.50518,-1.89089 -1.02976,-2.24155c-0.07267,-0.05574 -0.15558,-0.07938 -0.17004,-0.06668c-0.25294,0.05821 -0.90876,1.73426 -1.19944,2.30823c-0.04304,-0.00388 -0.02716,-0.00388 -0.0702,0c-0.14111,-0.66216 -0.38806,-1.49154 -0.8068,-2.02248c-0.05962,-0.07267 -0.32279,-0.34784 -0.39264,-0.2854c-0.25294,0.05821 -0.90876,1.73426 -1.19944,2.30823c-0.04304,-0.00388 -0.02716,-0.00388 -0.0702,0c-0.14111,-0.66216 -0.38806,-1.49154 -0.8068,-2.02248c-0.05962,-0.07267 -0.32279,-0.34784 -0.39264,-0.2854c-0.25294,0.05821 -0.90876,1.73426 -1.19944,2.30823l-0.0702,-0.00635c-0.61983,-2.25002 1.7519,-4.44042 2.41794,-1.23896c0.28822,-1.76177 1.94557,-2.51883 2.46945,0c0.24836,-1.52118 1.71238,-2.59362 2.40277,-0.2921zM598.18933,1064.95747c-0.26635,0.33937 -0.38382,0.69885 -0.44979,1.10173c-0.66322,-3.18876 -3.04165,-1.02517 -2.41794,1.23896l0.0702,0.00635c0.30762,-0.60678 0.94051,-2.24825 1.19944,-2.30823c0.01446,-0.0127 0.09737,0.01058 0.17004,0.06668c0.52423,0.35066 0.89359,1.60338 1.02976,2.24155c0.04304,-0.00388 0.02716,-0.00388 0.0702,0c0.30762,-0.60678 0.94051,-2.24825 1.19944,-2.30823c0.06985,-0.06244 0.33267,0.21273 0.39264,0.2854c0.4191,0.53128 0.66569,1.36031 0.8068,2.02248l0.0702,-0.00635c0.02328,-1.89265 -0.91546,-3.81882 -2.14101,-2.34033zM596.55597,1072.17424l0.0702,0.0067c0.30798,-0.60748 0.94051,-2.24861 1.19944,-2.30823c0.06985,-0.06244 0.33267,0.21273 0.39264,0.2854c0.4191,0.53164 0.66604,1.36066 0.8068,2.02248l0.0702,-0.0067c0.00635,-0.50906 -0.05398,-1.02235 -0.18768,-1.53035c-0.85231,-2.84233 -2.92488,-0.55069 -2.35162,1.5307zM600.20898,1055.29382c-0.51999,-2.49978 -2.17981,-1.76918 -2.46945,0c-0.52811,-2.5393 -2.18581,-1.73249 -2.46945,0c-0.66252,-3.18453 -3.04271,-1.0287 -2.41794,1.23896l0.0702,0.00635c0.30798,-0.60748 0.94051,-2.24861 1.19944,-2.30823c0.06985,-0.06244 0.33267,0.21273 0.39264,0.2854c0.4191,0.53128 0.66569,1.36066 0.8068,2.02248c0.04304,-0.00388 0.02716,-0.00388 0.0702,0c0.28998,-0.57185 0.94721,-2.25002 1.19944,-2.30823c0.06985,-0.06244 0.33267,0.21273 0.39264,0.2854c0.4191,0.53128 0.66569,1.36066 0.8068,2.02248c0.04304,-0.00388 0.02716,-0.00388 0.0702,0c0.30798,-0.60748 0.94051,-2.24861 1.19944,-2.30823c0.06985,-0.06244 0.33267,0.21273 0.39264,0.2854c0.4191,0.53128 0.66569,1.36066 0.8068,2.02248c0.04304,-0.00388 0.02716,-0.00388 0.0702,0c0.30798,-0.60748 0.94051,-2.24861 1.19944,-2.30823c0.01446,-0.0127 0.09737,0.01058 0.17004,0.06632c0.52529,0.35137 0.89429,1.6062 1.02976,2.24155l0.0702,-0.00635c0.00635,-0.50906 -0.05398,-1.02235 -0.18768,-1.53035c-0.68651,-2.28988 -2.15477,-1.22238 -2.40242,0.29281zM603.26757,1048.55012c-0.76623,-0.70697 -1.64677,0.30198 -1.82386,1.38465c-0.52282,-2.51284 -2.18193,-1.75825 -2.46945,0c-0.5274,-2.53471 -2.18899,-1.7145 -2.46945,0c-0.5274,-2.53471 -2.18899,-1.7145 -2.46945,0c-0.66322,-3.18876 -3.04165,-1.02517 -2.41794,1.23896l0.0702,0.0067c0.30798,-0.60748 0.94051,-2.24861 1.19944,-2.30823c0.06985,-0.06244 0.33267,0.21273 0.39264,0.2854c0.4191,0.53164 0.66604,1.36066 0.8068,2.02248c0.04304,-0.00388 0.02716,-0.00388 0.0702,0c0.30798,-0.60748 0.94051,-2.24861 1.19944,-2.30823c0.01446,-0.0127 0.09737,0.01058 0.17004,0.06632c0.52423,0.35066 0.89359,1.60338 1.02976,2.24155c0.04304,-0.00388 0.02716,-0.00388 0.0702,0c0.30798,-0.60748 0.94051,-2.24861 1.19944,-2.30823c0.06985,-0.06244 0.33267,0.21273 0.39264,0.2854c0.4191,0.53164 0.66604,1.36066 0.8068,2.02248c0.04304,-0.00388 0.02716,-0.00388 0.0702,0c0.30798,-0.60748 0.94051,-2.24861 1.19944,-2.30823c0.01446,-0.0127 0.09737,0.01058 0.17004,0.06632c0.52423,0.35066 0.89359,1.60338 1.02976,2.24155c0.04304,-0.00388 0.02716,-0.00388 0.0702,0c0.30798,-0.60748 0.94051,-2.24861 1.19944,-2.30823c0.0695,-0.06244 0.33267,0.21273 0.39264,0.2854c0.4191,0.53164 0.66604,1.36066 0.8068,2.02248l0.0702,-0.0067c0.01094,-0.81598 -0.17357,-2.06269 -0.76623,-2.62185zM603.91315,1043.98164c-0.514,-2.47015 -2.17523,-1.7974 -2.46945,0c-0.52705,-2.53365 -2.18616,-1.73038 -2.46945,0c-0.52211,-2.50966 -2.18264,-1.75366 -2.46945,0c-0.51435,-2.47227 -2.17558,-1.79529 -2.46945,0c-0.52211,-2.51037 -2.17981,-1.76953 -2.46945,0c-0.67204,-3.23145 -3.03354,-0.99519 -2.41794,1.23896l0.0702,0.0067c0.32667,-0.64453 0.93768,-2.2479 1.19944,-2.30823c0.01446,-0.0127 0.09737,0.01058 0.17004,0.06632c0.52529,0.35137 0.89676,1.61819 1.02976,2.24155c0.04304,-0.00388 0.02716,-0.00388 0.0702,0c0.28998,-0.5715 0.94721,-2.25002 1.19944,-2.30823c0.06985,-0.06244 0.33267,0.21273 0.39264,0.2854c0.4191,0.53164 0.66604,1.36066 0.8068,2.02248c0.04304,-0.00388 0.02716,-0.00388 0.0702,0c0.30798,-0.60748 0.94051,-2.24861 1.19944,-2.30823c0.06985,-0.06244 0.33267,0.21273 0.39264,0.2854c0.4191,0.53164 0.66604,1.36066 0.8068,2.02248c0.04304,-0.00388 0.02716,-0.00388 0.0702,0c0.32667,-0.64453 0.93768,-2.2479 1.19944,-2.30823c0.06985,-0.06244 0.33267,0.21273 0.39264,0.2854c0.4191,0.53164 0.66604,1.36066 0.8068,2.02248c0.04304,-0.00388 0.02716,-0.00388 0.0702,0c0.30798,-0.60748 0.94051,-2.24861 1.19944,-2.30823c0.06985,-0.06244 0.33267,0.21273 0.39264,0.2854c0.4191,0.53164 0.66604,1.36066 0.8068,2.02248c0.04304,-0.00388 0.02716,-0.00388 0.0702,0c0.30798,-0.60748 0.94051,-2.24861 1.19944,-2.30823c0.0695,-0.06244 0.33267,0.21273 0.39264,0.2854c0.4191,0.53164 0.66604,1.36066 0.8068,2.02248c0.04304,-0.00388 0.02716,-0.00388 0.0702,0c0.30798,-0.60748 0.94051,-2.24861 1.19944,-2.30823c0.01446,-0.0127 0.09737,0.01058 0.17004,0.06632c0.52423,0.35066 0.89359,1.60338 1.02976,2.24155l0.0702,-0.0067c0.00635,-0.50906 -0.05398,-1.02235 -0.18768,-1.53035c-0.69321,-2.31387 -2.15653,-1.20474 -2.40171,0.29386zM605.14787,1036.8393c-0.52529,-2.52554 -2.18299,-1.75013 -2.46945,0c-0.54046,-2.5975 -2.19816,-1.65735 -2.46945,0c-0.508,-2.44193 -2.16288,-1.87466 -2.46945,0c-0.52881,-2.54282 -2.18652,-1.72896 -2.46945,0c-0.52952,-2.54529 -2.18687,-1.72685 -2.46945,0c-0.52211,-2.50896 -2.18087,-1.76389 -2.46945,0c-0.66816,-3.21204 -3.03742,-1.0093 -2.41794,1.23896l0.0702,0.00635c0.29104,-0.57362 0.94686,-2.24966 1.19944,-2.30823c0.06985,-0.06244 0.33302,0.21308 0.39264,0.2854c0.4191,0.53128 0.66569,1.36031 0.8068,2.02248c0.04304,-0.00388 0.02716,-0.00388 0.0702,0c0.30762,-0.60678 0.94051,-2.24825 1.19944,-2.30823c0.01446,-0.0127 0.09737,0.01058 0.17004,0.06668c0.52529,0.35137 0.89676,1.61819 1.02976,2.24155c0.04304,-0.00388 0.02716,-0.00388 0.0702,0c0.29104,-0.57362 0.94686,-2.24966 1.19944,-2.30823c0.06985,-0.06244 0.33302,0.21308 0.39264,0.2854c0.4191,0.53128 0.66569,1.36031 0.8068,2.02248c0.04304,-0.00388 0.02716,-0.00388 0.0702,0c0.29104,-0.57362 0.94686,-2.24966 1.19944,-2.30823c0.06985,-0.06244 0.33302,0.21308 0.39264,0.2854c0.4191,0.53128 0.66569,1.36031 0.8068,2.02248c0.04304,-0.00388 0.02716,-0.00388 0.0702,0c0.30762,-0.60678 0.94051,-2.24825 1.19944,-2.30823c0.06985,-0.06244 0.33302,0.21308 0.39264,0.2854c0.4191,0.53128 0.66569,1.36031 0.8068,2.02248c0.04304,-0.00388 0.02716,-0.00388 0.0702,0c0.30762,-0.60678 0.94051,-2.24825 1.19944,-2.30823c0.01446,-0.0127 0.09737,0.01058 0.17004,0.06668c0.52529,0.35137 0.89676,1.61819 1.02976,2.24155c0.04304,-0.00388 0.02716,-0.00388 0.0702,0c0.29104,-0.57362 0.94686,-2.24966 1.19944,-2.30823c0.06985,-0.06244 0.33302,0.21308 0.39264,0.2854c0.4191,0.53128 0.66569,1.36066 0.8068,2.02248c0.04304,-0.00388 0.02716,-0.00388 0.0702,0c0.30762,-0.60678 0.94051,-2.24825 1.19944,-2.30823c0.06985,-0.06244 0.33302,0.21308 0.39264,0.2854c0.4191,0.53128 0.66569,1.36066 0.8068,2.02248l0.0702,-0.00635c0.00635,-0.50906 -0.05398,-1.02235 -0.18768,-1.53035c-0.69286,-2.31387 -2.15618,-1.20509 -2.40136,0.29351zM585.44346,1029.96296l0.0702,0.0067c0.30798,-0.60748 0.94051,-2.24861 1.19944,-2.30823c0.06985,-0.06244 0.33267,0.21273 0.39264,0.2854c0.4191,0.53164 0.66604,1.36066 0.8068,2.02248c0.04304,-0.00388 0.02716,-0.00388 0.0702,0c0.30798,-0.60748 0.94051,-2.24861 1.19944,-2.30823c0.06985,-0.06244 0.33267,0.21273 0.39264,0.2854c0.4191,0.53164 0.66604,1.36066 0.8068,2.02248c0.04304,-0.00388 0.02716,-0.00388 0.0702,0c0.30798,-0.60748 0.94051,-2.24861 1.19944,-2.30823c0.01446,-0.0127 0.09737,0.01058 0.17004,0.06632c0.52423,0.35066 0.89359,1.60338 1.02976,2.24155c0.04304,-0.00388 0.02716,-0.00388 0.0702,0c0.30798,-0.60748 0.94051,-2.24861 1.19944,-2.30823c0.06985,-0.06244 0.33267,0.21273 0.39264,0.2854c0.4191,0.53164 0.66604,1.36066 0.8068,2.02248c0.04304,-0.00388 0.02716,-0.00388 0.0702,0c0.30798,-0.60748 0.94051,-2.24861 1.19944,-2.30823c0.06985,-0.06244 0.33267,0.21273 0.39264,0.2854c0.4191,0.53164 0.66604,1.36066 0.8068,2.02248c0.04304,-0.00388 0.02716,-0.00388 0.0702,0c0.30798,-0.60748 0.94051,-2.24861 1.19944,-2.30823c0.06985,-0.06244 0.33267,0.21273 0.39264,0.2854c0.4191,0.53164 0.66604,1.36066 0.8068,2.02248c0.04304,-0.00388 0.02716,-0.00388 0.0702,0c0.30798,-0.60748 0.94051,-2.24861 1.19944,-2.30823c0.0695,-0.06244 0.33267,0.21273 0.39264,0.2854c0.4191,0.53164 0.66569,1.36066 0.8068,2.02248c0.04304,-0.00388 0.02716,-0.00388 0.0702,0c0.30798,-0.60748 0.94051,-2.24861 1.19944,-2.30823c0.0695,-0.06244 0.33267,0.21273 0.39264,0.2854c0.4191,0.53164 0.66569,1.36066 0.8068,2.02248c0.04304,-0.00388 0.02716,-0.00388 0.0702,0c0.32667,-0.64453 0.93768,-2.2479 1.19944,-2.30823c0.0695,-0.06244 0.33267,0.21273 0.39264,0.2854c0.4191,0.53164 0.66569,1.36066 0.8068,2.02248c0.04304,-0.00388 0.02716,-0.00388 0.0702,0c0.30798,-0.60748 0.94051,-2.24861 1.19944,-2.30823c0.0695,-0.06244 0.33267,0.21273 0.39264,0.2854c0.4191,0.53164 0.66569,1.36066 0.8068,2.02248l0.0702,-0.0067c0.00635,-0.50906 -0.05398,-1.02235 -0.18768,-1.53035c-0.69533,-2.31775 -2.15794,-1.20826 -2.40348,0.29139c-0.51753,-2.48744 -2.17593,-1.79352 -2.46945,0c-0.5274,-2.53471 -2.18899,-1.7145 -2.46945,0c-0.5274,-2.53471 -2.18899,-1.71415 -2.46945,0c-0.53834,-2.58798 -2.19604,-1.67076 -2.46945,0c-0.5274,-2.53471 -2.18899,-1.7145 -2.46945,0c-0.51188,-2.45992 -2.17311,-1.81151 -2.46945,0c-0.5274,-2.53471 -2.18899,-1.7145 -2.46945,0c-0.51611,-2.48073 -2.17664,-1.78894 -2.46945,0c-0.66005,-3.18488 -3.03848,-1.02129 -2.41476,1.24248z" id="9f88664e-491b-40d4-ba6e-e475123d6223"/><path d="M557.45756,1042.60162c-0.52388,2.51883 -2.18123,1.76177 -2.46945,0c-0.66604,3.20146 -3.03777,1.01106 -2.41794,-1.23896l0.0702,-0.00635c0.29069,0.57397 0.9465,2.25002 1.19944,2.30823c0.06985,0.06244 0.33302,-0.21273 0.39264,-0.2854c0.41875,-0.53093 0.66569,-1.36031 0.8068,-2.02248c0.04304,0.00388 0.02716,0.00388 0.0702,0c0.29069,0.57397 0.9465,2.25002 1.19944,2.30823c0.06985,0.06244 0.33302,-0.21273 0.39264,-0.2854c0.41875,-0.53093 0.66569,-1.36031 0.8068,-2.02248c0.04304,0.00388 0.02716,0.00388 0.0702,0c0.29069,0.57397 0.9465,2.25002 1.19944,2.30823c0.01446,0.0127 0.09737,-0.01094 0.17004,-0.06668c0.52458,-0.35066 0.89359,-1.60338 1.02976,-2.24155l0.0702,0.00635c0.00635,0.50941 -0.05398,1.02235 -0.18768,1.53035c-0.69039,2.30152 -2.15441,1.22908 -2.40277,-0.2921zM558.81328,1035.98104l-0.0702,-0.00635c-0.14111,0.66216 -0.3877,1.49119 -0.8068,2.02248c-0.05997,0.07267 -0.32279,0.34784 -0.39264,0.2854c-0.25894,-0.05997 -0.89182,-1.70145 -1.19944,-2.30823c-0.04304,0.00388 -0.02716,0.00388 -0.0702,0c-0.13617,0.63818 -0.50553,1.89089 -1.02976,2.24155c-0.07267,0.05609 -0.15558,0.07938 -0.17004,0.06668c-0.25894,-0.05997 -0.89182,-1.70145 -1.19944,-2.30823l-0.0702,0.00635c-0.62371,2.26413 1.75472,4.42772 2.41794,1.23896c0.06597,0.40287 0.18344,0.76235 0.44979,1.10173c1.22555,1.47849 2.16429,-0.44768 2.14101,-2.34033zM557.39053,1032.63529c0.1337,-0.508 0.19403,-1.02129 0.18768,-1.53035l-0.0702,-0.0067c-0.14076,0.66181 -0.3877,1.49084 -0.8068,2.02248c-0.05997,0.07267 -0.32279,0.34784 -0.39264,0.2854c-0.25894,-0.05962 -0.89147,-1.70074 -1.19944,-2.30823l-0.0702,0.0067c-0.57326,2.08139 1.49931,4.37303 2.35162,1.5307zM561.09435,1048.27747c0.1337,-0.508 0.19403,-1.02129 0.18768,-1.53035l-0.0702,-0.00635c-0.13547,0.63535 -0.50447,1.89018 -1.02976,2.24155c-0.07267,0.05574 -0.15558,0.07902 -0.17004,0.06632c-0.25894,-0.05962 -0.89147,-1.70074 -1.19944,-2.30823c-0.04304,0.00388 -0.02716,0.00388 -0.0702,0c-0.14111,0.66181 -0.3877,1.49119 -0.8068,2.02248c-0.05997,0.07267 -0.32279,0.34784 -0.39264,0.2854c-0.25894,-0.05962 -0.89147,-1.70074 -1.19944,-2.30823c-0.04304,0.00388 -0.02716,0.00388 -0.0702,0c-0.14111,0.66181 -0.3877,1.49119 -0.8068,2.02248c-0.05997,0.07267 -0.32279,0.34784 -0.39264,0.2854c-0.25224,-0.05821 -0.90946,-1.73637 -1.19944,-2.30823c-0.04304,0.00388 -0.02716,0.00388 -0.0702,0c-0.14111,0.66181 -0.3877,1.49119 -0.8068,2.02248c-0.05997,0.07267 -0.32279,0.34784 -0.39264,0.2854c-0.25894,-0.05962 -0.89147,-1.70074 -1.19944,-2.30823l-0.0702,0.00635c-0.62477,2.26766 1.75542,4.42348 2.41794,1.23896c0.28363,1.73249 1.94134,2.5393 2.46945,0c0.28963,1.76918 1.94945,2.49978 2.46945,0c0.24765,1.51553 1.71591,2.58304 2.40242,0.29281zM562.51675,1052.10652l-0.0702,-0.0067c-0.14076,0.66181 -0.3877,1.49084 -0.8068,2.02248c-0.05997,0.07267 -0.32314,0.34784 -0.39264,0.2854c-0.25894,-0.05962 -0.89147,-1.70074 -1.19944,-2.30823c-0.04304,0.00388 -0.02716,0.00388 -0.0702,0c-0.13617,0.63818 -0.50553,1.89089 -1.02976,2.24155c-0.07267,0.05574 -0.15558,0.07902 -0.17004,0.06632c-0.25894,-0.05962 -0.89147,-1.70074 -1.19944,-2.30823c-0.04304,0.00388 -0.02716,0.00388 -0.0702,0c-0.14076,0.66181 -0.3877,1.49084 -0.8068,2.02248c-0.05997,0.07267 -0.32279,0.34784 -0.39264,0.2854c-0.25894,-0.05962 -0.89147,-1.70074 -1.19944,-2.30823c-0.04304,0.00388 -0.02716,0.00388 -0.0702,0c-0.13617,0.63818 -0.50553,1.89089 -1.02976,2.24155c-0.07267,0.05574 -0.15558,0.07902 -0.17004,0.06632c-0.25894,-0.05962 -0.89147,-1.70074 -1.19944,-2.30823c-0.04304,0.00388 -0.02716,0.00388 -0.0702,0c-0.14076,0.66181 -0.3877,1.49084 -0.8068,2.02248c-0.05997,0.07267 -0.32279,0.34784 -0.39264,0.2854c-0.25894,-0.05962 -0.89147,-1.70074 -1.19944,-2.30823l-0.0702,0.0067c-0.62371,2.26413 1.75472,4.42772 2.41794,1.23896c0.28046,1.7145 1.94204,2.53471 2.46945,0c0.28046,1.7145 1.94204,2.53471 2.46945,0c0.28751,1.75825 1.94663,2.51284 2.46945,0c0.17709,1.08268 1.05763,2.09162 1.82386,1.38465c0.59267,-0.5588 0.77717,-1.80552 0.76623,-2.62185zM564.79781,1059.5907c0.1337,-0.508 0.19403,-1.02129 0.18768,-1.53035l-0.0702,-0.0067c-0.13617,0.63818 -0.50553,1.89089 -1.02976,2.24155c-0.07267,0.05574 -0.15558,0.07902 -0.17004,0.06632c-0.25894,-0.05962 -0.89147,-1.70074 -1.19944,-2.30823c-0.04304,0.00388 -0.02716,0.00388 -0.0702,0c-0.14076,0.66181 -0.3877,1.49084 -0.8068,2.02248c-0.05997,0.07267 -0.32314,0.34784 -0.39264,0.2854c-0.25894,-0.05962 -0.89147,-1.70074 -1.19944,-2.30823c-0.04304,0.00388 -0.02716,0.00388 -0.0702,0c-0.14076,0.66181 -0.3877,1.49084 -0.8068,2.02248c-0.05997,0.07267 -0.32279,0.34784 -0.39264,0.2854c-0.25894,-0.05962 -0.89147,-1.70074 -1.19944,-2.30823c-0.04304,0.00388 -0.02716,0.00388 -0.0702,0c-0.14076,0.66181 -0.3877,1.49084 -0.8068,2.02248c-0.05997,0.07267 -0.32279,0.34784 -0.39264,0.2854c-0.26176,-0.06033 -0.87277,-1.6637 -1.19944,-2.30823c-0.04304,0.00388 -0.02716,0.00388 -0.0702,0c-0.14076,0.66181 -0.3877,1.49084 -0.8068,2.02248c-0.05997,0.07267 -0.32279,0.34784 -0.39264,0.2854c-0.25894,-0.05962 -0.89147,-1.70074 -1.19944,-2.30823c-0.04304,0.00388 -0.02716,0.00388 -0.0702,0c-0.14076,0.66181 -0.3877,1.49084 -0.8068,2.02248c-0.05997,0.07267 -0.32279,0.34784 -0.39264,0.2854c-0.25224,-0.05821 -0.90946,-1.73673 -1.19944,-2.30823c-0.04304,0.00388 -0.02716,0.00388 -0.0702,0c-0.133,0.62336 -0.50447,1.89018 -1.02976,2.24155c-0.07267,0.05574 -0.15558,0.07902 -0.17004,0.06632c-0.26176,-0.06033 -0.87277,-1.6637 -1.19944,-2.30823l-0.0702,0.0067c-0.6156,2.23414 1.7459,4.4704 2.41794,1.23896c0.28963,1.76953 1.94733,2.51037 2.46945,0c0.29386,1.79529 1.9551,2.47227 2.46945,0c0.28681,1.75366 1.94733,2.50966 2.46945,0c0.28328,1.73038 1.9424,2.53365 2.46945,0c0.29422,1.7974 1.95545,2.47015 2.46945,0c0.24518,1.49895 1.7085,2.60809 2.40171,0.29386zM566.03218,1066.73269c0.1337,-0.508 0.19403,-1.02129 0.18768,-1.53035l-0.0702,-0.00635c-0.14111,0.66181 -0.3877,1.49119 -0.8068,2.02248c-0.05962,0.07232 -0.32279,0.34784 -0.39264,0.2854c-0.25894,-0.05997 -0.89182,-1.70145 -1.19944,-2.30823c-0.04304,0.00388 -0.02716,0.00388 -0.0702,0c-0.14111,0.66181 -0.3877,1.49119 -0.8068,2.02248c-0.05962,0.07232 -0.32279,0.34784 -0.39264,0.2854c-0.25259,-0.05856 -0.9084,-1.73461 -1.19944,-2.30823c-0.04304,0.00388 -0.02716,0.00388 -0.0702,0c-0.133,0.62336 -0.50447,1.89018 -1.02976,2.24155c-0.07267,0.05609 -0.15558,0.07938 -0.17004,0.06668c-0.25894,-0.05997 -0.89182,-1.70145 -1.19944,-2.30823c-0.04304,0.00388 -0.02716,0.00388 -0.0702,0c-0.14111,0.66216 -0.3877,1.49119 -0.8068,2.02248c-0.05962,0.07232 -0.32279,0.34784 -0.39264,0.2854c-0.25894,-0.05997 -0.89182,-1.70145 -1.19944,-2.30823c-0.04304,0.00388 -0.02716,0.00388 -0.0702,0c-0.14111,0.66216 -0.3877,1.49119 -0.8068,2.02248c-0.05962,0.07232 -0.32279,0.34784 -0.39264,0.2854c-0.25259,-0.05856 -0.9084,-1.73461 -1.19944,-2.30823c-0.04304,0.00388 -0.02716,0.00388 -0.0702,0c-0.14111,0.66216 -0.3877,1.49119 -0.8068,2.02248c-0.05962,0.07232 -0.32279,0.34784 -0.39264,0.2854c-0.25259,-0.05856 -0.9084,-1.73461 -1.19944,-2.30823c-0.04304,0.00388 -0.02716,0.00388 -0.0702,0c-0.133,0.62336 -0.50447,1.89018 -1.02976,2.24155c-0.07267,0.05609 -0.15558,0.07938 -0.17004,0.06668c-0.25894,-0.05997 -0.89182,-1.70145 -1.19944,-2.30823c-0.04304,0.00388 -0.02716,0.00388 -0.0702,0c-0.14111,0.66216 -0.3877,1.49119 -0.8068,2.02248c-0.05962,0.07232 -0.32279,0.34784 -0.39264,0.2854c-0.25259,-0.05856 -0.9084,-1.73461 -1.19944,-2.30823l-0.0702,0.00635c-0.61948,2.24825 1.74978,4.451 2.41794,1.23896c0.28857,1.76389 1.94733,2.50896 2.46945,0c0.28258,1.72685 1.93993,2.54529 2.46945,0c0.28293,1.72896 1.94063,2.54282 2.46945,0c0.30656,1.87466 1.96145,2.44193 2.46945,0c0.27129,1.65735 1.92899,2.5975 2.46945,0c0.28646,1.75013 1.94416,2.52554 2.46945,0c0.24518,1.49895 1.7085,2.60773 2.40136,0.29351zM546.34117,1074.55801c0.29281,1.78894 1.95333,2.48073 2.46945,0c0.28046,1.7145 1.94204,2.53471 2.46945,0c0.29633,1.81151 1.95756,2.45992 2.46945,0c0.28046,1.7145 1.94204,2.53471 2.46945,0c0.2734,1.67076 1.93111,2.58798 2.46945,0c0.28046,1.71415 1.94204,2.53471 2.46945,0c0.28046,1.7145 1.94204,2.53471 2.46945,0c0.29351,1.79352 1.95192,2.48744 2.46945,0c0.24553,1.49966 1.70815,2.60915 2.40348,0.29139c0.1337,-0.508 0.19403,-1.02129 0.18768,-1.53035l-0.0702,-0.0067c-0.14111,0.66181 -0.3877,1.49084 -0.8068,2.02248c-0.05997,0.07267 -0.32314,0.34784 -0.39264,0.2854c-0.25894,-0.05962 -0.89147,-1.70074 -1.19944,-2.30823c-0.04304,0.00388 -0.02716,0.00388 -0.0702,0c-0.14111,0.66181 -0.3877,1.49084 -0.8068,2.02248c-0.05997,0.07267 -0.32314,0.34784 -0.39264,0.2854c-0.26176,-0.06033 -0.87277,-1.6637 -1.19944,-2.30823c-0.04304,0.00388 -0.02716,0.00388 -0.0702,0c-0.14111,0.66181 -0.3877,1.49084 -0.8068,2.02248c-0.05997,0.07267 -0.32314,0.34784 -0.39264,0.2854c-0.25894,-0.05962 -0.89147,-1.70074 -1.19944,-2.30823c-0.04304,0.00388 -0.02716,0.00388 -0.0702,0c-0.14111,0.66181 -0.3877,1.49084 -0.8068,2.02248c-0.05997,0.07267 -0.32314,0.34784 -0.39264,0.2854c-0.25894,-0.05962 -0.89147,-1.70074 -1.19944,-2.30823c-0.04304,0.00388 -0.02716,0.00388 -0.0702,0c-0.14076,0.66181 -0.3877,1.49084 -0.8068,2.02248c-0.05997,0.07267 -0.32279,0.34784 -0.39264,0.2854c-0.25894,-0.05962 -0.89147,-1.70074 -1.19944,-2.30823c-0.04304,0.00388 -0.02716,0.00388 -0.0702,0c-0.14076,0.66181 -0.3877,1.49084 -0.8068,2.02248c-0.05997,0.07267 -0.32279,0.34784 -0.39264,0.2854c-0.25894,-0.05962 -0.89147,-1.70074 -1.19944,-2.30823c-0.04304,0.00388 -0.02716,0.00388 -0.0702,0c-0.14076,0.66181 -0.3877,1.49084 -0.8068,2.02248c-0.05997,0.07267 -0.32279,0.34784 -0.39264,0.2854c-0.25894,-0.05962 -0.89147,-1.70074 -1.19944,-2.30823c-0.04304,0.00388 -0.02716,0.00388 -0.0702,0c-0.13617,0.63818 -0.50553,1.89089 -1.02976,2.24155c-0.07267,0.05574 -0.15558,0.07902 -0.17004,0.06632c-0.25894,-0.05962 -0.89147,-1.70074 -1.19944,-2.30823c-0.04304,0.00388 -0.02716,0.00388 -0.0702,0c-0.14076,0.66181 -0.3877,1.49084 -0.8068,2.02248c-0.05997,0.07267 -0.32279,0.34784 -0.39264,0.2854c-0.25894,-0.05962 -0.89147,-1.70074 -1.19944,-2.30823c-0.04304,0.00388 -0.02716,0.00388 -0.0702,0c-0.14076,0.66181 -0.3877,1.49084 -0.8068,2.02248c-0.05997,0.07267 -0.32279,0.34784 -0.39264,0.2854c-0.25894,-0.05962 -0.89147,-1.70074 -1.19944,-2.30823l-0.0702,0.0067c-0.62371,2.26413 1.75472,4.42772 2.41476,1.24248z" id="e929ca5a-5352-4012-be70-71ccf8db9b12"/><path d="M514.7468,1060.77174c0.1337,0.508 0.19403,1.02094 0.18768,1.53035l-0.0702,0.00635c-0.13617,-0.63818 -0.50518,-1.89089 -1.02976,-2.24155c-0.07267,-0.05574 -0.15558,-0.07938 -0.17004,-0.06668c-0.25294,0.05821 -0.90876,1.73426 -1.19944,2.30823c-0.04304,-0.00388 -0.02716,-0.00388 -0.0702,0c-0.14111,-0.66216 -0.38806,-1.49154 -0.8068,-2.02248c-0.05962,-0.07267 -0.32279,-0.34784 -0.39264,-0.2854c-0.25294,0.05821 -0.90876,1.73426 -1.19944,2.30823c-0.04304,-0.00388 -0.02716,-0.00388 -0.0702,0c-0.14111,-0.66216 -0.38806,-1.49154 -0.8068,-2.02248c-0.05962,-0.07267 -0.32279,-0.34784 -0.39264,-0.2854c-0.25294,0.05821 -0.90876,1.73426 -1.19944,2.30823l-0.0702,-0.00635c-0.61983,-2.25002 1.7519,-4.44042 2.41794,-1.23896c0.28822,-1.76177 1.94557,-2.51883 2.46945,0c0.24836,-1.52118 1.71238,-2.59362 2.40277,-0.2921zM511.55875,1065.3441c-0.26635,0.33937 -0.38382,0.69885 -0.44979,1.10173c-0.66322,-3.18876 -3.04165,-1.02517 -2.41794,1.23896l0.0702,0.00635c0.30762,-0.60678 0.94051,-2.24825 1.19944,-2.30823c0.01446,-0.0127 0.09737,0.01058 0.17004,0.06668c0.52423,0.35066 0.89359,1.60338 1.02976,2.24155c0.04304,-0.00388 0.02716,-0.00388 0.0702,0c0.30762,-0.60678 0.94051,-2.24825 1.19944,-2.30823c0.06985,-0.06244 0.33267,0.21273 0.39264,0.2854c0.4191,0.53128 0.66569,1.36031 0.8068,2.02248l0.0702,-0.00635c0.02328,-1.89265 -0.91546,-3.81882 -2.14101,-2.34033zM509.92539,1072.56088l0.0702,0.0067c0.30798,-0.60748 0.94051,-2.24861 1.19944,-2.30823c0.06985,-0.06244 0.33267,0.21273 0.39264,0.2854c0.4191,0.53164 0.66604,1.36066 0.8068,2.02248l0.0702,-0.0067c0.00635,-0.50906 -0.05398,-1.02235 -0.18768,-1.53035c-0.85231,-2.84233 -2.92488,-0.55069 -2.35162,1.5307zM513.5784,1055.68045c-0.51999,-2.49978 -2.17981,-1.76918 -2.46945,0c-0.52811,-2.5393 -2.18581,-1.73249 -2.46945,0c-0.66252,-3.18453 -3.04271,-1.0287 -2.41794,1.23896l0.0702,0.00635c0.30798,-0.60748 0.94051,-2.24861 1.19944,-2.30823c0.06985,-0.06244 0.33267,0.21273 0.39264,0.2854c0.4191,0.53128 0.66569,1.36066 0.8068,2.02248c0.04304,-0.00388 0.02716,-0.00388 0.0702,0c0.28998,-0.57185 0.94721,-2.25002 1.19944,-2.30823c0.06985,-0.06244 0.33267,0.21273 0.39264,0.2854c0.4191,0.53128 0.66569,1.36066 0.8068,2.02248c0.04304,-0.00388 0.02716,-0.00388 0.0702,0c0.30798,-0.60748 0.94051,-2.24861 1.19944,-2.30823c0.06985,-0.06244 0.33267,0.21273 0.39264,0.2854c0.4191,0.53128 0.66569,1.36066 0.8068,2.02248c0.04304,-0.00388 0.02716,-0.00388 0.0702,0c0.30798,-0.60748 0.94051,-2.24861 1.19944,-2.30823c0.01446,-0.0127 0.09737,0.01058 0.17004,0.06632c0.52529,0.35137 0.89429,1.6062 1.02976,2.24155l0.0702,-0.00635c0.00635,-0.50906 -0.05398,-1.02235 -0.18768,-1.53035c-0.68651,-2.28988 -2.15477,-1.22238 -2.40242,0.29281zM516.63698,1048.93675c-0.76623,-0.70697 -1.64677,0.30198 -1.82386,1.38465c-0.52282,-2.51284 -2.18193,-1.75825 -2.46945,0c-0.5274,-2.53471 -2.18899,-1.7145 -2.46945,0c-0.5274,-2.53471 -2.18899,-1.7145 -2.46945,0c-0.66322,-3.18876 -3.04165,-1.02517 -2.41794,1.23896l0.0702,0.0067c0.30798,-0.60748 0.94051,-2.24861 1.19944,-2.30823c0.06985,-0.06244 0.33267,0.21273 0.39264,0.2854c0.4191,0.53164 0.66604,1.36066 0.8068,2.02248c0.04304,-0.00388 0.02716,-0.00388 0.0702,0c0.30798,-0.60748 0.94051,-2.24861 1.19944,-2.30823c0.01446,-0.0127 0.09737,0.01058 0.17004,0.06632c0.52423,0.35066 0.89359,1.60338 1.02976,2.24155c0.04304,-0.00388 0.02716,-0.00388 0.0702,0c0.30798,-0.60748 0.94051,-2.24861 1.19944,-2.30823c0.06985,-0.06244 0.33267,0.21273 0.39264,0.2854c0.4191,0.53164 0.66604,1.36066 0.8068,2.02248c0.04304,-0.00388 0.02716,-0.00388 0.0702,0c0.30798,-0.60748 0.94051,-2.24861 1.19944,-2.30823c0.01446,-0.0127 0.09737,0.01058 0.17004,0.06632c0.52423,0.35066 0.89359,1.60338 1.02976,2.24155c0.04304,-0.00388 0.02716,-0.00388 0.0702,0c0.30798,-0.60748 0.94051,-2.24861 1.19944,-2.30823c0.0695,-0.06244 0.33267,0.21273 0.39264,0.2854c0.4191,0.53164 0.66604,1.36066 0.8068,2.02248l0.0702,-0.0067c0.01094,-0.81598 -0.17357,-2.06269 -0.76623,-2.62185zM517.28257,1044.36828c-0.514,-2.47015 -2.17523,-1.7974 -2.46945,0c-0.52705,-2.53365 -2.18616,-1.73038 -2.46945,0c-0.52211,-2.50966 -2.18264,-1.75366 -2.46945,0c-0.51435,-2.47227 -2.17558,-1.79529 -2.46945,0c-0.52211,-2.51037 -2.17981,-1.76953 -2.46945,0c-0.67204,-3.23145 -3.03354,-0.99519 -2.41794,1.23896l0.0702,0.0067c0.32667,-0.64453 0.93768,-2.2479 1.19944,-2.30823c0.01446,-0.0127 0.09737,0.01058 0.17004,0.06632c0.52529,0.35137 0.89676,1.61819 1.02976,2.24155c0.04304,-0.00388 0.02716,-0.00388 0.0702,0c0.28998,-0.5715 0.94721,-2.25002 1.19944,-2.30823c0.06985,-0.06244 0.33267,0.21273 0.39264,0.2854c0.4191,0.53164 0.66604,1.36066 0.8068,2.02248c0.04304,-0.00388 0.02716,-0.00388 0.0702,0c0.30798,-0.60748 0.94051,-2.24861 1.19944,-2.30823c0.06985,-0.06244 0.33267,0.21273 0.39264,0.2854c0.4191,0.53164 0.66604,1.36066 0.8068,2.02248c0.04304,-0.00388 0.02716,-0.00388 0.0702,0c0.32667,-0.64453 0.93768,-2.2479 1.19944,-2.30823c0.06985,-0.06244 0.33267,0.21273 0.39264,0.2854c0.4191,0.53164 0.66604,1.36066 0.8068,2.02248c0.04304,-0.00388 0.02716,-0.00388 0.0702,0c0.30798,-0.60748 0.94051,-2.24861 1.19944,-2.30823c0.06985,-0.06244 0.33267,0.21273 0.39264,0.2854c0.4191,0.53164 0.66604,1.36066 0.8068,2.02248c0.04304,-0.00388 0.02716,-0.00388 0.0702,0c0.30798,-0.60748 0.94051,-2.24861 1.19944,-2.30823c0.0695,-0.06244 0.33267,0.21273 0.39264,0.2854c0.4191,0.53164 0.66604,1.36066 0.8068,2.02248c0.04304,-0.00388 0.02716,-0.00388 0.0702,0c0.30798,-0.60748 0.94051,-2.24861 1.19944,-2.30823c0.01446,-0.0127 0.09737,0.01058 0.17004,0.06632c0.52423,0.35066 0.89359,1.60338 1.02976,2.24155l0.0702,-0.0067c0.00635,-0.50906 -0.05398,-1.02235 -0.18768,-1.53035c-0.69321,-2.31387 -2.15653,-1.20474 -2.40171,0.29386zM518.51729,1037.22593c-0.52529,-2.52554 -2.18299,-1.75013 -2.46945,0c-0.54046,-2.5975 -2.19816,-1.65735 -2.46945,0c-0.508,-2.44193 -2.16288,-1.87466 -2.46945,0c-0.52881,-2.54282 -2.18652,-1.72896 -2.46945,0c-0.52952,-2.54529 -2.18687,-1.72685 -2.46945,0c-0.52211,-2.50896 -2.18087,-1.76389 -2.46945,0c-0.66816,-3.21204 -3.03742,-1.0093 -2.41794,1.23896l0.0702,0.00635c0.29104,-0.57362 0.94686,-2.24966 1.19944,-2.30823c0.06985,-0.06244 0.33302,0.21308 0.39264,0.2854c0.4191,0.53128 0.66569,1.36031 0.8068,2.02248c0.04304,-0.00388 0.02716,-0.00388 0.0702,0c0.30762,-0.60678 0.94051,-2.24825 1.19944,-2.30823c0.01446,-0.0127 0.09737,0.01058 0.17004,0.06668c0.52529,0.35137 0.89676,1.61819 1.02976,2.24155c0.04304,-0.00388 0.02716,-0.00388 0.0702,0c0.29104,-0.57362 0.94686,-2.24966 1.19944,-2.30823c0.06985,-0.06244 0.33302,0.21308 0.39264,0.2854c0.4191,0.53128 0.66569,1.36031 0.8068,2.02248c0.04304,-0.00388 0.02716,-0.00388 0.0702,0c0.29104,-0.57362 0.94686,-2.24966 1.19944,-2.30823c0.06985,-0.06244 0.33302,0.21308 0.39264,0.2854c0.4191,0.53128 0.66569,1.36031 0.8068,2.02248c0.04304,-0.00388 0.02716,-0.00388 0.0702,0c0.30762,-0.60678 0.94051,-2.24825 1.19944,-2.30823c0.06985,-0.06244 0.33302,0.21308 0.39264,0.2854c0.4191,0.53128 0.66569,1.36031 0.8068,2.02248c0.04304,-0.00388 0.02716,-0.00388 0.0702,0c0.30762,-0.60678 0.94051,-2.24825 1.19944,-2.30823c0.01446,-0.0127 0.09737,0.01058 0.17004,0.06668c0.52529,0.35137 0.89676,1.61819 1.02976,2.24155c0.04304,-0.00388 0.02716,-0.00388 0.0702,0c0.29104,-0.57362 0.94686,-2.24966 1.19944,-2.30823c0.06985,-0.06244 0.33302,0.21308 0.39264,0.2854c0.4191,0.53128 0.66569,1.36066 0.8068,2.02248c0.04304,-0.00388 0.02716,-0.00388 0.0702,0c0.30762,-0.60678 0.94051,-2.24825 1.19944,-2.30823c0.06985,-0.06244 0.33302,0.21308 0.39264,0.2854c0.4191,0.53128 0.66569,1.36066 0.8068,2.02248l0.0702,-0.00635c0.00635,-0.50906 -0.05398,-1.02235 -0.18768,-1.53035c-0.69286,-2.31387 -2.15618,-1.20509 -2.40136,0.29351zM498.81288,1030.34959l0.0702,0.0067c0.30798,-0.60748 0.94051,-2.24861 1.19944,-2.30823c0.06985,-0.06244 0.33267,0.21273 0.39264,0.2854c0.4191,0.53164 0.66604,1.36066 0.8068,2.02248c0.04304,-0.00388 0.02716,-0.00388 0.0702,0c0.30798,-0.60748 0.94051,-2.24861 1.19944,-2.30823c0.06985,-0.06244 0.33267,0.21273 0.39264,0.2854c0.4191,0.53164 0.66604,1.36066 0.8068,2.02248c0.04304,-0.00388 0.02716,-0.00388 0.0702,0c0.30798,-0.60748 0.94051,-2.24861 1.19944,-2.30823c0.01446,-0.0127 0.09737,0.01058 0.17004,0.06632c0.52423,0.35066 0.89359,1.60338 1.02976,2.24155c0.04304,-0.00388 0.02716,-0.00388 0.0702,0c0.30798,-0.60748 0.94051,-2.24861 1.19944,-2.30823c0.06985,-0.06244 0.33267,0.21273 0.39264,0.2854c0.4191,0.53164 0.66604,1.36066 0.8068,2.02248c0.04304,-0.00388 0.02716,-0.00388 0.0702,0c0.30798,-0.60748 0.94051,-2.24861 1.19944,-2.30823c0.06985,-0.06244 0.33267,0.21273 0.39264,0.2854c0.4191,0.53164 0.66604,1.36066 0.8068,2.02248c0.04304,-0.00388 0.02716,-0.00388 0.0702,0c0.30798,-0.60748 0.94051,-2.24861 1.19944,-2.30823c0.06985,-0.06244 0.33267,0.21273 0.39264,0.2854c0.4191,0.53164 0.66604,1.36066 0.8068,2.02248c0.04304,-0.00388 0.02716,-0.00388 0.0702,0c0.30798,-0.60748 0.94051,-2.24861 1.19944,-2.30823c0.0695,-0.06244 0.33267,0.21273 0.39264,0.2854c0.4191,0.53164 0.66569,1.36066 0.8068,2.02248c0.04304,-0.00388 0.02716,-0.00388 0.0702,0c0.30798,-0.60748 0.94051,-2.24861 1.19944,-2.30823c0.0695,-0.06244 0.33267,0.21273 0.39264,0.2854c0.4191,0.53164 0.66569,1.36066 0.8068,2.02248c0.04304,-0.00388 0.02716,-0.00388 0.0702,0c0.32667,-0.64453 0.93768,-2.2479 1.19944,-2.30823c0.0695,-0.06244 0.33267,0.21273 0.39264,0.2854c0.4191,0.53164 0.66569,1.36066 0.8068,2.02248c0.04304,-0.00388 0.02716,-0.00388 0.0702,0c0.30798,-0.60748 0.94051,-2.24861 1.19944,-2.30823c0.0695,-0.06244 0.33267,0.21273 0.39264,0.2854c0.4191,0.53164 0.66569,1.36066 0.8068,2.02248l0.0702,-0.0067c0.00635,-0.50906 -0.05398,-1.02235 -0.18768,-1.53035c-0.69533,-2.31775 -2.15794,-1.20826 -2.40348,0.29139c-0.51753,-2.48744 -2.17593,-1.79352 -2.46945,0c-0.5274,-2.53471 -2.18899,-1.7145 -2.46945,0c-0.5274,-2.53471 -2.18899,-1.71415 -2.46945,0c-0.53834,-2.58798 -2.19604,-1.67076 -2.46945,0c-0.5274,-2.53471 -2.18899,-1.7145 -2.46945,0c-0.51188,-2.45992 -2.17311,-1.81151 -2.46945,0c-0.5274,-2.53471 -2.18899,-1.7145 -2.46945,0c-0.51611,-2.48073 -2.17664,-1.78894 -2.46945,0c-0.66005,-3.18488 -3.03848,-1.02129 -2.41476,1.24248z" id="be4a7e2c-315b-4dc4-a695-7ef0268987a1"/></g></g></g></svg>